%TF.GenerationSoftware,KiCad,Pcbnew,10.0.1*%
%TF.CreationDate,2026-06-20T13:48:00+02:00*%
%TF.ProjectId,DMH_Dual_VCA_Mk3_PCB_Controls,444d485f-4475-4616-9c5f-5643415f4d6b,1*%
%TF.SameCoordinates,Original*%
%TF.FileFunction,Drillmap*%
%TF.FilePolarity,Positive*%
%FSLAX45Y45*%
G04 Gerber Fmt 4.5, Leading zero omitted, Abs format (unit mm)*
G04 Created by KiCad (PCBNEW 10.0.1) date 2026-06-20 13:48:00*
%MOMM*%
%LPD*%
G01*
G04 APERTURE LIST*
%ADD10C,0.050000*%
%ADD11C,0.200000*%
%ADD12C,0.100000*%
%ADD13C,0.110000*%
%ADD14C,0.180000*%
G04 APERTURE END LIST*
D10*
X5050000Y-4250000D02*
X9950000Y-4250000D01*
X9950000Y-16350000D01*
X5050000Y-16350000D01*
X5050000Y-4250000D01*
D11*
D12*
X5452000Y-10810000D02*
X5532000Y-10890000D01*
X5532000Y-10810000D02*
X5452000Y-10890000D01*
X5452000Y-13610000D02*
X5532000Y-13690000D01*
X5532000Y-13610000D02*
X5452000Y-13690000D01*
X5456000Y-7360000D02*
X5536000Y-7440000D01*
X5536000Y-7360000D02*
X5456000Y-7440000D01*
X5456000Y-10210000D02*
X5536000Y-10290000D01*
X5536000Y-10210000D02*
X5456000Y-10290000D01*
X5706000Y-10810000D02*
X5786000Y-10890000D01*
X5786000Y-10810000D02*
X5706000Y-10890000D01*
X5706000Y-13610000D02*
X5786000Y-13690000D01*
X5786000Y-13610000D02*
X5706000Y-13690000D01*
X5710000Y-7360000D02*
X5790000Y-7440000D01*
X5790000Y-7360000D02*
X5710000Y-7440000D01*
X5710000Y-10210000D02*
X5790000Y-10290000D01*
X5790000Y-10210000D02*
X5710000Y-10290000D01*
X5960000Y-10810000D02*
X6040000Y-10890000D01*
X6040000Y-10810000D02*
X5960000Y-10890000D01*
X5960000Y-13610000D02*
X6040000Y-13690000D01*
X6040000Y-13610000D02*
X5960000Y-13690000D01*
X5964000Y-7360000D02*
X6044000Y-7440000D01*
X6044000Y-7360000D02*
X5964000Y-7440000D01*
X5964000Y-10210000D02*
X6044000Y-10290000D01*
X6044000Y-10210000D02*
X5964000Y-10290000D01*
X6710000Y-10004000D02*
X6790000Y-10084000D01*
X6790000Y-10004000D02*
X6710000Y-10084000D01*
X6710000Y-10766000D02*
X6790000Y-10846000D01*
X6790000Y-10766000D02*
X6710000Y-10846000D01*
X7010000Y-6654000D02*
X7090000Y-6734000D01*
X7090000Y-6654000D02*
X7010000Y-6734000D01*
X7010000Y-7416000D02*
X7090000Y-7496000D01*
X7090000Y-7416000D02*
X7010000Y-7496000D01*
X7010000Y-12954000D02*
X7090000Y-13034000D01*
X7090000Y-12954000D02*
X7010000Y-13034000D01*
X7010000Y-13716000D02*
X7090000Y-13796000D01*
X7090000Y-13716000D02*
X7010000Y-13796000D01*
X7029000Y-9748500D02*
X7109000Y-9828500D01*
X7109000Y-9748500D02*
X7029000Y-9828500D01*
X7029000Y-10002500D02*
X7109000Y-10082500D01*
X7109000Y-10002500D02*
X7029000Y-10082500D01*
X7029000Y-10256500D02*
X7109000Y-10336500D01*
X7109000Y-10256500D02*
X7029000Y-10336500D01*
X7029000Y-10510500D02*
X7109000Y-10590500D01*
X7109000Y-10510500D02*
X7029000Y-10590500D01*
X7029000Y-10764500D02*
X7109000Y-10844500D01*
X7109000Y-10764500D02*
X7029000Y-10844500D01*
X7029000Y-11018500D02*
X7109000Y-11098500D01*
X7109000Y-11018500D02*
X7029000Y-11098500D01*
X7029000Y-11272500D02*
X7109000Y-11352500D01*
X7109000Y-11272500D02*
X7029000Y-11352500D01*
X7160000Y-9410000D02*
X7240000Y-9490000D01*
X7240000Y-9410000D02*
X7160000Y-9490000D01*
X7160000Y-11610000D02*
X7240000Y-11690000D01*
X7240000Y-11610000D02*
X7160000Y-11690000D01*
X7585000Y-5179000D02*
X7665000Y-5259000D01*
X7665000Y-5179000D02*
X7585000Y-5259000D01*
X7585000Y-5941000D02*
X7665000Y-6021000D01*
X7665000Y-5941000D02*
X7585000Y-6021000D01*
X7585000Y-14479000D02*
X7665000Y-14559000D01*
X7665000Y-14479000D02*
X7585000Y-14559000D01*
X7585000Y-15241000D02*
X7665000Y-15321000D01*
X7665000Y-15241000D02*
X7585000Y-15321000D01*
X7660000Y-9410000D02*
X7740000Y-9490000D01*
X7740000Y-9410000D02*
X7660000Y-9490000D01*
X7660000Y-11610000D02*
X7740000Y-11690000D01*
X7740000Y-11610000D02*
X7660000Y-11690000D01*
X7760000Y-7304000D02*
X7840000Y-7384000D01*
X7840000Y-7304000D02*
X7760000Y-7384000D01*
X7760000Y-8066000D02*
X7840000Y-8146000D01*
X7840000Y-8066000D02*
X7760000Y-8146000D01*
X7760000Y-8279000D02*
X7840000Y-8359000D01*
X7840000Y-8279000D02*
X7760000Y-8359000D01*
X7760000Y-9041000D02*
X7840000Y-9121000D01*
X7840000Y-9041000D02*
X7760000Y-9121000D01*
X7791000Y-9748500D02*
X7871000Y-9828500D01*
X7871000Y-9748500D02*
X7791000Y-9828500D01*
X7791000Y-10002500D02*
X7871000Y-10082500D01*
X7871000Y-10002500D02*
X7791000Y-10082500D01*
X7791000Y-10256500D02*
X7871000Y-10336500D01*
X7871000Y-10256500D02*
X7791000Y-10336500D01*
X7791000Y-10510500D02*
X7871000Y-10590500D01*
X7871000Y-10510500D02*
X7791000Y-10590500D01*
X7791000Y-10764500D02*
X7871000Y-10844500D01*
X7871000Y-10764500D02*
X7791000Y-10844500D01*
X7791000Y-11018500D02*
X7871000Y-11098500D01*
X7871000Y-11018500D02*
X7791000Y-11098500D01*
X7791000Y-11272500D02*
X7871000Y-11352500D01*
X7871000Y-11272500D02*
X7791000Y-11352500D01*
X7860000Y-12954000D02*
X7940000Y-13034000D01*
X7940000Y-12954000D02*
X7860000Y-13034000D01*
X7860000Y-13716000D02*
X7940000Y-13796000D01*
X7940000Y-13716000D02*
X7860000Y-13796000D01*
X7885000Y-5179000D02*
X7965000Y-5259000D01*
X7965000Y-5179000D02*
X7885000Y-5259000D01*
X7885000Y-5941000D02*
X7965000Y-6021000D01*
X7965000Y-5941000D02*
X7885000Y-6021000D01*
X7885000Y-14479000D02*
X7965000Y-14559000D01*
X7965000Y-14479000D02*
X7885000Y-14559000D01*
X7885000Y-15241000D02*
X7965000Y-15321000D01*
X7965000Y-15241000D02*
X7885000Y-15321000D01*
X8304000Y-4585000D02*
X8384000Y-4665000D01*
X8384000Y-4585000D02*
X8304000Y-4665000D01*
X8304000Y-4885000D02*
X8384000Y-4965000D01*
X8384000Y-4885000D02*
X8304000Y-4965000D01*
X8304000Y-13885000D02*
X8384000Y-13965000D01*
X8384000Y-13885000D02*
X8304000Y-13965000D01*
X8304000Y-14185000D02*
X8384000Y-14265000D01*
X8384000Y-14185000D02*
X8304000Y-14265000D01*
X9066000Y-4585000D02*
X9146000Y-4665000D01*
X9146000Y-4585000D02*
X9066000Y-4665000D01*
X9066000Y-4885000D02*
X9146000Y-4965000D01*
X9146000Y-4885000D02*
X9066000Y-4965000D01*
X9066000Y-13885000D02*
X9146000Y-13965000D01*
X9146000Y-13885000D02*
X9066000Y-13965000D01*
X9066000Y-14185000D02*
X9146000Y-14265000D01*
X9146000Y-14185000D02*
X9066000Y-14265000D01*
X9610000Y-7304000D02*
X9690000Y-7384000D01*
X9690000Y-7304000D02*
X9610000Y-7384000D01*
X9610000Y-8066000D02*
X9690000Y-8146000D01*
X9690000Y-8066000D02*
X9610000Y-8146000D01*
X9610000Y-8279000D02*
X9690000Y-8359000D01*
X9690000Y-8279000D02*
X9610000Y-8359000D01*
X9610000Y-9041000D02*
X9690000Y-9121000D01*
X9690000Y-9041000D02*
X9610000Y-9121000D01*
X8643000Y-8900000D02*
G75*
G02*
X8553000Y-8900000I-45000J0D01*
G01*
X8553000Y-8900000D02*
G75*
G02*
X8643000Y-8900000I45000J0D01*
G01*
X8643000Y-11750000D02*
G75*
G02*
X8553000Y-11750000I-45000J0D01*
G01*
X8553000Y-11750000D02*
G75*
G02*
X8643000Y-11750000I45000J0D01*
G01*
X8897000Y-8900000D02*
G75*
G02*
X8807000Y-8900000I-45000J0D01*
G01*
X8807000Y-8900000D02*
G75*
G02*
X8897000Y-8900000I45000J0D01*
G01*
X8897000Y-11750000D02*
G75*
G02*
X8807000Y-11750000I-45000J0D01*
G01*
X8807000Y-11750000D02*
G75*
G02*
X8897000Y-11750000I45000J0D01*
G01*
X5275000Y-5150000D02*
X5275000Y-5250000D01*
X5225000Y-5200000D02*
X5325000Y-5200000D01*
X5275000Y-5404000D02*
X5275000Y-5504000D01*
X5225000Y-5454000D02*
X5325000Y-5454000D01*
X5275000Y-5658000D02*
X5275000Y-5758000D01*
X5225000Y-5708000D02*
X5325000Y-5708000D01*
X5275000Y-5912000D02*
X5275000Y-6012000D01*
X5225000Y-5962000D02*
X5325000Y-5962000D01*
X5275000Y-6166000D02*
X5275000Y-6266000D01*
X5225000Y-6216000D02*
X5325000Y-6216000D01*
X5275000Y-6420000D02*
X5275000Y-6520000D01*
X5225000Y-6470000D02*
X5325000Y-6470000D01*
X5275000Y-14350000D02*
X5275000Y-14450000D01*
X5225000Y-14400000D02*
X5325000Y-14400000D01*
X5275000Y-14604000D02*
X5275000Y-14704000D01*
X5225000Y-14654000D02*
X5325000Y-14654000D01*
X5275000Y-14858000D02*
X5275000Y-14958000D01*
X5225000Y-14908000D02*
X5325000Y-14908000D01*
X5275000Y-15112000D02*
X5275000Y-15212000D01*
X5225000Y-15162000D02*
X5325000Y-15162000D01*
X5275000Y-15366000D02*
X5275000Y-15466000D01*
X5225000Y-15416000D02*
X5325000Y-15416000D01*
X5275000Y-15620000D02*
X5275000Y-15720000D01*
X5225000Y-15670000D02*
X5325000Y-15670000D01*
X5900000Y-6650000D02*
X5900000Y-6750000D01*
X5850000Y-6700000D02*
X5950000Y-6700000D01*
X5900000Y-9650000D02*
X5900000Y-9750000D01*
X5850000Y-9700000D02*
X5950000Y-9700000D01*
X5900000Y-12950000D02*
X5900000Y-13050000D01*
X5850000Y-13000000D02*
X5950000Y-13000000D01*
X5900000Y-15950000D02*
X5900000Y-16050000D01*
X5850000Y-16000000D02*
X5950000Y-16000000D01*
X6150000Y-6650000D02*
X6150000Y-6750000D01*
X6100000Y-6700000D02*
X6200000Y-6700000D01*
X6150000Y-9650000D02*
X6150000Y-9750000D01*
X6100000Y-9700000D02*
X6200000Y-9700000D01*
X6150000Y-12950000D02*
X6150000Y-13050000D01*
X6100000Y-13000000D02*
X6200000Y-13000000D01*
X6150000Y-15950000D02*
X6150000Y-16050000D01*
X6100000Y-16000000D02*
X6200000Y-16000000D01*
X6400000Y-6650000D02*
X6400000Y-6750000D01*
X6350000Y-6700000D02*
X6450000Y-6700000D01*
X6400000Y-9650000D02*
X6400000Y-9750000D01*
X6350000Y-9700000D02*
X6450000Y-9700000D01*
X6400000Y-12950000D02*
X6400000Y-13050000D01*
X6350000Y-13000000D02*
X6450000Y-13000000D01*
X6400000Y-15950000D02*
X6400000Y-16050000D01*
X6350000Y-16000000D02*
X6450000Y-16000000D01*
X6650000Y-6650000D02*
X6650000Y-6750000D01*
X6600000Y-6700000D02*
X6700000Y-6700000D01*
X6650000Y-9650000D02*
X6650000Y-9750000D01*
X6600000Y-9700000D02*
X6700000Y-9700000D01*
X6650000Y-12950000D02*
X6650000Y-13050000D01*
X6600000Y-13000000D02*
X6700000Y-13000000D01*
X6650000Y-15950000D02*
X6650000Y-16050000D01*
X6600000Y-16000000D02*
X6700000Y-16000000D01*
X8475000Y-6300000D02*
X8475000Y-6400000D01*
X8425000Y-6350000D02*
X8525000Y-6350000D01*
X8475000Y-11025000D02*
X8475000Y-11125000D01*
X8425000Y-11075000D02*
X8525000Y-11075000D01*
X8475000Y-11275000D02*
X8475000Y-11375000D01*
X8425000Y-11325000D02*
X8525000Y-11325000D01*
X8475000Y-15600000D02*
X8475000Y-15700000D01*
X8425000Y-15650000D02*
X8525000Y-15650000D01*
X8725000Y-6300000D02*
X8725000Y-6400000D01*
X8675000Y-6350000D02*
X8775000Y-6350000D01*
X8725000Y-11025000D02*
X8725000Y-11125000D01*
X8675000Y-11075000D02*
X8775000Y-11075000D01*
X8725000Y-11275000D02*
X8725000Y-11375000D01*
X8675000Y-11325000D02*
X8775000Y-11325000D01*
X8725000Y-15600000D02*
X8725000Y-15700000D01*
X8675000Y-15650000D02*
X8775000Y-15650000D01*
X8975000Y-6300000D02*
X8975000Y-6400000D01*
X8925000Y-6350000D02*
X9025000Y-6350000D01*
X8975000Y-11025000D02*
X8975000Y-11125000D01*
X8925000Y-11075000D02*
X9025000Y-11075000D01*
X8975000Y-11275000D02*
X8975000Y-11375000D01*
X8925000Y-11325000D02*
X9025000Y-11325000D01*
X8975000Y-15600000D02*
X8975000Y-15700000D01*
X8925000Y-15650000D02*
X9025000Y-15650000D01*
X9725000Y-5150000D02*
X9725000Y-5250000D01*
X9675000Y-5200000D02*
X9775000Y-5200000D01*
X9725000Y-5404000D02*
X9725000Y-5504000D01*
X9675000Y-5454000D02*
X9775000Y-5454000D01*
X9725000Y-5658000D02*
X9725000Y-5758000D01*
X9675000Y-5708000D02*
X9775000Y-5708000D01*
X9725000Y-5912000D02*
X9725000Y-6012000D01*
X9675000Y-5962000D02*
X9775000Y-5962000D01*
X9725000Y-6166000D02*
X9725000Y-6266000D01*
X9675000Y-6216000D02*
X9775000Y-6216000D01*
X9725000Y-6420000D02*
X9725000Y-6520000D01*
X9675000Y-6470000D02*
X9775000Y-6470000D01*
X9725000Y-6674000D02*
X9725000Y-6774000D01*
X9675000Y-6724000D02*
X9775000Y-6724000D01*
X9725000Y-6928000D02*
X9725000Y-7028000D01*
X9675000Y-6978000D02*
X9775000Y-6978000D01*
X9725000Y-13842000D02*
X9725000Y-13942000D01*
X9675000Y-13892000D02*
X9775000Y-13892000D01*
X9725000Y-14096000D02*
X9725000Y-14196000D01*
X9675000Y-14146000D02*
X9775000Y-14146000D01*
X9725000Y-14350000D02*
X9725000Y-14450000D01*
X9675000Y-14400000D02*
X9775000Y-14400000D01*
X9725000Y-14604000D02*
X9725000Y-14704000D01*
X9675000Y-14654000D02*
X9775000Y-14654000D01*
X9725000Y-14858000D02*
X9725000Y-14958000D01*
X9675000Y-14908000D02*
X9775000Y-14908000D01*
X9725000Y-15112000D02*
X9725000Y-15212000D01*
X9675000Y-15162000D02*
X9775000Y-15162000D01*
X9725000Y-15366000D02*
X9725000Y-15466000D01*
X9675000Y-15416000D02*
X9775000Y-15416000D01*
X9725000Y-15620000D02*
X9725000Y-15720000D01*
X9675000Y-15670000D02*
X9775000Y-15670000D01*
D13*
X8283891Y-5638891D02*
X8283891Y-5561109D01*
X8206109Y-5561109D01*
X8206109Y-5638891D01*
X8283891Y-5638891D01*
D12*
X8300000Y-5635000D02*
X8300000Y-5565000D01*
X8190000Y-5565000D02*
G75*
G02*
X8300000Y-5565000I55000J0D01*
G01*
X8190000Y-5565000D02*
X8190000Y-5635000D01*
X8190000Y-5635000D02*
G75*
G03*
X8300000Y-5635000I55000J0D01*
G01*
D13*
X8283891Y-14938891D02*
X8283891Y-14861109D01*
X8206109Y-14861109D01*
X8206109Y-14938891D01*
X8283891Y-14938891D01*
D12*
X8300000Y-14935000D02*
X8300000Y-14865000D01*
X8190000Y-14865000D02*
G75*
G02*
X8300000Y-14865000I55000J0D01*
G01*
X8190000Y-14865000D02*
X8190000Y-14935000D01*
X8190000Y-14935000D02*
G75*
G03*
X8300000Y-14935000I55000J0D01*
G01*
D13*
X8288891Y-10363891D02*
X8288891Y-10286109D01*
X8211109Y-10286109D01*
X8211109Y-10363891D01*
X8288891Y-10363891D01*
D12*
X8215000Y-10380000D02*
X8285000Y-10380000D01*
X8285000Y-10270000D02*
G75*
G02*
X8285000Y-10380000I0J-55000D01*
G01*
X8285000Y-10270000D02*
X8215000Y-10270000D01*
X8215000Y-10270000D02*
G75*
G03*
X8215000Y-10380000I0J-55000D01*
G01*
D13*
X9238891Y-10363891D02*
X9238891Y-10286109D01*
X9161109Y-10286109D01*
X9161109Y-10363891D01*
X9238891Y-10363891D01*
D12*
X9165000Y-10380000D02*
X9235000Y-10380000D01*
X9235000Y-10270000D02*
G75*
G02*
X9235000Y-10380000I0J-55000D01*
G01*
X9235000Y-10270000D02*
X9165000Y-10270000D01*
X9165000Y-10270000D02*
G75*
G03*
X9165000Y-10380000I0J-55000D01*
G01*
D13*
X9243891Y-5638891D02*
X9243891Y-5561109D01*
X9166109Y-5561109D01*
X9166109Y-5638891D01*
X9243891Y-5638891D01*
D12*
X9260000Y-5635000D02*
X9260000Y-5565000D01*
X9150000Y-5565000D02*
G75*
G02*
X9260000Y-5565000I55000J0D01*
G01*
X9150000Y-5565000D02*
X9150000Y-5635000D01*
X9150000Y-5635000D02*
G75*
G03*
X9260000Y-5635000I55000J0D01*
G01*
D13*
X9243891Y-14938891D02*
X9243891Y-14861109D01*
X9166109Y-14861109D01*
X9166109Y-14938891D01*
X9243891Y-14938891D01*
D12*
X9260000Y-14935000D02*
X9260000Y-14865000D01*
X9150000Y-14865000D02*
G75*
G02*
X9260000Y-14865000I55000J0D01*
G01*
X9150000Y-14865000D02*
X9150000Y-14935000D01*
X9150000Y-14935000D02*
G75*
G03*
X9260000Y-14935000I55000J0D01*
G01*
D14*
X8483700Y-7595000D02*
X8573700Y-7505000D01*
X8483700Y-7415000D01*
X8393700Y-7505000D01*
X8483700Y-7595000D01*
X8483700Y-8065000D02*
X8573700Y-7975000D01*
X8483700Y-7885000D01*
X8393700Y-7975000D01*
X8483700Y-8065000D01*
X8483700Y-8535000D02*
X8573700Y-8445000D01*
X8483700Y-8355000D01*
X8393700Y-8445000D01*
X8483700Y-8535000D01*
X8483700Y-12295000D02*
X8573700Y-12205000D01*
X8483700Y-12115000D01*
X8393700Y-12205000D01*
X8483700Y-12295000D01*
X8483700Y-12765000D02*
X8573700Y-12675000D01*
X8483700Y-12585000D01*
X8393700Y-12675000D01*
X8483700Y-12765000D01*
X8483700Y-13235000D02*
X8573700Y-13145000D01*
X8483700Y-13055000D01*
X8393700Y-13145000D01*
X8483700Y-13235000D01*
X8966300Y-7595000D02*
X9056300Y-7505000D01*
X8966300Y-7415000D01*
X8876300Y-7505000D01*
X8966300Y-7595000D01*
X8966300Y-8065000D02*
X9056300Y-7975000D01*
X8966300Y-7885000D01*
X8876300Y-7975000D01*
X8966300Y-8065000D01*
X8966300Y-8535000D02*
X9056300Y-8445000D01*
X8966300Y-8355000D01*
X8876300Y-8445000D01*
X8966300Y-8535000D01*
X8966300Y-12295000D02*
X9056300Y-12205000D01*
X8966300Y-12115000D01*
X8876300Y-12205000D01*
X8966300Y-12295000D01*
X8966300Y-12765000D02*
X9056300Y-12675000D01*
X8966300Y-12585000D01*
X8876300Y-12675000D01*
X8966300Y-12765000D01*
X8966300Y-13235000D02*
X9056300Y-13145000D01*
X8966300Y-13055000D01*
X8876300Y-13145000D01*
X8966300Y-13235000D01*
D11*
X5595000Y-5500000D02*
X5795000Y-5700000D01*
X5795000Y-5500000D02*
X5595000Y-5700000D01*
X5795000Y-5600000D02*
G75*
G02*
X5595000Y-5600000I-100000J0D01*
G01*
X5595000Y-5600000D02*
G75*
G02*
X5795000Y-5600000I100000J0D01*
G01*
D12*
X5595000Y-5590000D02*
X5595000Y-5610000D01*
X5795000Y-5610000D02*
G75*
G02*
X5595000Y-5610000I-100000J0D01*
G01*
X5795000Y-5610000D02*
X5795000Y-5590000D01*
X5795000Y-5590000D02*
G75*
G03*
X5595000Y-5590000I-100000J0D01*
G01*
D11*
X5595000Y-8500000D02*
X5795000Y-8700000D01*
X5795000Y-8500000D02*
X5595000Y-8700000D01*
X5795000Y-8600000D02*
G75*
G02*
X5595000Y-8600000I-100000J0D01*
G01*
X5595000Y-8600000D02*
G75*
G02*
X5795000Y-8600000I100000J0D01*
G01*
D12*
X5595000Y-8590000D02*
X5595000Y-8610000D01*
X5795000Y-8610000D02*
G75*
G02*
X5595000Y-8610000I-100000J0D01*
G01*
X5795000Y-8610000D02*
X5795000Y-8590000D01*
X5795000Y-8590000D02*
G75*
G03*
X5595000Y-8590000I-100000J0D01*
G01*
D11*
X5595000Y-11800000D02*
X5795000Y-12000000D01*
X5795000Y-11800000D02*
X5595000Y-12000000D01*
X5795000Y-11900000D02*
G75*
G02*
X5595000Y-11900000I-100000J0D01*
G01*
X5595000Y-11900000D02*
G75*
G02*
X5795000Y-11900000I100000J0D01*
G01*
D12*
X5595000Y-11890000D02*
X5595000Y-11910000D01*
X5795000Y-11910000D02*
G75*
G02*
X5595000Y-11910000I-100000J0D01*
G01*
X5795000Y-11910000D02*
X5795000Y-11890000D01*
X5795000Y-11890000D02*
G75*
G03*
X5595000Y-11890000I-100000J0D01*
G01*
D11*
X5595000Y-14800000D02*
X5795000Y-15000000D01*
X5795000Y-14800000D02*
X5595000Y-15000000D01*
X5795000Y-14900000D02*
G75*
G02*
X5595000Y-14900000I-100000J0D01*
G01*
X5595000Y-14900000D02*
G75*
G02*
X5795000Y-14900000I100000J0D01*
G01*
D12*
X5595000Y-14890000D02*
X5595000Y-14910000D01*
X5795000Y-14910000D02*
G75*
G02*
X5595000Y-14910000I-100000J0D01*
G01*
X5795000Y-14910000D02*
X5795000Y-14890000D01*
X5795000Y-14890000D02*
G75*
G03*
X5595000Y-14890000I-100000J0D01*
G01*
D11*
X6755000Y-5500000D02*
X6955000Y-5700000D01*
X6955000Y-5500000D02*
X6755000Y-5700000D01*
X6955000Y-5600000D02*
G75*
G02*
X6755000Y-5600000I-100000J0D01*
G01*
X6755000Y-5600000D02*
G75*
G02*
X6955000Y-5600000I100000J0D01*
G01*
D12*
X6755000Y-5590000D02*
X6755000Y-5610000D01*
X6955000Y-5610000D02*
G75*
G02*
X6755000Y-5610000I-100000J0D01*
G01*
X6955000Y-5610000D02*
X6955000Y-5590000D01*
X6955000Y-5590000D02*
G75*
G03*
X6755000Y-5590000I-100000J0D01*
G01*
D11*
X6755000Y-8500000D02*
X6955000Y-8700000D01*
X6955000Y-8500000D02*
X6755000Y-8700000D01*
X6955000Y-8600000D02*
G75*
G02*
X6755000Y-8600000I-100000J0D01*
G01*
X6755000Y-8600000D02*
G75*
G02*
X6955000Y-8600000I100000J0D01*
G01*
D12*
X6755000Y-8590000D02*
X6755000Y-8610000D01*
X6955000Y-8610000D02*
G75*
G02*
X6755000Y-8610000I-100000J0D01*
G01*
X6955000Y-8610000D02*
X6955000Y-8590000D01*
X6955000Y-8590000D02*
G75*
G03*
X6755000Y-8590000I-100000J0D01*
G01*
D11*
X6755000Y-11800000D02*
X6955000Y-12000000D01*
X6955000Y-11800000D02*
X6755000Y-12000000D01*
X6955000Y-11900000D02*
G75*
G02*
X6755000Y-11900000I-100000J0D01*
G01*
X6755000Y-11900000D02*
G75*
G02*
X6955000Y-11900000I100000J0D01*
G01*
D12*
X6755000Y-11890000D02*
X6755000Y-11910000D01*
X6955000Y-11910000D02*
G75*
G02*
X6755000Y-11910000I-100000J0D01*
G01*
X6955000Y-11910000D02*
X6955000Y-11890000D01*
X6955000Y-11890000D02*
G75*
G03*
X6755000Y-11890000I-100000J0D01*
G01*
D11*
X6755000Y-14800000D02*
X6955000Y-15000000D01*
X6955000Y-14800000D02*
X6755000Y-15000000D01*
X6955000Y-14900000D02*
G75*
G02*
X6755000Y-14900000I-100000J0D01*
G01*
X6755000Y-14900000D02*
G75*
G02*
X6955000Y-14900000I100000J0D01*
G01*
D12*
X6755000Y-14890000D02*
X6755000Y-14910000D01*
X6955000Y-14910000D02*
G75*
G02*
X6755000Y-14910000I-100000J0D01*
G01*
X6955000Y-14910000D02*
X6955000Y-14890000D01*
X6955000Y-14890000D02*
G75*
G03*
X6755000Y-14890000I-100000J0D01*
G01*
D11*
X5308277Y-16663984D02*
X5308277Y-16463984D01*
X5308277Y-16463984D02*
X5355896Y-16463984D01*
X5355896Y-16463984D02*
X5384467Y-16473508D01*
X5384467Y-16473508D02*
X5403515Y-16492555D01*
X5403515Y-16492555D02*
X5413039Y-16511603D01*
X5413039Y-16511603D02*
X5422563Y-16549698D01*
X5422563Y-16549698D02*
X5422563Y-16578269D01*
X5422563Y-16578269D02*
X5413039Y-16616365D01*
X5413039Y-16616365D02*
X5403515Y-16635412D01*
X5403515Y-16635412D02*
X5384467Y-16654460D01*
X5384467Y-16654460D02*
X5355896Y-16663984D01*
X5355896Y-16663984D02*
X5308277Y-16663984D01*
X5508277Y-16663984D02*
X5508277Y-16530650D01*
X5508277Y-16568746D02*
X5517801Y-16549698D01*
X5517801Y-16549698D02*
X5527324Y-16540174D01*
X5527324Y-16540174D02*
X5546372Y-16530650D01*
X5546372Y-16530650D02*
X5565420Y-16530650D01*
X5632086Y-16663984D02*
X5632086Y-16530650D01*
X5632086Y-16463984D02*
X5622562Y-16473508D01*
X5622562Y-16473508D02*
X5632086Y-16483031D01*
X5632086Y-16483031D02*
X5641610Y-16473508D01*
X5641610Y-16473508D02*
X5632086Y-16463984D01*
X5632086Y-16463984D02*
X5632086Y-16483031D01*
X5755896Y-16663984D02*
X5736848Y-16654460D01*
X5736848Y-16654460D02*
X5727324Y-16635412D01*
X5727324Y-16635412D02*
X5727324Y-16463984D01*
X5860658Y-16663984D02*
X5841610Y-16654460D01*
X5841610Y-16654460D02*
X5832086Y-16635412D01*
X5832086Y-16635412D02*
X5832086Y-16463984D01*
X6089229Y-16663984D02*
X6089229Y-16463984D01*
X6089229Y-16463984D02*
X6155896Y-16606841D01*
X6155896Y-16606841D02*
X6222562Y-16463984D01*
X6222562Y-16463984D02*
X6222562Y-16663984D01*
X6403515Y-16663984D02*
X6403515Y-16559222D01*
X6403515Y-16559222D02*
X6393991Y-16540174D01*
X6393991Y-16540174D02*
X6374943Y-16530650D01*
X6374943Y-16530650D02*
X6336848Y-16530650D01*
X6336848Y-16530650D02*
X6317801Y-16540174D01*
X6403515Y-16654460D02*
X6384467Y-16663984D01*
X6384467Y-16663984D02*
X6336848Y-16663984D01*
X6336848Y-16663984D02*
X6317801Y-16654460D01*
X6317801Y-16654460D02*
X6308277Y-16635412D01*
X6308277Y-16635412D02*
X6308277Y-16616365D01*
X6308277Y-16616365D02*
X6317801Y-16597317D01*
X6317801Y-16597317D02*
X6336848Y-16587793D01*
X6336848Y-16587793D02*
X6384467Y-16587793D01*
X6384467Y-16587793D02*
X6403515Y-16578269D01*
X6498753Y-16530650D02*
X6498753Y-16730650D01*
X6498753Y-16540174D02*
X6517801Y-16530650D01*
X6517801Y-16530650D02*
X6555896Y-16530650D01*
X6555896Y-16530650D02*
X6574943Y-16540174D01*
X6574943Y-16540174D02*
X6584467Y-16549698D01*
X6584467Y-16549698D02*
X6593991Y-16568746D01*
X6593991Y-16568746D02*
X6593991Y-16625888D01*
X6593991Y-16625888D02*
X6584467Y-16644936D01*
X6584467Y-16644936D02*
X6574943Y-16654460D01*
X6574943Y-16654460D02*
X6555896Y-16663984D01*
X6555896Y-16663984D02*
X6517801Y-16663984D01*
X6517801Y-16663984D02*
X6498753Y-16654460D01*
X6679705Y-16644936D02*
X6689229Y-16654460D01*
X6689229Y-16654460D02*
X6679705Y-16663984D01*
X6679705Y-16663984D02*
X6670182Y-16654460D01*
X6670182Y-16654460D02*
X6679705Y-16644936D01*
X6679705Y-16644936D02*
X6679705Y-16663984D01*
X6679705Y-16540174D02*
X6689229Y-16549698D01*
X6689229Y-16549698D02*
X6679705Y-16559222D01*
X6679705Y-16559222D02*
X6670182Y-16549698D01*
X6670182Y-16549698D02*
X6679705Y-16540174D01*
X6679705Y-16540174D02*
X6679705Y-16559222D01*
D12*
X4967500Y-16952500D02*
X5047500Y-17032500D01*
X5047500Y-16952500D02*
X4967500Y-17032500D01*
D11*
X5346372Y-16883984D02*
X5365420Y-16883984D01*
X5365420Y-16883984D02*
X5384467Y-16893508D01*
X5384467Y-16893508D02*
X5393991Y-16903031D01*
X5393991Y-16903031D02*
X5403515Y-16922079D01*
X5403515Y-16922079D02*
X5413039Y-16960174D01*
X5413039Y-16960174D02*
X5413039Y-17007793D01*
X5413039Y-17007793D02*
X5403515Y-17045889D01*
X5403515Y-17045889D02*
X5393991Y-17064936D01*
X5393991Y-17064936D02*
X5384467Y-17074460D01*
X5384467Y-17074460D02*
X5365420Y-17083984D01*
X5365420Y-17083984D02*
X5346372Y-17083984D01*
X5346372Y-17083984D02*
X5327324Y-17074460D01*
X5327324Y-17074460D02*
X5317801Y-17064936D01*
X5317801Y-17064936D02*
X5308277Y-17045889D01*
X5308277Y-17045889D02*
X5298753Y-17007793D01*
X5298753Y-17007793D02*
X5298753Y-16960174D01*
X5298753Y-16960174D02*
X5308277Y-16922079D01*
X5308277Y-16922079D02*
X5317801Y-16903031D01*
X5317801Y-16903031D02*
X5327324Y-16893508D01*
X5327324Y-16893508D02*
X5346372Y-16883984D01*
X5498753Y-17064936D02*
X5508277Y-17074460D01*
X5508277Y-17074460D02*
X5498753Y-17083984D01*
X5498753Y-17083984D02*
X5489229Y-17074460D01*
X5489229Y-17074460D02*
X5498753Y-17064936D01*
X5498753Y-17064936D02*
X5498753Y-17083984D01*
X5622562Y-16969698D02*
X5603515Y-16960174D01*
X5603515Y-16960174D02*
X5593991Y-16950650D01*
X5593991Y-16950650D02*
X5584467Y-16931603D01*
X5584467Y-16931603D02*
X5584467Y-16922079D01*
X5584467Y-16922079D02*
X5593991Y-16903031D01*
X5593991Y-16903031D02*
X5603515Y-16893508D01*
X5603515Y-16893508D02*
X5622562Y-16883984D01*
X5622562Y-16883984D02*
X5660658Y-16883984D01*
X5660658Y-16883984D02*
X5679705Y-16893508D01*
X5679705Y-16893508D02*
X5689229Y-16903031D01*
X5689229Y-16903031D02*
X5698753Y-16922079D01*
X5698753Y-16922079D02*
X5698753Y-16931603D01*
X5698753Y-16931603D02*
X5689229Y-16950650D01*
X5689229Y-16950650D02*
X5679705Y-16960174D01*
X5679705Y-16960174D02*
X5660658Y-16969698D01*
X5660658Y-16969698D02*
X5622562Y-16969698D01*
X5622562Y-16969698D02*
X5603515Y-16979222D01*
X5603515Y-16979222D02*
X5593991Y-16988746D01*
X5593991Y-16988746D02*
X5584467Y-17007793D01*
X5584467Y-17007793D02*
X5584467Y-17045889D01*
X5584467Y-17045889D02*
X5593991Y-17064936D01*
X5593991Y-17064936D02*
X5603515Y-17074460D01*
X5603515Y-17074460D02*
X5622562Y-17083984D01*
X5622562Y-17083984D02*
X5660658Y-17083984D01*
X5660658Y-17083984D02*
X5679705Y-17074460D01*
X5679705Y-17074460D02*
X5689229Y-17064936D01*
X5689229Y-17064936D02*
X5698753Y-17045889D01*
X5698753Y-17045889D02*
X5698753Y-17007793D01*
X5698753Y-17007793D02*
X5689229Y-16988746D01*
X5689229Y-16988746D02*
X5679705Y-16979222D01*
X5679705Y-16979222D02*
X5660658Y-16969698D01*
X5822562Y-16883984D02*
X5841610Y-16883984D01*
X5841610Y-16883984D02*
X5860658Y-16893508D01*
X5860658Y-16893508D02*
X5870182Y-16903031D01*
X5870182Y-16903031D02*
X5879705Y-16922079D01*
X5879705Y-16922079D02*
X5889229Y-16960174D01*
X5889229Y-16960174D02*
X5889229Y-17007793D01*
X5889229Y-17007793D02*
X5879705Y-17045889D01*
X5879705Y-17045889D02*
X5870182Y-17064936D01*
X5870182Y-17064936D02*
X5860658Y-17074460D01*
X5860658Y-17074460D02*
X5841610Y-17083984D01*
X5841610Y-17083984D02*
X5822562Y-17083984D01*
X5822562Y-17083984D02*
X5803515Y-17074460D01*
X5803515Y-17074460D02*
X5793991Y-17064936D01*
X5793991Y-17064936D02*
X5784467Y-17045889D01*
X5784467Y-17045889D02*
X5774943Y-17007793D01*
X5774943Y-17007793D02*
X5774943Y-16960174D01*
X5774943Y-16960174D02*
X5784467Y-16922079D01*
X5784467Y-16922079D02*
X5793991Y-16903031D01*
X5793991Y-16903031D02*
X5803515Y-16893508D01*
X5803515Y-16893508D02*
X5822562Y-16883984D01*
X6013039Y-16883984D02*
X6032086Y-16883984D01*
X6032086Y-16883984D02*
X6051134Y-16893508D01*
X6051134Y-16893508D02*
X6060658Y-16903031D01*
X6060658Y-16903031D02*
X6070182Y-16922079D01*
X6070182Y-16922079D02*
X6079705Y-16960174D01*
X6079705Y-16960174D02*
X6079705Y-17007793D01*
X6079705Y-17007793D02*
X6070182Y-17045889D01*
X6070182Y-17045889D02*
X6060658Y-17064936D01*
X6060658Y-17064936D02*
X6051134Y-17074460D01*
X6051134Y-17074460D02*
X6032086Y-17083984D01*
X6032086Y-17083984D02*
X6013039Y-17083984D01*
X6013039Y-17083984D02*
X5993991Y-17074460D01*
X5993991Y-17074460D02*
X5984467Y-17064936D01*
X5984467Y-17064936D02*
X5974943Y-17045889D01*
X5974943Y-17045889D02*
X5965420Y-17007793D01*
X5965420Y-17007793D02*
X5965420Y-16960174D01*
X5965420Y-16960174D02*
X5974943Y-16922079D01*
X5974943Y-16922079D02*
X5984467Y-16903031D01*
X5984467Y-16903031D02*
X5993991Y-16893508D01*
X5993991Y-16893508D02*
X6013039Y-16883984D01*
X6165420Y-17083984D02*
X6165420Y-16950650D01*
X6165420Y-16969698D02*
X6174943Y-16960174D01*
X6174943Y-16960174D02*
X6193991Y-16950650D01*
X6193991Y-16950650D02*
X6222563Y-16950650D01*
X6222563Y-16950650D02*
X6241610Y-16960174D01*
X6241610Y-16960174D02*
X6251134Y-16979222D01*
X6251134Y-16979222D02*
X6251134Y-17083984D01*
X6251134Y-16979222D02*
X6260658Y-16960174D01*
X6260658Y-16960174D02*
X6279705Y-16950650D01*
X6279705Y-16950650D02*
X6308277Y-16950650D01*
X6308277Y-16950650D02*
X6327324Y-16960174D01*
X6327324Y-16960174D02*
X6336848Y-16979222D01*
X6336848Y-16979222D02*
X6336848Y-17083984D01*
X6432086Y-17083984D02*
X6432086Y-16950650D01*
X6432086Y-16969698D02*
X6441610Y-16960174D01*
X6441610Y-16960174D02*
X6460658Y-16950650D01*
X6460658Y-16950650D02*
X6489229Y-16950650D01*
X6489229Y-16950650D02*
X6508277Y-16960174D01*
X6508277Y-16960174D02*
X6517801Y-16979222D01*
X6517801Y-16979222D02*
X6517801Y-17083984D01*
X6517801Y-16979222D02*
X6527324Y-16960174D01*
X6527324Y-16960174D02*
X6546372Y-16950650D01*
X6546372Y-16950650D02*
X6574943Y-16950650D01*
X6574943Y-16950650D02*
X6593991Y-16960174D01*
X6593991Y-16960174D02*
X6603515Y-16979222D01*
X6603515Y-16979222D02*
X6603515Y-17083984D01*
X6993991Y-16874460D02*
X6822563Y-17131603D01*
X7251134Y-16883984D02*
X7270182Y-16883984D01*
X7270182Y-16883984D02*
X7289229Y-16893508D01*
X7289229Y-16893508D02*
X7298753Y-16903031D01*
X7298753Y-16903031D02*
X7308277Y-16922079D01*
X7308277Y-16922079D02*
X7317801Y-16960174D01*
X7317801Y-16960174D02*
X7317801Y-17007793D01*
X7317801Y-17007793D02*
X7308277Y-17045889D01*
X7308277Y-17045889D02*
X7298753Y-17064936D01*
X7298753Y-17064936D02*
X7289229Y-17074460D01*
X7289229Y-17074460D02*
X7270182Y-17083984D01*
X7270182Y-17083984D02*
X7251134Y-17083984D01*
X7251134Y-17083984D02*
X7232086Y-17074460D01*
X7232086Y-17074460D02*
X7222563Y-17064936D01*
X7222563Y-17064936D02*
X7213039Y-17045889D01*
X7213039Y-17045889D02*
X7203515Y-17007793D01*
X7203515Y-17007793D02*
X7203515Y-16960174D01*
X7203515Y-16960174D02*
X7213039Y-16922079D01*
X7213039Y-16922079D02*
X7222563Y-16903031D01*
X7222563Y-16903031D02*
X7232086Y-16893508D01*
X7232086Y-16893508D02*
X7251134Y-16883984D01*
X7403515Y-17064936D02*
X7413039Y-17074460D01*
X7413039Y-17074460D02*
X7403515Y-17083984D01*
X7403515Y-17083984D02*
X7393991Y-17074460D01*
X7393991Y-17074460D02*
X7403515Y-17064936D01*
X7403515Y-17064936D02*
X7403515Y-17083984D01*
X7536848Y-16883984D02*
X7555896Y-16883984D01*
X7555896Y-16883984D02*
X7574944Y-16893508D01*
X7574944Y-16893508D02*
X7584467Y-16903031D01*
X7584467Y-16903031D02*
X7593991Y-16922079D01*
X7593991Y-16922079D02*
X7603515Y-16960174D01*
X7603515Y-16960174D02*
X7603515Y-17007793D01*
X7603515Y-17007793D02*
X7593991Y-17045889D01*
X7593991Y-17045889D02*
X7584467Y-17064936D01*
X7584467Y-17064936D02*
X7574944Y-17074460D01*
X7574944Y-17074460D02*
X7555896Y-17083984D01*
X7555896Y-17083984D02*
X7536848Y-17083984D01*
X7536848Y-17083984D02*
X7517801Y-17074460D01*
X7517801Y-17074460D02*
X7508277Y-17064936D01*
X7508277Y-17064936D02*
X7498753Y-17045889D01*
X7498753Y-17045889D02*
X7489229Y-17007793D01*
X7489229Y-17007793D02*
X7489229Y-16960174D01*
X7489229Y-16960174D02*
X7498753Y-16922079D01*
X7498753Y-16922079D02*
X7508277Y-16903031D01*
X7508277Y-16903031D02*
X7517801Y-16893508D01*
X7517801Y-16893508D02*
X7536848Y-16883984D01*
X7670182Y-16883984D02*
X7793991Y-16883984D01*
X7793991Y-16883984D02*
X7727325Y-16960174D01*
X7727325Y-16960174D02*
X7755896Y-16960174D01*
X7755896Y-16960174D02*
X7774944Y-16969698D01*
X7774944Y-16969698D02*
X7784467Y-16979222D01*
X7784467Y-16979222D02*
X7793991Y-16998270D01*
X7793991Y-16998270D02*
X7793991Y-17045889D01*
X7793991Y-17045889D02*
X7784467Y-17064936D01*
X7784467Y-17064936D02*
X7774944Y-17074460D01*
X7774944Y-17074460D02*
X7755896Y-17083984D01*
X7755896Y-17083984D02*
X7698753Y-17083984D01*
X7698753Y-17083984D02*
X7679706Y-17074460D01*
X7679706Y-17074460D02*
X7670182Y-17064936D01*
X7984467Y-17083984D02*
X7870182Y-17083984D01*
X7927325Y-17083984D02*
X7927325Y-16883984D01*
X7927325Y-16883984D02*
X7908277Y-16912555D01*
X7908277Y-16912555D02*
X7889229Y-16931603D01*
X7889229Y-16931603D02*
X7870182Y-16941127D01*
X8165420Y-16883984D02*
X8070182Y-16883984D01*
X8070182Y-16883984D02*
X8060658Y-16979222D01*
X8060658Y-16979222D02*
X8070182Y-16969698D01*
X8070182Y-16969698D02*
X8089229Y-16960174D01*
X8089229Y-16960174D02*
X8136848Y-16960174D01*
X8136848Y-16960174D02*
X8155896Y-16969698D01*
X8155896Y-16969698D02*
X8165420Y-16979222D01*
X8165420Y-16979222D02*
X8174944Y-16998270D01*
X8174944Y-16998270D02*
X8174944Y-17045889D01*
X8174944Y-17045889D02*
X8165420Y-17064936D01*
X8165420Y-17064936D02*
X8155896Y-17074460D01*
X8155896Y-17074460D02*
X8136848Y-17083984D01*
X8136848Y-17083984D02*
X8089229Y-17083984D01*
X8089229Y-17083984D02*
X8070182Y-17074460D01*
X8070182Y-17074460D02*
X8060658Y-17064936D01*
X8251134Y-16883984D02*
X8251134Y-16922079D01*
X8327325Y-16883984D02*
X8327325Y-16922079D01*
X8622563Y-17160174D02*
X8613039Y-17150650D01*
X8613039Y-17150650D02*
X8593991Y-17122079D01*
X8593991Y-17122079D02*
X8584468Y-17103031D01*
X8584468Y-17103031D02*
X8574944Y-17074460D01*
X8574944Y-17074460D02*
X8565420Y-17026841D01*
X8565420Y-17026841D02*
X8565420Y-16988746D01*
X8565420Y-16988746D02*
X8574944Y-16941127D01*
X8574944Y-16941127D02*
X8584468Y-16912555D01*
X8584468Y-16912555D02*
X8593991Y-16893508D01*
X8593991Y-16893508D02*
X8613039Y-16864936D01*
X8613039Y-16864936D02*
X8622563Y-16855412D01*
X8784468Y-16883984D02*
X8746372Y-16883984D01*
X8746372Y-16883984D02*
X8727325Y-16893508D01*
X8727325Y-16893508D02*
X8717801Y-16903031D01*
X8717801Y-16903031D02*
X8698753Y-16931603D01*
X8698753Y-16931603D02*
X8689230Y-16969698D01*
X8689230Y-16969698D02*
X8689230Y-17045889D01*
X8689230Y-17045889D02*
X8698753Y-17064936D01*
X8698753Y-17064936D02*
X8708277Y-17074460D01*
X8708277Y-17074460D02*
X8727325Y-17083984D01*
X8727325Y-17083984D02*
X8765420Y-17083984D01*
X8765420Y-17083984D02*
X8784468Y-17074460D01*
X8784468Y-17074460D02*
X8793991Y-17064936D01*
X8793991Y-17064936D02*
X8803515Y-17045889D01*
X8803515Y-17045889D02*
X8803515Y-16998270D01*
X8803515Y-16998270D02*
X8793991Y-16979222D01*
X8793991Y-16979222D02*
X8784468Y-16969698D01*
X8784468Y-16969698D02*
X8765420Y-16960174D01*
X8765420Y-16960174D02*
X8727325Y-16960174D01*
X8727325Y-16960174D02*
X8708277Y-16969698D01*
X8708277Y-16969698D02*
X8698753Y-16979222D01*
X8698753Y-16979222D02*
X8689230Y-16998270D01*
X8879706Y-16903031D02*
X8889230Y-16893508D01*
X8889230Y-16893508D02*
X8908277Y-16883984D01*
X8908277Y-16883984D02*
X8955896Y-16883984D01*
X8955896Y-16883984D02*
X8974944Y-16893508D01*
X8974944Y-16893508D02*
X8984468Y-16903031D01*
X8984468Y-16903031D02*
X8993991Y-16922079D01*
X8993991Y-16922079D02*
X8993991Y-16941127D01*
X8993991Y-16941127D02*
X8984468Y-16969698D01*
X8984468Y-16969698D02*
X8870182Y-17083984D01*
X8870182Y-17083984D02*
X8993991Y-17083984D01*
X9232087Y-17083984D02*
X9232087Y-16883984D01*
X9317801Y-17083984D02*
X9317801Y-16979222D01*
X9317801Y-16979222D02*
X9308277Y-16960174D01*
X9308277Y-16960174D02*
X9289230Y-16950650D01*
X9289230Y-16950650D02*
X9260658Y-16950650D01*
X9260658Y-16950650D02*
X9241611Y-16960174D01*
X9241611Y-16960174D02*
X9232087Y-16969698D01*
X9441611Y-17083984D02*
X9422563Y-17074460D01*
X9422563Y-17074460D02*
X9413039Y-17064936D01*
X9413039Y-17064936D02*
X9403515Y-17045889D01*
X9403515Y-17045889D02*
X9403515Y-16988746D01*
X9403515Y-16988746D02*
X9413039Y-16969698D01*
X9413039Y-16969698D02*
X9422563Y-16960174D01*
X9422563Y-16960174D02*
X9441611Y-16950650D01*
X9441611Y-16950650D02*
X9470182Y-16950650D01*
X9470182Y-16950650D02*
X9489230Y-16960174D01*
X9489230Y-16960174D02*
X9498753Y-16969698D01*
X9498753Y-16969698D02*
X9508277Y-16988746D01*
X9508277Y-16988746D02*
X9508277Y-17045889D01*
X9508277Y-17045889D02*
X9498753Y-17064936D01*
X9498753Y-17064936D02*
X9489230Y-17074460D01*
X9489230Y-17074460D02*
X9470182Y-17083984D01*
X9470182Y-17083984D02*
X9441611Y-17083984D01*
X9622563Y-17083984D02*
X9603515Y-17074460D01*
X9603515Y-17074460D02*
X9593992Y-17055412D01*
X9593992Y-17055412D02*
X9593992Y-16883984D01*
X9774944Y-17074460D02*
X9755896Y-17083984D01*
X9755896Y-17083984D02*
X9717801Y-17083984D01*
X9717801Y-17083984D02*
X9698753Y-17074460D01*
X9698753Y-17074460D02*
X9689230Y-17055412D01*
X9689230Y-17055412D02*
X9689230Y-16979222D01*
X9689230Y-16979222D02*
X9698753Y-16960174D01*
X9698753Y-16960174D02*
X9717801Y-16950650D01*
X9717801Y-16950650D02*
X9755896Y-16950650D01*
X9755896Y-16950650D02*
X9774944Y-16960174D01*
X9774944Y-16960174D02*
X9784468Y-16979222D01*
X9784468Y-16979222D02*
X9784468Y-16998270D01*
X9784468Y-16998270D02*
X9689230Y-17017317D01*
X9860658Y-17074460D02*
X9879706Y-17083984D01*
X9879706Y-17083984D02*
X9917801Y-17083984D01*
X9917801Y-17083984D02*
X9936849Y-17074460D01*
X9936849Y-17074460D02*
X9946373Y-17055412D01*
X9946373Y-17055412D02*
X9946373Y-17045889D01*
X9946373Y-17045889D02*
X9936849Y-17026841D01*
X9936849Y-17026841D02*
X9917801Y-17017317D01*
X9917801Y-17017317D02*
X9889230Y-17017317D01*
X9889230Y-17017317D02*
X9870182Y-17007793D01*
X9870182Y-17007793D02*
X9860658Y-16988746D01*
X9860658Y-16988746D02*
X9860658Y-16979222D01*
X9860658Y-16979222D02*
X9870182Y-16960174D01*
X9870182Y-16960174D02*
X9889230Y-16950650D01*
X9889230Y-16950650D02*
X9917801Y-16950650D01*
X9917801Y-16950650D02*
X9936849Y-16960174D01*
X10013039Y-17160174D02*
X10022563Y-17150650D01*
X10022563Y-17150650D02*
X10041611Y-17122079D01*
X10041611Y-17122079D02*
X10051134Y-17103031D01*
X10051134Y-17103031D02*
X10060658Y-17074460D01*
X10060658Y-17074460D02*
X10070182Y-17026841D01*
X10070182Y-17026841D02*
X10070182Y-16988746D01*
X10070182Y-16988746D02*
X10060658Y-16941127D01*
X10060658Y-16941127D02*
X10051134Y-16912555D01*
X10051134Y-16912555D02*
X10041611Y-16893508D01*
X10041611Y-16893508D02*
X10022563Y-16864936D01*
X10022563Y-16864936D02*
X10013039Y-16855412D01*
D12*
X5047500Y-17256500D02*
G75*
G02*
X4957500Y-17256500I-45000J0D01*
G01*
X4957500Y-17256500D02*
G75*
G02*
X5047500Y-17256500I45000J0D01*
G01*
D11*
X5346372Y-17147984D02*
X5365420Y-17147984D01*
X5365420Y-17147984D02*
X5384467Y-17157508D01*
X5384467Y-17157508D02*
X5393991Y-17167031D01*
X5393991Y-17167031D02*
X5403515Y-17186079D01*
X5403515Y-17186079D02*
X5413039Y-17224174D01*
X5413039Y-17224174D02*
X5413039Y-17271793D01*
X5413039Y-17271793D02*
X5403515Y-17309889D01*
X5403515Y-17309889D02*
X5393991Y-17328936D01*
X5393991Y-17328936D02*
X5384467Y-17338460D01*
X5384467Y-17338460D02*
X5365420Y-17347984D01*
X5365420Y-17347984D02*
X5346372Y-17347984D01*
X5346372Y-17347984D02*
X5327324Y-17338460D01*
X5327324Y-17338460D02*
X5317801Y-17328936D01*
X5317801Y-17328936D02*
X5308277Y-17309889D01*
X5308277Y-17309889D02*
X5298753Y-17271793D01*
X5298753Y-17271793D02*
X5298753Y-17224174D01*
X5298753Y-17224174D02*
X5308277Y-17186079D01*
X5308277Y-17186079D02*
X5317801Y-17167031D01*
X5317801Y-17167031D02*
X5327324Y-17157508D01*
X5327324Y-17157508D02*
X5346372Y-17147984D01*
X5498753Y-17328936D02*
X5508277Y-17338460D01*
X5508277Y-17338460D02*
X5498753Y-17347984D01*
X5498753Y-17347984D02*
X5489229Y-17338460D01*
X5489229Y-17338460D02*
X5498753Y-17328936D01*
X5498753Y-17328936D02*
X5498753Y-17347984D01*
X5603515Y-17347984D02*
X5641610Y-17347984D01*
X5641610Y-17347984D02*
X5660658Y-17338460D01*
X5660658Y-17338460D02*
X5670182Y-17328936D01*
X5670182Y-17328936D02*
X5689229Y-17300365D01*
X5689229Y-17300365D02*
X5698753Y-17262270D01*
X5698753Y-17262270D02*
X5698753Y-17186079D01*
X5698753Y-17186079D02*
X5689229Y-17167031D01*
X5689229Y-17167031D02*
X5679705Y-17157508D01*
X5679705Y-17157508D02*
X5660658Y-17147984D01*
X5660658Y-17147984D02*
X5622562Y-17147984D01*
X5622562Y-17147984D02*
X5603515Y-17157508D01*
X5603515Y-17157508D02*
X5593991Y-17167031D01*
X5593991Y-17167031D02*
X5584467Y-17186079D01*
X5584467Y-17186079D02*
X5584467Y-17233698D01*
X5584467Y-17233698D02*
X5593991Y-17252746D01*
X5593991Y-17252746D02*
X5603515Y-17262270D01*
X5603515Y-17262270D02*
X5622562Y-17271793D01*
X5622562Y-17271793D02*
X5660658Y-17271793D01*
X5660658Y-17271793D02*
X5679705Y-17262270D01*
X5679705Y-17262270D02*
X5689229Y-17252746D01*
X5689229Y-17252746D02*
X5698753Y-17233698D01*
X5822562Y-17147984D02*
X5841610Y-17147984D01*
X5841610Y-17147984D02*
X5860658Y-17157508D01*
X5860658Y-17157508D02*
X5870182Y-17167031D01*
X5870182Y-17167031D02*
X5879705Y-17186079D01*
X5879705Y-17186079D02*
X5889229Y-17224174D01*
X5889229Y-17224174D02*
X5889229Y-17271793D01*
X5889229Y-17271793D02*
X5879705Y-17309889D01*
X5879705Y-17309889D02*
X5870182Y-17328936D01*
X5870182Y-17328936D02*
X5860658Y-17338460D01*
X5860658Y-17338460D02*
X5841610Y-17347984D01*
X5841610Y-17347984D02*
X5822562Y-17347984D01*
X5822562Y-17347984D02*
X5803515Y-17338460D01*
X5803515Y-17338460D02*
X5793991Y-17328936D01*
X5793991Y-17328936D02*
X5784467Y-17309889D01*
X5784467Y-17309889D02*
X5774943Y-17271793D01*
X5774943Y-17271793D02*
X5774943Y-17224174D01*
X5774943Y-17224174D02*
X5784467Y-17186079D01*
X5784467Y-17186079D02*
X5793991Y-17167031D01*
X5793991Y-17167031D02*
X5803515Y-17157508D01*
X5803515Y-17157508D02*
X5822562Y-17147984D01*
X6013039Y-17147984D02*
X6032086Y-17147984D01*
X6032086Y-17147984D02*
X6051134Y-17157508D01*
X6051134Y-17157508D02*
X6060658Y-17167031D01*
X6060658Y-17167031D02*
X6070182Y-17186079D01*
X6070182Y-17186079D02*
X6079705Y-17224174D01*
X6079705Y-17224174D02*
X6079705Y-17271793D01*
X6079705Y-17271793D02*
X6070182Y-17309889D01*
X6070182Y-17309889D02*
X6060658Y-17328936D01*
X6060658Y-17328936D02*
X6051134Y-17338460D01*
X6051134Y-17338460D02*
X6032086Y-17347984D01*
X6032086Y-17347984D02*
X6013039Y-17347984D01*
X6013039Y-17347984D02*
X5993991Y-17338460D01*
X5993991Y-17338460D02*
X5984467Y-17328936D01*
X5984467Y-17328936D02*
X5974943Y-17309889D01*
X5974943Y-17309889D02*
X5965420Y-17271793D01*
X5965420Y-17271793D02*
X5965420Y-17224174D01*
X5965420Y-17224174D02*
X5974943Y-17186079D01*
X5974943Y-17186079D02*
X5984467Y-17167031D01*
X5984467Y-17167031D02*
X5993991Y-17157508D01*
X5993991Y-17157508D02*
X6013039Y-17147984D01*
X6165420Y-17347984D02*
X6165420Y-17214650D01*
X6165420Y-17233698D02*
X6174943Y-17224174D01*
X6174943Y-17224174D02*
X6193991Y-17214650D01*
X6193991Y-17214650D02*
X6222563Y-17214650D01*
X6222563Y-17214650D02*
X6241610Y-17224174D01*
X6241610Y-17224174D02*
X6251134Y-17243222D01*
X6251134Y-17243222D02*
X6251134Y-17347984D01*
X6251134Y-17243222D02*
X6260658Y-17224174D01*
X6260658Y-17224174D02*
X6279705Y-17214650D01*
X6279705Y-17214650D02*
X6308277Y-17214650D01*
X6308277Y-17214650D02*
X6327324Y-17224174D01*
X6327324Y-17224174D02*
X6336848Y-17243222D01*
X6336848Y-17243222D02*
X6336848Y-17347984D01*
X6432086Y-17347984D02*
X6432086Y-17214650D01*
X6432086Y-17233698D02*
X6441610Y-17224174D01*
X6441610Y-17224174D02*
X6460658Y-17214650D01*
X6460658Y-17214650D02*
X6489229Y-17214650D01*
X6489229Y-17214650D02*
X6508277Y-17224174D01*
X6508277Y-17224174D02*
X6517801Y-17243222D01*
X6517801Y-17243222D02*
X6517801Y-17347984D01*
X6517801Y-17243222D02*
X6527324Y-17224174D01*
X6527324Y-17224174D02*
X6546372Y-17214650D01*
X6546372Y-17214650D02*
X6574943Y-17214650D01*
X6574943Y-17214650D02*
X6593991Y-17224174D01*
X6593991Y-17224174D02*
X6603515Y-17243222D01*
X6603515Y-17243222D02*
X6603515Y-17347984D01*
X6993991Y-17138460D02*
X6822563Y-17395603D01*
X7251134Y-17147984D02*
X7270182Y-17147984D01*
X7270182Y-17147984D02*
X7289229Y-17157508D01*
X7289229Y-17157508D02*
X7298753Y-17167031D01*
X7298753Y-17167031D02*
X7308277Y-17186079D01*
X7308277Y-17186079D02*
X7317801Y-17224174D01*
X7317801Y-17224174D02*
X7317801Y-17271793D01*
X7317801Y-17271793D02*
X7308277Y-17309889D01*
X7308277Y-17309889D02*
X7298753Y-17328936D01*
X7298753Y-17328936D02*
X7289229Y-17338460D01*
X7289229Y-17338460D02*
X7270182Y-17347984D01*
X7270182Y-17347984D02*
X7251134Y-17347984D01*
X7251134Y-17347984D02*
X7232086Y-17338460D01*
X7232086Y-17338460D02*
X7222563Y-17328936D01*
X7222563Y-17328936D02*
X7213039Y-17309889D01*
X7213039Y-17309889D02*
X7203515Y-17271793D01*
X7203515Y-17271793D02*
X7203515Y-17224174D01*
X7203515Y-17224174D02*
X7213039Y-17186079D01*
X7213039Y-17186079D02*
X7222563Y-17167031D01*
X7222563Y-17167031D02*
X7232086Y-17157508D01*
X7232086Y-17157508D02*
X7251134Y-17147984D01*
X7403515Y-17328936D02*
X7413039Y-17338460D01*
X7413039Y-17338460D02*
X7403515Y-17347984D01*
X7403515Y-17347984D02*
X7393991Y-17338460D01*
X7393991Y-17338460D02*
X7403515Y-17328936D01*
X7403515Y-17328936D02*
X7403515Y-17347984D01*
X7536848Y-17147984D02*
X7555896Y-17147984D01*
X7555896Y-17147984D02*
X7574944Y-17157508D01*
X7574944Y-17157508D02*
X7584467Y-17167031D01*
X7584467Y-17167031D02*
X7593991Y-17186079D01*
X7593991Y-17186079D02*
X7603515Y-17224174D01*
X7603515Y-17224174D02*
X7603515Y-17271793D01*
X7603515Y-17271793D02*
X7593991Y-17309889D01*
X7593991Y-17309889D02*
X7584467Y-17328936D01*
X7584467Y-17328936D02*
X7574944Y-17338460D01*
X7574944Y-17338460D02*
X7555896Y-17347984D01*
X7555896Y-17347984D02*
X7536848Y-17347984D01*
X7536848Y-17347984D02*
X7517801Y-17338460D01*
X7517801Y-17338460D02*
X7508277Y-17328936D01*
X7508277Y-17328936D02*
X7498753Y-17309889D01*
X7498753Y-17309889D02*
X7489229Y-17271793D01*
X7489229Y-17271793D02*
X7489229Y-17224174D01*
X7489229Y-17224174D02*
X7498753Y-17186079D01*
X7498753Y-17186079D02*
X7508277Y-17167031D01*
X7508277Y-17167031D02*
X7517801Y-17157508D01*
X7517801Y-17157508D02*
X7536848Y-17147984D01*
X7670182Y-17147984D02*
X7793991Y-17147984D01*
X7793991Y-17147984D02*
X7727325Y-17224174D01*
X7727325Y-17224174D02*
X7755896Y-17224174D01*
X7755896Y-17224174D02*
X7774944Y-17233698D01*
X7774944Y-17233698D02*
X7784467Y-17243222D01*
X7784467Y-17243222D02*
X7793991Y-17262270D01*
X7793991Y-17262270D02*
X7793991Y-17309889D01*
X7793991Y-17309889D02*
X7784467Y-17328936D01*
X7784467Y-17328936D02*
X7774944Y-17338460D01*
X7774944Y-17338460D02*
X7755896Y-17347984D01*
X7755896Y-17347984D02*
X7698753Y-17347984D01*
X7698753Y-17347984D02*
X7679706Y-17338460D01*
X7679706Y-17338460D02*
X7670182Y-17328936D01*
X7974944Y-17147984D02*
X7879706Y-17147984D01*
X7879706Y-17147984D02*
X7870182Y-17243222D01*
X7870182Y-17243222D02*
X7879706Y-17233698D01*
X7879706Y-17233698D02*
X7898753Y-17224174D01*
X7898753Y-17224174D02*
X7946372Y-17224174D01*
X7946372Y-17224174D02*
X7965420Y-17233698D01*
X7965420Y-17233698D02*
X7974944Y-17243222D01*
X7974944Y-17243222D02*
X7984467Y-17262270D01*
X7984467Y-17262270D02*
X7984467Y-17309889D01*
X7984467Y-17309889D02*
X7974944Y-17328936D01*
X7974944Y-17328936D02*
X7965420Y-17338460D01*
X7965420Y-17338460D02*
X7946372Y-17347984D01*
X7946372Y-17347984D02*
X7898753Y-17347984D01*
X7898753Y-17347984D02*
X7879706Y-17338460D01*
X7879706Y-17338460D02*
X7870182Y-17328936D01*
X8155896Y-17214650D02*
X8155896Y-17347984D01*
X8108277Y-17138460D02*
X8060658Y-17281317D01*
X8060658Y-17281317D02*
X8184467Y-17281317D01*
X8251134Y-17147984D02*
X8251134Y-17186079D01*
X8327325Y-17147984D02*
X8327325Y-17186079D01*
X8622563Y-17424174D02*
X8613039Y-17414650D01*
X8613039Y-17414650D02*
X8593991Y-17386079D01*
X8593991Y-17386079D02*
X8584468Y-17367031D01*
X8584468Y-17367031D02*
X8574944Y-17338460D01*
X8574944Y-17338460D02*
X8565420Y-17290841D01*
X8565420Y-17290841D02*
X8565420Y-17252746D01*
X8565420Y-17252746D02*
X8574944Y-17205127D01*
X8574944Y-17205127D02*
X8584468Y-17176555D01*
X8584468Y-17176555D02*
X8593991Y-17157508D01*
X8593991Y-17157508D02*
X8613039Y-17128936D01*
X8613039Y-17128936D02*
X8622563Y-17119412D01*
X8784468Y-17214650D02*
X8784468Y-17347984D01*
X8736849Y-17138460D02*
X8689230Y-17281317D01*
X8689230Y-17281317D02*
X8813039Y-17281317D01*
X9041611Y-17347984D02*
X9041611Y-17147984D01*
X9127325Y-17347984D02*
X9127325Y-17243222D01*
X9127325Y-17243222D02*
X9117801Y-17224174D01*
X9117801Y-17224174D02*
X9098753Y-17214650D01*
X9098753Y-17214650D02*
X9070182Y-17214650D01*
X9070182Y-17214650D02*
X9051134Y-17224174D01*
X9051134Y-17224174D02*
X9041611Y-17233698D01*
X9251134Y-17347984D02*
X9232087Y-17338460D01*
X9232087Y-17338460D02*
X9222563Y-17328936D01*
X9222563Y-17328936D02*
X9213039Y-17309889D01*
X9213039Y-17309889D02*
X9213039Y-17252746D01*
X9213039Y-17252746D02*
X9222563Y-17233698D01*
X9222563Y-17233698D02*
X9232087Y-17224174D01*
X9232087Y-17224174D02*
X9251134Y-17214650D01*
X9251134Y-17214650D02*
X9279706Y-17214650D01*
X9279706Y-17214650D02*
X9298753Y-17224174D01*
X9298753Y-17224174D02*
X9308277Y-17233698D01*
X9308277Y-17233698D02*
X9317801Y-17252746D01*
X9317801Y-17252746D02*
X9317801Y-17309889D01*
X9317801Y-17309889D02*
X9308277Y-17328936D01*
X9308277Y-17328936D02*
X9298753Y-17338460D01*
X9298753Y-17338460D02*
X9279706Y-17347984D01*
X9279706Y-17347984D02*
X9251134Y-17347984D01*
X9432087Y-17347984D02*
X9413039Y-17338460D01*
X9413039Y-17338460D02*
X9403515Y-17319412D01*
X9403515Y-17319412D02*
X9403515Y-17147984D01*
X9584468Y-17338460D02*
X9565420Y-17347984D01*
X9565420Y-17347984D02*
X9527325Y-17347984D01*
X9527325Y-17347984D02*
X9508277Y-17338460D01*
X9508277Y-17338460D02*
X9498753Y-17319412D01*
X9498753Y-17319412D02*
X9498753Y-17243222D01*
X9498753Y-17243222D02*
X9508277Y-17224174D01*
X9508277Y-17224174D02*
X9527325Y-17214650D01*
X9527325Y-17214650D02*
X9565420Y-17214650D01*
X9565420Y-17214650D02*
X9584468Y-17224174D01*
X9584468Y-17224174D02*
X9593992Y-17243222D01*
X9593992Y-17243222D02*
X9593992Y-17262270D01*
X9593992Y-17262270D02*
X9498753Y-17281317D01*
X9670182Y-17338460D02*
X9689230Y-17347984D01*
X9689230Y-17347984D02*
X9727325Y-17347984D01*
X9727325Y-17347984D02*
X9746373Y-17338460D01*
X9746373Y-17338460D02*
X9755896Y-17319412D01*
X9755896Y-17319412D02*
X9755896Y-17309889D01*
X9755896Y-17309889D02*
X9746373Y-17290841D01*
X9746373Y-17290841D02*
X9727325Y-17281317D01*
X9727325Y-17281317D02*
X9698753Y-17281317D01*
X9698753Y-17281317D02*
X9679706Y-17271793D01*
X9679706Y-17271793D02*
X9670182Y-17252746D01*
X9670182Y-17252746D02*
X9670182Y-17243222D01*
X9670182Y-17243222D02*
X9679706Y-17224174D01*
X9679706Y-17224174D02*
X9698753Y-17214650D01*
X9698753Y-17214650D02*
X9727325Y-17214650D01*
X9727325Y-17214650D02*
X9746373Y-17224174D01*
X9822563Y-17424174D02*
X9832087Y-17414650D01*
X9832087Y-17414650D02*
X9851134Y-17386079D01*
X9851134Y-17386079D02*
X9860658Y-17367031D01*
X9860658Y-17367031D02*
X9870182Y-17338460D01*
X9870182Y-17338460D02*
X9879706Y-17290841D01*
X9879706Y-17290841D02*
X9879706Y-17252746D01*
X9879706Y-17252746D02*
X9870182Y-17205127D01*
X9870182Y-17205127D02*
X9860658Y-17176555D01*
X9860658Y-17176555D02*
X9851134Y-17157508D01*
X9851134Y-17157508D02*
X9832087Y-17128936D01*
X9832087Y-17128936D02*
X9822563Y-17119412D01*
D12*
X4997500Y-17470500D02*
X4997500Y-17570500D01*
X4947500Y-17520500D02*
X5047500Y-17520500D01*
D11*
X5413039Y-17611984D02*
X5298753Y-17611984D01*
X5355896Y-17611984D02*
X5355896Y-17411984D01*
X5355896Y-17411984D02*
X5336848Y-17440555D01*
X5336848Y-17440555D02*
X5317801Y-17459603D01*
X5317801Y-17459603D02*
X5298753Y-17469127D01*
X5498753Y-17592936D02*
X5508277Y-17602460D01*
X5508277Y-17602460D02*
X5498753Y-17611984D01*
X5498753Y-17611984D02*
X5489229Y-17602460D01*
X5489229Y-17602460D02*
X5498753Y-17592936D01*
X5498753Y-17592936D02*
X5498753Y-17611984D01*
X5632086Y-17411984D02*
X5651134Y-17411984D01*
X5651134Y-17411984D02*
X5670182Y-17421508D01*
X5670182Y-17421508D02*
X5679705Y-17431031D01*
X5679705Y-17431031D02*
X5689229Y-17450079D01*
X5689229Y-17450079D02*
X5698753Y-17488174D01*
X5698753Y-17488174D02*
X5698753Y-17535793D01*
X5698753Y-17535793D02*
X5689229Y-17573889D01*
X5689229Y-17573889D02*
X5679705Y-17592936D01*
X5679705Y-17592936D02*
X5670182Y-17602460D01*
X5670182Y-17602460D02*
X5651134Y-17611984D01*
X5651134Y-17611984D02*
X5632086Y-17611984D01*
X5632086Y-17611984D02*
X5613039Y-17602460D01*
X5613039Y-17602460D02*
X5603515Y-17592936D01*
X5603515Y-17592936D02*
X5593991Y-17573889D01*
X5593991Y-17573889D02*
X5584467Y-17535793D01*
X5584467Y-17535793D02*
X5584467Y-17488174D01*
X5584467Y-17488174D02*
X5593991Y-17450079D01*
X5593991Y-17450079D02*
X5603515Y-17431031D01*
X5603515Y-17431031D02*
X5613039Y-17421508D01*
X5613039Y-17421508D02*
X5632086Y-17411984D01*
X5822562Y-17411984D02*
X5841610Y-17411984D01*
X5841610Y-17411984D02*
X5860658Y-17421508D01*
X5860658Y-17421508D02*
X5870182Y-17431031D01*
X5870182Y-17431031D02*
X5879705Y-17450079D01*
X5879705Y-17450079D02*
X5889229Y-17488174D01*
X5889229Y-17488174D02*
X5889229Y-17535793D01*
X5889229Y-17535793D02*
X5879705Y-17573889D01*
X5879705Y-17573889D02*
X5870182Y-17592936D01*
X5870182Y-17592936D02*
X5860658Y-17602460D01*
X5860658Y-17602460D02*
X5841610Y-17611984D01*
X5841610Y-17611984D02*
X5822562Y-17611984D01*
X5822562Y-17611984D02*
X5803515Y-17602460D01*
X5803515Y-17602460D02*
X5793991Y-17592936D01*
X5793991Y-17592936D02*
X5784467Y-17573889D01*
X5784467Y-17573889D02*
X5774943Y-17535793D01*
X5774943Y-17535793D02*
X5774943Y-17488174D01*
X5774943Y-17488174D02*
X5784467Y-17450079D01*
X5784467Y-17450079D02*
X5793991Y-17431031D01*
X5793991Y-17431031D02*
X5803515Y-17421508D01*
X5803515Y-17421508D02*
X5822562Y-17411984D01*
X6013039Y-17411984D02*
X6032086Y-17411984D01*
X6032086Y-17411984D02*
X6051134Y-17421508D01*
X6051134Y-17421508D02*
X6060658Y-17431031D01*
X6060658Y-17431031D02*
X6070182Y-17450079D01*
X6070182Y-17450079D02*
X6079705Y-17488174D01*
X6079705Y-17488174D02*
X6079705Y-17535793D01*
X6079705Y-17535793D02*
X6070182Y-17573889D01*
X6070182Y-17573889D02*
X6060658Y-17592936D01*
X6060658Y-17592936D02*
X6051134Y-17602460D01*
X6051134Y-17602460D02*
X6032086Y-17611984D01*
X6032086Y-17611984D02*
X6013039Y-17611984D01*
X6013039Y-17611984D02*
X5993991Y-17602460D01*
X5993991Y-17602460D02*
X5984467Y-17592936D01*
X5984467Y-17592936D02*
X5974943Y-17573889D01*
X5974943Y-17573889D02*
X5965420Y-17535793D01*
X5965420Y-17535793D02*
X5965420Y-17488174D01*
X5965420Y-17488174D02*
X5974943Y-17450079D01*
X5974943Y-17450079D02*
X5984467Y-17431031D01*
X5984467Y-17431031D02*
X5993991Y-17421508D01*
X5993991Y-17421508D02*
X6013039Y-17411984D01*
X6165420Y-17611984D02*
X6165420Y-17478650D01*
X6165420Y-17497698D02*
X6174943Y-17488174D01*
X6174943Y-17488174D02*
X6193991Y-17478650D01*
X6193991Y-17478650D02*
X6222563Y-17478650D01*
X6222563Y-17478650D02*
X6241610Y-17488174D01*
X6241610Y-17488174D02*
X6251134Y-17507222D01*
X6251134Y-17507222D02*
X6251134Y-17611984D01*
X6251134Y-17507222D02*
X6260658Y-17488174D01*
X6260658Y-17488174D02*
X6279705Y-17478650D01*
X6279705Y-17478650D02*
X6308277Y-17478650D01*
X6308277Y-17478650D02*
X6327324Y-17488174D01*
X6327324Y-17488174D02*
X6336848Y-17507222D01*
X6336848Y-17507222D02*
X6336848Y-17611984D01*
X6432086Y-17611984D02*
X6432086Y-17478650D01*
X6432086Y-17497698D02*
X6441610Y-17488174D01*
X6441610Y-17488174D02*
X6460658Y-17478650D01*
X6460658Y-17478650D02*
X6489229Y-17478650D01*
X6489229Y-17478650D02*
X6508277Y-17488174D01*
X6508277Y-17488174D02*
X6517801Y-17507222D01*
X6517801Y-17507222D02*
X6517801Y-17611984D01*
X6517801Y-17507222D02*
X6527324Y-17488174D01*
X6527324Y-17488174D02*
X6546372Y-17478650D01*
X6546372Y-17478650D02*
X6574943Y-17478650D01*
X6574943Y-17478650D02*
X6593991Y-17488174D01*
X6593991Y-17488174D02*
X6603515Y-17507222D01*
X6603515Y-17507222D02*
X6603515Y-17611984D01*
X6993991Y-17402460D02*
X6822563Y-17659603D01*
X7251134Y-17411984D02*
X7270182Y-17411984D01*
X7270182Y-17411984D02*
X7289229Y-17421508D01*
X7289229Y-17421508D02*
X7298753Y-17431031D01*
X7298753Y-17431031D02*
X7308277Y-17450079D01*
X7308277Y-17450079D02*
X7317801Y-17488174D01*
X7317801Y-17488174D02*
X7317801Y-17535793D01*
X7317801Y-17535793D02*
X7308277Y-17573889D01*
X7308277Y-17573889D02*
X7298753Y-17592936D01*
X7298753Y-17592936D02*
X7289229Y-17602460D01*
X7289229Y-17602460D02*
X7270182Y-17611984D01*
X7270182Y-17611984D02*
X7251134Y-17611984D01*
X7251134Y-17611984D02*
X7232086Y-17602460D01*
X7232086Y-17602460D02*
X7222563Y-17592936D01*
X7222563Y-17592936D02*
X7213039Y-17573889D01*
X7213039Y-17573889D02*
X7203515Y-17535793D01*
X7203515Y-17535793D02*
X7203515Y-17488174D01*
X7203515Y-17488174D02*
X7213039Y-17450079D01*
X7213039Y-17450079D02*
X7222563Y-17431031D01*
X7222563Y-17431031D02*
X7232086Y-17421508D01*
X7232086Y-17421508D02*
X7251134Y-17411984D01*
X7403515Y-17592936D02*
X7413039Y-17602460D01*
X7413039Y-17602460D02*
X7403515Y-17611984D01*
X7403515Y-17611984D02*
X7393991Y-17602460D01*
X7393991Y-17602460D02*
X7403515Y-17592936D01*
X7403515Y-17592936D02*
X7403515Y-17611984D01*
X7536848Y-17411984D02*
X7555896Y-17411984D01*
X7555896Y-17411984D02*
X7574944Y-17421508D01*
X7574944Y-17421508D02*
X7584467Y-17431031D01*
X7584467Y-17431031D02*
X7593991Y-17450079D01*
X7593991Y-17450079D02*
X7603515Y-17488174D01*
X7603515Y-17488174D02*
X7603515Y-17535793D01*
X7603515Y-17535793D02*
X7593991Y-17573889D01*
X7593991Y-17573889D02*
X7584467Y-17592936D01*
X7584467Y-17592936D02*
X7574944Y-17602460D01*
X7574944Y-17602460D02*
X7555896Y-17611984D01*
X7555896Y-17611984D02*
X7536848Y-17611984D01*
X7536848Y-17611984D02*
X7517801Y-17602460D01*
X7517801Y-17602460D02*
X7508277Y-17592936D01*
X7508277Y-17592936D02*
X7498753Y-17573889D01*
X7498753Y-17573889D02*
X7489229Y-17535793D01*
X7489229Y-17535793D02*
X7489229Y-17488174D01*
X7489229Y-17488174D02*
X7498753Y-17450079D01*
X7498753Y-17450079D02*
X7508277Y-17431031D01*
X7508277Y-17431031D02*
X7517801Y-17421508D01*
X7517801Y-17421508D02*
X7536848Y-17411984D01*
X7670182Y-17411984D02*
X7793991Y-17411984D01*
X7793991Y-17411984D02*
X7727325Y-17488174D01*
X7727325Y-17488174D02*
X7755896Y-17488174D01*
X7755896Y-17488174D02*
X7774944Y-17497698D01*
X7774944Y-17497698D02*
X7784467Y-17507222D01*
X7784467Y-17507222D02*
X7793991Y-17526270D01*
X7793991Y-17526270D02*
X7793991Y-17573889D01*
X7793991Y-17573889D02*
X7784467Y-17592936D01*
X7784467Y-17592936D02*
X7774944Y-17602460D01*
X7774944Y-17602460D02*
X7755896Y-17611984D01*
X7755896Y-17611984D02*
X7698753Y-17611984D01*
X7698753Y-17611984D02*
X7679706Y-17602460D01*
X7679706Y-17602460D02*
X7670182Y-17592936D01*
X7889229Y-17611984D02*
X7927325Y-17611984D01*
X7927325Y-17611984D02*
X7946372Y-17602460D01*
X7946372Y-17602460D02*
X7955896Y-17592936D01*
X7955896Y-17592936D02*
X7974944Y-17564365D01*
X7974944Y-17564365D02*
X7984467Y-17526270D01*
X7984467Y-17526270D02*
X7984467Y-17450079D01*
X7984467Y-17450079D02*
X7974944Y-17431031D01*
X7974944Y-17431031D02*
X7965420Y-17421508D01*
X7965420Y-17421508D02*
X7946372Y-17411984D01*
X7946372Y-17411984D02*
X7908277Y-17411984D01*
X7908277Y-17411984D02*
X7889229Y-17421508D01*
X7889229Y-17421508D02*
X7879706Y-17431031D01*
X7879706Y-17431031D02*
X7870182Y-17450079D01*
X7870182Y-17450079D02*
X7870182Y-17497698D01*
X7870182Y-17497698D02*
X7879706Y-17516746D01*
X7879706Y-17516746D02*
X7889229Y-17526270D01*
X7889229Y-17526270D02*
X7908277Y-17535793D01*
X7908277Y-17535793D02*
X7946372Y-17535793D01*
X7946372Y-17535793D02*
X7965420Y-17526270D01*
X7965420Y-17526270D02*
X7974944Y-17516746D01*
X7974944Y-17516746D02*
X7984467Y-17497698D01*
X8155896Y-17478650D02*
X8155896Y-17611984D01*
X8108277Y-17402460D02*
X8060658Y-17545317D01*
X8060658Y-17545317D02*
X8184467Y-17545317D01*
X8251134Y-17411984D02*
X8251134Y-17450079D01*
X8327325Y-17411984D02*
X8327325Y-17450079D01*
X8622563Y-17688174D02*
X8613039Y-17678650D01*
X8613039Y-17678650D02*
X8593991Y-17650079D01*
X8593991Y-17650079D02*
X8584468Y-17631031D01*
X8584468Y-17631031D02*
X8574944Y-17602460D01*
X8574944Y-17602460D02*
X8565420Y-17554841D01*
X8565420Y-17554841D02*
X8565420Y-17516746D01*
X8565420Y-17516746D02*
X8574944Y-17469127D01*
X8574944Y-17469127D02*
X8584468Y-17440555D01*
X8584468Y-17440555D02*
X8593991Y-17421508D01*
X8593991Y-17421508D02*
X8613039Y-17392936D01*
X8613039Y-17392936D02*
X8622563Y-17383412D01*
X8793991Y-17411984D02*
X8698753Y-17411984D01*
X8698753Y-17411984D02*
X8689230Y-17507222D01*
X8689230Y-17507222D02*
X8698753Y-17497698D01*
X8698753Y-17497698D02*
X8717801Y-17488174D01*
X8717801Y-17488174D02*
X8765420Y-17488174D01*
X8765420Y-17488174D02*
X8784468Y-17497698D01*
X8784468Y-17497698D02*
X8793991Y-17507222D01*
X8793991Y-17507222D02*
X8803515Y-17526270D01*
X8803515Y-17526270D02*
X8803515Y-17573889D01*
X8803515Y-17573889D02*
X8793991Y-17592936D01*
X8793991Y-17592936D02*
X8784468Y-17602460D01*
X8784468Y-17602460D02*
X8765420Y-17611984D01*
X8765420Y-17611984D02*
X8717801Y-17611984D01*
X8717801Y-17611984D02*
X8698753Y-17602460D01*
X8698753Y-17602460D02*
X8689230Y-17592936D01*
X8974944Y-17411984D02*
X8936849Y-17411984D01*
X8936849Y-17411984D02*
X8917801Y-17421508D01*
X8917801Y-17421508D02*
X8908277Y-17431031D01*
X8908277Y-17431031D02*
X8889230Y-17459603D01*
X8889230Y-17459603D02*
X8879706Y-17497698D01*
X8879706Y-17497698D02*
X8879706Y-17573889D01*
X8879706Y-17573889D02*
X8889230Y-17592936D01*
X8889230Y-17592936D02*
X8898753Y-17602460D01*
X8898753Y-17602460D02*
X8917801Y-17611984D01*
X8917801Y-17611984D02*
X8955896Y-17611984D01*
X8955896Y-17611984D02*
X8974944Y-17602460D01*
X8974944Y-17602460D02*
X8984468Y-17592936D01*
X8984468Y-17592936D02*
X8993991Y-17573889D01*
X8993991Y-17573889D02*
X8993991Y-17526270D01*
X8993991Y-17526270D02*
X8984468Y-17507222D01*
X8984468Y-17507222D02*
X8974944Y-17497698D01*
X8974944Y-17497698D02*
X8955896Y-17488174D01*
X8955896Y-17488174D02*
X8917801Y-17488174D01*
X8917801Y-17488174D02*
X8898753Y-17497698D01*
X8898753Y-17497698D02*
X8889230Y-17507222D01*
X8889230Y-17507222D02*
X8879706Y-17526270D01*
X9232087Y-17611984D02*
X9232087Y-17411984D01*
X9317801Y-17611984D02*
X9317801Y-17507222D01*
X9317801Y-17507222D02*
X9308277Y-17488174D01*
X9308277Y-17488174D02*
X9289230Y-17478650D01*
X9289230Y-17478650D02*
X9260658Y-17478650D01*
X9260658Y-17478650D02*
X9241611Y-17488174D01*
X9241611Y-17488174D02*
X9232087Y-17497698D01*
X9441611Y-17611984D02*
X9422563Y-17602460D01*
X9422563Y-17602460D02*
X9413039Y-17592936D01*
X9413039Y-17592936D02*
X9403515Y-17573889D01*
X9403515Y-17573889D02*
X9403515Y-17516746D01*
X9403515Y-17516746D02*
X9413039Y-17497698D01*
X9413039Y-17497698D02*
X9422563Y-17488174D01*
X9422563Y-17488174D02*
X9441611Y-17478650D01*
X9441611Y-17478650D02*
X9470182Y-17478650D01*
X9470182Y-17478650D02*
X9489230Y-17488174D01*
X9489230Y-17488174D02*
X9498753Y-17497698D01*
X9498753Y-17497698D02*
X9508277Y-17516746D01*
X9508277Y-17516746D02*
X9508277Y-17573889D01*
X9508277Y-17573889D02*
X9498753Y-17592936D01*
X9498753Y-17592936D02*
X9489230Y-17602460D01*
X9489230Y-17602460D02*
X9470182Y-17611984D01*
X9470182Y-17611984D02*
X9441611Y-17611984D01*
X9622563Y-17611984D02*
X9603515Y-17602460D01*
X9603515Y-17602460D02*
X9593992Y-17583412D01*
X9593992Y-17583412D02*
X9593992Y-17411984D01*
X9774944Y-17602460D02*
X9755896Y-17611984D01*
X9755896Y-17611984D02*
X9717801Y-17611984D01*
X9717801Y-17611984D02*
X9698753Y-17602460D01*
X9698753Y-17602460D02*
X9689230Y-17583412D01*
X9689230Y-17583412D02*
X9689230Y-17507222D01*
X9689230Y-17507222D02*
X9698753Y-17488174D01*
X9698753Y-17488174D02*
X9717801Y-17478650D01*
X9717801Y-17478650D02*
X9755896Y-17478650D01*
X9755896Y-17478650D02*
X9774944Y-17488174D01*
X9774944Y-17488174D02*
X9784468Y-17507222D01*
X9784468Y-17507222D02*
X9784468Y-17526270D01*
X9784468Y-17526270D02*
X9689230Y-17545317D01*
X9860658Y-17602460D02*
X9879706Y-17611984D01*
X9879706Y-17611984D02*
X9917801Y-17611984D01*
X9917801Y-17611984D02*
X9936849Y-17602460D01*
X9936849Y-17602460D02*
X9946373Y-17583412D01*
X9946373Y-17583412D02*
X9946373Y-17573889D01*
X9946373Y-17573889D02*
X9936849Y-17554841D01*
X9936849Y-17554841D02*
X9917801Y-17545317D01*
X9917801Y-17545317D02*
X9889230Y-17545317D01*
X9889230Y-17545317D02*
X9870182Y-17535793D01*
X9870182Y-17535793D02*
X9860658Y-17516746D01*
X9860658Y-17516746D02*
X9860658Y-17507222D01*
X9860658Y-17507222D02*
X9870182Y-17488174D01*
X9870182Y-17488174D02*
X9889230Y-17478650D01*
X9889230Y-17478650D02*
X9917801Y-17478650D01*
X9917801Y-17478650D02*
X9936849Y-17488174D01*
X10013039Y-17688174D02*
X10022563Y-17678650D01*
X10022563Y-17678650D02*
X10041611Y-17650079D01*
X10041611Y-17650079D02*
X10051134Y-17631031D01*
X10051134Y-17631031D02*
X10060658Y-17602460D01*
X10060658Y-17602460D02*
X10070182Y-17554841D01*
X10070182Y-17554841D02*
X10070182Y-17516746D01*
X10070182Y-17516746D02*
X10060658Y-17469127D01*
X10060658Y-17469127D02*
X10051134Y-17440555D01*
X10051134Y-17440555D02*
X10041611Y-17421508D01*
X10041611Y-17421508D02*
X10022563Y-17392936D01*
X10022563Y-17392936D02*
X10013039Y-17383412D01*
D13*
X5031391Y-17823391D02*
X5031391Y-17745609D01*
X4953609Y-17745609D01*
X4953609Y-17823391D01*
X5031391Y-17823391D01*
D11*
X5413039Y-17875984D02*
X5298753Y-17875984D01*
X5355896Y-17875984D02*
X5355896Y-17675984D01*
X5355896Y-17675984D02*
X5336848Y-17704555D01*
X5336848Y-17704555D02*
X5317801Y-17723603D01*
X5317801Y-17723603D02*
X5298753Y-17733127D01*
X5498753Y-17856936D02*
X5508277Y-17866460D01*
X5508277Y-17866460D02*
X5498753Y-17875984D01*
X5498753Y-17875984D02*
X5489229Y-17866460D01*
X5489229Y-17866460D02*
X5498753Y-17856936D01*
X5498753Y-17856936D02*
X5498753Y-17875984D01*
X5698753Y-17875984D02*
X5584467Y-17875984D01*
X5641610Y-17875984D02*
X5641610Y-17675984D01*
X5641610Y-17675984D02*
X5622562Y-17704555D01*
X5622562Y-17704555D02*
X5603515Y-17723603D01*
X5603515Y-17723603D02*
X5584467Y-17733127D01*
X5822562Y-17675984D02*
X5841610Y-17675984D01*
X5841610Y-17675984D02*
X5860658Y-17685508D01*
X5860658Y-17685508D02*
X5870182Y-17695031D01*
X5870182Y-17695031D02*
X5879705Y-17714079D01*
X5879705Y-17714079D02*
X5889229Y-17752174D01*
X5889229Y-17752174D02*
X5889229Y-17799793D01*
X5889229Y-17799793D02*
X5879705Y-17837889D01*
X5879705Y-17837889D02*
X5870182Y-17856936D01*
X5870182Y-17856936D02*
X5860658Y-17866460D01*
X5860658Y-17866460D02*
X5841610Y-17875984D01*
X5841610Y-17875984D02*
X5822562Y-17875984D01*
X5822562Y-17875984D02*
X5803515Y-17866460D01*
X5803515Y-17866460D02*
X5793991Y-17856936D01*
X5793991Y-17856936D02*
X5784467Y-17837889D01*
X5784467Y-17837889D02*
X5774943Y-17799793D01*
X5774943Y-17799793D02*
X5774943Y-17752174D01*
X5774943Y-17752174D02*
X5784467Y-17714079D01*
X5784467Y-17714079D02*
X5793991Y-17695031D01*
X5793991Y-17695031D02*
X5803515Y-17685508D01*
X5803515Y-17685508D02*
X5822562Y-17675984D01*
X6013039Y-17675984D02*
X6032086Y-17675984D01*
X6032086Y-17675984D02*
X6051134Y-17685508D01*
X6051134Y-17685508D02*
X6060658Y-17695031D01*
X6060658Y-17695031D02*
X6070182Y-17714079D01*
X6070182Y-17714079D02*
X6079705Y-17752174D01*
X6079705Y-17752174D02*
X6079705Y-17799793D01*
X6079705Y-17799793D02*
X6070182Y-17837889D01*
X6070182Y-17837889D02*
X6060658Y-17856936D01*
X6060658Y-17856936D02*
X6051134Y-17866460D01*
X6051134Y-17866460D02*
X6032086Y-17875984D01*
X6032086Y-17875984D02*
X6013039Y-17875984D01*
X6013039Y-17875984D02*
X5993991Y-17866460D01*
X5993991Y-17866460D02*
X5984467Y-17856936D01*
X5984467Y-17856936D02*
X5974943Y-17837889D01*
X5974943Y-17837889D02*
X5965420Y-17799793D01*
X5965420Y-17799793D02*
X5965420Y-17752174D01*
X5965420Y-17752174D02*
X5974943Y-17714079D01*
X5974943Y-17714079D02*
X5984467Y-17695031D01*
X5984467Y-17695031D02*
X5993991Y-17685508D01*
X5993991Y-17685508D02*
X6013039Y-17675984D01*
X6165420Y-17875984D02*
X6165420Y-17742650D01*
X6165420Y-17761698D02*
X6174943Y-17752174D01*
X6174943Y-17752174D02*
X6193991Y-17742650D01*
X6193991Y-17742650D02*
X6222563Y-17742650D01*
X6222563Y-17742650D02*
X6241610Y-17752174D01*
X6241610Y-17752174D02*
X6251134Y-17771222D01*
X6251134Y-17771222D02*
X6251134Y-17875984D01*
X6251134Y-17771222D02*
X6260658Y-17752174D01*
X6260658Y-17752174D02*
X6279705Y-17742650D01*
X6279705Y-17742650D02*
X6308277Y-17742650D01*
X6308277Y-17742650D02*
X6327324Y-17752174D01*
X6327324Y-17752174D02*
X6336848Y-17771222D01*
X6336848Y-17771222D02*
X6336848Y-17875984D01*
X6432086Y-17875984D02*
X6432086Y-17742650D01*
X6432086Y-17761698D02*
X6441610Y-17752174D01*
X6441610Y-17752174D02*
X6460658Y-17742650D01*
X6460658Y-17742650D02*
X6489229Y-17742650D01*
X6489229Y-17742650D02*
X6508277Y-17752174D01*
X6508277Y-17752174D02*
X6517801Y-17771222D01*
X6517801Y-17771222D02*
X6517801Y-17875984D01*
X6517801Y-17771222D02*
X6527324Y-17752174D01*
X6527324Y-17752174D02*
X6546372Y-17742650D01*
X6546372Y-17742650D02*
X6574943Y-17742650D01*
X6574943Y-17742650D02*
X6593991Y-17752174D01*
X6593991Y-17752174D02*
X6603515Y-17771222D01*
X6603515Y-17771222D02*
X6603515Y-17875984D01*
X6993991Y-17666460D02*
X6822563Y-17923603D01*
X7251134Y-17675984D02*
X7270182Y-17675984D01*
X7270182Y-17675984D02*
X7289229Y-17685508D01*
X7289229Y-17685508D02*
X7298753Y-17695031D01*
X7298753Y-17695031D02*
X7308277Y-17714079D01*
X7308277Y-17714079D02*
X7317801Y-17752174D01*
X7317801Y-17752174D02*
X7317801Y-17799793D01*
X7317801Y-17799793D02*
X7308277Y-17837889D01*
X7308277Y-17837889D02*
X7298753Y-17856936D01*
X7298753Y-17856936D02*
X7289229Y-17866460D01*
X7289229Y-17866460D02*
X7270182Y-17875984D01*
X7270182Y-17875984D02*
X7251134Y-17875984D01*
X7251134Y-17875984D02*
X7232086Y-17866460D01*
X7232086Y-17866460D02*
X7222563Y-17856936D01*
X7222563Y-17856936D02*
X7213039Y-17837889D01*
X7213039Y-17837889D02*
X7203515Y-17799793D01*
X7203515Y-17799793D02*
X7203515Y-17752174D01*
X7203515Y-17752174D02*
X7213039Y-17714079D01*
X7213039Y-17714079D02*
X7222563Y-17695031D01*
X7222563Y-17695031D02*
X7232086Y-17685508D01*
X7232086Y-17685508D02*
X7251134Y-17675984D01*
X7403515Y-17856936D02*
X7413039Y-17866460D01*
X7413039Y-17866460D02*
X7403515Y-17875984D01*
X7403515Y-17875984D02*
X7393991Y-17866460D01*
X7393991Y-17866460D02*
X7403515Y-17856936D01*
X7403515Y-17856936D02*
X7403515Y-17875984D01*
X7536848Y-17675984D02*
X7555896Y-17675984D01*
X7555896Y-17675984D02*
X7574944Y-17685508D01*
X7574944Y-17685508D02*
X7584467Y-17695031D01*
X7584467Y-17695031D02*
X7593991Y-17714079D01*
X7593991Y-17714079D02*
X7603515Y-17752174D01*
X7603515Y-17752174D02*
X7603515Y-17799793D01*
X7603515Y-17799793D02*
X7593991Y-17837889D01*
X7593991Y-17837889D02*
X7584467Y-17856936D01*
X7584467Y-17856936D02*
X7574944Y-17866460D01*
X7574944Y-17866460D02*
X7555896Y-17875984D01*
X7555896Y-17875984D02*
X7536848Y-17875984D01*
X7536848Y-17875984D02*
X7517801Y-17866460D01*
X7517801Y-17866460D02*
X7508277Y-17856936D01*
X7508277Y-17856936D02*
X7498753Y-17837889D01*
X7498753Y-17837889D02*
X7489229Y-17799793D01*
X7489229Y-17799793D02*
X7489229Y-17752174D01*
X7489229Y-17752174D02*
X7498753Y-17714079D01*
X7498753Y-17714079D02*
X7508277Y-17695031D01*
X7508277Y-17695031D02*
X7517801Y-17685508D01*
X7517801Y-17685508D02*
X7536848Y-17675984D01*
X7774944Y-17742650D02*
X7774944Y-17875984D01*
X7727325Y-17666460D02*
X7679706Y-17809317D01*
X7679706Y-17809317D02*
X7803515Y-17809317D01*
X7860658Y-17675984D02*
X7984467Y-17675984D01*
X7984467Y-17675984D02*
X7917801Y-17752174D01*
X7917801Y-17752174D02*
X7946372Y-17752174D01*
X7946372Y-17752174D02*
X7965420Y-17761698D01*
X7965420Y-17761698D02*
X7974944Y-17771222D01*
X7974944Y-17771222D02*
X7984467Y-17790270D01*
X7984467Y-17790270D02*
X7984467Y-17837889D01*
X7984467Y-17837889D02*
X7974944Y-17856936D01*
X7974944Y-17856936D02*
X7965420Y-17866460D01*
X7965420Y-17866460D02*
X7946372Y-17875984D01*
X7946372Y-17875984D02*
X7889229Y-17875984D01*
X7889229Y-17875984D02*
X7870182Y-17866460D01*
X7870182Y-17866460D02*
X7860658Y-17856936D01*
X8051134Y-17675984D02*
X8174944Y-17675984D01*
X8174944Y-17675984D02*
X8108277Y-17752174D01*
X8108277Y-17752174D02*
X8136848Y-17752174D01*
X8136848Y-17752174D02*
X8155896Y-17761698D01*
X8155896Y-17761698D02*
X8165420Y-17771222D01*
X8165420Y-17771222D02*
X8174944Y-17790270D01*
X8174944Y-17790270D02*
X8174944Y-17837889D01*
X8174944Y-17837889D02*
X8165420Y-17856936D01*
X8165420Y-17856936D02*
X8155896Y-17866460D01*
X8155896Y-17866460D02*
X8136848Y-17875984D01*
X8136848Y-17875984D02*
X8079706Y-17875984D01*
X8079706Y-17875984D02*
X8060658Y-17866460D01*
X8060658Y-17866460D02*
X8051134Y-17856936D01*
X8251134Y-17675984D02*
X8251134Y-17714079D01*
X8327325Y-17675984D02*
X8327325Y-17714079D01*
X8622563Y-17952174D02*
X8613039Y-17942650D01*
X8613039Y-17942650D02*
X8593991Y-17914079D01*
X8593991Y-17914079D02*
X8584468Y-17895031D01*
X8584468Y-17895031D02*
X8574944Y-17866460D01*
X8574944Y-17866460D02*
X8565420Y-17818841D01*
X8565420Y-17818841D02*
X8565420Y-17780746D01*
X8565420Y-17780746D02*
X8574944Y-17733127D01*
X8574944Y-17733127D02*
X8584468Y-17704555D01*
X8584468Y-17704555D02*
X8593991Y-17685508D01*
X8593991Y-17685508D02*
X8613039Y-17656936D01*
X8613039Y-17656936D02*
X8622563Y-17647412D01*
X8736849Y-17675984D02*
X8755896Y-17675984D01*
X8755896Y-17675984D02*
X8774944Y-17685508D01*
X8774944Y-17685508D02*
X8784468Y-17695031D01*
X8784468Y-17695031D02*
X8793991Y-17714079D01*
X8793991Y-17714079D02*
X8803515Y-17752174D01*
X8803515Y-17752174D02*
X8803515Y-17799793D01*
X8803515Y-17799793D02*
X8793991Y-17837889D01*
X8793991Y-17837889D02*
X8784468Y-17856936D01*
X8784468Y-17856936D02*
X8774944Y-17866460D01*
X8774944Y-17866460D02*
X8755896Y-17875984D01*
X8755896Y-17875984D02*
X8736849Y-17875984D01*
X8736849Y-17875984D02*
X8717801Y-17866460D01*
X8717801Y-17866460D02*
X8708277Y-17856936D01*
X8708277Y-17856936D02*
X8698753Y-17837889D01*
X8698753Y-17837889D02*
X8689230Y-17799793D01*
X8689230Y-17799793D02*
X8689230Y-17752174D01*
X8689230Y-17752174D02*
X8698753Y-17714079D01*
X8698753Y-17714079D02*
X8708277Y-17695031D01*
X8708277Y-17695031D02*
X8717801Y-17685508D01*
X8717801Y-17685508D02*
X8736849Y-17675984D01*
X9041611Y-17875984D02*
X9041611Y-17675984D01*
X9127325Y-17875984D02*
X9127325Y-17771222D01*
X9127325Y-17771222D02*
X9117801Y-17752174D01*
X9117801Y-17752174D02*
X9098753Y-17742650D01*
X9098753Y-17742650D02*
X9070182Y-17742650D01*
X9070182Y-17742650D02*
X9051134Y-17752174D01*
X9051134Y-17752174D02*
X9041611Y-17761698D01*
X9251134Y-17875984D02*
X9232087Y-17866460D01*
X9232087Y-17866460D02*
X9222563Y-17856936D01*
X9222563Y-17856936D02*
X9213039Y-17837889D01*
X9213039Y-17837889D02*
X9213039Y-17780746D01*
X9213039Y-17780746D02*
X9222563Y-17761698D01*
X9222563Y-17761698D02*
X9232087Y-17752174D01*
X9232087Y-17752174D02*
X9251134Y-17742650D01*
X9251134Y-17742650D02*
X9279706Y-17742650D01*
X9279706Y-17742650D02*
X9298753Y-17752174D01*
X9298753Y-17752174D02*
X9308277Y-17761698D01*
X9308277Y-17761698D02*
X9317801Y-17780746D01*
X9317801Y-17780746D02*
X9317801Y-17837889D01*
X9317801Y-17837889D02*
X9308277Y-17856936D01*
X9308277Y-17856936D02*
X9298753Y-17866460D01*
X9298753Y-17866460D02*
X9279706Y-17875984D01*
X9279706Y-17875984D02*
X9251134Y-17875984D01*
X9432087Y-17875984D02*
X9413039Y-17866460D01*
X9413039Y-17866460D02*
X9403515Y-17847412D01*
X9403515Y-17847412D02*
X9403515Y-17675984D01*
X9584468Y-17866460D02*
X9565420Y-17875984D01*
X9565420Y-17875984D02*
X9527325Y-17875984D01*
X9527325Y-17875984D02*
X9508277Y-17866460D01*
X9508277Y-17866460D02*
X9498753Y-17847412D01*
X9498753Y-17847412D02*
X9498753Y-17771222D01*
X9498753Y-17771222D02*
X9508277Y-17752174D01*
X9508277Y-17752174D02*
X9527325Y-17742650D01*
X9527325Y-17742650D02*
X9565420Y-17742650D01*
X9565420Y-17742650D02*
X9584468Y-17752174D01*
X9584468Y-17752174D02*
X9593992Y-17771222D01*
X9593992Y-17771222D02*
X9593992Y-17790270D01*
X9593992Y-17790270D02*
X9498753Y-17809317D01*
X9670182Y-17866460D02*
X9689230Y-17875984D01*
X9689230Y-17875984D02*
X9727325Y-17875984D01*
X9727325Y-17875984D02*
X9746373Y-17866460D01*
X9746373Y-17866460D02*
X9755896Y-17847412D01*
X9755896Y-17847412D02*
X9755896Y-17837889D01*
X9755896Y-17837889D02*
X9746373Y-17818841D01*
X9746373Y-17818841D02*
X9727325Y-17809317D01*
X9727325Y-17809317D02*
X9698753Y-17809317D01*
X9698753Y-17809317D02*
X9679706Y-17799793D01*
X9679706Y-17799793D02*
X9670182Y-17780746D01*
X9670182Y-17780746D02*
X9670182Y-17771222D01*
X9670182Y-17771222D02*
X9679706Y-17752174D01*
X9679706Y-17752174D02*
X9698753Y-17742650D01*
X9698753Y-17742650D02*
X9727325Y-17742650D01*
X9727325Y-17742650D02*
X9746373Y-17752174D01*
X9993992Y-17799793D02*
X10146373Y-17799793D01*
X10070182Y-17875984D02*
X10070182Y-17723603D01*
X10479706Y-17675984D02*
X10441611Y-17675984D01*
X10441611Y-17675984D02*
X10422563Y-17685508D01*
X10422563Y-17685508D02*
X10413039Y-17695031D01*
X10413039Y-17695031D02*
X10393992Y-17723603D01*
X10393992Y-17723603D02*
X10384468Y-17761698D01*
X10384468Y-17761698D02*
X10384468Y-17837889D01*
X10384468Y-17837889D02*
X10393992Y-17856936D01*
X10393992Y-17856936D02*
X10403515Y-17866460D01*
X10403515Y-17866460D02*
X10422563Y-17875984D01*
X10422563Y-17875984D02*
X10460658Y-17875984D01*
X10460658Y-17875984D02*
X10479706Y-17866460D01*
X10479706Y-17866460D02*
X10489230Y-17856936D01*
X10489230Y-17856936D02*
X10498754Y-17837889D01*
X10498754Y-17837889D02*
X10498754Y-17790270D01*
X10498754Y-17790270D02*
X10489230Y-17771222D01*
X10489230Y-17771222D02*
X10479706Y-17761698D01*
X10479706Y-17761698D02*
X10460658Y-17752174D01*
X10460658Y-17752174D02*
X10422563Y-17752174D01*
X10422563Y-17752174D02*
X10403515Y-17761698D01*
X10403515Y-17761698D02*
X10393992Y-17771222D01*
X10393992Y-17771222D02*
X10384468Y-17790270D01*
X10727325Y-17866460D02*
X10746373Y-17875984D01*
X10746373Y-17875984D02*
X10784468Y-17875984D01*
X10784468Y-17875984D02*
X10803516Y-17866460D01*
X10803516Y-17866460D02*
X10813039Y-17847412D01*
X10813039Y-17847412D02*
X10813039Y-17837889D01*
X10813039Y-17837889D02*
X10803516Y-17818841D01*
X10803516Y-17818841D02*
X10784468Y-17809317D01*
X10784468Y-17809317D02*
X10755896Y-17809317D01*
X10755896Y-17809317D02*
X10736849Y-17799793D01*
X10736849Y-17799793D02*
X10727325Y-17780746D01*
X10727325Y-17780746D02*
X10727325Y-17771222D01*
X10727325Y-17771222D02*
X10736849Y-17752174D01*
X10736849Y-17752174D02*
X10755896Y-17742650D01*
X10755896Y-17742650D02*
X10784468Y-17742650D01*
X10784468Y-17742650D02*
X10803516Y-17752174D01*
X10927325Y-17875984D02*
X10908277Y-17866460D01*
X10908277Y-17866460D02*
X10898754Y-17847412D01*
X10898754Y-17847412D02*
X10898754Y-17675984D01*
X11032087Y-17875984D02*
X11013039Y-17866460D01*
X11013039Y-17866460D02*
X11003516Y-17856936D01*
X11003516Y-17856936D02*
X10993992Y-17837889D01*
X10993992Y-17837889D02*
X10993992Y-17780746D01*
X10993992Y-17780746D02*
X11003516Y-17761698D01*
X11003516Y-17761698D02*
X11013039Y-17752174D01*
X11013039Y-17752174D02*
X11032087Y-17742650D01*
X11032087Y-17742650D02*
X11060658Y-17742650D01*
X11060658Y-17742650D02*
X11079706Y-17752174D01*
X11079706Y-17752174D02*
X11089230Y-17761698D01*
X11089230Y-17761698D02*
X11098754Y-17780746D01*
X11098754Y-17780746D02*
X11098754Y-17837889D01*
X11098754Y-17837889D02*
X11089230Y-17856936D01*
X11089230Y-17856936D02*
X11079706Y-17866460D01*
X11079706Y-17866460D02*
X11060658Y-17875984D01*
X11060658Y-17875984D02*
X11032087Y-17875984D01*
X11155897Y-17742650D02*
X11232087Y-17742650D01*
X11184468Y-17675984D02*
X11184468Y-17847412D01*
X11184468Y-17847412D02*
X11193992Y-17866460D01*
X11193992Y-17866460D02*
X11213039Y-17875984D01*
X11213039Y-17875984D02*
X11232087Y-17875984D01*
X11289230Y-17866460D02*
X11308277Y-17875984D01*
X11308277Y-17875984D02*
X11346373Y-17875984D01*
X11346373Y-17875984D02*
X11365420Y-17866460D01*
X11365420Y-17866460D02*
X11374944Y-17847412D01*
X11374944Y-17847412D02*
X11374944Y-17837889D01*
X11374944Y-17837889D02*
X11365420Y-17818841D01*
X11365420Y-17818841D02*
X11346373Y-17809317D01*
X11346373Y-17809317D02*
X11317801Y-17809317D01*
X11317801Y-17809317D02*
X11298754Y-17799793D01*
X11298754Y-17799793D02*
X11289230Y-17780746D01*
X11289230Y-17780746D02*
X11289230Y-17771222D01*
X11289230Y-17771222D02*
X11298754Y-17752174D01*
X11298754Y-17752174D02*
X11317801Y-17742650D01*
X11317801Y-17742650D02*
X11346373Y-17742650D01*
X11346373Y-17742650D02*
X11365420Y-17752174D01*
X11441611Y-17952174D02*
X11451135Y-17942650D01*
X11451135Y-17942650D02*
X11470182Y-17914079D01*
X11470182Y-17914079D02*
X11479706Y-17895031D01*
X11479706Y-17895031D02*
X11489230Y-17866460D01*
X11489230Y-17866460D02*
X11498754Y-17818841D01*
X11498754Y-17818841D02*
X11498754Y-17780746D01*
X11498754Y-17780746D02*
X11489230Y-17733127D01*
X11489230Y-17733127D02*
X11479706Y-17704555D01*
X11479706Y-17704555D02*
X11470182Y-17685508D01*
X11470182Y-17685508D02*
X11451135Y-17656936D01*
X11451135Y-17656936D02*
X11441611Y-17647412D01*
D14*
X4957500Y-18138500D02*
X5047500Y-18048500D01*
X4957500Y-17958500D01*
X4867500Y-18048500D01*
X4957500Y-18138500D01*
D11*
X5413039Y-18139984D02*
X5298753Y-18139984D01*
X5355896Y-18139984D02*
X5355896Y-17939984D01*
X5355896Y-17939984D02*
X5336848Y-17968555D01*
X5336848Y-17968555D02*
X5317801Y-17987603D01*
X5317801Y-17987603D02*
X5298753Y-17997127D01*
X5498753Y-18120936D02*
X5508277Y-18130460D01*
X5508277Y-18130460D02*
X5498753Y-18139984D01*
X5498753Y-18139984D02*
X5489229Y-18130460D01*
X5489229Y-18130460D02*
X5498753Y-18120936D01*
X5498753Y-18120936D02*
X5498753Y-18139984D01*
X5622562Y-18025698D02*
X5603515Y-18016174D01*
X5603515Y-18016174D02*
X5593991Y-18006650D01*
X5593991Y-18006650D02*
X5584467Y-17987603D01*
X5584467Y-17987603D02*
X5584467Y-17978079D01*
X5584467Y-17978079D02*
X5593991Y-17959031D01*
X5593991Y-17959031D02*
X5603515Y-17949508D01*
X5603515Y-17949508D02*
X5622562Y-17939984D01*
X5622562Y-17939984D02*
X5660658Y-17939984D01*
X5660658Y-17939984D02*
X5679705Y-17949508D01*
X5679705Y-17949508D02*
X5689229Y-17959031D01*
X5689229Y-17959031D02*
X5698753Y-17978079D01*
X5698753Y-17978079D02*
X5698753Y-17987603D01*
X5698753Y-17987603D02*
X5689229Y-18006650D01*
X5689229Y-18006650D02*
X5679705Y-18016174D01*
X5679705Y-18016174D02*
X5660658Y-18025698D01*
X5660658Y-18025698D02*
X5622562Y-18025698D01*
X5622562Y-18025698D02*
X5603515Y-18035222D01*
X5603515Y-18035222D02*
X5593991Y-18044746D01*
X5593991Y-18044746D02*
X5584467Y-18063793D01*
X5584467Y-18063793D02*
X5584467Y-18101889D01*
X5584467Y-18101889D02*
X5593991Y-18120936D01*
X5593991Y-18120936D02*
X5603515Y-18130460D01*
X5603515Y-18130460D02*
X5622562Y-18139984D01*
X5622562Y-18139984D02*
X5660658Y-18139984D01*
X5660658Y-18139984D02*
X5679705Y-18130460D01*
X5679705Y-18130460D02*
X5689229Y-18120936D01*
X5689229Y-18120936D02*
X5698753Y-18101889D01*
X5698753Y-18101889D02*
X5698753Y-18063793D01*
X5698753Y-18063793D02*
X5689229Y-18044746D01*
X5689229Y-18044746D02*
X5679705Y-18035222D01*
X5679705Y-18035222D02*
X5660658Y-18025698D01*
X5822562Y-17939984D02*
X5841610Y-17939984D01*
X5841610Y-17939984D02*
X5860658Y-17949508D01*
X5860658Y-17949508D02*
X5870182Y-17959031D01*
X5870182Y-17959031D02*
X5879705Y-17978079D01*
X5879705Y-17978079D02*
X5889229Y-18016174D01*
X5889229Y-18016174D02*
X5889229Y-18063793D01*
X5889229Y-18063793D02*
X5879705Y-18101889D01*
X5879705Y-18101889D02*
X5870182Y-18120936D01*
X5870182Y-18120936D02*
X5860658Y-18130460D01*
X5860658Y-18130460D02*
X5841610Y-18139984D01*
X5841610Y-18139984D02*
X5822562Y-18139984D01*
X5822562Y-18139984D02*
X5803515Y-18130460D01*
X5803515Y-18130460D02*
X5793991Y-18120936D01*
X5793991Y-18120936D02*
X5784467Y-18101889D01*
X5784467Y-18101889D02*
X5774943Y-18063793D01*
X5774943Y-18063793D02*
X5774943Y-18016174D01*
X5774943Y-18016174D02*
X5784467Y-17978079D01*
X5784467Y-17978079D02*
X5793991Y-17959031D01*
X5793991Y-17959031D02*
X5803515Y-17949508D01*
X5803515Y-17949508D02*
X5822562Y-17939984D01*
X6013039Y-17939984D02*
X6032086Y-17939984D01*
X6032086Y-17939984D02*
X6051134Y-17949508D01*
X6051134Y-17949508D02*
X6060658Y-17959031D01*
X6060658Y-17959031D02*
X6070182Y-17978079D01*
X6070182Y-17978079D02*
X6079705Y-18016174D01*
X6079705Y-18016174D02*
X6079705Y-18063793D01*
X6079705Y-18063793D02*
X6070182Y-18101889D01*
X6070182Y-18101889D02*
X6060658Y-18120936D01*
X6060658Y-18120936D02*
X6051134Y-18130460D01*
X6051134Y-18130460D02*
X6032086Y-18139984D01*
X6032086Y-18139984D02*
X6013039Y-18139984D01*
X6013039Y-18139984D02*
X5993991Y-18130460D01*
X5993991Y-18130460D02*
X5984467Y-18120936D01*
X5984467Y-18120936D02*
X5974943Y-18101889D01*
X5974943Y-18101889D02*
X5965420Y-18063793D01*
X5965420Y-18063793D02*
X5965420Y-18016174D01*
X5965420Y-18016174D02*
X5974943Y-17978079D01*
X5974943Y-17978079D02*
X5984467Y-17959031D01*
X5984467Y-17959031D02*
X5993991Y-17949508D01*
X5993991Y-17949508D02*
X6013039Y-17939984D01*
X6165420Y-18139984D02*
X6165420Y-18006650D01*
X6165420Y-18025698D02*
X6174943Y-18016174D01*
X6174943Y-18016174D02*
X6193991Y-18006650D01*
X6193991Y-18006650D02*
X6222563Y-18006650D01*
X6222563Y-18006650D02*
X6241610Y-18016174D01*
X6241610Y-18016174D02*
X6251134Y-18035222D01*
X6251134Y-18035222D02*
X6251134Y-18139984D01*
X6251134Y-18035222D02*
X6260658Y-18016174D01*
X6260658Y-18016174D02*
X6279705Y-18006650D01*
X6279705Y-18006650D02*
X6308277Y-18006650D01*
X6308277Y-18006650D02*
X6327324Y-18016174D01*
X6327324Y-18016174D02*
X6336848Y-18035222D01*
X6336848Y-18035222D02*
X6336848Y-18139984D01*
X6432086Y-18139984D02*
X6432086Y-18006650D01*
X6432086Y-18025698D02*
X6441610Y-18016174D01*
X6441610Y-18016174D02*
X6460658Y-18006650D01*
X6460658Y-18006650D02*
X6489229Y-18006650D01*
X6489229Y-18006650D02*
X6508277Y-18016174D01*
X6508277Y-18016174D02*
X6517801Y-18035222D01*
X6517801Y-18035222D02*
X6517801Y-18139984D01*
X6517801Y-18035222D02*
X6527324Y-18016174D01*
X6527324Y-18016174D02*
X6546372Y-18006650D01*
X6546372Y-18006650D02*
X6574943Y-18006650D01*
X6574943Y-18006650D02*
X6593991Y-18016174D01*
X6593991Y-18016174D02*
X6603515Y-18035222D01*
X6603515Y-18035222D02*
X6603515Y-18139984D01*
X6993991Y-17930460D02*
X6822563Y-18187603D01*
X7251134Y-17939984D02*
X7270182Y-17939984D01*
X7270182Y-17939984D02*
X7289229Y-17949508D01*
X7289229Y-17949508D02*
X7298753Y-17959031D01*
X7298753Y-17959031D02*
X7308277Y-17978079D01*
X7308277Y-17978079D02*
X7317801Y-18016174D01*
X7317801Y-18016174D02*
X7317801Y-18063793D01*
X7317801Y-18063793D02*
X7308277Y-18101889D01*
X7308277Y-18101889D02*
X7298753Y-18120936D01*
X7298753Y-18120936D02*
X7289229Y-18130460D01*
X7289229Y-18130460D02*
X7270182Y-18139984D01*
X7270182Y-18139984D02*
X7251134Y-18139984D01*
X7251134Y-18139984D02*
X7232086Y-18130460D01*
X7232086Y-18130460D02*
X7222563Y-18120936D01*
X7222563Y-18120936D02*
X7213039Y-18101889D01*
X7213039Y-18101889D02*
X7203515Y-18063793D01*
X7203515Y-18063793D02*
X7203515Y-18016174D01*
X7203515Y-18016174D02*
X7213039Y-17978079D01*
X7213039Y-17978079D02*
X7222563Y-17959031D01*
X7222563Y-17959031D02*
X7232086Y-17949508D01*
X7232086Y-17949508D02*
X7251134Y-17939984D01*
X7403515Y-18120936D02*
X7413039Y-18130460D01*
X7413039Y-18130460D02*
X7403515Y-18139984D01*
X7403515Y-18139984D02*
X7393991Y-18130460D01*
X7393991Y-18130460D02*
X7403515Y-18120936D01*
X7403515Y-18120936D02*
X7403515Y-18139984D01*
X7536848Y-17939984D02*
X7555896Y-17939984D01*
X7555896Y-17939984D02*
X7574944Y-17949508D01*
X7574944Y-17949508D02*
X7584467Y-17959031D01*
X7584467Y-17959031D02*
X7593991Y-17978079D01*
X7593991Y-17978079D02*
X7603515Y-18016174D01*
X7603515Y-18016174D02*
X7603515Y-18063793D01*
X7603515Y-18063793D02*
X7593991Y-18101889D01*
X7593991Y-18101889D02*
X7584467Y-18120936D01*
X7584467Y-18120936D02*
X7574944Y-18130460D01*
X7574944Y-18130460D02*
X7555896Y-18139984D01*
X7555896Y-18139984D02*
X7536848Y-18139984D01*
X7536848Y-18139984D02*
X7517801Y-18130460D01*
X7517801Y-18130460D02*
X7508277Y-18120936D01*
X7508277Y-18120936D02*
X7498753Y-18101889D01*
X7498753Y-18101889D02*
X7489229Y-18063793D01*
X7489229Y-18063793D02*
X7489229Y-18016174D01*
X7489229Y-18016174D02*
X7498753Y-17978079D01*
X7498753Y-17978079D02*
X7508277Y-17959031D01*
X7508277Y-17959031D02*
X7517801Y-17949508D01*
X7517801Y-17949508D02*
X7536848Y-17939984D01*
X7670182Y-17939984D02*
X7803515Y-17939984D01*
X7803515Y-17939984D02*
X7717801Y-18139984D01*
X7917801Y-17939984D02*
X7936848Y-17939984D01*
X7936848Y-17939984D02*
X7955896Y-17949508D01*
X7955896Y-17949508D02*
X7965420Y-17959031D01*
X7965420Y-17959031D02*
X7974944Y-17978079D01*
X7974944Y-17978079D02*
X7984467Y-18016174D01*
X7984467Y-18016174D02*
X7984467Y-18063793D01*
X7984467Y-18063793D02*
X7974944Y-18101889D01*
X7974944Y-18101889D02*
X7965420Y-18120936D01*
X7965420Y-18120936D02*
X7955896Y-18130460D01*
X7955896Y-18130460D02*
X7936848Y-18139984D01*
X7936848Y-18139984D02*
X7917801Y-18139984D01*
X7917801Y-18139984D02*
X7898753Y-18130460D01*
X7898753Y-18130460D02*
X7889229Y-18120936D01*
X7889229Y-18120936D02*
X7879706Y-18101889D01*
X7879706Y-18101889D02*
X7870182Y-18063793D01*
X7870182Y-18063793D02*
X7870182Y-18016174D01*
X7870182Y-18016174D02*
X7879706Y-17978079D01*
X7879706Y-17978079D02*
X7889229Y-17959031D01*
X7889229Y-17959031D02*
X7898753Y-17949508D01*
X7898753Y-17949508D02*
X7917801Y-17939984D01*
X8079706Y-18139984D02*
X8117801Y-18139984D01*
X8117801Y-18139984D02*
X8136848Y-18130460D01*
X8136848Y-18130460D02*
X8146372Y-18120936D01*
X8146372Y-18120936D02*
X8165420Y-18092365D01*
X8165420Y-18092365D02*
X8174944Y-18054270D01*
X8174944Y-18054270D02*
X8174944Y-17978079D01*
X8174944Y-17978079D02*
X8165420Y-17959031D01*
X8165420Y-17959031D02*
X8155896Y-17949508D01*
X8155896Y-17949508D02*
X8136848Y-17939984D01*
X8136848Y-17939984D02*
X8098753Y-17939984D01*
X8098753Y-17939984D02*
X8079706Y-17949508D01*
X8079706Y-17949508D02*
X8070182Y-17959031D01*
X8070182Y-17959031D02*
X8060658Y-17978079D01*
X8060658Y-17978079D02*
X8060658Y-18025698D01*
X8060658Y-18025698D02*
X8070182Y-18044746D01*
X8070182Y-18044746D02*
X8079706Y-18054270D01*
X8079706Y-18054270D02*
X8098753Y-18063793D01*
X8098753Y-18063793D02*
X8136848Y-18063793D01*
X8136848Y-18063793D02*
X8155896Y-18054270D01*
X8155896Y-18054270D02*
X8165420Y-18044746D01*
X8165420Y-18044746D02*
X8174944Y-18025698D01*
X8251134Y-17939984D02*
X8251134Y-17978079D01*
X8327325Y-17939984D02*
X8327325Y-17978079D01*
X8622563Y-18216174D02*
X8613039Y-18206650D01*
X8613039Y-18206650D02*
X8593991Y-18178079D01*
X8593991Y-18178079D02*
X8584468Y-18159031D01*
X8584468Y-18159031D02*
X8574944Y-18130460D01*
X8574944Y-18130460D02*
X8565420Y-18082841D01*
X8565420Y-18082841D02*
X8565420Y-18044746D01*
X8565420Y-18044746D02*
X8574944Y-17997127D01*
X8574944Y-17997127D02*
X8584468Y-17968555D01*
X8584468Y-17968555D02*
X8593991Y-17949508D01*
X8593991Y-17949508D02*
X8613039Y-17920936D01*
X8613039Y-17920936D02*
X8622563Y-17911412D01*
X8803515Y-18139984D02*
X8689230Y-18139984D01*
X8746372Y-18139984D02*
X8746372Y-17939984D01*
X8746372Y-17939984D02*
X8727325Y-17968555D01*
X8727325Y-17968555D02*
X8708277Y-17987603D01*
X8708277Y-17987603D02*
X8689230Y-17997127D01*
X8879706Y-17959031D02*
X8889230Y-17949508D01*
X8889230Y-17949508D02*
X8908277Y-17939984D01*
X8908277Y-17939984D02*
X8955896Y-17939984D01*
X8955896Y-17939984D02*
X8974944Y-17949508D01*
X8974944Y-17949508D02*
X8984468Y-17959031D01*
X8984468Y-17959031D02*
X8993991Y-17978079D01*
X8993991Y-17978079D02*
X8993991Y-17997127D01*
X8993991Y-17997127D02*
X8984468Y-18025698D01*
X8984468Y-18025698D02*
X8870182Y-18139984D01*
X8870182Y-18139984D02*
X8993991Y-18139984D01*
X9232087Y-18139984D02*
X9232087Y-17939984D01*
X9317801Y-18139984D02*
X9317801Y-18035222D01*
X9317801Y-18035222D02*
X9308277Y-18016174D01*
X9308277Y-18016174D02*
X9289230Y-18006650D01*
X9289230Y-18006650D02*
X9260658Y-18006650D01*
X9260658Y-18006650D02*
X9241611Y-18016174D01*
X9241611Y-18016174D02*
X9232087Y-18025698D01*
X9441611Y-18139984D02*
X9422563Y-18130460D01*
X9422563Y-18130460D02*
X9413039Y-18120936D01*
X9413039Y-18120936D02*
X9403515Y-18101889D01*
X9403515Y-18101889D02*
X9403515Y-18044746D01*
X9403515Y-18044746D02*
X9413039Y-18025698D01*
X9413039Y-18025698D02*
X9422563Y-18016174D01*
X9422563Y-18016174D02*
X9441611Y-18006650D01*
X9441611Y-18006650D02*
X9470182Y-18006650D01*
X9470182Y-18006650D02*
X9489230Y-18016174D01*
X9489230Y-18016174D02*
X9498753Y-18025698D01*
X9498753Y-18025698D02*
X9508277Y-18044746D01*
X9508277Y-18044746D02*
X9508277Y-18101889D01*
X9508277Y-18101889D02*
X9498753Y-18120936D01*
X9498753Y-18120936D02*
X9489230Y-18130460D01*
X9489230Y-18130460D02*
X9470182Y-18139984D01*
X9470182Y-18139984D02*
X9441611Y-18139984D01*
X9622563Y-18139984D02*
X9603515Y-18130460D01*
X9603515Y-18130460D02*
X9593992Y-18111412D01*
X9593992Y-18111412D02*
X9593992Y-17939984D01*
X9774944Y-18130460D02*
X9755896Y-18139984D01*
X9755896Y-18139984D02*
X9717801Y-18139984D01*
X9717801Y-18139984D02*
X9698753Y-18130460D01*
X9698753Y-18130460D02*
X9689230Y-18111412D01*
X9689230Y-18111412D02*
X9689230Y-18035222D01*
X9689230Y-18035222D02*
X9698753Y-18016174D01*
X9698753Y-18016174D02*
X9717801Y-18006650D01*
X9717801Y-18006650D02*
X9755896Y-18006650D01*
X9755896Y-18006650D02*
X9774944Y-18016174D01*
X9774944Y-18016174D02*
X9784468Y-18035222D01*
X9784468Y-18035222D02*
X9784468Y-18054270D01*
X9784468Y-18054270D02*
X9689230Y-18073317D01*
X9860658Y-18130460D02*
X9879706Y-18139984D01*
X9879706Y-18139984D02*
X9917801Y-18139984D01*
X9917801Y-18139984D02*
X9936849Y-18130460D01*
X9936849Y-18130460D02*
X9946373Y-18111412D01*
X9946373Y-18111412D02*
X9946373Y-18101889D01*
X9946373Y-18101889D02*
X9936849Y-18082841D01*
X9936849Y-18082841D02*
X9917801Y-18073317D01*
X9917801Y-18073317D02*
X9889230Y-18073317D01*
X9889230Y-18073317D02*
X9870182Y-18063793D01*
X9870182Y-18063793D02*
X9860658Y-18044746D01*
X9860658Y-18044746D02*
X9860658Y-18035222D01*
X9860658Y-18035222D02*
X9870182Y-18016174D01*
X9870182Y-18016174D02*
X9889230Y-18006650D01*
X9889230Y-18006650D02*
X9917801Y-18006650D01*
X9917801Y-18006650D02*
X9936849Y-18016174D01*
X10013039Y-18216174D02*
X10022563Y-18206650D01*
X10022563Y-18206650D02*
X10041611Y-18178079D01*
X10041611Y-18178079D02*
X10051134Y-18159031D01*
X10051134Y-18159031D02*
X10060658Y-18130460D01*
X10060658Y-18130460D02*
X10070182Y-18082841D01*
X10070182Y-18082841D02*
X10070182Y-18044746D01*
X10070182Y-18044746D02*
X10060658Y-17997127D01*
X10060658Y-17997127D02*
X10051134Y-17968555D01*
X10051134Y-17968555D02*
X10041611Y-17949508D01*
X10041611Y-17949508D02*
X10022563Y-17920936D01*
X10022563Y-17920936D02*
X10013039Y-17911412D01*
X4847500Y-18248500D02*
X5047500Y-18448500D01*
X5047500Y-18248500D02*
X4847500Y-18448500D01*
X5047500Y-18348500D02*
G75*
G02*
X4847500Y-18348500I-100000J0D01*
G01*
X4847500Y-18348500D02*
G75*
G02*
X5047500Y-18348500I100000J0D01*
G01*
X5298753Y-18259031D02*
X5308277Y-18249508D01*
X5308277Y-18249508D02*
X5327324Y-18239984D01*
X5327324Y-18239984D02*
X5374944Y-18239984D01*
X5374944Y-18239984D02*
X5393991Y-18249508D01*
X5393991Y-18249508D02*
X5403515Y-18259031D01*
X5403515Y-18259031D02*
X5413039Y-18278079D01*
X5413039Y-18278079D02*
X5413039Y-18297127D01*
X5413039Y-18297127D02*
X5403515Y-18325698D01*
X5403515Y-18325698D02*
X5289229Y-18439984D01*
X5289229Y-18439984D02*
X5413039Y-18439984D01*
X5498753Y-18420936D02*
X5508277Y-18430460D01*
X5508277Y-18430460D02*
X5498753Y-18439984D01*
X5498753Y-18439984D02*
X5489229Y-18430460D01*
X5489229Y-18430460D02*
X5498753Y-18420936D01*
X5498753Y-18420936D02*
X5498753Y-18439984D01*
X5632086Y-18239984D02*
X5651134Y-18239984D01*
X5651134Y-18239984D02*
X5670182Y-18249508D01*
X5670182Y-18249508D02*
X5679705Y-18259031D01*
X5679705Y-18259031D02*
X5689229Y-18278079D01*
X5689229Y-18278079D02*
X5698753Y-18316174D01*
X5698753Y-18316174D02*
X5698753Y-18363793D01*
X5698753Y-18363793D02*
X5689229Y-18401889D01*
X5689229Y-18401889D02*
X5679705Y-18420936D01*
X5679705Y-18420936D02*
X5670182Y-18430460D01*
X5670182Y-18430460D02*
X5651134Y-18439984D01*
X5651134Y-18439984D02*
X5632086Y-18439984D01*
X5632086Y-18439984D02*
X5613039Y-18430460D01*
X5613039Y-18430460D02*
X5603515Y-18420936D01*
X5603515Y-18420936D02*
X5593991Y-18401889D01*
X5593991Y-18401889D02*
X5584467Y-18363793D01*
X5584467Y-18363793D02*
X5584467Y-18316174D01*
X5584467Y-18316174D02*
X5593991Y-18278079D01*
X5593991Y-18278079D02*
X5603515Y-18259031D01*
X5603515Y-18259031D02*
X5613039Y-18249508D01*
X5613039Y-18249508D02*
X5632086Y-18239984D01*
X5822562Y-18239984D02*
X5841610Y-18239984D01*
X5841610Y-18239984D02*
X5860658Y-18249508D01*
X5860658Y-18249508D02*
X5870182Y-18259031D01*
X5870182Y-18259031D02*
X5879705Y-18278079D01*
X5879705Y-18278079D02*
X5889229Y-18316174D01*
X5889229Y-18316174D02*
X5889229Y-18363793D01*
X5889229Y-18363793D02*
X5879705Y-18401889D01*
X5879705Y-18401889D02*
X5870182Y-18420936D01*
X5870182Y-18420936D02*
X5860658Y-18430460D01*
X5860658Y-18430460D02*
X5841610Y-18439984D01*
X5841610Y-18439984D02*
X5822562Y-18439984D01*
X5822562Y-18439984D02*
X5803515Y-18430460D01*
X5803515Y-18430460D02*
X5793991Y-18420936D01*
X5793991Y-18420936D02*
X5784467Y-18401889D01*
X5784467Y-18401889D02*
X5774943Y-18363793D01*
X5774943Y-18363793D02*
X5774943Y-18316174D01*
X5774943Y-18316174D02*
X5784467Y-18278079D01*
X5784467Y-18278079D02*
X5793991Y-18259031D01*
X5793991Y-18259031D02*
X5803515Y-18249508D01*
X5803515Y-18249508D02*
X5822562Y-18239984D01*
X6013039Y-18239984D02*
X6032086Y-18239984D01*
X6032086Y-18239984D02*
X6051134Y-18249508D01*
X6051134Y-18249508D02*
X6060658Y-18259031D01*
X6060658Y-18259031D02*
X6070182Y-18278079D01*
X6070182Y-18278079D02*
X6079705Y-18316174D01*
X6079705Y-18316174D02*
X6079705Y-18363793D01*
X6079705Y-18363793D02*
X6070182Y-18401889D01*
X6070182Y-18401889D02*
X6060658Y-18420936D01*
X6060658Y-18420936D02*
X6051134Y-18430460D01*
X6051134Y-18430460D02*
X6032086Y-18439984D01*
X6032086Y-18439984D02*
X6013039Y-18439984D01*
X6013039Y-18439984D02*
X5993991Y-18430460D01*
X5993991Y-18430460D02*
X5984467Y-18420936D01*
X5984467Y-18420936D02*
X5974943Y-18401889D01*
X5974943Y-18401889D02*
X5965420Y-18363793D01*
X5965420Y-18363793D02*
X5965420Y-18316174D01*
X5965420Y-18316174D02*
X5974943Y-18278079D01*
X5974943Y-18278079D02*
X5984467Y-18259031D01*
X5984467Y-18259031D02*
X5993991Y-18249508D01*
X5993991Y-18249508D02*
X6013039Y-18239984D01*
X6165420Y-18439984D02*
X6165420Y-18306650D01*
X6165420Y-18325698D02*
X6174943Y-18316174D01*
X6174943Y-18316174D02*
X6193991Y-18306650D01*
X6193991Y-18306650D02*
X6222563Y-18306650D01*
X6222563Y-18306650D02*
X6241610Y-18316174D01*
X6241610Y-18316174D02*
X6251134Y-18335222D01*
X6251134Y-18335222D02*
X6251134Y-18439984D01*
X6251134Y-18335222D02*
X6260658Y-18316174D01*
X6260658Y-18316174D02*
X6279705Y-18306650D01*
X6279705Y-18306650D02*
X6308277Y-18306650D01*
X6308277Y-18306650D02*
X6327324Y-18316174D01*
X6327324Y-18316174D02*
X6336848Y-18335222D01*
X6336848Y-18335222D02*
X6336848Y-18439984D01*
X6432086Y-18439984D02*
X6432086Y-18306650D01*
X6432086Y-18325698D02*
X6441610Y-18316174D01*
X6441610Y-18316174D02*
X6460658Y-18306650D01*
X6460658Y-18306650D02*
X6489229Y-18306650D01*
X6489229Y-18306650D02*
X6508277Y-18316174D01*
X6508277Y-18316174D02*
X6517801Y-18335222D01*
X6517801Y-18335222D02*
X6517801Y-18439984D01*
X6517801Y-18335222D02*
X6527324Y-18316174D01*
X6527324Y-18316174D02*
X6546372Y-18306650D01*
X6546372Y-18306650D02*
X6574943Y-18306650D01*
X6574943Y-18306650D02*
X6593991Y-18316174D01*
X6593991Y-18316174D02*
X6603515Y-18335222D01*
X6603515Y-18335222D02*
X6603515Y-18439984D01*
X6993991Y-18230460D02*
X6822563Y-18487603D01*
X7251134Y-18239984D02*
X7270182Y-18239984D01*
X7270182Y-18239984D02*
X7289229Y-18249508D01*
X7289229Y-18249508D02*
X7298753Y-18259031D01*
X7298753Y-18259031D02*
X7308277Y-18278079D01*
X7308277Y-18278079D02*
X7317801Y-18316174D01*
X7317801Y-18316174D02*
X7317801Y-18363793D01*
X7317801Y-18363793D02*
X7308277Y-18401889D01*
X7308277Y-18401889D02*
X7298753Y-18420936D01*
X7298753Y-18420936D02*
X7289229Y-18430460D01*
X7289229Y-18430460D02*
X7270182Y-18439984D01*
X7270182Y-18439984D02*
X7251134Y-18439984D01*
X7251134Y-18439984D02*
X7232086Y-18430460D01*
X7232086Y-18430460D02*
X7222563Y-18420936D01*
X7222563Y-18420936D02*
X7213039Y-18401889D01*
X7213039Y-18401889D02*
X7203515Y-18363793D01*
X7203515Y-18363793D02*
X7203515Y-18316174D01*
X7203515Y-18316174D02*
X7213039Y-18278079D01*
X7213039Y-18278079D02*
X7222563Y-18259031D01*
X7222563Y-18259031D02*
X7232086Y-18249508D01*
X7232086Y-18249508D02*
X7251134Y-18239984D01*
X7403515Y-18420936D02*
X7413039Y-18430460D01*
X7413039Y-18430460D02*
X7403515Y-18439984D01*
X7403515Y-18439984D02*
X7393991Y-18430460D01*
X7393991Y-18430460D02*
X7403515Y-18420936D01*
X7403515Y-18420936D02*
X7403515Y-18439984D01*
X7536848Y-18239984D02*
X7555896Y-18239984D01*
X7555896Y-18239984D02*
X7574944Y-18249508D01*
X7574944Y-18249508D02*
X7584467Y-18259031D01*
X7584467Y-18259031D02*
X7593991Y-18278079D01*
X7593991Y-18278079D02*
X7603515Y-18316174D01*
X7603515Y-18316174D02*
X7603515Y-18363793D01*
X7603515Y-18363793D02*
X7593991Y-18401889D01*
X7593991Y-18401889D02*
X7584467Y-18420936D01*
X7584467Y-18420936D02*
X7574944Y-18430460D01*
X7574944Y-18430460D02*
X7555896Y-18439984D01*
X7555896Y-18439984D02*
X7536848Y-18439984D01*
X7536848Y-18439984D02*
X7517801Y-18430460D01*
X7517801Y-18430460D02*
X7508277Y-18420936D01*
X7508277Y-18420936D02*
X7498753Y-18401889D01*
X7498753Y-18401889D02*
X7489229Y-18363793D01*
X7489229Y-18363793D02*
X7489229Y-18316174D01*
X7489229Y-18316174D02*
X7498753Y-18278079D01*
X7498753Y-18278079D02*
X7508277Y-18259031D01*
X7508277Y-18259031D02*
X7517801Y-18249508D01*
X7517801Y-18249508D02*
X7536848Y-18239984D01*
X7670182Y-18239984D02*
X7803515Y-18239984D01*
X7803515Y-18239984D02*
X7717801Y-18439984D01*
X7908277Y-18325698D02*
X7889229Y-18316174D01*
X7889229Y-18316174D02*
X7879706Y-18306650D01*
X7879706Y-18306650D02*
X7870182Y-18287603D01*
X7870182Y-18287603D02*
X7870182Y-18278079D01*
X7870182Y-18278079D02*
X7879706Y-18259031D01*
X7879706Y-18259031D02*
X7889229Y-18249508D01*
X7889229Y-18249508D02*
X7908277Y-18239984D01*
X7908277Y-18239984D02*
X7946372Y-18239984D01*
X7946372Y-18239984D02*
X7965420Y-18249508D01*
X7965420Y-18249508D02*
X7974944Y-18259031D01*
X7974944Y-18259031D02*
X7984467Y-18278079D01*
X7984467Y-18278079D02*
X7984467Y-18287603D01*
X7984467Y-18287603D02*
X7974944Y-18306650D01*
X7974944Y-18306650D02*
X7965420Y-18316174D01*
X7965420Y-18316174D02*
X7946372Y-18325698D01*
X7946372Y-18325698D02*
X7908277Y-18325698D01*
X7908277Y-18325698D02*
X7889229Y-18335222D01*
X7889229Y-18335222D02*
X7879706Y-18344746D01*
X7879706Y-18344746D02*
X7870182Y-18363793D01*
X7870182Y-18363793D02*
X7870182Y-18401889D01*
X7870182Y-18401889D02*
X7879706Y-18420936D01*
X7879706Y-18420936D02*
X7889229Y-18430460D01*
X7889229Y-18430460D02*
X7908277Y-18439984D01*
X7908277Y-18439984D02*
X7946372Y-18439984D01*
X7946372Y-18439984D02*
X7965420Y-18430460D01*
X7965420Y-18430460D02*
X7974944Y-18420936D01*
X7974944Y-18420936D02*
X7984467Y-18401889D01*
X7984467Y-18401889D02*
X7984467Y-18363793D01*
X7984467Y-18363793D02*
X7974944Y-18344746D01*
X7974944Y-18344746D02*
X7965420Y-18335222D01*
X7965420Y-18335222D02*
X7946372Y-18325698D01*
X8051134Y-18239984D02*
X8184467Y-18239984D01*
X8184467Y-18239984D02*
X8098753Y-18439984D01*
X8251134Y-18239984D02*
X8251134Y-18278079D01*
X8327325Y-18239984D02*
X8327325Y-18278079D01*
X8622563Y-18516174D02*
X8613039Y-18506650D01*
X8613039Y-18506650D02*
X8593991Y-18478079D01*
X8593991Y-18478079D02*
X8584468Y-18459031D01*
X8584468Y-18459031D02*
X8574944Y-18430460D01*
X8574944Y-18430460D02*
X8565420Y-18382841D01*
X8565420Y-18382841D02*
X8565420Y-18344746D01*
X8565420Y-18344746D02*
X8574944Y-18297127D01*
X8574944Y-18297127D02*
X8584468Y-18268555D01*
X8584468Y-18268555D02*
X8593991Y-18249508D01*
X8593991Y-18249508D02*
X8613039Y-18220936D01*
X8613039Y-18220936D02*
X8622563Y-18211412D01*
X8736849Y-18239984D02*
X8755896Y-18239984D01*
X8755896Y-18239984D02*
X8774944Y-18249508D01*
X8774944Y-18249508D02*
X8784468Y-18259031D01*
X8784468Y-18259031D02*
X8793991Y-18278079D01*
X8793991Y-18278079D02*
X8803515Y-18316174D01*
X8803515Y-18316174D02*
X8803515Y-18363793D01*
X8803515Y-18363793D02*
X8793991Y-18401889D01*
X8793991Y-18401889D02*
X8784468Y-18420936D01*
X8784468Y-18420936D02*
X8774944Y-18430460D01*
X8774944Y-18430460D02*
X8755896Y-18439984D01*
X8755896Y-18439984D02*
X8736849Y-18439984D01*
X8736849Y-18439984D02*
X8717801Y-18430460D01*
X8717801Y-18430460D02*
X8708277Y-18420936D01*
X8708277Y-18420936D02*
X8698753Y-18401889D01*
X8698753Y-18401889D02*
X8689230Y-18363793D01*
X8689230Y-18363793D02*
X8689230Y-18316174D01*
X8689230Y-18316174D02*
X8698753Y-18278079D01*
X8698753Y-18278079D02*
X8708277Y-18259031D01*
X8708277Y-18259031D02*
X8717801Y-18249508D01*
X8717801Y-18249508D02*
X8736849Y-18239984D01*
X9041611Y-18439984D02*
X9041611Y-18239984D01*
X9127325Y-18439984D02*
X9127325Y-18335222D01*
X9127325Y-18335222D02*
X9117801Y-18316174D01*
X9117801Y-18316174D02*
X9098753Y-18306650D01*
X9098753Y-18306650D02*
X9070182Y-18306650D01*
X9070182Y-18306650D02*
X9051134Y-18316174D01*
X9051134Y-18316174D02*
X9041611Y-18325698D01*
X9251134Y-18439984D02*
X9232087Y-18430460D01*
X9232087Y-18430460D02*
X9222563Y-18420936D01*
X9222563Y-18420936D02*
X9213039Y-18401889D01*
X9213039Y-18401889D02*
X9213039Y-18344746D01*
X9213039Y-18344746D02*
X9222563Y-18325698D01*
X9222563Y-18325698D02*
X9232087Y-18316174D01*
X9232087Y-18316174D02*
X9251134Y-18306650D01*
X9251134Y-18306650D02*
X9279706Y-18306650D01*
X9279706Y-18306650D02*
X9298753Y-18316174D01*
X9298753Y-18316174D02*
X9308277Y-18325698D01*
X9308277Y-18325698D02*
X9317801Y-18344746D01*
X9317801Y-18344746D02*
X9317801Y-18401889D01*
X9317801Y-18401889D02*
X9308277Y-18420936D01*
X9308277Y-18420936D02*
X9298753Y-18430460D01*
X9298753Y-18430460D02*
X9279706Y-18439984D01*
X9279706Y-18439984D02*
X9251134Y-18439984D01*
X9432087Y-18439984D02*
X9413039Y-18430460D01*
X9413039Y-18430460D02*
X9403515Y-18411412D01*
X9403515Y-18411412D02*
X9403515Y-18239984D01*
X9584468Y-18430460D02*
X9565420Y-18439984D01*
X9565420Y-18439984D02*
X9527325Y-18439984D01*
X9527325Y-18439984D02*
X9508277Y-18430460D01*
X9508277Y-18430460D02*
X9498753Y-18411412D01*
X9498753Y-18411412D02*
X9498753Y-18335222D01*
X9498753Y-18335222D02*
X9508277Y-18316174D01*
X9508277Y-18316174D02*
X9527325Y-18306650D01*
X9527325Y-18306650D02*
X9565420Y-18306650D01*
X9565420Y-18306650D02*
X9584468Y-18316174D01*
X9584468Y-18316174D02*
X9593992Y-18335222D01*
X9593992Y-18335222D02*
X9593992Y-18354270D01*
X9593992Y-18354270D02*
X9498753Y-18373317D01*
X9670182Y-18430460D02*
X9689230Y-18439984D01*
X9689230Y-18439984D02*
X9727325Y-18439984D01*
X9727325Y-18439984D02*
X9746373Y-18430460D01*
X9746373Y-18430460D02*
X9755896Y-18411412D01*
X9755896Y-18411412D02*
X9755896Y-18401889D01*
X9755896Y-18401889D02*
X9746373Y-18382841D01*
X9746373Y-18382841D02*
X9727325Y-18373317D01*
X9727325Y-18373317D02*
X9698753Y-18373317D01*
X9698753Y-18373317D02*
X9679706Y-18363793D01*
X9679706Y-18363793D02*
X9670182Y-18344746D01*
X9670182Y-18344746D02*
X9670182Y-18335222D01*
X9670182Y-18335222D02*
X9679706Y-18316174D01*
X9679706Y-18316174D02*
X9698753Y-18306650D01*
X9698753Y-18306650D02*
X9727325Y-18306650D01*
X9727325Y-18306650D02*
X9746373Y-18316174D01*
X9993992Y-18363793D02*
X10146373Y-18363793D01*
X10070182Y-18439984D02*
X10070182Y-18287603D01*
X10422563Y-18325698D02*
X10403515Y-18316174D01*
X10403515Y-18316174D02*
X10393992Y-18306650D01*
X10393992Y-18306650D02*
X10384468Y-18287603D01*
X10384468Y-18287603D02*
X10384468Y-18278079D01*
X10384468Y-18278079D02*
X10393992Y-18259031D01*
X10393992Y-18259031D02*
X10403515Y-18249508D01*
X10403515Y-18249508D02*
X10422563Y-18239984D01*
X10422563Y-18239984D02*
X10460658Y-18239984D01*
X10460658Y-18239984D02*
X10479706Y-18249508D01*
X10479706Y-18249508D02*
X10489230Y-18259031D01*
X10489230Y-18259031D02*
X10498754Y-18278079D01*
X10498754Y-18278079D02*
X10498754Y-18287603D01*
X10498754Y-18287603D02*
X10489230Y-18306650D01*
X10489230Y-18306650D02*
X10479706Y-18316174D01*
X10479706Y-18316174D02*
X10460658Y-18325698D01*
X10460658Y-18325698D02*
X10422563Y-18325698D01*
X10422563Y-18325698D02*
X10403515Y-18335222D01*
X10403515Y-18335222D02*
X10393992Y-18344746D01*
X10393992Y-18344746D02*
X10384468Y-18363793D01*
X10384468Y-18363793D02*
X10384468Y-18401889D01*
X10384468Y-18401889D02*
X10393992Y-18420936D01*
X10393992Y-18420936D02*
X10403515Y-18430460D01*
X10403515Y-18430460D02*
X10422563Y-18439984D01*
X10422563Y-18439984D02*
X10460658Y-18439984D01*
X10460658Y-18439984D02*
X10479706Y-18430460D01*
X10479706Y-18430460D02*
X10489230Y-18420936D01*
X10489230Y-18420936D02*
X10498754Y-18401889D01*
X10498754Y-18401889D02*
X10498754Y-18363793D01*
X10498754Y-18363793D02*
X10489230Y-18344746D01*
X10489230Y-18344746D02*
X10479706Y-18335222D01*
X10479706Y-18335222D02*
X10460658Y-18325698D01*
X10727325Y-18430460D02*
X10746373Y-18439984D01*
X10746373Y-18439984D02*
X10784468Y-18439984D01*
X10784468Y-18439984D02*
X10803516Y-18430460D01*
X10803516Y-18430460D02*
X10813039Y-18411412D01*
X10813039Y-18411412D02*
X10813039Y-18401889D01*
X10813039Y-18401889D02*
X10803516Y-18382841D01*
X10803516Y-18382841D02*
X10784468Y-18373317D01*
X10784468Y-18373317D02*
X10755896Y-18373317D01*
X10755896Y-18373317D02*
X10736849Y-18363793D01*
X10736849Y-18363793D02*
X10727325Y-18344746D01*
X10727325Y-18344746D02*
X10727325Y-18335222D01*
X10727325Y-18335222D02*
X10736849Y-18316174D01*
X10736849Y-18316174D02*
X10755896Y-18306650D01*
X10755896Y-18306650D02*
X10784468Y-18306650D01*
X10784468Y-18306650D02*
X10803516Y-18316174D01*
X10927325Y-18439984D02*
X10908277Y-18430460D01*
X10908277Y-18430460D02*
X10898754Y-18411412D01*
X10898754Y-18411412D02*
X10898754Y-18239984D01*
X11032087Y-18439984D02*
X11013039Y-18430460D01*
X11013039Y-18430460D02*
X11003516Y-18420936D01*
X11003516Y-18420936D02*
X10993992Y-18401889D01*
X10993992Y-18401889D02*
X10993992Y-18344746D01*
X10993992Y-18344746D02*
X11003516Y-18325698D01*
X11003516Y-18325698D02*
X11013039Y-18316174D01*
X11013039Y-18316174D02*
X11032087Y-18306650D01*
X11032087Y-18306650D02*
X11060658Y-18306650D01*
X11060658Y-18306650D02*
X11079706Y-18316174D01*
X11079706Y-18316174D02*
X11089230Y-18325698D01*
X11089230Y-18325698D02*
X11098754Y-18344746D01*
X11098754Y-18344746D02*
X11098754Y-18401889D01*
X11098754Y-18401889D02*
X11089230Y-18420936D01*
X11089230Y-18420936D02*
X11079706Y-18430460D01*
X11079706Y-18430460D02*
X11060658Y-18439984D01*
X11060658Y-18439984D02*
X11032087Y-18439984D01*
X11155897Y-18306650D02*
X11232087Y-18306650D01*
X11184468Y-18239984D02*
X11184468Y-18411412D01*
X11184468Y-18411412D02*
X11193992Y-18430460D01*
X11193992Y-18430460D02*
X11213039Y-18439984D01*
X11213039Y-18439984D02*
X11232087Y-18439984D01*
X11289230Y-18430460D02*
X11308277Y-18439984D01*
X11308277Y-18439984D02*
X11346373Y-18439984D01*
X11346373Y-18439984D02*
X11365420Y-18430460D01*
X11365420Y-18430460D02*
X11374944Y-18411412D01*
X11374944Y-18411412D02*
X11374944Y-18401889D01*
X11374944Y-18401889D02*
X11365420Y-18382841D01*
X11365420Y-18382841D02*
X11346373Y-18373317D01*
X11346373Y-18373317D02*
X11317801Y-18373317D01*
X11317801Y-18373317D02*
X11298754Y-18363793D01*
X11298754Y-18363793D02*
X11289230Y-18344746D01*
X11289230Y-18344746D02*
X11289230Y-18335222D01*
X11289230Y-18335222D02*
X11298754Y-18316174D01*
X11298754Y-18316174D02*
X11317801Y-18306650D01*
X11317801Y-18306650D02*
X11346373Y-18306650D01*
X11346373Y-18306650D02*
X11365420Y-18316174D01*
X11441611Y-18516174D02*
X11451135Y-18506650D01*
X11451135Y-18506650D02*
X11470182Y-18478079D01*
X11470182Y-18478079D02*
X11479706Y-18459031D01*
X11479706Y-18459031D02*
X11489230Y-18430460D01*
X11489230Y-18430460D02*
X11498754Y-18382841D01*
X11498754Y-18382841D02*
X11498754Y-18344746D01*
X11498754Y-18344746D02*
X11489230Y-18297127D01*
X11489230Y-18297127D02*
X11479706Y-18268555D01*
X11479706Y-18268555D02*
X11470182Y-18249508D01*
X11470182Y-18249508D02*
X11451135Y-18220936D01*
X11451135Y-18220936D02*
X11441611Y-18211412D01*
M02*
