M48
; DRILL file KiCad 10.0.1 date 2026-06-20T13:48:00
; FORMAT={-:-/ absolute / metric / decimal}
; #@! TF.CreationDate,2026-06-20T13:48:00+02:00
; #@! TF.GenerationSoftware,Kicad,Pcbnew,10.0.1
; #@! TF.FileFunction,Plated,1,2,PTH
FMAT,2
METRIC
; #@! TA.AperFunction,Plated,PTH,ComponentDrill
T1C0.800
; #@! TA.AperFunction,Plated,PTH,ComponentDrill
T2C0.900
; #@! TA.AperFunction,Plated,PTH,ComponentDrill
T3C1.000
; #@! TA.AperFunction,Plated,PTH,ComponentDrill
T4C1.100
; #@! TA.AperFunction,Plated,PTH,ComponentDrill
T5C1.800
; #@! TA.AperFunction,Plated,PTH,ComponentDrill
T6C2.000
%
G90
G05
T1
X54.92Y-108.5
X54.92Y-136.5
X54.96Y-74.0
X54.96Y-102.5
X57.46Y-108.5
X57.46Y-136.5
X57.5Y-74.0
X57.5Y-102.5
X60.0Y-108.5
X60.0Y-136.5
X60.04Y-74.0
X60.04Y-102.5
X67.5Y-100.44
X67.5Y-108.06
X70.5Y-66.94
X70.5Y-74.56
X70.5Y-129.94
X70.5Y-137.56
X70.69Y-97.885
X70.69Y-100.425
X70.69Y-102.965
X70.69Y-105.505
X70.69Y-108.045
X70.69Y-110.585
X70.69Y-113.125
X72.0Y-94.5
X72.0Y-116.5
X76.25Y-52.19
X76.25Y-59.81
X76.25Y-145.19
X76.25Y-152.81
X77.0Y-94.5
X77.0Y-116.5
X78.0Y-73.44
X78.0Y-81.06
X78.0Y-83.19
X78.0Y-90.81
X78.31Y-97.885
X78.31Y-100.425
X78.31Y-102.965
X78.31Y-105.505
X78.31Y-108.045
X78.31Y-110.585
X78.31Y-113.125
X79.0Y-129.94
X79.0Y-137.56
X79.25Y-52.19
X79.25Y-59.81
X79.25Y-145.19
X79.25Y-152.81
X83.44Y-46.25
X83.44Y-49.25
X83.44Y-139.25
X83.44Y-142.25
X91.06Y-46.25
X91.06Y-49.25
X91.06Y-139.25
X91.06Y-142.25
X96.5Y-73.44
X96.5Y-81.06
X96.5Y-83.19
X96.5Y-90.81
T2
X85.98Y-89.0
X85.98Y-117.5
X88.52Y-89.0
X88.52Y-117.5
T3
X52.75Y-52.0
X52.75Y-54.54
X52.75Y-57.08
X52.75Y-59.62
X52.75Y-62.16
X52.75Y-64.7
X52.75Y-144.0
X52.75Y-146.54
X52.75Y-149.08
X52.75Y-151.62
X52.75Y-154.16
X52.75Y-156.7
X59.0Y-67.0
X59.0Y-97.0
X59.0Y-130.0
X59.0Y-160.0
X61.5Y-67.0
X61.5Y-97.0
X61.5Y-130.0
X61.5Y-160.0
X64.0Y-67.0
X64.0Y-97.0
X64.0Y-130.0
X64.0Y-160.0
X66.5Y-67.0
X66.5Y-97.0
X66.5Y-130.0
X66.5Y-160.0
X84.75Y-63.5
X84.75Y-110.75
X84.75Y-113.25
X84.75Y-156.5
X87.25Y-63.5
X87.25Y-110.75
X87.25Y-113.25
X87.25Y-156.5
X89.75Y-63.5
X89.75Y-110.75
X89.75Y-113.25
X89.75Y-156.5
X97.25Y-52.0
X97.25Y-54.54
X97.25Y-57.08
X97.25Y-59.62
X97.25Y-62.16
X97.25Y-64.7
X97.25Y-67.24
X97.25Y-69.78
X97.25Y-138.92
X97.25Y-141.46
X97.25Y-144.0
X97.25Y-146.54
X97.25Y-149.08
X97.25Y-151.62
X97.25Y-154.16
X97.25Y-156.7
T5
X84.837Y-75.05
X84.837Y-79.75
X84.837Y-84.45
X84.837Y-122.05
X84.837Y-126.75
X84.837Y-131.45
X89.663Y-75.05
X89.663Y-79.75
X89.663Y-84.45
X89.663Y-122.05
X89.663Y-126.75
X89.663Y-131.45
T4
G00X82.45Y-56.35
M15
G01X82.45Y-55.65
M16
G05
G00X82.45Y-149.35
M15
G01X82.45Y-148.65
M16
G05
G00X82.15Y-103.25
M15
G01X82.85Y-103.25
M16
G05
G00X91.65Y-103.25
M15
G01X92.35Y-103.25
M16
G05
G00X92.05Y-56.35
M15
G01X92.05Y-55.65
M16
G05
G00X92.05Y-149.35
M15
G01X92.05Y-148.65
M16
G05
T6
G00X56.95Y-55.9
M15
G01X56.95Y-56.1
M16
G05
G00X56.95Y-85.9
M15
G01X56.95Y-86.1
M16
G05
G00X56.95Y-118.9
M15
G01X56.95Y-119.1
M16
G05
G00X56.95Y-148.9
M15
G01X56.95Y-149.1
M16
G05
G00X68.55Y-55.9
M15
G01X68.55Y-56.1
M16
G05
G00X68.55Y-85.9
M15
G01X68.55Y-86.1
M16
G05
G00X68.55Y-118.9
M15
G01X68.55Y-119.1
M16
G05
G00X68.55Y-148.9
M15
G01X68.55Y-149.1
M16
G05
M30
