%TF.GenerationSoftware,KiCad,Pcbnew,10.0.1*%
%TF.CreationDate,2026-06-20T13:48:00+02:00*%
%TF.ProjectId,DMH_Dual_VCA_Mk3_PCB_Controls,444d485f-4475-4616-9c5f-5643415f4d6b,1*%
%TF.SameCoordinates,Original*%
%TF.FileFunction,Drillmap*%
%TF.FilePolarity,Positive*%
%FSLAX45Y45*%
G04 Gerber Fmt 4.5, Leading zero omitted, Abs format (unit mm)*
G04 Created by KiCad (PCBNEW 10.0.1) date 2026-06-20 13:48:00*
%MOMM*%
%LPD*%
G01*
G04 APERTURE LIST*
%ADD10C,0.050000*%
%ADD11C,0.200000*%
G04 APERTURE END LIST*
D10*
X5050000Y-4250000D02*
X9950000Y-4250000D01*
X9950000Y-16350000D01*
X5050000Y-16350000D01*
X5050000Y-4250000D01*
D11*
X5308277Y-16663984D02*
X5308277Y-16463984D01*
X5308277Y-16463984D02*
X5355896Y-16463984D01*
X5355896Y-16463984D02*
X5384467Y-16473508D01*
X5384467Y-16473508D02*
X5403515Y-16492555D01*
X5403515Y-16492555D02*
X5413039Y-16511603D01*
X5413039Y-16511603D02*
X5422563Y-16549698D01*
X5422563Y-16549698D02*
X5422563Y-16578269D01*
X5422563Y-16578269D02*
X5413039Y-16616365D01*
X5413039Y-16616365D02*
X5403515Y-16635412D01*
X5403515Y-16635412D02*
X5384467Y-16654460D01*
X5384467Y-16654460D02*
X5355896Y-16663984D01*
X5355896Y-16663984D02*
X5308277Y-16663984D01*
X5508277Y-16663984D02*
X5508277Y-16530650D01*
X5508277Y-16568746D02*
X5517801Y-16549698D01*
X5517801Y-16549698D02*
X5527324Y-16540174D01*
X5527324Y-16540174D02*
X5546372Y-16530650D01*
X5546372Y-16530650D02*
X5565420Y-16530650D01*
X5632086Y-16663984D02*
X5632086Y-16530650D01*
X5632086Y-16463984D02*
X5622562Y-16473508D01*
X5622562Y-16473508D02*
X5632086Y-16483031D01*
X5632086Y-16483031D02*
X5641610Y-16473508D01*
X5641610Y-16473508D02*
X5632086Y-16463984D01*
X5632086Y-16463984D02*
X5632086Y-16483031D01*
X5755896Y-16663984D02*
X5736848Y-16654460D01*
X5736848Y-16654460D02*
X5727324Y-16635412D01*
X5727324Y-16635412D02*
X5727324Y-16463984D01*
X5860658Y-16663984D02*
X5841610Y-16654460D01*
X5841610Y-16654460D02*
X5832086Y-16635412D01*
X5832086Y-16635412D02*
X5832086Y-16463984D01*
X6089229Y-16663984D02*
X6089229Y-16463984D01*
X6089229Y-16463984D02*
X6155896Y-16606841D01*
X6155896Y-16606841D02*
X6222562Y-16463984D01*
X6222562Y-16463984D02*
X6222562Y-16663984D01*
X6403515Y-16663984D02*
X6403515Y-16559222D01*
X6403515Y-16559222D02*
X6393991Y-16540174D01*
X6393991Y-16540174D02*
X6374943Y-16530650D01*
X6374943Y-16530650D02*
X6336848Y-16530650D01*
X6336848Y-16530650D02*
X6317801Y-16540174D01*
X6403515Y-16654460D02*
X6384467Y-16663984D01*
X6384467Y-16663984D02*
X6336848Y-16663984D01*
X6336848Y-16663984D02*
X6317801Y-16654460D01*
X6317801Y-16654460D02*
X6308277Y-16635412D01*
X6308277Y-16635412D02*
X6308277Y-16616365D01*
X6308277Y-16616365D02*
X6317801Y-16597317D01*
X6317801Y-16597317D02*
X6336848Y-16587793D01*
X6336848Y-16587793D02*
X6384467Y-16587793D01*
X6384467Y-16587793D02*
X6403515Y-16578269D01*
X6498753Y-16530650D02*
X6498753Y-16730650D01*
X6498753Y-16540174D02*
X6517801Y-16530650D01*
X6517801Y-16530650D02*
X6555896Y-16530650D01*
X6555896Y-16530650D02*
X6574943Y-16540174D01*
X6574943Y-16540174D02*
X6584467Y-16549698D01*
X6584467Y-16549698D02*
X6593991Y-16568746D01*
X6593991Y-16568746D02*
X6593991Y-16625888D01*
X6593991Y-16625888D02*
X6584467Y-16644936D01*
X6584467Y-16644936D02*
X6574943Y-16654460D01*
X6574943Y-16654460D02*
X6555896Y-16663984D01*
X6555896Y-16663984D02*
X6517801Y-16663984D01*
X6517801Y-16663984D02*
X6498753Y-16654460D01*
X6679705Y-16644936D02*
X6689229Y-16654460D01*
X6689229Y-16654460D02*
X6679705Y-16663984D01*
X6679705Y-16663984D02*
X6670182Y-16654460D01*
X6670182Y-16654460D02*
X6679705Y-16644936D01*
X6679705Y-16644936D02*
X6679705Y-16663984D01*
X6679705Y-16540174D02*
X6689229Y-16549698D01*
X6689229Y-16549698D02*
X6679705Y-16559222D01*
X6679705Y-16559222D02*
X6670182Y-16549698D01*
X6670182Y-16549698D02*
X6679705Y-16540174D01*
X6679705Y-16540174D02*
X6679705Y-16559222D01*
M02*
