%TF.GenerationSoftware,KiCad,Pcbnew,10.0.1*%
%TF.CreationDate,2026-06-20T13:47:53+02:00*%
%TF.ProjectId,DMH_Dual_VCA_Mk3_PCB_Controls,444d485f-4475-4616-9c5f-5643415f4d6b,1*%
%TF.SameCoordinates,Original*%
%TF.FileFunction,Legend,Top*%
%TF.FilePolarity,Positive*%
%FSLAX46Y46*%
G04 Gerber Fmt 4.6, Leading zero omitted, Abs format (unit mm)*
G04 Created by KiCad (PCBNEW 10.0.1) date 2026-06-20 13:47:53*
%MOMM*%
%LPD*%
G01*
G04 APERTURE LIST*
G04 Aperture macros list*
%AMRoundRect*
0 Rectangle with rounded corners*
0 $1 Rounding radius*
0 $2 $3 $4 $5 $6 $7 $8 $9 X,Y pos of 4 corners*
0 Add a 4 corners polygon primitive as box body*
4,1,4,$2,$3,$4,$5,$6,$7,$8,$9,$2,$3,0*
0 Add four circle primitives for the rounded corners*
1,1,$1+$1,$2,$3*
1,1,$1+$1,$4,$5*
1,1,$1+$1,$6,$7*
1,1,$1+$1,$8,$9*
0 Add four rect primitives between the rounded corners*
20,1,$1+$1,$2,$3,$4,$5,0*
20,1,$1+$1,$4,$5,$6,$7,0*
20,1,$1+$1,$6,$7,$8,$9,0*
20,1,$1+$1,$8,$9,$2,$3,0*%
G04 Aperture macros list end*
%ADD10C,0.150000*%
%ADD11C,0.120000*%
%ADD12C,1.440000*%
%ADD13C,1.600000*%
%ADD14RoundRect,0.250000X0.550000X-0.550000X0.550000X0.550000X-0.550000X0.550000X-0.550000X-0.550000X0*%
%ADD15O,2.720000X3.240000*%
%ADD16R,1.800000X1.800000*%
%ADD17C,1.800000*%
%ADD18RoundRect,0.250000X-0.550000X0.550000X-0.550000X-0.550000X0.550000X-0.550000X0.550000X0.550000X0*%
%ADD19C,2.800000*%
%ADD20O,4.000000X4.200000*%
%ADD21RoundRect,0.250000X-0.550000X-0.550000X0.550000X-0.550000X0.550000X0.550000X-0.550000X0.550000X0*%
%ADD22RoundRect,0.500000X1.000000X-0.500000X1.000000X0.500000X-1.000000X0.500000X-1.000000X-0.500000X0*%
%ADD23R,1.700000X1.700000*%
%ADD24C,1.700000*%
G04 APERTURE END LIST*
D10*
X63704819Y-109571428D02*
X63228628Y-109904761D01*
X63704819Y-110142856D02*
X62704819Y-110142856D01*
X62704819Y-110142856D02*
X62704819Y-109761904D01*
X62704819Y-109761904D02*
X62752438Y-109666666D01*
X62752438Y-109666666D02*
X62800057Y-109619047D01*
X62800057Y-109619047D02*
X62895295Y-109571428D01*
X62895295Y-109571428D02*
X63038152Y-109571428D01*
X63038152Y-109571428D02*
X63133390Y-109619047D01*
X63133390Y-109619047D02*
X63181009Y-109666666D01*
X63181009Y-109666666D02*
X63228628Y-109761904D01*
X63228628Y-109761904D02*
X63228628Y-110142856D01*
X62704819Y-109285713D02*
X63704819Y-108952380D01*
X63704819Y-108952380D02*
X62704819Y-108619047D01*
X63704819Y-107761904D02*
X63704819Y-108333332D01*
X63704819Y-108047618D02*
X62704819Y-108047618D01*
X62704819Y-108047618D02*
X62847676Y-108142856D01*
X62847676Y-108142856D02*
X62942914Y-108238094D01*
X62942914Y-108238094D02*
X62990533Y-108333332D01*
X63038152Y-106904761D02*
X63704819Y-106904761D01*
X62657200Y-107142856D02*
X63371485Y-107380951D01*
X63371485Y-107380951D02*
X63371485Y-106761904D01*
X56857142Y-109584819D02*
X56380952Y-109584819D01*
X56380952Y-109584819D02*
X56333333Y-110061009D01*
X56333333Y-110061009D02*
X56380952Y-110013390D01*
X56380952Y-110013390D02*
X56476190Y-109965771D01*
X56476190Y-109965771D02*
X56714285Y-109965771D01*
X56714285Y-109965771D02*
X56809523Y-110013390D01*
X56809523Y-110013390D02*
X56857142Y-110061009D01*
X56857142Y-110061009D02*
X56904761Y-110156247D01*
X56904761Y-110156247D02*
X56904761Y-110394342D01*
X56904761Y-110394342D02*
X56857142Y-110489580D01*
X56857142Y-110489580D02*
X56809523Y-110537200D01*
X56809523Y-110537200D02*
X56714285Y-110584819D01*
X56714285Y-110584819D02*
X56476190Y-110584819D01*
X56476190Y-110584819D02*
X56380952Y-110537200D01*
X56380952Y-110537200D02*
X56333333Y-110489580D01*
X57523809Y-109584819D02*
X57619047Y-109584819D01*
X57619047Y-109584819D02*
X57714285Y-109632438D01*
X57714285Y-109632438D02*
X57761904Y-109680057D01*
X57761904Y-109680057D02*
X57809523Y-109775295D01*
X57809523Y-109775295D02*
X57857142Y-109965771D01*
X57857142Y-109965771D02*
X57857142Y-110203866D01*
X57857142Y-110203866D02*
X57809523Y-110394342D01*
X57809523Y-110394342D02*
X57761904Y-110489580D01*
X57761904Y-110489580D02*
X57714285Y-110537200D01*
X57714285Y-110537200D02*
X57619047Y-110584819D01*
X57619047Y-110584819D02*
X57523809Y-110584819D01*
X57523809Y-110584819D02*
X57428571Y-110537200D01*
X57428571Y-110537200D02*
X57380952Y-110489580D01*
X57380952Y-110489580D02*
X57333333Y-110394342D01*
X57333333Y-110394342D02*
X57285714Y-110203866D01*
X57285714Y-110203866D02*
X57285714Y-109965771D01*
X57285714Y-109965771D02*
X57333333Y-109775295D01*
X57333333Y-109775295D02*
X57380952Y-109680057D01*
X57380952Y-109680057D02*
X57428571Y-109632438D01*
X57428571Y-109632438D02*
X57523809Y-109584819D01*
X58285714Y-110584819D02*
X58285714Y-109584819D01*
X58380952Y-110203866D02*
X58666666Y-110584819D01*
X58666666Y-109918152D02*
X58285714Y-110299104D01*
X78607142Y-50954819D02*
X78273809Y-50478628D01*
X78035714Y-50954819D02*
X78035714Y-49954819D01*
X78035714Y-49954819D02*
X78416666Y-49954819D01*
X78416666Y-49954819D02*
X78511904Y-50002438D01*
X78511904Y-50002438D02*
X78559523Y-50050057D01*
X78559523Y-50050057D02*
X78607142Y-50145295D01*
X78607142Y-50145295D02*
X78607142Y-50288152D01*
X78607142Y-50288152D02*
X78559523Y-50383390D01*
X78559523Y-50383390D02*
X78511904Y-50431009D01*
X78511904Y-50431009D02*
X78416666Y-50478628D01*
X78416666Y-50478628D02*
X78035714Y-50478628D01*
X79464285Y-49954819D02*
X79273809Y-49954819D01*
X79273809Y-49954819D02*
X79178571Y-50002438D01*
X79178571Y-50002438D02*
X79130952Y-50050057D01*
X79130952Y-50050057D02*
X79035714Y-50192914D01*
X79035714Y-50192914D02*
X78988095Y-50383390D01*
X78988095Y-50383390D02*
X78988095Y-50764342D01*
X78988095Y-50764342D02*
X79035714Y-50859580D01*
X79035714Y-50859580D02*
X79083333Y-50907200D01*
X79083333Y-50907200D02*
X79178571Y-50954819D01*
X79178571Y-50954819D02*
X79369047Y-50954819D01*
X79369047Y-50954819D02*
X79464285Y-50907200D01*
X79464285Y-50907200D02*
X79511904Y-50859580D01*
X79511904Y-50859580D02*
X79559523Y-50764342D01*
X79559523Y-50764342D02*
X79559523Y-50526247D01*
X79559523Y-50526247D02*
X79511904Y-50431009D01*
X79511904Y-50431009D02*
X79464285Y-50383390D01*
X79464285Y-50383390D02*
X79369047Y-50335771D01*
X79369047Y-50335771D02*
X79178571Y-50335771D01*
X79178571Y-50335771D02*
X79083333Y-50383390D01*
X79083333Y-50383390D02*
X79035714Y-50431009D01*
X79035714Y-50431009D02*
X78988095Y-50526247D01*
X80035714Y-50954819D02*
X80226190Y-50954819D01*
X80226190Y-50954819D02*
X80321428Y-50907200D01*
X80321428Y-50907200D02*
X80369047Y-50859580D01*
X80369047Y-50859580D02*
X80464285Y-50716723D01*
X80464285Y-50716723D02*
X80511904Y-50526247D01*
X80511904Y-50526247D02*
X80511904Y-50145295D01*
X80511904Y-50145295D02*
X80464285Y-50050057D01*
X80464285Y-50050057D02*
X80416666Y-50002438D01*
X80416666Y-50002438D02*
X80321428Y-49954819D01*
X80321428Y-49954819D02*
X80130952Y-49954819D01*
X80130952Y-49954819D02*
X80035714Y-50002438D01*
X80035714Y-50002438D02*
X79988095Y-50050057D01*
X79988095Y-50050057D02*
X79940476Y-50145295D01*
X79940476Y-50145295D02*
X79940476Y-50383390D01*
X79940476Y-50383390D02*
X79988095Y-50478628D01*
X79988095Y-50478628D02*
X80035714Y-50526247D01*
X80035714Y-50526247D02*
X80130952Y-50573866D01*
X80130952Y-50573866D02*
X80321428Y-50573866D01*
X80321428Y-50573866D02*
X80416666Y-50526247D01*
X80416666Y-50526247D02*
X80464285Y-50478628D01*
X80464285Y-50478628D02*
X80511904Y-50383390D01*
X79704819Y-57071428D02*
X79704819Y-57642856D01*
X79704819Y-57357142D02*
X78704819Y-57357142D01*
X78704819Y-57357142D02*
X78847676Y-57452380D01*
X78847676Y-57452380D02*
X78942914Y-57547618D01*
X78942914Y-57547618D02*
X78990533Y-57642856D01*
X78704819Y-56452380D02*
X78704819Y-56357142D01*
X78704819Y-56357142D02*
X78752438Y-56261904D01*
X78752438Y-56261904D02*
X78800057Y-56214285D01*
X78800057Y-56214285D02*
X78895295Y-56166666D01*
X78895295Y-56166666D02*
X79085771Y-56119047D01*
X79085771Y-56119047D02*
X79323866Y-56119047D01*
X79323866Y-56119047D02*
X79514342Y-56166666D01*
X79514342Y-56166666D02*
X79609580Y-56214285D01*
X79609580Y-56214285D02*
X79657200Y-56261904D01*
X79657200Y-56261904D02*
X79704819Y-56357142D01*
X79704819Y-56357142D02*
X79704819Y-56452380D01*
X79704819Y-56452380D02*
X79657200Y-56547618D01*
X79657200Y-56547618D02*
X79609580Y-56595237D01*
X79609580Y-56595237D02*
X79514342Y-56642856D01*
X79514342Y-56642856D02*
X79323866Y-56690475D01*
X79323866Y-56690475D02*
X79085771Y-56690475D01*
X79085771Y-56690475D02*
X78895295Y-56642856D01*
X78895295Y-56642856D02*
X78800057Y-56595237D01*
X78800057Y-56595237D02*
X78752438Y-56547618D01*
X78752438Y-56547618D02*
X78704819Y-56452380D01*
X78704819Y-55499999D02*
X78704819Y-55404761D01*
X78704819Y-55404761D02*
X78752438Y-55309523D01*
X78752438Y-55309523D02*
X78800057Y-55261904D01*
X78800057Y-55261904D02*
X78895295Y-55214285D01*
X78895295Y-55214285D02*
X79085771Y-55166666D01*
X79085771Y-55166666D02*
X79323866Y-55166666D01*
X79323866Y-55166666D02*
X79514342Y-55214285D01*
X79514342Y-55214285D02*
X79609580Y-55261904D01*
X79609580Y-55261904D02*
X79657200Y-55309523D01*
X79657200Y-55309523D02*
X79704819Y-55404761D01*
X79704819Y-55404761D02*
X79704819Y-55499999D01*
X79704819Y-55499999D02*
X79657200Y-55595237D01*
X79657200Y-55595237D02*
X79609580Y-55642856D01*
X79609580Y-55642856D02*
X79514342Y-55690475D01*
X79514342Y-55690475D02*
X79323866Y-55738094D01*
X79323866Y-55738094D02*
X79085771Y-55738094D01*
X79085771Y-55738094D02*
X78895295Y-55690475D01*
X78895295Y-55690475D02*
X78800057Y-55642856D01*
X78800057Y-55642856D02*
X78752438Y-55595237D01*
X78752438Y-55595237D02*
X78704819Y-55499999D01*
X79704819Y-54738094D02*
X78704819Y-54738094D01*
X79323866Y-54642856D02*
X79704819Y-54357142D01*
X79038152Y-54357142D02*
X79419104Y-54738094D01*
X63704819Y-137571428D02*
X63228628Y-137904761D01*
X63704819Y-138142856D02*
X62704819Y-138142856D01*
X62704819Y-138142856D02*
X62704819Y-137761904D01*
X62704819Y-137761904D02*
X62752438Y-137666666D01*
X62752438Y-137666666D02*
X62800057Y-137619047D01*
X62800057Y-137619047D02*
X62895295Y-137571428D01*
X62895295Y-137571428D02*
X63038152Y-137571428D01*
X63038152Y-137571428D02*
X63133390Y-137619047D01*
X63133390Y-137619047D02*
X63181009Y-137666666D01*
X63181009Y-137666666D02*
X63228628Y-137761904D01*
X63228628Y-137761904D02*
X63228628Y-138142856D01*
X62704819Y-137285713D02*
X63704819Y-136952380D01*
X63704819Y-136952380D02*
X62704819Y-136619047D01*
X63704819Y-135761904D02*
X63704819Y-136333332D01*
X63704819Y-136047618D02*
X62704819Y-136047618D01*
X62704819Y-136047618D02*
X62847676Y-136142856D01*
X62847676Y-136142856D02*
X62942914Y-136238094D01*
X62942914Y-136238094D02*
X62990533Y-136333332D01*
X62704819Y-134857142D02*
X62704819Y-135333332D01*
X62704819Y-135333332D02*
X63181009Y-135380951D01*
X63181009Y-135380951D02*
X63133390Y-135333332D01*
X63133390Y-135333332D02*
X63085771Y-135238094D01*
X63085771Y-135238094D02*
X63085771Y-134999999D01*
X63085771Y-134999999D02*
X63133390Y-134904761D01*
X63133390Y-134904761D02*
X63181009Y-134857142D01*
X63181009Y-134857142D02*
X63276247Y-134809523D01*
X63276247Y-134809523D02*
X63514342Y-134809523D01*
X63514342Y-134809523D02*
X63609580Y-134857142D01*
X63609580Y-134857142D02*
X63657200Y-134904761D01*
X63657200Y-134904761D02*
X63704819Y-134999999D01*
X63704819Y-134999999D02*
X63704819Y-135238094D01*
X63704819Y-135238094D02*
X63657200Y-135333332D01*
X63657200Y-135333332D02*
X63609580Y-135380951D01*
X56857142Y-137584819D02*
X56380952Y-137584819D01*
X56380952Y-137584819D02*
X56333333Y-138061009D01*
X56333333Y-138061009D02*
X56380952Y-138013390D01*
X56380952Y-138013390D02*
X56476190Y-137965771D01*
X56476190Y-137965771D02*
X56714285Y-137965771D01*
X56714285Y-137965771D02*
X56809523Y-138013390D01*
X56809523Y-138013390D02*
X56857142Y-138061009D01*
X56857142Y-138061009D02*
X56904761Y-138156247D01*
X56904761Y-138156247D02*
X56904761Y-138394342D01*
X56904761Y-138394342D02*
X56857142Y-138489580D01*
X56857142Y-138489580D02*
X56809523Y-138537200D01*
X56809523Y-138537200D02*
X56714285Y-138584819D01*
X56714285Y-138584819D02*
X56476190Y-138584819D01*
X56476190Y-138584819D02*
X56380952Y-138537200D01*
X56380952Y-138537200D02*
X56333333Y-138489580D01*
X57523809Y-137584819D02*
X57619047Y-137584819D01*
X57619047Y-137584819D02*
X57714285Y-137632438D01*
X57714285Y-137632438D02*
X57761904Y-137680057D01*
X57761904Y-137680057D02*
X57809523Y-137775295D01*
X57809523Y-137775295D02*
X57857142Y-137965771D01*
X57857142Y-137965771D02*
X57857142Y-138203866D01*
X57857142Y-138203866D02*
X57809523Y-138394342D01*
X57809523Y-138394342D02*
X57761904Y-138489580D01*
X57761904Y-138489580D02*
X57714285Y-138537200D01*
X57714285Y-138537200D02*
X57619047Y-138584819D01*
X57619047Y-138584819D02*
X57523809Y-138584819D01*
X57523809Y-138584819D02*
X57428571Y-138537200D01*
X57428571Y-138537200D02*
X57380952Y-138489580D01*
X57380952Y-138489580D02*
X57333333Y-138394342D01*
X57333333Y-138394342D02*
X57285714Y-138203866D01*
X57285714Y-138203866D02*
X57285714Y-137965771D01*
X57285714Y-137965771D02*
X57333333Y-137775295D01*
X57333333Y-137775295D02*
X57380952Y-137680057D01*
X57380952Y-137680057D02*
X57428571Y-137632438D01*
X57428571Y-137632438D02*
X57523809Y-137584819D01*
X58285714Y-138584819D02*
X58285714Y-137584819D01*
X58380952Y-138203866D02*
X58666666Y-138584819D01*
X58666666Y-137918152D02*
X58285714Y-138299104D01*
X76334819Y-87738094D02*
X75334819Y-87738094D01*
X75334819Y-87738094D02*
X75334819Y-87499999D01*
X75334819Y-87499999D02*
X75382438Y-87357142D01*
X75382438Y-87357142D02*
X75477676Y-87261904D01*
X75477676Y-87261904D02*
X75572914Y-87214285D01*
X75572914Y-87214285D02*
X75763390Y-87166666D01*
X75763390Y-87166666D02*
X75906247Y-87166666D01*
X75906247Y-87166666D02*
X76096723Y-87214285D01*
X76096723Y-87214285D02*
X76191961Y-87261904D01*
X76191961Y-87261904D02*
X76287200Y-87357142D01*
X76287200Y-87357142D02*
X76334819Y-87499999D01*
X76334819Y-87499999D02*
X76334819Y-87738094D01*
X75763390Y-86595237D02*
X75715771Y-86690475D01*
X75715771Y-86690475D02*
X75668152Y-86738094D01*
X75668152Y-86738094D02*
X75572914Y-86785713D01*
X75572914Y-86785713D02*
X75525295Y-86785713D01*
X75525295Y-86785713D02*
X75430057Y-86738094D01*
X75430057Y-86738094D02*
X75382438Y-86690475D01*
X75382438Y-86690475D02*
X75334819Y-86595237D01*
X75334819Y-86595237D02*
X75334819Y-86404761D01*
X75334819Y-86404761D02*
X75382438Y-86309523D01*
X75382438Y-86309523D02*
X75430057Y-86261904D01*
X75430057Y-86261904D02*
X75525295Y-86214285D01*
X75525295Y-86214285D02*
X75572914Y-86214285D01*
X75572914Y-86214285D02*
X75668152Y-86261904D01*
X75668152Y-86261904D02*
X75715771Y-86309523D01*
X75715771Y-86309523D02*
X75763390Y-86404761D01*
X75763390Y-86404761D02*
X75763390Y-86595237D01*
X75763390Y-86595237D02*
X75811009Y-86690475D01*
X75811009Y-86690475D02*
X75858628Y-86738094D01*
X75858628Y-86738094D02*
X75953866Y-86785713D01*
X75953866Y-86785713D02*
X76144342Y-86785713D01*
X76144342Y-86785713D02*
X76239580Y-86738094D01*
X76239580Y-86738094D02*
X76287200Y-86690475D01*
X76287200Y-86690475D02*
X76334819Y-86595237D01*
X76334819Y-86595237D02*
X76334819Y-86404761D01*
X76334819Y-86404761D02*
X76287200Y-86309523D01*
X76287200Y-86309523D02*
X76239580Y-86261904D01*
X76239580Y-86261904D02*
X76144342Y-86214285D01*
X76144342Y-86214285D02*
X75953866Y-86214285D01*
X75953866Y-86214285D02*
X75858628Y-86261904D01*
X75858628Y-86261904D02*
X75811009Y-86309523D01*
X75811009Y-86309523D02*
X75763390Y-86404761D01*
X79574819Y-89714285D02*
X79574819Y-89047619D01*
X79574819Y-89047619D02*
X80574819Y-89714285D01*
X80574819Y-89714285D02*
X80574819Y-89047619D01*
X80574819Y-88666666D02*
X79574819Y-88666666D01*
X79574819Y-88666666D02*
X79574819Y-88285714D01*
X79574819Y-88285714D02*
X79622438Y-88190476D01*
X79622438Y-88190476D02*
X79670057Y-88142857D01*
X79670057Y-88142857D02*
X79765295Y-88095238D01*
X79765295Y-88095238D02*
X79908152Y-88095238D01*
X79908152Y-88095238D02*
X80003390Y-88142857D01*
X80003390Y-88142857D02*
X80051009Y-88190476D01*
X80051009Y-88190476D02*
X80098628Y-88285714D01*
X80098628Y-88285714D02*
X80098628Y-88666666D01*
X80574819Y-87666666D02*
X79574819Y-87666666D01*
X79574819Y-87666666D02*
X79574819Y-87428571D01*
X79574819Y-87428571D02*
X79622438Y-87285714D01*
X79622438Y-87285714D02*
X79717676Y-87190476D01*
X79717676Y-87190476D02*
X79812914Y-87142857D01*
X79812914Y-87142857D02*
X80003390Y-87095238D01*
X80003390Y-87095238D02*
X80146247Y-87095238D01*
X80146247Y-87095238D02*
X80336723Y-87142857D01*
X80336723Y-87142857D02*
X80431961Y-87190476D01*
X80431961Y-87190476D02*
X80527200Y-87285714D01*
X80527200Y-87285714D02*
X80574819Y-87428571D01*
X80574819Y-87428571D02*
X80574819Y-87666666D01*
X79908152Y-86238095D02*
X80574819Y-86238095D01*
X79527200Y-86476190D02*
X80241485Y-86714285D01*
X80241485Y-86714285D02*
X80241485Y-86095238D01*
X79574819Y-85857142D02*
X80574819Y-85523809D01*
X80574819Y-85523809D02*
X79574819Y-85190476D01*
X79574819Y-84952380D02*
X79574819Y-84285714D01*
X79574819Y-84285714D02*
X80574819Y-84714285D01*
X76654819Y-91071904D02*
X75654819Y-91071904D01*
X76654819Y-90500476D02*
X76083390Y-90929047D01*
X75654819Y-90500476D02*
X76226247Y-91071904D01*
X65584819Y-104892857D02*
X65108628Y-105226190D01*
X65584819Y-105464285D02*
X64584819Y-105464285D01*
X64584819Y-105464285D02*
X64584819Y-105083333D01*
X64584819Y-105083333D02*
X64632438Y-104988095D01*
X64632438Y-104988095D02*
X64680057Y-104940476D01*
X64680057Y-104940476D02*
X64775295Y-104892857D01*
X64775295Y-104892857D02*
X64918152Y-104892857D01*
X64918152Y-104892857D02*
X65013390Y-104940476D01*
X65013390Y-104940476D02*
X65061009Y-104988095D01*
X65061009Y-104988095D02*
X65108628Y-105083333D01*
X65108628Y-105083333D02*
X65108628Y-105464285D01*
X64584819Y-104035714D02*
X64584819Y-104226190D01*
X64584819Y-104226190D02*
X64632438Y-104321428D01*
X64632438Y-104321428D02*
X64680057Y-104369047D01*
X64680057Y-104369047D02*
X64822914Y-104464285D01*
X64822914Y-104464285D02*
X65013390Y-104511904D01*
X65013390Y-104511904D02*
X65394342Y-104511904D01*
X65394342Y-104511904D02*
X65489580Y-104464285D01*
X65489580Y-104464285D02*
X65537200Y-104416666D01*
X65537200Y-104416666D02*
X65584819Y-104321428D01*
X65584819Y-104321428D02*
X65584819Y-104130952D01*
X65584819Y-104130952D02*
X65537200Y-104035714D01*
X65537200Y-104035714D02*
X65489580Y-103988095D01*
X65489580Y-103988095D02*
X65394342Y-103940476D01*
X65394342Y-103940476D02*
X65156247Y-103940476D01*
X65156247Y-103940476D02*
X65061009Y-103988095D01*
X65061009Y-103988095D02*
X65013390Y-104035714D01*
X65013390Y-104035714D02*
X64965771Y-104130952D01*
X64965771Y-104130952D02*
X64965771Y-104321428D01*
X64965771Y-104321428D02*
X65013390Y-104416666D01*
X65013390Y-104416666D02*
X65061009Y-104464285D01*
X65061009Y-104464285D02*
X65156247Y-104511904D01*
X64584819Y-103035714D02*
X64584819Y-103511904D01*
X64584819Y-103511904D02*
X65061009Y-103559523D01*
X65061009Y-103559523D02*
X65013390Y-103511904D01*
X65013390Y-103511904D02*
X64965771Y-103416666D01*
X64965771Y-103416666D02*
X64965771Y-103178571D01*
X64965771Y-103178571D02*
X65013390Y-103083333D01*
X65013390Y-103083333D02*
X65061009Y-103035714D01*
X65061009Y-103035714D02*
X65156247Y-102988095D01*
X65156247Y-102988095D02*
X65394342Y-102988095D01*
X65394342Y-102988095D02*
X65489580Y-103035714D01*
X65489580Y-103035714D02*
X65537200Y-103083333D01*
X65537200Y-103083333D02*
X65584819Y-103178571D01*
X65584819Y-103178571D02*
X65584819Y-103416666D01*
X65584819Y-103416666D02*
X65537200Y-103511904D01*
X65537200Y-103511904D02*
X65489580Y-103559523D01*
X66954819Y-105464285D02*
X66954819Y-104845238D01*
X66954819Y-104845238D02*
X67335771Y-105178571D01*
X67335771Y-105178571D02*
X67335771Y-105035714D01*
X67335771Y-105035714D02*
X67383390Y-104940476D01*
X67383390Y-104940476D02*
X67431009Y-104892857D01*
X67431009Y-104892857D02*
X67526247Y-104845238D01*
X67526247Y-104845238D02*
X67764342Y-104845238D01*
X67764342Y-104845238D02*
X67859580Y-104892857D01*
X67859580Y-104892857D02*
X67907200Y-104940476D01*
X67907200Y-104940476D02*
X67954819Y-105035714D01*
X67954819Y-105035714D02*
X67954819Y-105321428D01*
X67954819Y-105321428D02*
X67907200Y-105416666D01*
X67907200Y-105416666D02*
X67859580Y-105464285D01*
X66954819Y-104511904D02*
X66954819Y-103892857D01*
X66954819Y-103892857D02*
X67335771Y-104226190D01*
X67335771Y-104226190D02*
X67335771Y-104083333D01*
X67335771Y-104083333D02*
X67383390Y-103988095D01*
X67383390Y-103988095D02*
X67431009Y-103940476D01*
X67431009Y-103940476D02*
X67526247Y-103892857D01*
X67526247Y-103892857D02*
X67764342Y-103892857D01*
X67764342Y-103892857D02*
X67859580Y-103940476D01*
X67859580Y-103940476D02*
X67907200Y-103988095D01*
X67907200Y-103988095D02*
X67954819Y-104083333D01*
X67954819Y-104083333D02*
X67954819Y-104369047D01*
X67954819Y-104369047D02*
X67907200Y-104464285D01*
X67907200Y-104464285D02*
X67859580Y-104511904D01*
X67954819Y-103464285D02*
X66954819Y-103464285D01*
X67573866Y-103369047D02*
X67954819Y-103083333D01*
X67288152Y-103083333D02*
X67669104Y-103464285D01*
X93204819Y-49892857D02*
X92728628Y-50226190D01*
X93204819Y-50464285D02*
X92204819Y-50464285D01*
X92204819Y-50464285D02*
X92204819Y-50083333D01*
X92204819Y-50083333D02*
X92252438Y-49988095D01*
X92252438Y-49988095D02*
X92300057Y-49940476D01*
X92300057Y-49940476D02*
X92395295Y-49892857D01*
X92395295Y-49892857D02*
X92538152Y-49892857D01*
X92538152Y-49892857D02*
X92633390Y-49940476D01*
X92633390Y-49940476D02*
X92681009Y-49988095D01*
X92681009Y-49988095D02*
X92728628Y-50083333D01*
X92728628Y-50083333D02*
X92728628Y-50464285D01*
X92204819Y-49035714D02*
X92204819Y-49226190D01*
X92204819Y-49226190D02*
X92252438Y-49321428D01*
X92252438Y-49321428D02*
X92300057Y-49369047D01*
X92300057Y-49369047D02*
X92442914Y-49464285D01*
X92442914Y-49464285D02*
X92633390Y-49511904D01*
X92633390Y-49511904D02*
X93014342Y-49511904D01*
X93014342Y-49511904D02*
X93109580Y-49464285D01*
X93109580Y-49464285D02*
X93157200Y-49416666D01*
X93157200Y-49416666D02*
X93204819Y-49321428D01*
X93204819Y-49321428D02*
X93204819Y-49130952D01*
X93204819Y-49130952D02*
X93157200Y-49035714D01*
X93157200Y-49035714D02*
X93109580Y-48988095D01*
X93109580Y-48988095D02*
X93014342Y-48940476D01*
X93014342Y-48940476D02*
X92776247Y-48940476D01*
X92776247Y-48940476D02*
X92681009Y-48988095D01*
X92681009Y-48988095D02*
X92633390Y-49035714D01*
X92633390Y-49035714D02*
X92585771Y-49130952D01*
X92585771Y-49130952D02*
X92585771Y-49321428D01*
X92585771Y-49321428D02*
X92633390Y-49416666D01*
X92633390Y-49416666D02*
X92681009Y-49464285D01*
X92681009Y-49464285D02*
X92776247Y-49511904D01*
X92204819Y-48607142D02*
X92204819Y-47940476D01*
X92204819Y-47940476D02*
X93204819Y-48369047D01*
X86178571Y-49704819D02*
X85607143Y-49704819D01*
X85892857Y-49704819D02*
X85892857Y-48704819D01*
X85892857Y-48704819D02*
X85797619Y-48847676D01*
X85797619Y-48847676D02*
X85702381Y-48942914D01*
X85702381Y-48942914D02*
X85607143Y-48990533D01*
X86797619Y-48704819D02*
X86892857Y-48704819D01*
X86892857Y-48704819D02*
X86988095Y-48752438D01*
X86988095Y-48752438D02*
X87035714Y-48800057D01*
X87035714Y-48800057D02*
X87083333Y-48895295D01*
X87083333Y-48895295D02*
X87130952Y-49085771D01*
X87130952Y-49085771D02*
X87130952Y-49323866D01*
X87130952Y-49323866D02*
X87083333Y-49514342D01*
X87083333Y-49514342D02*
X87035714Y-49609580D01*
X87035714Y-49609580D02*
X86988095Y-49657200D01*
X86988095Y-49657200D02*
X86892857Y-49704819D01*
X86892857Y-49704819D02*
X86797619Y-49704819D01*
X86797619Y-49704819D02*
X86702381Y-49657200D01*
X86702381Y-49657200D02*
X86654762Y-49609580D01*
X86654762Y-49609580D02*
X86607143Y-49514342D01*
X86607143Y-49514342D02*
X86559524Y-49323866D01*
X86559524Y-49323866D02*
X86559524Y-49085771D01*
X86559524Y-49085771D02*
X86607143Y-48895295D01*
X86607143Y-48895295D02*
X86654762Y-48800057D01*
X86654762Y-48800057D02*
X86702381Y-48752438D01*
X86702381Y-48752438D02*
X86797619Y-48704819D01*
X87750000Y-48704819D02*
X87845238Y-48704819D01*
X87845238Y-48704819D02*
X87940476Y-48752438D01*
X87940476Y-48752438D02*
X87988095Y-48800057D01*
X87988095Y-48800057D02*
X88035714Y-48895295D01*
X88035714Y-48895295D02*
X88083333Y-49085771D01*
X88083333Y-49085771D02*
X88083333Y-49323866D01*
X88083333Y-49323866D02*
X88035714Y-49514342D01*
X88035714Y-49514342D02*
X87988095Y-49609580D01*
X87988095Y-49609580D02*
X87940476Y-49657200D01*
X87940476Y-49657200D02*
X87845238Y-49704819D01*
X87845238Y-49704819D02*
X87750000Y-49704819D01*
X87750000Y-49704819D02*
X87654762Y-49657200D01*
X87654762Y-49657200D02*
X87607143Y-49609580D01*
X87607143Y-49609580D02*
X87559524Y-49514342D01*
X87559524Y-49514342D02*
X87511905Y-49323866D01*
X87511905Y-49323866D02*
X87511905Y-49085771D01*
X87511905Y-49085771D02*
X87559524Y-48895295D01*
X87559524Y-48895295D02*
X87607143Y-48800057D01*
X87607143Y-48800057D02*
X87654762Y-48752438D01*
X87654762Y-48752438D02*
X87750000Y-48704819D01*
X88511905Y-49704819D02*
X88511905Y-48704819D01*
X88607143Y-49323866D02*
X88892857Y-49704819D01*
X88892857Y-49038152D02*
X88511905Y-49419104D01*
X82004819Y-154671428D02*
X81528628Y-155004761D01*
X82004819Y-155242856D02*
X81004819Y-155242856D01*
X81004819Y-155242856D02*
X81004819Y-154861904D01*
X81004819Y-154861904D02*
X81052438Y-154766666D01*
X81052438Y-154766666D02*
X81100057Y-154719047D01*
X81100057Y-154719047D02*
X81195295Y-154671428D01*
X81195295Y-154671428D02*
X81338152Y-154671428D01*
X81338152Y-154671428D02*
X81433390Y-154719047D01*
X81433390Y-154719047D02*
X81481009Y-154766666D01*
X81481009Y-154766666D02*
X81528628Y-154861904D01*
X81528628Y-154861904D02*
X81528628Y-155242856D01*
X81004819Y-154385713D02*
X82004819Y-154052380D01*
X82004819Y-154052380D02*
X81004819Y-153719047D01*
X82004819Y-152861904D02*
X82004819Y-153433332D01*
X82004819Y-153147618D02*
X81004819Y-153147618D01*
X81004819Y-153147618D02*
X81147676Y-153242856D01*
X81147676Y-153242856D02*
X81242914Y-153338094D01*
X81242914Y-153338094D02*
X81290533Y-153433332D01*
X81004819Y-152004761D02*
X81004819Y-152195237D01*
X81004819Y-152195237D02*
X81052438Y-152290475D01*
X81052438Y-152290475D02*
X81100057Y-152338094D01*
X81100057Y-152338094D02*
X81242914Y-152433332D01*
X81242914Y-152433332D02*
X81433390Y-152480951D01*
X81433390Y-152480951D02*
X81814342Y-152480951D01*
X81814342Y-152480951D02*
X81909580Y-152433332D01*
X81909580Y-152433332D02*
X81957200Y-152385713D01*
X81957200Y-152385713D02*
X82004819Y-152290475D01*
X82004819Y-152290475D02*
X82004819Y-152099999D01*
X82004819Y-152099999D02*
X81957200Y-152004761D01*
X81957200Y-152004761D02*
X81909580Y-151957142D01*
X81909580Y-151957142D02*
X81814342Y-151909523D01*
X81814342Y-151909523D02*
X81576247Y-151909523D01*
X81576247Y-151909523D02*
X81481009Y-151957142D01*
X81481009Y-151957142D02*
X81433390Y-152004761D01*
X81433390Y-152004761D02*
X81385771Y-152099999D01*
X81385771Y-152099999D02*
X81385771Y-152290475D01*
X81385771Y-152290475D02*
X81433390Y-152385713D01*
X81433390Y-152385713D02*
X81481009Y-152433332D01*
X81481009Y-152433332D02*
X81576247Y-152480951D01*
X93504819Y-154871428D02*
X93504819Y-155442856D01*
X93504819Y-155157142D02*
X92504819Y-155157142D01*
X92504819Y-155157142D02*
X92647676Y-155252380D01*
X92647676Y-155252380D02*
X92742914Y-155347618D01*
X92742914Y-155347618D02*
X92790533Y-155442856D01*
X92504819Y-154252380D02*
X92504819Y-154157142D01*
X92504819Y-154157142D02*
X92552438Y-154061904D01*
X92552438Y-154061904D02*
X92600057Y-154014285D01*
X92600057Y-154014285D02*
X92695295Y-153966666D01*
X92695295Y-153966666D02*
X92885771Y-153919047D01*
X92885771Y-153919047D02*
X93123866Y-153919047D01*
X93123866Y-153919047D02*
X93314342Y-153966666D01*
X93314342Y-153966666D02*
X93409580Y-154014285D01*
X93409580Y-154014285D02*
X93457200Y-154061904D01*
X93457200Y-154061904D02*
X93504819Y-154157142D01*
X93504819Y-154157142D02*
X93504819Y-154252380D01*
X93504819Y-154252380D02*
X93457200Y-154347618D01*
X93457200Y-154347618D02*
X93409580Y-154395237D01*
X93409580Y-154395237D02*
X93314342Y-154442856D01*
X93314342Y-154442856D02*
X93123866Y-154490475D01*
X93123866Y-154490475D02*
X92885771Y-154490475D01*
X92885771Y-154490475D02*
X92695295Y-154442856D01*
X92695295Y-154442856D02*
X92600057Y-154395237D01*
X92600057Y-154395237D02*
X92552438Y-154347618D01*
X92552438Y-154347618D02*
X92504819Y-154252380D01*
X92504819Y-153299999D02*
X92504819Y-153204761D01*
X92504819Y-153204761D02*
X92552438Y-153109523D01*
X92552438Y-153109523D02*
X92600057Y-153061904D01*
X92600057Y-153061904D02*
X92695295Y-153014285D01*
X92695295Y-153014285D02*
X92885771Y-152966666D01*
X92885771Y-152966666D02*
X93123866Y-152966666D01*
X93123866Y-152966666D02*
X93314342Y-153014285D01*
X93314342Y-153014285D02*
X93409580Y-153061904D01*
X93409580Y-153061904D02*
X93457200Y-153109523D01*
X93457200Y-153109523D02*
X93504819Y-153204761D01*
X93504819Y-153204761D02*
X93504819Y-153299999D01*
X93504819Y-153299999D02*
X93457200Y-153395237D01*
X93457200Y-153395237D02*
X93409580Y-153442856D01*
X93409580Y-153442856D02*
X93314342Y-153490475D01*
X93314342Y-153490475D02*
X93123866Y-153538094D01*
X93123866Y-153538094D02*
X92885771Y-153538094D01*
X92885771Y-153538094D02*
X92695295Y-153490475D01*
X92695295Y-153490475D02*
X92600057Y-153442856D01*
X92600057Y-153442856D02*
X92552438Y-153395237D01*
X92552438Y-153395237D02*
X92504819Y-153299999D01*
X93504819Y-152538094D02*
X92504819Y-152538094D01*
X93123866Y-152442856D02*
X93504819Y-152157142D01*
X92838152Y-152157142D02*
X93219104Y-152538094D01*
X84702380Y-157954819D02*
X84892856Y-157954819D01*
X84892856Y-157954819D02*
X84982141Y-158002438D01*
X84982141Y-158002438D02*
X85065475Y-158097676D01*
X85065475Y-158097676D02*
X85089284Y-158288152D01*
X85089284Y-158288152D02*
X85047618Y-158621485D01*
X85047618Y-158621485D02*
X84976189Y-158811961D01*
X84976189Y-158811961D02*
X84869046Y-158907200D01*
X84869046Y-158907200D02*
X84767856Y-158954819D01*
X84767856Y-158954819D02*
X84577380Y-158954819D01*
X84577380Y-158954819D02*
X84488094Y-158907200D01*
X84488094Y-158907200D02*
X84404761Y-158811961D01*
X84404761Y-158811961D02*
X84380951Y-158621485D01*
X84380951Y-158621485D02*
X84422618Y-158288152D01*
X84422618Y-158288152D02*
X84494046Y-158097676D01*
X84494046Y-158097676D02*
X84601189Y-158002438D01*
X84601189Y-158002438D02*
X84702380Y-157954819D01*
X85374999Y-158288152D02*
X85755951Y-158288152D01*
X85434522Y-158954819D02*
X85541665Y-158097676D01*
X85541665Y-158097676D02*
X85601189Y-158002438D01*
X85601189Y-158002438D02*
X85702380Y-157954819D01*
X85702380Y-157954819D02*
X85797618Y-157954819D01*
X85946428Y-158288152D02*
X86327380Y-158288152D01*
X86005951Y-158954819D02*
X86113094Y-158097676D01*
X86113094Y-158097676D02*
X86172618Y-158002438D01*
X86172618Y-158002438D02*
X86273809Y-157954819D01*
X86273809Y-157954819D02*
X86369047Y-157954819D01*
X86535714Y-158907200D02*
X86624999Y-158954819D01*
X86624999Y-158954819D02*
X86815476Y-158954819D01*
X86815476Y-158954819D02*
X86916666Y-158907200D01*
X86916666Y-158907200D02*
X86976190Y-158811961D01*
X86976190Y-158811961D02*
X86982142Y-158764342D01*
X86982142Y-158764342D02*
X86946428Y-158669104D01*
X86946428Y-158669104D02*
X86857142Y-158621485D01*
X86857142Y-158621485D02*
X86714285Y-158621485D01*
X86714285Y-158621485D02*
X86624999Y-158573866D01*
X86624999Y-158573866D02*
X86589285Y-158478628D01*
X86589285Y-158478628D02*
X86595238Y-158431009D01*
X86595238Y-158431009D02*
X86654761Y-158335771D01*
X86654761Y-158335771D02*
X86755952Y-158288152D01*
X86755952Y-158288152D02*
X86898809Y-158288152D01*
X86898809Y-158288152D02*
X86988095Y-158335771D01*
X87773809Y-158907200D02*
X87672619Y-158954819D01*
X87672619Y-158954819D02*
X87482142Y-158954819D01*
X87482142Y-158954819D02*
X87392857Y-158907200D01*
X87392857Y-158907200D02*
X87357142Y-158811961D01*
X87357142Y-158811961D02*
X87404762Y-158431009D01*
X87404762Y-158431009D02*
X87464285Y-158335771D01*
X87464285Y-158335771D02*
X87565476Y-158288152D01*
X87565476Y-158288152D02*
X87755952Y-158288152D01*
X87755952Y-158288152D02*
X87845238Y-158335771D01*
X87845238Y-158335771D02*
X87880952Y-158431009D01*
X87880952Y-158431009D02*
X87869047Y-158526247D01*
X87869047Y-158526247D02*
X87380952Y-158621485D01*
X88184524Y-158288152D02*
X88565476Y-158288152D01*
X88369047Y-157954819D02*
X88261905Y-158811961D01*
X88261905Y-158811961D02*
X88297619Y-158907200D01*
X88297619Y-158907200D02*
X88386905Y-158954819D01*
X88386905Y-158954819D02*
X88482143Y-158954819D01*
X89976191Y-158431009D02*
X90113096Y-158478628D01*
X90113096Y-158478628D02*
X90154762Y-158526247D01*
X90154762Y-158526247D02*
X90190477Y-158621485D01*
X90190477Y-158621485D02*
X90172619Y-158764342D01*
X90172619Y-158764342D02*
X90113096Y-158859580D01*
X90113096Y-158859580D02*
X90059524Y-158907200D01*
X90059524Y-158907200D02*
X89958334Y-158954819D01*
X89958334Y-158954819D02*
X89577381Y-158954819D01*
X89577381Y-158954819D02*
X89702381Y-157954819D01*
X89702381Y-157954819D02*
X90035715Y-157954819D01*
X90035715Y-157954819D02*
X90125000Y-158002438D01*
X90125000Y-158002438D02*
X90166667Y-158050057D01*
X90166667Y-158050057D02*
X90202381Y-158145295D01*
X90202381Y-158145295D02*
X90190477Y-158240533D01*
X90190477Y-158240533D02*
X90130953Y-158335771D01*
X90130953Y-158335771D02*
X90077381Y-158383390D01*
X90077381Y-158383390D02*
X89976191Y-158431009D01*
X89976191Y-158431009D02*
X89642858Y-158431009D01*
X93204819Y-46892857D02*
X92728628Y-47226190D01*
X93204819Y-47464285D02*
X92204819Y-47464285D01*
X92204819Y-47464285D02*
X92204819Y-47083333D01*
X92204819Y-47083333D02*
X92252438Y-46988095D01*
X92252438Y-46988095D02*
X92300057Y-46940476D01*
X92300057Y-46940476D02*
X92395295Y-46892857D01*
X92395295Y-46892857D02*
X92538152Y-46892857D01*
X92538152Y-46892857D02*
X92633390Y-46940476D01*
X92633390Y-46940476D02*
X92681009Y-46988095D01*
X92681009Y-46988095D02*
X92728628Y-47083333D01*
X92728628Y-47083333D02*
X92728628Y-47464285D01*
X92204819Y-46035714D02*
X92204819Y-46226190D01*
X92204819Y-46226190D02*
X92252438Y-46321428D01*
X92252438Y-46321428D02*
X92300057Y-46369047D01*
X92300057Y-46369047D02*
X92442914Y-46464285D01*
X92442914Y-46464285D02*
X92633390Y-46511904D01*
X92633390Y-46511904D02*
X93014342Y-46511904D01*
X93014342Y-46511904D02*
X93109580Y-46464285D01*
X93109580Y-46464285D02*
X93157200Y-46416666D01*
X93157200Y-46416666D02*
X93204819Y-46321428D01*
X93204819Y-46321428D02*
X93204819Y-46130952D01*
X93204819Y-46130952D02*
X93157200Y-46035714D01*
X93157200Y-46035714D02*
X93109580Y-45988095D01*
X93109580Y-45988095D02*
X93014342Y-45940476D01*
X93014342Y-45940476D02*
X92776247Y-45940476D01*
X92776247Y-45940476D02*
X92681009Y-45988095D01*
X92681009Y-45988095D02*
X92633390Y-46035714D01*
X92633390Y-46035714D02*
X92585771Y-46130952D01*
X92585771Y-46130952D02*
X92585771Y-46321428D01*
X92585771Y-46321428D02*
X92633390Y-46416666D01*
X92633390Y-46416666D02*
X92681009Y-46464285D01*
X92681009Y-46464285D02*
X92776247Y-46511904D01*
X92204819Y-45083333D02*
X92204819Y-45273809D01*
X92204819Y-45273809D02*
X92252438Y-45369047D01*
X92252438Y-45369047D02*
X92300057Y-45416666D01*
X92300057Y-45416666D02*
X92442914Y-45511904D01*
X92442914Y-45511904D02*
X92633390Y-45559523D01*
X92633390Y-45559523D02*
X93014342Y-45559523D01*
X93014342Y-45559523D02*
X93109580Y-45511904D01*
X93109580Y-45511904D02*
X93157200Y-45464285D01*
X93157200Y-45464285D02*
X93204819Y-45369047D01*
X93204819Y-45369047D02*
X93204819Y-45178571D01*
X93204819Y-45178571D02*
X93157200Y-45083333D01*
X93157200Y-45083333D02*
X93109580Y-45035714D01*
X93109580Y-45035714D02*
X93014342Y-44988095D01*
X93014342Y-44988095D02*
X92776247Y-44988095D01*
X92776247Y-44988095D02*
X92681009Y-45035714D01*
X92681009Y-45035714D02*
X92633390Y-45083333D01*
X92633390Y-45083333D02*
X92585771Y-45178571D01*
X92585771Y-45178571D02*
X92585771Y-45369047D01*
X92585771Y-45369047D02*
X92633390Y-45464285D01*
X92633390Y-45464285D02*
X92681009Y-45511904D01*
X92681009Y-45511904D02*
X92776247Y-45559523D01*
X86654761Y-46704819D02*
X86083333Y-46704819D01*
X86369047Y-46704819D02*
X86369047Y-45704819D01*
X86369047Y-45704819D02*
X86273809Y-45847676D01*
X86273809Y-45847676D02*
X86178571Y-45942914D01*
X86178571Y-45942914D02*
X86083333Y-45990533D01*
X87226190Y-46133390D02*
X87130952Y-46085771D01*
X87130952Y-46085771D02*
X87083333Y-46038152D01*
X87083333Y-46038152D02*
X87035714Y-45942914D01*
X87035714Y-45942914D02*
X87035714Y-45895295D01*
X87035714Y-45895295D02*
X87083333Y-45800057D01*
X87083333Y-45800057D02*
X87130952Y-45752438D01*
X87130952Y-45752438D02*
X87226190Y-45704819D01*
X87226190Y-45704819D02*
X87416666Y-45704819D01*
X87416666Y-45704819D02*
X87511904Y-45752438D01*
X87511904Y-45752438D02*
X87559523Y-45800057D01*
X87559523Y-45800057D02*
X87607142Y-45895295D01*
X87607142Y-45895295D02*
X87607142Y-45942914D01*
X87607142Y-45942914D02*
X87559523Y-46038152D01*
X87559523Y-46038152D02*
X87511904Y-46085771D01*
X87511904Y-46085771D02*
X87416666Y-46133390D01*
X87416666Y-46133390D02*
X87226190Y-46133390D01*
X87226190Y-46133390D02*
X87130952Y-46181009D01*
X87130952Y-46181009D02*
X87083333Y-46228628D01*
X87083333Y-46228628D02*
X87035714Y-46323866D01*
X87035714Y-46323866D02*
X87035714Y-46514342D01*
X87035714Y-46514342D02*
X87083333Y-46609580D01*
X87083333Y-46609580D02*
X87130952Y-46657200D01*
X87130952Y-46657200D02*
X87226190Y-46704819D01*
X87226190Y-46704819D02*
X87416666Y-46704819D01*
X87416666Y-46704819D02*
X87511904Y-46657200D01*
X87511904Y-46657200D02*
X87559523Y-46609580D01*
X87559523Y-46609580D02*
X87607142Y-46514342D01*
X87607142Y-46514342D02*
X87607142Y-46323866D01*
X87607142Y-46323866D02*
X87559523Y-46228628D01*
X87559523Y-46228628D02*
X87511904Y-46181009D01*
X87511904Y-46181009D02*
X87416666Y-46133390D01*
X88035714Y-46704819D02*
X88035714Y-45704819D01*
X88130952Y-46323866D02*
X88416666Y-46704819D01*
X88416666Y-46038152D02*
X88035714Y-46419104D01*
X78607142Y-143954819D02*
X78273809Y-143478628D01*
X78035714Y-143954819D02*
X78035714Y-142954819D01*
X78035714Y-142954819D02*
X78416666Y-142954819D01*
X78416666Y-142954819D02*
X78511904Y-143002438D01*
X78511904Y-143002438D02*
X78559523Y-143050057D01*
X78559523Y-143050057D02*
X78607142Y-143145295D01*
X78607142Y-143145295D02*
X78607142Y-143288152D01*
X78607142Y-143288152D02*
X78559523Y-143383390D01*
X78559523Y-143383390D02*
X78511904Y-143431009D01*
X78511904Y-143431009D02*
X78416666Y-143478628D01*
X78416666Y-143478628D02*
X78035714Y-143478628D01*
X78940476Y-142954819D02*
X79607142Y-142954819D01*
X79607142Y-142954819D02*
X79178571Y-143954819D01*
X80464285Y-142954819D02*
X79988095Y-142954819D01*
X79988095Y-142954819D02*
X79940476Y-143431009D01*
X79940476Y-143431009D02*
X79988095Y-143383390D01*
X79988095Y-143383390D02*
X80083333Y-143335771D01*
X80083333Y-143335771D02*
X80321428Y-143335771D01*
X80321428Y-143335771D02*
X80416666Y-143383390D01*
X80416666Y-143383390D02*
X80464285Y-143431009D01*
X80464285Y-143431009D02*
X80511904Y-143526247D01*
X80511904Y-143526247D02*
X80511904Y-143764342D01*
X80511904Y-143764342D02*
X80464285Y-143859580D01*
X80464285Y-143859580D02*
X80416666Y-143907200D01*
X80416666Y-143907200D02*
X80321428Y-143954819D01*
X80321428Y-143954819D02*
X80083333Y-143954819D01*
X80083333Y-143954819D02*
X79988095Y-143907200D01*
X79988095Y-143907200D02*
X79940476Y-143859580D01*
X79704819Y-150071428D02*
X79704819Y-150642856D01*
X79704819Y-150357142D02*
X78704819Y-150357142D01*
X78704819Y-150357142D02*
X78847676Y-150452380D01*
X78847676Y-150452380D02*
X78942914Y-150547618D01*
X78942914Y-150547618D02*
X78990533Y-150642856D01*
X78704819Y-149452380D02*
X78704819Y-149357142D01*
X78704819Y-149357142D02*
X78752438Y-149261904D01*
X78752438Y-149261904D02*
X78800057Y-149214285D01*
X78800057Y-149214285D02*
X78895295Y-149166666D01*
X78895295Y-149166666D02*
X79085771Y-149119047D01*
X79085771Y-149119047D02*
X79323866Y-149119047D01*
X79323866Y-149119047D02*
X79514342Y-149166666D01*
X79514342Y-149166666D02*
X79609580Y-149214285D01*
X79609580Y-149214285D02*
X79657200Y-149261904D01*
X79657200Y-149261904D02*
X79704819Y-149357142D01*
X79704819Y-149357142D02*
X79704819Y-149452380D01*
X79704819Y-149452380D02*
X79657200Y-149547618D01*
X79657200Y-149547618D02*
X79609580Y-149595237D01*
X79609580Y-149595237D02*
X79514342Y-149642856D01*
X79514342Y-149642856D02*
X79323866Y-149690475D01*
X79323866Y-149690475D02*
X79085771Y-149690475D01*
X79085771Y-149690475D02*
X78895295Y-149642856D01*
X78895295Y-149642856D02*
X78800057Y-149595237D01*
X78800057Y-149595237D02*
X78752438Y-149547618D01*
X78752438Y-149547618D02*
X78704819Y-149452380D01*
X78704819Y-148499999D02*
X78704819Y-148404761D01*
X78704819Y-148404761D02*
X78752438Y-148309523D01*
X78752438Y-148309523D02*
X78800057Y-148261904D01*
X78800057Y-148261904D02*
X78895295Y-148214285D01*
X78895295Y-148214285D02*
X79085771Y-148166666D01*
X79085771Y-148166666D02*
X79323866Y-148166666D01*
X79323866Y-148166666D02*
X79514342Y-148214285D01*
X79514342Y-148214285D02*
X79609580Y-148261904D01*
X79609580Y-148261904D02*
X79657200Y-148309523D01*
X79657200Y-148309523D02*
X79704819Y-148404761D01*
X79704819Y-148404761D02*
X79704819Y-148499999D01*
X79704819Y-148499999D02*
X79657200Y-148595237D01*
X79657200Y-148595237D02*
X79609580Y-148642856D01*
X79609580Y-148642856D02*
X79514342Y-148690475D01*
X79514342Y-148690475D02*
X79323866Y-148738094D01*
X79323866Y-148738094D02*
X79085771Y-148738094D01*
X79085771Y-148738094D02*
X78895295Y-148690475D01*
X78895295Y-148690475D02*
X78800057Y-148642856D01*
X78800057Y-148642856D02*
X78752438Y-148595237D01*
X78752438Y-148595237D02*
X78704819Y-148499999D01*
X79704819Y-147738094D02*
X78704819Y-147738094D01*
X79323866Y-147642856D02*
X79704819Y-147357142D01*
X79038152Y-147357142D02*
X79419104Y-147738094D01*
X63704819Y-74595238D02*
X63228628Y-74928571D01*
X63704819Y-75166666D02*
X62704819Y-75166666D01*
X62704819Y-75166666D02*
X62704819Y-74785714D01*
X62704819Y-74785714D02*
X62752438Y-74690476D01*
X62752438Y-74690476D02*
X62800057Y-74642857D01*
X62800057Y-74642857D02*
X62895295Y-74595238D01*
X62895295Y-74595238D02*
X63038152Y-74595238D01*
X63038152Y-74595238D02*
X63133390Y-74642857D01*
X63133390Y-74642857D02*
X63181009Y-74690476D01*
X63181009Y-74690476D02*
X63228628Y-74785714D01*
X63228628Y-74785714D02*
X63228628Y-75166666D01*
X62704819Y-74309523D02*
X63704819Y-73976190D01*
X63704819Y-73976190D02*
X62704819Y-73642857D01*
X63704819Y-73261904D02*
X63704819Y-73071428D01*
X63704819Y-73071428D02*
X63657200Y-72976190D01*
X63657200Y-72976190D02*
X63609580Y-72928571D01*
X63609580Y-72928571D02*
X63466723Y-72833333D01*
X63466723Y-72833333D02*
X63276247Y-72785714D01*
X63276247Y-72785714D02*
X62895295Y-72785714D01*
X62895295Y-72785714D02*
X62800057Y-72833333D01*
X62800057Y-72833333D02*
X62752438Y-72880952D01*
X62752438Y-72880952D02*
X62704819Y-72976190D01*
X62704819Y-72976190D02*
X62704819Y-73166666D01*
X62704819Y-73166666D02*
X62752438Y-73261904D01*
X62752438Y-73261904D02*
X62800057Y-73309523D01*
X62800057Y-73309523D02*
X62895295Y-73357142D01*
X62895295Y-73357142D02*
X63133390Y-73357142D01*
X63133390Y-73357142D02*
X63228628Y-73309523D01*
X63228628Y-73309523D02*
X63276247Y-73261904D01*
X63276247Y-73261904D02*
X63323866Y-73166666D01*
X63323866Y-73166666D02*
X63323866Y-72976190D01*
X63323866Y-72976190D02*
X63276247Y-72880952D01*
X63276247Y-72880952D02*
X63228628Y-72833333D01*
X63228628Y-72833333D02*
X63133390Y-72785714D01*
X56802142Y-75069819D02*
X56325952Y-75069819D01*
X56325952Y-75069819D02*
X56278333Y-75546009D01*
X56278333Y-75546009D02*
X56325952Y-75498390D01*
X56325952Y-75498390D02*
X56421190Y-75450771D01*
X56421190Y-75450771D02*
X56659285Y-75450771D01*
X56659285Y-75450771D02*
X56754523Y-75498390D01*
X56754523Y-75498390D02*
X56802142Y-75546009D01*
X56802142Y-75546009D02*
X56849761Y-75641247D01*
X56849761Y-75641247D02*
X56849761Y-75879342D01*
X56849761Y-75879342D02*
X56802142Y-75974580D01*
X56802142Y-75974580D02*
X56754523Y-76022200D01*
X56754523Y-76022200D02*
X56659285Y-76069819D01*
X56659285Y-76069819D02*
X56421190Y-76069819D01*
X56421190Y-76069819D02*
X56325952Y-76022200D01*
X56325952Y-76022200D02*
X56278333Y-75974580D01*
X57468809Y-75069819D02*
X57564047Y-75069819D01*
X57564047Y-75069819D02*
X57659285Y-75117438D01*
X57659285Y-75117438D02*
X57706904Y-75165057D01*
X57706904Y-75165057D02*
X57754523Y-75260295D01*
X57754523Y-75260295D02*
X57802142Y-75450771D01*
X57802142Y-75450771D02*
X57802142Y-75688866D01*
X57802142Y-75688866D02*
X57754523Y-75879342D01*
X57754523Y-75879342D02*
X57706904Y-75974580D01*
X57706904Y-75974580D02*
X57659285Y-76022200D01*
X57659285Y-76022200D02*
X57564047Y-76069819D01*
X57564047Y-76069819D02*
X57468809Y-76069819D01*
X57468809Y-76069819D02*
X57373571Y-76022200D01*
X57373571Y-76022200D02*
X57325952Y-75974580D01*
X57325952Y-75974580D02*
X57278333Y-75879342D01*
X57278333Y-75879342D02*
X57230714Y-75688866D01*
X57230714Y-75688866D02*
X57230714Y-75450771D01*
X57230714Y-75450771D02*
X57278333Y-75260295D01*
X57278333Y-75260295D02*
X57325952Y-75165057D01*
X57325952Y-75165057D02*
X57373571Y-75117438D01*
X57373571Y-75117438D02*
X57468809Y-75069819D01*
X58230714Y-76069819D02*
X58230714Y-75069819D01*
X58325952Y-75688866D02*
X58611666Y-76069819D01*
X58611666Y-75403152D02*
X58230714Y-75784104D01*
X84744819Y-118238094D02*
X83744819Y-118238094D01*
X83744819Y-118238094D02*
X83744819Y-117999999D01*
X83744819Y-117999999D02*
X83792438Y-117857142D01*
X83792438Y-117857142D02*
X83887676Y-117761904D01*
X83887676Y-117761904D02*
X83982914Y-117714285D01*
X83982914Y-117714285D02*
X84173390Y-117666666D01*
X84173390Y-117666666D02*
X84316247Y-117666666D01*
X84316247Y-117666666D02*
X84506723Y-117714285D01*
X84506723Y-117714285D02*
X84601961Y-117761904D01*
X84601961Y-117761904D02*
X84697200Y-117857142D01*
X84697200Y-117857142D02*
X84744819Y-117999999D01*
X84744819Y-117999999D02*
X84744819Y-118238094D01*
X83744819Y-116809523D02*
X83744819Y-116999999D01*
X83744819Y-116999999D02*
X83792438Y-117095237D01*
X83792438Y-117095237D02*
X83840057Y-117142856D01*
X83840057Y-117142856D02*
X83982914Y-117238094D01*
X83982914Y-117238094D02*
X84173390Y-117285713D01*
X84173390Y-117285713D02*
X84554342Y-117285713D01*
X84554342Y-117285713D02*
X84649580Y-117238094D01*
X84649580Y-117238094D02*
X84697200Y-117190475D01*
X84697200Y-117190475D02*
X84744819Y-117095237D01*
X84744819Y-117095237D02*
X84744819Y-116904761D01*
X84744819Y-116904761D02*
X84697200Y-116809523D01*
X84697200Y-116809523D02*
X84649580Y-116761904D01*
X84649580Y-116761904D02*
X84554342Y-116714285D01*
X84554342Y-116714285D02*
X84316247Y-116714285D01*
X84316247Y-116714285D02*
X84221009Y-116761904D01*
X84221009Y-116761904D02*
X84173390Y-116809523D01*
X84173390Y-116809523D02*
X84125771Y-116904761D01*
X84125771Y-116904761D02*
X84125771Y-117095237D01*
X84125771Y-117095237D02*
X84173390Y-117190475D01*
X84173390Y-117190475D02*
X84221009Y-117238094D01*
X84221009Y-117238094D02*
X84316247Y-117285713D01*
X90664819Y-119023809D02*
X90664819Y-119499999D01*
X90664819Y-119499999D02*
X89664819Y-119499999D01*
X90141009Y-118690475D02*
X90141009Y-118357142D01*
X90664819Y-118214285D02*
X90664819Y-118690475D01*
X90664819Y-118690475D02*
X89664819Y-118690475D01*
X89664819Y-118690475D02*
X89664819Y-118214285D01*
X90664819Y-117785713D02*
X89664819Y-117785713D01*
X89664819Y-117785713D02*
X89664819Y-117547618D01*
X89664819Y-117547618D02*
X89712438Y-117404761D01*
X89712438Y-117404761D02*
X89807676Y-117309523D01*
X89807676Y-117309523D02*
X89902914Y-117261904D01*
X89902914Y-117261904D02*
X90093390Y-117214285D01*
X90093390Y-117214285D02*
X90236247Y-117214285D01*
X90236247Y-117214285D02*
X90426723Y-117261904D01*
X90426723Y-117261904D02*
X90521961Y-117309523D01*
X90521961Y-117309523D02*
X90617200Y-117404761D01*
X90617200Y-117404761D02*
X90664819Y-117547618D01*
X90664819Y-117547618D02*
X90664819Y-117785713D01*
X90760057Y-117023809D02*
X90760057Y-116261904D01*
X90664819Y-115452380D02*
X90188628Y-115785713D01*
X90664819Y-116023808D02*
X89664819Y-116023808D01*
X89664819Y-116023808D02*
X89664819Y-115642856D01*
X89664819Y-115642856D02*
X89712438Y-115547618D01*
X89712438Y-115547618D02*
X89760057Y-115499999D01*
X89760057Y-115499999D02*
X89855295Y-115452380D01*
X89855295Y-115452380D02*
X89998152Y-115452380D01*
X89998152Y-115452380D02*
X90093390Y-115499999D01*
X90093390Y-115499999D02*
X90141009Y-115547618D01*
X90141009Y-115547618D02*
X90188628Y-115642856D01*
X90188628Y-115642856D02*
X90188628Y-116023808D01*
X73857142Y-92659580D02*
X73809523Y-92707200D01*
X73809523Y-92707200D02*
X73666666Y-92754819D01*
X73666666Y-92754819D02*
X73571428Y-92754819D01*
X73571428Y-92754819D02*
X73428571Y-92707200D01*
X73428571Y-92707200D02*
X73333333Y-92611961D01*
X73333333Y-92611961D02*
X73285714Y-92516723D01*
X73285714Y-92516723D02*
X73238095Y-92326247D01*
X73238095Y-92326247D02*
X73238095Y-92183390D01*
X73238095Y-92183390D02*
X73285714Y-91992914D01*
X73285714Y-91992914D02*
X73333333Y-91897676D01*
X73333333Y-91897676D02*
X73428571Y-91802438D01*
X73428571Y-91802438D02*
X73571428Y-91754819D01*
X73571428Y-91754819D02*
X73666666Y-91754819D01*
X73666666Y-91754819D02*
X73809523Y-91802438D01*
X73809523Y-91802438D02*
X73857142Y-91850057D01*
X74809523Y-92754819D02*
X74238095Y-92754819D01*
X74523809Y-92754819D02*
X74523809Y-91754819D01*
X74523809Y-91754819D02*
X74428571Y-91897676D01*
X74428571Y-91897676D02*
X74333333Y-91992914D01*
X74333333Y-91992914D02*
X74238095Y-92040533D01*
X75285714Y-92754819D02*
X75476190Y-92754819D01*
X75476190Y-92754819D02*
X75571428Y-92707200D01*
X75571428Y-92707200D02*
X75619047Y-92659580D01*
X75619047Y-92659580D02*
X75714285Y-92516723D01*
X75714285Y-92516723D02*
X75761904Y-92326247D01*
X75761904Y-92326247D02*
X75761904Y-91945295D01*
X75761904Y-91945295D02*
X75714285Y-91850057D01*
X75714285Y-91850057D02*
X75666666Y-91802438D01*
X75666666Y-91802438D02*
X75571428Y-91754819D01*
X75571428Y-91754819D02*
X75380952Y-91754819D01*
X75380952Y-91754819D02*
X75285714Y-91802438D01*
X75285714Y-91802438D02*
X75238095Y-91850057D01*
X75238095Y-91850057D02*
X75190476Y-91945295D01*
X75190476Y-91945295D02*
X75190476Y-92183390D01*
X75190476Y-92183390D02*
X75238095Y-92278628D01*
X75238095Y-92278628D02*
X75285714Y-92326247D01*
X75285714Y-92326247D02*
X75380952Y-92373866D01*
X75380952Y-92373866D02*
X75571428Y-92373866D01*
X75571428Y-92373866D02*
X75666666Y-92326247D01*
X75666666Y-92326247D02*
X75714285Y-92278628D01*
X75714285Y-92278628D02*
X75761904Y-92183390D01*
X73452380Y-94954819D02*
X72880952Y-94954819D01*
X73166666Y-94954819D02*
X73166666Y-93954819D01*
X73166666Y-93954819D02*
X73071428Y-94097676D01*
X73071428Y-94097676D02*
X72976190Y-94192914D01*
X72976190Y-94192914D02*
X72880952Y-94240533D01*
X74071428Y-93954819D02*
X74166666Y-93954819D01*
X74166666Y-93954819D02*
X74261904Y-94002438D01*
X74261904Y-94002438D02*
X74309523Y-94050057D01*
X74309523Y-94050057D02*
X74357142Y-94145295D01*
X74357142Y-94145295D02*
X74404761Y-94335771D01*
X74404761Y-94335771D02*
X74404761Y-94573866D01*
X74404761Y-94573866D02*
X74357142Y-94764342D01*
X74357142Y-94764342D02*
X74309523Y-94859580D01*
X74309523Y-94859580D02*
X74261904Y-94907200D01*
X74261904Y-94907200D02*
X74166666Y-94954819D01*
X74166666Y-94954819D02*
X74071428Y-94954819D01*
X74071428Y-94954819D02*
X73976190Y-94907200D01*
X73976190Y-94907200D02*
X73928571Y-94859580D01*
X73928571Y-94859580D02*
X73880952Y-94764342D01*
X73880952Y-94764342D02*
X73833333Y-94573866D01*
X73833333Y-94573866D02*
X73833333Y-94335771D01*
X73833333Y-94335771D02*
X73880952Y-94145295D01*
X73880952Y-94145295D02*
X73928571Y-94050057D01*
X73928571Y-94050057D02*
X73976190Y-94002438D01*
X73976190Y-94002438D02*
X74071428Y-93954819D01*
X75023809Y-93954819D02*
X75119047Y-93954819D01*
X75119047Y-93954819D02*
X75214285Y-94002438D01*
X75214285Y-94002438D02*
X75261904Y-94050057D01*
X75261904Y-94050057D02*
X75309523Y-94145295D01*
X75309523Y-94145295D02*
X75357142Y-94335771D01*
X75357142Y-94335771D02*
X75357142Y-94573866D01*
X75357142Y-94573866D02*
X75309523Y-94764342D01*
X75309523Y-94764342D02*
X75261904Y-94859580D01*
X75261904Y-94859580D02*
X75214285Y-94907200D01*
X75214285Y-94907200D02*
X75119047Y-94954819D01*
X75119047Y-94954819D02*
X75023809Y-94954819D01*
X75023809Y-94954819D02*
X74928571Y-94907200D01*
X74928571Y-94907200D02*
X74880952Y-94859580D01*
X74880952Y-94859580D02*
X74833333Y-94764342D01*
X74833333Y-94764342D02*
X74785714Y-94573866D01*
X74785714Y-94573866D02*
X74785714Y-94335771D01*
X74785714Y-94335771D02*
X74833333Y-94145295D01*
X74833333Y-94145295D02*
X74880952Y-94050057D01*
X74880952Y-94050057D02*
X74928571Y-94002438D01*
X74928571Y-94002438D02*
X75023809Y-93954819D01*
X75785714Y-94288152D02*
X75785714Y-94954819D01*
X75785714Y-94383390D02*
X75833333Y-94335771D01*
X75833333Y-94335771D02*
X75928571Y-94288152D01*
X75928571Y-94288152D02*
X76071428Y-94288152D01*
X76071428Y-94288152D02*
X76166666Y-94335771D01*
X76166666Y-94335771D02*
X76214285Y-94431009D01*
X76214285Y-94431009D02*
X76214285Y-94954819D01*
X77023809Y-94431009D02*
X76690476Y-94431009D01*
X76690476Y-94954819D02*
X76690476Y-93954819D01*
X76690476Y-93954819D02*
X77166666Y-93954819D01*
X94834819Y-77988094D02*
X93834819Y-77988094D01*
X93834819Y-77988094D02*
X93834819Y-77749999D01*
X93834819Y-77749999D02*
X93882438Y-77607142D01*
X93882438Y-77607142D02*
X93977676Y-77511904D01*
X93977676Y-77511904D02*
X94072914Y-77464285D01*
X94072914Y-77464285D02*
X94263390Y-77416666D01*
X94263390Y-77416666D02*
X94406247Y-77416666D01*
X94406247Y-77416666D02*
X94596723Y-77464285D01*
X94596723Y-77464285D02*
X94691961Y-77511904D01*
X94691961Y-77511904D02*
X94787200Y-77607142D01*
X94787200Y-77607142D02*
X94834819Y-77749999D01*
X94834819Y-77749999D02*
X94834819Y-77988094D01*
X94834819Y-76940475D02*
X94834819Y-76749999D01*
X94834819Y-76749999D02*
X94787200Y-76654761D01*
X94787200Y-76654761D02*
X94739580Y-76607142D01*
X94739580Y-76607142D02*
X94596723Y-76511904D01*
X94596723Y-76511904D02*
X94406247Y-76464285D01*
X94406247Y-76464285D02*
X94025295Y-76464285D01*
X94025295Y-76464285D02*
X93930057Y-76511904D01*
X93930057Y-76511904D02*
X93882438Y-76559523D01*
X93882438Y-76559523D02*
X93834819Y-76654761D01*
X93834819Y-76654761D02*
X93834819Y-76845237D01*
X93834819Y-76845237D02*
X93882438Y-76940475D01*
X93882438Y-76940475D02*
X93930057Y-76988094D01*
X93930057Y-76988094D02*
X94025295Y-77035713D01*
X94025295Y-77035713D02*
X94263390Y-77035713D01*
X94263390Y-77035713D02*
X94358628Y-76988094D01*
X94358628Y-76988094D02*
X94406247Y-76940475D01*
X94406247Y-76940475D02*
X94453866Y-76845237D01*
X94453866Y-76845237D02*
X94453866Y-76654761D01*
X94453866Y-76654761D02*
X94406247Y-76559523D01*
X94406247Y-76559523D02*
X94358628Y-76511904D01*
X94358628Y-76511904D02*
X94263390Y-76464285D01*
X98074819Y-79964285D02*
X98074819Y-79297619D01*
X98074819Y-79297619D02*
X99074819Y-79964285D01*
X99074819Y-79964285D02*
X99074819Y-79297619D01*
X99074819Y-78916666D02*
X98074819Y-78916666D01*
X98074819Y-78916666D02*
X98074819Y-78535714D01*
X98074819Y-78535714D02*
X98122438Y-78440476D01*
X98122438Y-78440476D02*
X98170057Y-78392857D01*
X98170057Y-78392857D02*
X98265295Y-78345238D01*
X98265295Y-78345238D02*
X98408152Y-78345238D01*
X98408152Y-78345238D02*
X98503390Y-78392857D01*
X98503390Y-78392857D02*
X98551009Y-78440476D01*
X98551009Y-78440476D02*
X98598628Y-78535714D01*
X98598628Y-78535714D02*
X98598628Y-78916666D01*
X99074819Y-77916666D02*
X98074819Y-77916666D01*
X98074819Y-77916666D02*
X98074819Y-77678571D01*
X98074819Y-77678571D02*
X98122438Y-77535714D01*
X98122438Y-77535714D02*
X98217676Y-77440476D01*
X98217676Y-77440476D02*
X98312914Y-77392857D01*
X98312914Y-77392857D02*
X98503390Y-77345238D01*
X98503390Y-77345238D02*
X98646247Y-77345238D01*
X98646247Y-77345238D02*
X98836723Y-77392857D01*
X98836723Y-77392857D02*
X98931961Y-77440476D01*
X98931961Y-77440476D02*
X99027200Y-77535714D01*
X99027200Y-77535714D02*
X99074819Y-77678571D01*
X99074819Y-77678571D02*
X99074819Y-77916666D01*
X98408152Y-76488095D02*
X99074819Y-76488095D01*
X98027200Y-76726190D02*
X98741485Y-76964285D01*
X98741485Y-76964285D02*
X98741485Y-76345238D01*
X98074819Y-76107142D02*
X99074819Y-75773809D01*
X99074819Y-75773809D02*
X98074819Y-75440476D01*
X98074819Y-75202380D02*
X98074819Y-74535714D01*
X98074819Y-74535714D02*
X99074819Y-74964285D01*
X98754819Y-73701904D02*
X97754819Y-73701904D01*
X98754819Y-73130476D02*
X98183390Y-73559047D01*
X97754819Y-73130476D02*
X98326247Y-73701904D01*
X76334819Y-77988094D02*
X75334819Y-77988094D01*
X75334819Y-77988094D02*
X75334819Y-77749999D01*
X75334819Y-77749999D02*
X75382438Y-77607142D01*
X75382438Y-77607142D02*
X75477676Y-77511904D01*
X75477676Y-77511904D02*
X75572914Y-77464285D01*
X75572914Y-77464285D02*
X75763390Y-77416666D01*
X75763390Y-77416666D02*
X75906247Y-77416666D01*
X75906247Y-77416666D02*
X76096723Y-77464285D01*
X76096723Y-77464285D02*
X76191961Y-77511904D01*
X76191961Y-77511904D02*
X76287200Y-77607142D01*
X76287200Y-77607142D02*
X76334819Y-77749999D01*
X76334819Y-77749999D02*
X76334819Y-77988094D01*
X75334819Y-77083332D02*
X75334819Y-76416666D01*
X75334819Y-76416666D02*
X76334819Y-76845237D01*
X79574819Y-79964285D02*
X79574819Y-79297619D01*
X79574819Y-79297619D02*
X80574819Y-79964285D01*
X80574819Y-79964285D02*
X80574819Y-79297619D01*
X80574819Y-78916666D02*
X79574819Y-78916666D01*
X79574819Y-78916666D02*
X79574819Y-78535714D01*
X79574819Y-78535714D02*
X79622438Y-78440476D01*
X79622438Y-78440476D02*
X79670057Y-78392857D01*
X79670057Y-78392857D02*
X79765295Y-78345238D01*
X79765295Y-78345238D02*
X79908152Y-78345238D01*
X79908152Y-78345238D02*
X80003390Y-78392857D01*
X80003390Y-78392857D02*
X80051009Y-78440476D01*
X80051009Y-78440476D02*
X80098628Y-78535714D01*
X80098628Y-78535714D02*
X80098628Y-78916666D01*
X80574819Y-77916666D02*
X79574819Y-77916666D01*
X79574819Y-77916666D02*
X79574819Y-77678571D01*
X79574819Y-77678571D02*
X79622438Y-77535714D01*
X79622438Y-77535714D02*
X79717676Y-77440476D01*
X79717676Y-77440476D02*
X79812914Y-77392857D01*
X79812914Y-77392857D02*
X80003390Y-77345238D01*
X80003390Y-77345238D02*
X80146247Y-77345238D01*
X80146247Y-77345238D02*
X80336723Y-77392857D01*
X80336723Y-77392857D02*
X80431961Y-77440476D01*
X80431961Y-77440476D02*
X80527200Y-77535714D01*
X80527200Y-77535714D02*
X80574819Y-77678571D01*
X80574819Y-77678571D02*
X80574819Y-77916666D01*
X79908152Y-76488095D02*
X80574819Y-76488095D01*
X79527200Y-76726190D02*
X80241485Y-76964285D01*
X80241485Y-76964285D02*
X80241485Y-76345238D01*
X79574819Y-76107142D02*
X80574819Y-75773809D01*
X80574819Y-75773809D02*
X79574819Y-75440476D01*
X79574819Y-75202380D02*
X79574819Y-74535714D01*
X79574819Y-74535714D02*
X80574819Y-74964285D01*
X80254819Y-73701904D02*
X79254819Y-73701904D01*
X80254819Y-73130476D02*
X79683390Y-73559047D01*
X79254819Y-73130476D02*
X79826247Y-73701904D01*
X75607142Y-143954819D02*
X75273809Y-143478628D01*
X75035714Y-143954819D02*
X75035714Y-142954819D01*
X75035714Y-142954819D02*
X75416666Y-142954819D01*
X75416666Y-142954819D02*
X75511904Y-143002438D01*
X75511904Y-143002438D02*
X75559523Y-143050057D01*
X75559523Y-143050057D02*
X75607142Y-143145295D01*
X75607142Y-143145295D02*
X75607142Y-143288152D01*
X75607142Y-143288152D02*
X75559523Y-143383390D01*
X75559523Y-143383390D02*
X75511904Y-143431009D01*
X75511904Y-143431009D02*
X75416666Y-143478628D01*
X75416666Y-143478628D02*
X75035714Y-143478628D01*
X75940476Y-142954819D02*
X76607142Y-142954819D01*
X76607142Y-142954819D02*
X76178571Y-143954819D01*
X77416666Y-143288152D02*
X77416666Y-143954819D01*
X77178571Y-142907200D02*
X76940476Y-143621485D01*
X76940476Y-143621485D02*
X77559523Y-143621485D01*
X76704819Y-150071428D02*
X76704819Y-150642856D01*
X76704819Y-150357142D02*
X75704819Y-150357142D01*
X75704819Y-150357142D02*
X75847676Y-150452380D01*
X75847676Y-150452380D02*
X75942914Y-150547618D01*
X75942914Y-150547618D02*
X75990533Y-150642856D01*
X75704819Y-149452380D02*
X75704819Y-149357142D01*
X75704819Y-149357142D02*
X75752438Y-149261904D01*
X75752438Y-149261904D02*
X75800057Y-149214285D01*
X75800057Y-149214285D02*
X75895295Y-149166666D01*
X75895295Y-149166666D02*
X76085771Y-149119047D01*
X76085771Y-149119047D02*
X76323866Y-149119047D01*
X76323866Y-149119047D02*
X76514342Y-149166666D01*
X76514342Y-149166666D02*
X76609580Y-149214285D01*
X76609580Y-149214285D02*
X76657200Y-149261904D01*
X76657200Y-149261904D02*
X76704819Y-149357142D01*
X76704819Y-149357142D02*
X76704819Y-149452380D01*
X76704819Y-149452380D02*
X76657200Y-149547618D01*
X76657200Y-149547618D02*
X76609580Y-149595237D01*
X76609580Y-149595237D02*
X76514342Y-149642856D01*
X76514342Y-149642856D02*
X76323866Y-149690475D01*
X76323866Y-149690475D02*
X76085771Y-149690475D01*
X76085771Y-149690475D02*
X75895295Y-149642856D01*
X75895295Y-149642856D02*
X75800057Y-149595237D01*
X75800057Y-149595237D02*
X75752438Y-149547618D01*
X75752438Y-149547618D02*
X75704819Y-149452380D01*
X75704819Y-148499999D02*
X75704819Y-148404761D01*
X75704819Y-148404761D02*
X75752438Y-148309523D01*
X75752438Y-148309523D02*
X75800057Y-148261904D01*
X75800057Y-148261904D02*
X75895295Y-148214285D01*
X75895295Y-148214285D02*
X76085771Y-148166666D01*
X76085771Y-148166666D02*
X76323866Y-148166666D01*
X76323866Y-148166666D02*
X76514342Y-148214285D01*
X76514342Y-148214285D02*
X76609580Y-148261904D01*
X76609580Y-148261904D02*
X76657200Y-148309523D01*
X76657200Y-148309523D02*
X76704819Y-148404761D01*
X76704819Y-148404761D02*
X76704819Y-148499999D01*
X76704819Y-148499999D02*
X76657200Y-148595237D01*
X76657200Y-148595237D02*
X76609580Y-148642856D01*
X76609580Y-148642856D02*
X76514342Y-148690475D01*
X76514342Y-148690475D02*
X76323866Y-148738094D01*
X76323866Y-148738094D02*
X76085771Y-148738094D01*
X76085771Y-148738094D02*
X75895295Y-148690475D01*
X75895295Y-148690475D02*
X75800057Y-148642856D01*
X75800057Y-148642856D02*
X75752438Y-148595237D01*
X75752438Y-148595237D02*
X75704819Y-148499999D01*
X76704819Y-147738094D02*
X75704819Y-147738094D01*
X76323866Y-147642856D02*
X76704819Y-147357142D01*
X76038152Y-147357142D02*
X76419104Y-147738094D01*
X85916667Y-72407200D02*
X86059524Y-72454819D01*
X86059524Y-72454819D02*
X86297619Y-72454819D01*
X86297619Y-72454819D02*
X86392857Y-72407200D01*
X86392857Y-72407200D02*
X86440476Y-72359580D01*
X86440476Y-72359580D02*
X86488095Y-72264342D01*
X86488095Y-72264342D02*
X86488095Y-72169104D01*
X86488095Y-72169104D02*
X86440476Y-72073866D01*
X86440476Y-72073866D02*
X86392857Y-72026247D01*
X86392857Y-72026247D02*
X86297619Y-71978628D01*
X86297619Y-71978628D02*
X86107143Y-71931009D01*
X86107143Y-71931009D02*
X86011905Y-71883390D01*
X86011905Y-71883390D02*
X85964286Y-71835771D01*
X85964286Y-71835771D02*
X85916667Y-71740533D01*
X85916667Y-71740533D02*
X85916667Y-71645295D01*
X85916667Y-71645295D02*
X85964286Y-71550057D01*
X85964286Y-71550057D02*
X86011905Y-71502438D01*
X86011905Y-71502438D02*
X86107143Y-71454819D01*
X86107143Y-71454819D02*
X86345238Y-71454819D01*
X86345238Y-71454819D02*
X86488095Y-71502438D01*
X86821429Y-71454819D02*
X87059524Y-72454819D01*
X87059524Y-72454819D02*
X87250000Y-71740533D01*
X87250000Y-71740533D02*
X87440476Y-72454819D01*
X87440476Y-72454819D02*
X87678572Y-71454819D01*
X88011905Y-71550057D02*
X88059524Y-71502438D01*
X88059524Y-71502438D02*
X88154762Y-71454819D01*
X88154762Y-71454819D02*
X88392857Y-71454819D01*
X88392857Y-71454819D02*
X88488095Y-71502438D01*
X88488095Y-71502438D02*
X88535714Y-71550057D01*
X88535714Y-71550057D02*
X88583333Y-71645295D01*
X88583333Y-71645295D02*
X88583333Y-71740533D01*
X88583333Y-71740533D02*
X88535714Y-71883390D01*
X88535714Y-71883390D02*
X87964286Y-72454819D01*
X87964286Y-72454819D02*
X88583333Y-72454819D01*
X84660714Y-70609580D02*
X84607142Y-70657200D01*
X84607142Y-70657200D02*
X84458333Y-70704819D01*
X84458333Y-70704819D02*
X84363095Y-70704819D01*
X84363095Y-70704819D02*
X84226190Y-70657200D01*
X84226190Y-70657200D02*
X84142857Y-70561961D01*
X84142857Y-70561961D02*
X84107142Y-70466723D01*
X84107142Y-70466723D02*
X84083333Y-70276247D01*
X84083333Y-70276247D02*
X84101190Y-70133390D01*
X84101190Y-70133390D02*
X84172618Y-69942914D01*
X84172618Y-69942914D02*
X84232142Y-69847676D01*
X84232142Y-69847676D02*
X84339285Y-69752438D01*
X84339285Y-69752438D02*
X84488095Y-69704819D01*
X84488095Y-69704819D02*
X84583333Y-69704819D01*
X84583333Y-69704819D02*
X84720238Y-69752438D01*
X84720238Y-69752438D02*
X84761904Y-69800057D01*
X85220238Y-70704819D02*
X85130952Y-70657200D01*
X85130952Y-70657200D02*
X85095238Y-70561961D01*
X85095238Y-70561961D02*
X85202380Y-69704819D01*
X85601190Y-70704819D02*
X85684524Y-70038152D01*
X85726190Y-69704819D02*
X85672619Y-69752438D01*
X85672619Y-69752438D02*
X85714286Y-69800057D01*
X85714286Y-69800057D02*
X85767857Y-69752438D01*
X85767857Y-69752438D02*
X85726190Y-69704819D01*
X85726190Y-69704819D02*
X85714286Y-69800057D01*
X86160714Y-70038152D02*
X86035714Y-71038152D01*
X86154761Y-70085771D02*
X86255952Y-70038152D01*
X86255952Y-70038152D02*
X86446428Y-70038152D01*
X86446428Y-70038152D02*
X86535714Y-70085771D01*
X86535714Y-70085771D02*
X86577380Y-70133390D01*
X86577380Y-70133390D02*
X86613095Y-70228628D01*
X86613095Y-70228628D02*
X86577380Y-70514342D01*
X86577380Y-70514342D02*
X86517857Y-70609580D01*
X86517857Y-70609580D02*
X86464285Y-70657200D01*
X86464285Y-70657200D02*
X86363095Y-70704819D01*
X86363095Y-70704819D02*
X86172618Y-70704819D01*
X86172618Y-70704819D02*
X86083333Y-70657200D01*
X87827380Y-69657200D02*
X86809523Y-70942914D01*
X88029761Y-70704819D02*
X88154761Y-69704819D01*
X88154761Y-69704819D02*
X88392857Y-69704819D01*
X88392857Y-69704819D02*
X88529761Y-69752438D01*
X88529761Y-69752438D02*
X88613095Y-69847676D01*
X88613095Y-69847676D02*
X88648809Y-69942914D01*
X88648809Y-69942914D02*
X88672619Y-70133390D01*
X88672619Y-70133390D02*
X88654761Y-70276247D01*
X88654761Y-70276247D02*
X88583333Y-70466723D01*
X88583333Y-70466723D02*
X88523809Y-70561961D01*
X88523809Y-70561961D02*
X88416666Y-70657200D01*
X88416666Y-70657200D02*
X88267857Y-70704819D01*
X88267857Y-70704819D02*
X88029761Y-70704819D01*
X89029761Y-70704819D02*
X89113095Y-70038152D01*
X89154761Y-69704819D02*
X89101190Y-69752438D01*
X89101190Y-69752438D02*
X89142857Y-69800057D01*
X89142857Y-69800057D02*
X89196428Y-69752438D01*
X89196428Y-69752438D02*
X89154761Y-69704819D01*
X89154761Y-69704819D02*
X89142857Y-69800057D01*
X89464285Y-70657200D02*
X89553570Y-70704819D01*
X89553570Y-70704819D02*
X89744047Y-70704819D01*
X89744047Y-70704819D02*
X89845237Y-70657200D01*
X89845237Y-70657200D02*
X89904761Y-70561961D01*
X89904761Y-70561961D02*
X89910713Y-70514342D01*
X89910713Y-70514342D02*
X89874999Y-70419104D01*
X89874999Y-70419104D02*
X89785713Y-70371485D01*
X89785713Y-70371485D02*
X89642856Y-70371485D01*
X89642856Y-70371485D02*
X89553570Y-70323866D01*
X89553570Y-70323866D02*
X89517856Y-70228628D01*
X89517856Y-70228628D02*
X89523809Y-70181009D01*
X89523809Y-70181009D02*
X89583332Y-70085771D01*
X89583332Y-70085771D02*
X89684523Y-70038152D01*
X89684523Y-70038152D02*
X89827380Y-70038152D01*
X89827380Y-70038152D02*
X89916666Y-70085771D01*
X90255952Y-70038152D02*
X90636904Y-70038152D01*
X90440475Y-69704819D02*
X90333333Y-70561961D01*
X90333333Y-70561961D02*
X90369047Y-70657200D01*
X90369047Y-70657200D02*
X90458333Y-70704819D01*
X90458333Y-70704819D02*
X90553571Y-70704819D01*
X82004819Y-61671428D02*
X81528628Y-62004761D01*
X82004819Y-62242856D02*
X81004819Y-62242856D01*
X81004819Y-62242856D02*
X81004819Y-61861904D01*
X81004819Y-61861904D02*
X81052438Y-61766666D01*
X81052438Y-61766666D02*
X81100057Y-61719047D01*
X81100057Y-61719047D02*
X81195295Y-61671428D01*
X81195295Y-61671428D02*
X81338152Y-61671428D01*
X81338152Y-61671428D02*
X81433390Y-61719047D01*
X81433390Y-61719047D02*
X81481009Y-61766666D01*
X81481009Y-61766666D02*
X81528628Y-61861904D01*
X81528628Y-61861904D02*
X81528628Y-62242856D01*
X81004819Y-61385713D02*
X82004819Y-61052380D01*
X82004819Y-61052380D02*
X81004819Y-60719047D01*
X82004819Y-59861904D02*
X82004819Y-60433332D01*
X82004819Y-60147618D02*
X81004819Y-60147618D01*
X81004819Y-60147618D02*
X81147676Y-60242856D01*
X81147676Y-60242856D02*
X81242914Y-60338094D01*
X81242914Y-60338094D02*
X81290533Y-60433332D01*
X82004819Y-58909523D02*
X82004819Y-59480951D01*
X82004819Y-59195237D02*
X81004819Y-59195237D01*
X81004819Y-59195237D02*
X81147676Y-59290475D01*
X81147676Y-59290475D02*
X81242914Y-59385713D01*
X81242914Y-59385713D02*
X81290533Y-59480951D01*
X93504819Y-61871428D02*
X93504819Y-62442856D01*
X93504819Y-62157142D02*
X92504819Y-62157142D01*
X92504819Y-62157142D02*
X92647676Y-62252380D01*
X92647676Y-62252380D02*
X92742914Y-62347618D01*
X92742914Y-62347618D02*
X92790533Y-62442856D01*
X92504819Y-61252380D02*
X92504819Y-61157142D01*
X92504819Y-61157142D02*
X92552438Y-61061904D01*
X92552438Y-61061904D02*
X92600057Y-61014285D01*
X92600057Y-61014285D02*
X92695295Y-60966666D01*
X92695295Y-60966666D02*
X92885771Y-60919047D01*
X92885771Y-60919047D02*
X93123866Y-60919047D01*
X93123866Y-60919047D02*
X93314342Y-60966666D01*
X93314342Y-60966666D02*
X93409580Y-61014285D01*
X93409580Y-61014285D02*
X93457200Y-61061904D01*
X93457200Y-61061904D02*
X93504819Y-61157142D01*
X93504819Y-61157142D02*
X93504819Y-61252380D01*
X93504819Y-61252380D02*
X93457200Y-61347618D01*
X93457200Y-61347618D02*
X93409580Y-61395237D01*
X93409580Y-61395237D02*
X93314342Y-61442856D01*
X93314342Y-61442856D02*
X93123866Y-61490475D01*
X93123866Y-61490475D02*
X92885771Y-61490475D01*
X92885771Y-61490475D02*
X92695295Y-61442856D01*
X92695295Y-61442856D02*
X92600057Y-61395237D01*
X92600057Y-61395237D02*
X92552438Y-61347618D01*
X92552438Y-61347618D02*
X92504819Y-61252380D01*
X92504819Y-60299999D02*
X92504819Y-60204761D01*
X92504819Y-60204761D02*
X92552438Y-60109523D01*
X92552438Y-60109523D02*
X92600057Y-60061904D01*
X92600057Y-60061904D02*
X92695295Y-60014285D01*
X92695295Y-60014285D02*
X92885771Y-59966666D01*
X92885771Y-59966666D02*
X93123866Y-59966666D01*
X93123866Y-59966666D02*
X93314342Y-60014285D01*
X93314342Y-60014285D02*
X93409580Y-60061904D01*
X93409580Y-60061904D02*
X93457200Y-60109523D01*
X93457200Y-60109523D02*
X93504819Y-60204761D01*
X93504819Y-60204761D02*
X93504819Y-60299999D01*
X93504819Y-60299999D02*
X93457200Y-60395237D01*
X93457200Y-60395237D02*
X93409580Y-60442856D01*
X93409580Y-60442856D02*
X93314342Y-60490475D01*
X93314342Y-60490475D02*
X93123866Y-60538094D01*
X93123866Y-60538094D02*
X92885771Y-60538094D01*
X92885771Y-60538094D02*
X92695295Y-60490475D01*
X92695295Y-60490475D02*
X92600057Y-60442856D01*
X92600057Y-60442856D02*
X92552438Y-60395237D01*
X92552438Y-60395237D02*
X92504819Y-60299999D01*
X93504819Y-59538094D02*
X92504819Y-59538094D01*
X93123866Y-59442856D02*
X93504819Y-59157142D01*
X92838152Y-59157142D02*
X93219104Y-59538094D01*
X84773809Y-64954819D02*
X84964285Y-64954819D01*
X84964285Y-64954819D02*
X85053570Y-65002438D01*
X85053570Y-65002438D02*
X85136904Y-65097676D01*
X85136904Y-65097676D02*
X85160713Y-65288152D01*
X85160713Y-65288152D02*
X85119047Y-65621485D01*
X85119047Y-65621485D02*
X85047618Y-65811961D01*
X85047618Y-65811961D02*
X84940475Y-65907200D01*
X84940475Y-65907200D02*
X84839285Y-65954819D01*
X84839285Y-65954819D02*
X84648809Y-65954819D01*
X84648809Y-65954819D02*
X84559523Y-65907200D01*
X84559523Y-65907200D02*
X84476190Y-65811961D01*
X84476190Y-65811961D02*
X84452380Y-65621485D01*
X84452380Y-65621485D02*
X84494047Y-65288152D01*
X84494047Y-65288152D02*
X84565475Y-65097676D01*
X84565475Y-65097676D02*
X84672618Y-65002438D01*
X84672618Y-65002438D02*
X84773809Y-64954819D01*
X85446428Y-65288152D02*
X85827380Y-65288152D01*
X85505951Y-65954819D02*
X85613094Y-65097676D01*
X85613094Y-65097676D02*
X85672618Y-65002438D01*
X85672618Y-65002438D02*
X85773809Y-64954819D01*
X85773809Y-64954819D02*
X85869047Y-64954819D01*
X86017857Y-65288152D02*
X86398809Y-65288152D01*
X86077380Y-65954819D02*
X86184523Y-65097676D01*
X86184523Y-65097676D02*
X86244047Y-65002438D01*
X86244047Y-65002438D02*
X86345238Y-64954819D01*
X86345238Y-64954819D02*
X86440476Y-64954819D01*
X86607143Y-65907200D02*
X86696428Y-65954819D01*
X86696428Y-65954819D02*
X86886905Y-65954819D01*
X86886905Y-65954819D02*
X86988095Y-65907200D01*
X86988095Y-65907200D02*
X87047619Y-65811961D01*
X87047619Y-65811961D02*
X87053571Y-65764342D01*
X87053571Y-65764342D02*
X87017857Y-65669104D01*
X87017857Y-65669104D02*
X86928571Y-65621485D01*
X86928571Y-65621485D02*
X86785714Y-65621485D01*
X86785714Y-65621485D02*
X86696428Y-65573866D01*
X86696428Y-65573866D02*
X86660714Y-65478628D01*
X86660714Y-65478628D02*
X86666667Y-65431009D01*
X86666667Y-65431009D02*
X86726190Y-65335771D01*
X86726190Y-65335771D02*
X86827381Y-65288152D01*
X86827381Y-65288152D02*
X86970238Y-65288152D01*
X86970238Y-65288152D02*
X87059524Y-65335771D01*
X87845238Y-65907200D02*
X87744048Y-65954819D01*
X87744048Y-65954819D02*
X87553571Y-65954819D01*
X87553571Y-65954819D02*
X87464286Y-65907200D01*
X87464286Y-65907200D02*
X87428571Y-65811961D01*
X87428571Y-65811961D02*
X87476191Y-65431009D01*
X87476191Y-65431009D02*
X87535714Y-65335771D01*
X87535714Y-65335771D02*
X87636905Y-65288152D01*
X87636905Y-65288152D02*
X87827381Y-65288152D01*
X87827381Y-65288152D02*
X87916667Y-65335771D01*
X87916667Y-65335771D02*
X87952381Y-65431009D01*
X87952381Y-65431009D02*
X87940476Y-65526247D01*
X87940476Y-65526247D02*
X87452381Y-65621485D01*
X88255953Y-65288152D02*
X88636905Y-65288152D01*
X88440476Y-64954819D02*
X88333334Y-65811961D01*
X88333334Y-65811961D02*
X88369048Y-65907200D01*
X88369048Y-65907200D02*
X88458334Y-65954819D01*
X88458334Y-65954819D02*
X88553572Y-65954819D01*
X89636906Y-65669104D02*
X90113096Y-65669104D01*
X89505953Y-65954819D02*
X89964287Y-64954819D01*
X89964287Y-64954819D02*
X90172620Y-65954819D01*
X77084819Y-134392857D02*
X76608628Y-134726190D01*
X77084819Y-134964285D02*
X76084819Y-134964285D01*
X76084819Y-134964285D02*
X76084819Y-134583333D01*
X76084819Y-134583333D02*
X76132438Y-134488095D01*
X76132438Y-134488095D02*
X76180057Y-134440476D01*
X76180057Y-134440476D02*
X76275295Y-134392857D01*
X76275295Y-134392857D02*
X76418152Y-134392857D01*
X76418152Y-134392857D02*
X76513390Y-134440476D01*
X76513390Y-134440476D02*
X76561009Y-134488095D01*
X76561009Y-134488095D02*
X76608628Y-134583333D01*
X76608628Y-134583333D02*
X76608628Y-134964285D01*
X76084819Y-134059523D02*
X76084819Y-133392857D01*
X76084819Y-133392857D02*
X77084819Y-133821428D01*
X77084819Y-132488095D02*
X77084819Y-133059523D01*
X77084819Y-132773809D02*
X76084819Y-132773809D01*
X76084819Y-132773809D02*
X76227676Y-132869047D01*
X76227676Y-132869047D02*
X76322914Y-132964285D01*
X76322914Y-132964285D02*
X76370533Y-133059523D01*
X78454819Y-134964285D02*
X78454819Y-134345238D01*
X78454819Y-134345238D02*
X78835771Y-134678571D01*
X78835771Y-134678571D02*
X78835771Y-134535714D01*
X78835771Y-134535714D02*
X78883390Y-134440476D01*
X78883390Y-134440476D02*
X78931009Y-134392857D01*
X78931009Y-134392857D02*
X79026247Y-134345238D01*
X79026247Y-134345238D02*
X79264342Y-134345238D01*
X79264342Y-134345238D02*
X79359580Y-134392857D01*
X79359580Y-134392857D02*
X79407200Y-134440476D01*
X79407200Y-134440476D02*
X79454819Y-134535714D01*
X79454819Y-134535714D02*
X79454819Y-134821428D01*
X79454819Y-134821428D02*
X79407200Y-134916666D01*
X79407200Y-134916666D02*
X79359580Y-134964285D01*
X78454819Y-134011904D02*
X78454819Y-133392857D01*
X78454819Y-133392857D02*
X78835771Y-133726190D01*
X78835771Y-133726190D02*
X78835771Y-133583333D01*
X78835771Y-133583333D02*
X78883390Y-133488095D01*
X78883390Y-133488095D02*
X78931009Y-133440476D01*
X78931009Y-133440476D02*
X79026247Y-133392857D01*
X79026247Y-133392857D02*
X79264342Y-133392857D01*
X79264342Y-133392857D02*
X79359580Y-133440476D01*
X79359580Y-133440476D02*
X79407200Y-133488095D01*
X79407200Y-133488095D02*
X79454819Y-133583333D01*
X79454819Y-133583333D02*
X79454819Y-133869047D01*
X79454819Y-133869047D02*
X79407200Y-133964285D01*
X79407200Y-133964285D02*
X79359580Y-134011904D01*
X79454819Y-132964285D02*
X78454819Y-132964285D01*
X79073866Y-132869047D02*
X79454819Y-132583333D01*
X78788152Y-132583333D02*
X79169104Y-132964285D01*
X68584819Y-134392857D02*
X68108628Y-134726190D01*
X68584819Y-134964285D02*
X67584819Y-134964285D01*
X67584819Y-134964285D02*
X67584819Y-134583333D01*
X67584819Y-134583333D02*
X67632438Y-134488095D01*
X67632438Y-134488095D02*
X67680057Y-134440476D01*
X67680057Y-134440476D02*
X67775295Y-134392857D01*
X67775295Y-134392857D02*
X67918152Y-134392857D01*
X67918152Y-134392857D02*
X68013390Y-134440476D01*
X68013390Y-134440476D02*
X68061009Y-134488095D01*
X68061009Y-134488095D02*
X68108628Y-134583333D01*
X68108628Y-134583333D02*
X68108628Y-134964285D01*
X67584819Y-134059523D02*
X67584819Y-133392857D01*
X67584819Y-133392857D02*
X68584819Y-133821428D01*
X67584819Y-132821428D02*
X67584819Y-132726190D01*
X67584819Y-132726190D02*
X67632438Y-132630952D01*
X67632438Y-132630952D02*
X67680057Y-132583333D01*
X67680057Y-132583333D02*
X67775295Y-132535714D01*
X67775295Y-132535714D02*
X67965771Y-132488095D01*
X67965771Y-132488095D02*
X68203866Y-132488095D01*
X68203866Y-132488095D02*
X68394342Y-132535714D01*
X68394342Y-132535714D02*
X68489580Y-132583333D01*
X68489580Y-132583333D02*
X68537200Y-132630952D01*
X68537200Y-132630952D02*
X68584819Y-132726190D01*
X68584819Y-132726190D02*
X68584819Y-132821428D01*
X68584819Y-132821428D02*
X68537200Y-132916666D01*
X68537200Y-132916666D02*
X68489580Y-132964285D01*
X68489580Y-132964285D02*
X68394342Y-133011904D01*
X68394342Y-133011904D02*
X68203866Y-133059523D01*
X68203866Y-133059523D02*
X67965771Y-133059523D01*
X67965771Y-133059523D02*
X67775295Y-133011904D01*
X67775295Y-133011904D02*
X67680057Y-132964285D01*
X67680057Y-132964285D02*
X67632438Y-132916666D01*
X67632438Y-132916666D02*
X67584819Y-132821428D01*
X69954819Y-134964285D02*
X69954819Y-134345238D01*
X69954819Y-134345238D02*
X70335771Y-134678571D01*
X70335771Y-134678571D02*
X70335771Y-134535714D01*
X70335771Y-134535714D02*
X70383390Y-134440476D01*
X70383390Y-134440476D02*
X70431009Y-134392857D01*
X70431009Y-134392857D02*
X70526247Y-134345238D01*
X70526247Y-134345238D02*
X70764342Y-134345238D01*
X70764342Y-134345238D02*
X70859580Y-134392857D01*
X70859580Y-134392857D02*
X70907200Y-134440476D01*
X70907200Y-134440476D02*
X70954819Y-134535714D01*
X70954819Y-134535714D02*
X70954819Y-134821428D01*
X70954819Y-134821428D02*
X70907200Y-134916666D01*
X70907200Y-134916666D02*
X70859580Y-134964285D01*
X69954819Y-134011904D02*
X69954819Y-133392857D01*
X69954819Y-133392857D02*
X70335771Y-133726190D01*
X70335771Y-133726190D02*
X70335771Y-133583333D01*
X70335771Y-133583333D02*
X70383390Y-133488095D01*
X70383390Y-133488095D02*
X70431009Y-133440476D01*
X70431009Y-133440476D02*
X70526247Y-133392857D01*
X70526247Y-133392857D02*
X70764342Y-133392857D01*
X70764342Y-133392857D02*
X70859580Y-133440476D01*
X70859580Y-133440476D02*
X70907200Y-133488095D01*
X70907200Y-133488095D02*
X70954819Y-133583333D01*
X70954819Y-133583333D02*
X70954819Y-133869047D01*
X70954819Y-133869047D02*
X70907200Y-133964285D01*
X70907200Y-133964285D02*
X70859580Y-134011904D01*
X70954819Y-132964285D02*
X69954819Y-132964285D01*
X70573866Y-132869047D02*
X70954819Y-132583333D01*
X70288152Y-132583333D02*
X70669104Y-132964285D01*
X85916667Y-136907200D02*
X86059524Y-136954819D01*
X86059524Y-136954819D02*
X86297619Y-136954819D01*
X86297619Y-136954819D02*
X86392857Y-136907200D01*
X86392857Y-136907200D02*
X86440476Y-136859580D01*
X86440476Y-136859580D02*
X86488095Y-136764342D01*
X86488095Y-136764342D02*
X86488095Y-136669104D01*
X86488095Y-136669104D02*
X86440476Y-136573866D01*
X86440476Y-136573866D02*
X86392857Y-136526247D01*
X86392857Y-136526247D02*
X86297619Y-136478628D01*
X86297619Y-136478628D02*
X86107143Y-136431009D01*
X86107143Y-136431009D02*
X86011905Y-136383390D01*
X86011905Y-136383390D02*
X85964286Y-136335771D01*
X85964286Y-136335771D02*
X85916667Y-136240533D01*
X85916667Y-136240533D02*
X85916667Y-136145295D01*
X85916667Y-136145295D02*
X85964286Y-136050057D01*
X85964286Y-136050057D02*
X86011905Y-136002438D01*
X86011905Y-136002438D02*
X86107143Y-135954819D01*
X86107143Y-135954819D02*
X86345238Y-135954819D01*
X86345238Y-135954819D02*
X86488095Y-136002438D01*
X86821429Y-135954819D02*
X87059524Y-136954819D01*
X87059524Y-136954819D02*
X87250000Y-136240533D01*
X87250000Y-136240533D02*
X87440476Y-136954819D01*
X87440476Y-136954819D02*
X87678572Y-135954819D01*
X88583333Y-136954819D02*
X88011905Y-136954819D01*
X88297619Y-136954819D02*
X88297619Y-135954819D01*
X88297619Y-135954819D02*
X88202381Y-136097676D01*
X88202381Y-136097676D02*
X88107143Y-136192914D01*
X88107143Y-136192914D02*
X88011905Y-136240533D01*
X85577380Y-135204819D02*
X85702380Y-134204819D01*
X85702380Y-134204819D02*
X85946428Y-134919104D01*
X85946428Y-134919104D02*
X86369047Y-134204819D01*
X86369047Y-134204819D02*
X86244047Y-135204819D01*
X86863095Y-135204819D02*
X86773809Y-135157200D01*
X86773809Y-135157200D02*
X86732142Y-135109580D01*
X86732142Y-135109580D02*
X86696428Y-135014342D01*
X86696428Y-135014342D02*
X86732142Y-134728628D01*
X86732142Y-134728628D02*
X86791666Y-134633390D01*
X86791666Y-134633390D02*
X86845237Y-134585771D01*
X86845237Y-134585771D02*
X86946428Y-134538152D01*
X86946428Y-134538152D02*
X87089285Y-134538152D01*
X87089285Y-134538152D02*
X87178571Y-134585771D01*
X87178571Y-134585771D02*
X87220237Y-134633390D01*
X87220237Y-134633390D02*
X87255952Y-134728628D01*
X87255952Y-134728628D02*
X87220237Y-135014342D01*
X87220237Y-135014342D02*
X87160714Y-135109580D01*
X87160714Y-135109580D02*
X87107142Y-135157200D01*
X87107142Y-135157200D02*
X87005952Y-135204819D01*
X87005952Y-135204819D02*
X86863095Y-135204819D01*
X88053571Y-135204819D02*
X88178571Y-134204819D01*
X88059523Y-135157200D02*
X87958333Y-135204819D01*
X87958333Y-135204819D02*
X87767857Y-135204819D01*
X87767857Y-135204819D02*
X87678571Y-135157200D01*
X87678571Y-135157200D02*
X87636904Y-135109580D01*
X87636904Y-135109580D02*
X87601190Y-135014342D01*
X87601190Y-135014342D02*
X87636904Y-134728628D01*
X87636904Y-134728628D02*
X87696428Y-134633390D01*
X87696428Y-134633390D02*
X87749999Y-134585771D01*
X87749999Y-134585771D02*
X87851190Y-134538152D01*
X87851190Y-134538152D02*
X88041666Y-134538152D01*
X88041666Y-134538152D02*
X88130952Y-134585771D01*
X88916666Y-135157200D02*
X88815476Y-135204819D01*
X88815476Y-135204819D02*
X88624999Y-135204819D01*
X88624999Y-135204819D02*
X88535714Y-135157200D01*
X88535714Y-135157200D02*
X88499999Y-135061961D01*
X88499999Y-135061961D02*
X88547619Y-134681009D01*
X88547619Y-134681009D02*
X88607142Y-134585771D01*
X88607142Y-134585771D02*
X88708333Y-134538152D01*
X88708333Y-134538152D02*
X88898809Y-134538152D01*
X88898809Y-134538152D02*
X88988095Y-134585771D01*
X88988095Y-134585771D02*
X89023809Y-134681009D01*
X89023809Y-134681009D02*
X89011904Y-134776247D01*
X89011904Y-134776247D02*
X88523809Y-134871485D01*
X73324819Y-71392857D02*
X72848628Y-71726190D01*
X73324819Y-71964285D02*
X72324819Y-71964285D01*
X72324819Y-71964285D02*
X72324819Y-71583333D01*
X72324819Y-71583333D02*
X72372438Y-71488095D01*
X72372438Y-71488095D02*
X72420057Y-71440476D01*
X72420057Y-71440476D02*
X72515295Y-71392857D01*
X72515295Y-71392857D02*
X72658152Y-71392857D01*
X72658152Y-71392857D02*
X72753390Y-71440476D01*
X72753390Y-71440476D02*
X72801009Y-71488095D01*
X72801009Y-71488095D02*
X72848628Y-71583333D01*
X72848628Y-71583333D02*
X72848628Y-71964285D01*
X72324819Y-70535714D02*
X72324819Y-70726190D01*
X72324819Y-70726190D02*
X72372438Y-70821428D01*
X72372438Y-70821428D02*
X72420057Y-70869047D01*
X72420057Y-70869047D02*
X72562914Y-70964285D01*
X72562914Y-70964285D02*
X72753390Y-71011904D01*
X72753390Y-71011904D02*
X73134342Y-71011904D01*
X73134342Y-71011904D02*
X73229580Y-70964285D01*
X73229580Y-70964285D02*
X73277200Y-70916666D01*
X73277200Y-70916666D02*
X73324819Y-70821428D01*
X73324819Y-70821428D02*
X73324819Y-70630952D01*
X73324819Y-70630952D02*
X73277200Y-70535714D01*
X73277200Y-70535714D02*
X73229580Y-70488095D01*
X73229580Y-70488095D02*
X73134342Y-70440476D01*
X73134342Y-70440476D02*
X72896247Y-70440476D01*
X72896247Y-70440476D02*
X72801009Y-70488095D01*
X72801009Y-70488095D02*
X72753390Y-70535714D01*
X72753390Y-70535714D02*
X72705771Y-70630952D01*
X72705771Y-70630952D02*
X72705771Y-70821428D01*
X72705771Y-70821428D02*
X72753390Y-70916666D01*
X72753390Y-70916666D02*
X72801009Y-70964285D01*
X72801009Y-70964285D02*
X72896247Y-71011904D01*
X72658152Y-69583333D02*
X73324819Y-69583333D01*
X72277200Y-69821428D02*
X72991485Y-70059523D01*
X72991485Y-70059523D02*
X72991485Y-69440476D01*
X69954819Y-71964285D02*
X69954819Y-71345238D01*
X69954819Y-71345238D02*
X70335771Y-71678571D01*
X70335771Y-71678571D02*
X70335771Y-71535714D01*
X70335771Y-71535714D02*
X70383390Y-71440476D01*
X70383390Y-71440476D02*
X70431009Y-71392857D01*
X70431009Y-71392857D02*
X70526247Y-71345238D01*
X70526247Y-71345238D02*
X70764342Y-71345238D01*
X70764342Y-71345238D02*
X70859580Y-71392857D01*
X70859580Y-71392857D02*
X70907200Y-71440476D01*
X70907200Y-71440476D02*
X70954819Y-71535714D01*
X70954819Y-71535714D02*
X70954819Y-71821428D01*
X70954819Y-71821428D02*
X70907200Y-71916666D01*
X70907200Y-71916666D02*
X70859580Y-71964285D01*
X69954819Y-71011904D02*
X69954819Y-70392857D01*
X69954819Y-70392857D02*
X70335771Y-70726190D01*
X70335771Y-70726190D02*
X70335771Y-70583333D01*
X70335771Y-70583333D02*
X70383390Y-70488095D01*
X70383390Y-70488095D02*
X70431009Y-70440476D01*
X70431009Y-70440476D02*
X70526247Y-70392857D01*
X70526247Y-70392857D02*
X70764342Y-70392857D01*
X70764342Y-70392857D02*
X70859580Y-70440476D01*
X70859580Y-70440476D02*
X70907200Y-70488095D01*
X70907200Y-70488095D02*
X70954819Y-70583333D01*
X70954819Y-70583333D02*
X70954819Y-70869047D01*
X70954819Y-70869047D02*
X70907200Y-70964285D01*
X70907200Y-70964285D02*
X70859580Y-71011904D01*
X70954819Y-69964285D02*
X69954819Y-69964285D01*
X70573866Y-69869047D02*
X70954819Y-69583333D01*
X70288152Y-69583333D02*
X70669104Y-69964285D01*
X56454819Y-94595238D02*
X55978628Y-94928571D01*
X56454819Y-95166666D02*
X55454819Y-95166666D01*
X55454819Y-95166666D02*
X55454819Y-94785714D01*
X55454819Y-94785714D02*
X55502438Y-94690476D01*
X55502438Y-94690476D02*
X55550057Y-94642857D01*
X55550057Y-94642857D02*
X55645295Y-94595238D01*
X55645295Y-94595238D02*
X55788152Y-94595238D01*
X55788152Y-94595238D02*
X55883390Y-94642857D01*
X55883390Y-94642857D02*
X55931009Y-94690476D01*
X55931009Y-94690476D02*
X55978628Y-94785714D01*
X55978628Y-94785714D02*
X55978628Y-95166666D01*
X55454819Y-94309523D02*
X56454819Y-93976190D01*
X56454819Y-93976190D02*
X55454819Y-93642857D01*
X55883390Y-93166666D02*
X55835771Y-93261904D01*
X55835771Y-93261904D02*
X55788152Y-93309523D01*
X55788152Y-93309523D02*
X55692914Y-93357142D01*
X55692914Y-93357142D02*
X55645295Y-93357142D01*
X55645295Y-93357142D02*
X55550057Y-93309523D01*
X55550057Y-93309523D02*
X55502438Y-93261904D01*
X55502438Y-93261904D02*
X55454819Y-93166666D01*
X55454819Y-93166666D02*
X55454819Y-92976190D01*
X55454819Y-92976190D02*
X55502438Y-92880952D01*
X55502438Y-92880952D02*
X55550057Y-92833333D01*
X55550057Y-92833333D02*
X55645295Y-92785714D01*
X55645295Y-92785714D02*
X55692914Y-92785714D01*
X55692914Y-92785714D02*
X55788152Y-92833333D01*
X55788152Y-92833333D02*
X55835771Y-92880952D01*
X55835771Y-92880952D02*
X55883390Y-92976190D01*
X55883390Y-92976190D02*
X55883390Y-93166666D01*
X55883390Y-93166666D02*
X55931009Y-93261904D01*
X55931009Y-93261904D02*
X55978628Y-93309523D01*
X55978628Y-93309523D02*
X56073866Y-93357142D01*
X56073866Y-93357142D02*
X56264342Y-93357142D01*
X56264342Y-93357142D02*
X56359580Y-93309523D01*
X56359580Y-93309523D02*
X56407200Y-93261904D01*
X56407200Y-93261904D02*
X56454819Y-93166666D01*
X56454819Y-93166666D02*
X56454819Y-92976190D01*
X56454819Y-92976190D02*
X56407200Y-92880952D01*
X56407200Y-92880952D02*
X56359580Y-92833333D01*
X56359580Y-92833333D02*
X56264342Y-92785714D01*
X56264342Y-92785714D02*
X56073866Y-92785714D01*
X56073866Y-92785714D02*
X55978628Y-92833333D01*
X55978628Y-92833333D02*
X55931009Y-92880952D01*
X55931009Y-92880952D02*
X55883390Y-92976190D01*
X70004819Y-95071428D02*
X70004819Y-95642856D01*
X70004819Y-95357142D02*
X69004819Y-95357142D01*
X69004819Y-95357142D02*
X69147676Y-95452380D01*
X69147676Y-95452380D02*
X69242914Y-95547618D01*
X69242914Y-95547618D02*
X69290533Y-95642856D01*
X69004819Y-94452380D02*
X69004819Y-94357142D01*
X69004819Y-94357142D02*
X69052438Y-94261904D01*
X69052438Y-94261904D02*
X69100057Y-94214285D01*
X69100057Y-94214285D02*
X69195295Y-94166666D01*
X69195295Y-94166666D02*
X69385771Y-94119047D01*
X69385771Y-94119047D02*
X69623866Y-94119047D01*
X69623866Y-94119047D02*
X69814342Y-94166666D01*
X69814342Y-94166666D02*
X69909580Y-94214285D01*
X69909580Y-94214285D02*
X69957200Y-94261904D01*
X69957200Y-94261904D02*
X70004819Y-94357142D01*
X70004819Y-94357142D02*
X70004819Y-94452380D01*
X70004819Y-94452380D02*
X69957200Y-94547618D01*
X69957200Y-94547618D02*
X69909580Y-94595237D01*
X69909580Y-94595237D02*
X69814342Y-94642856D01*
X69814342Y-94642856D02*
X69623866Y-94690475D01*
X69623866Y-94690475D02*
X69385771Y-94690475D01*
X69385771Y-94690475D02*
X69195295Y-94642856D01*
X69195295Y-94642856D02*
X69100057Y-94595237D01*
X69100057Y-94595237D02*
X69052438Y-94547618D01*
X69052438Y-94547618D02*
X69004819Y-94452380D01*
X69004819Y-93499999D02*
X69004819Y-93404761D01*
X69004819Y-93404761D02*
X69052438Y-93309523D01*
X69052438Y-93309523D02*
X69100057Y-93261904D01*
X69100057Y-93261904D02*
X69195295Y-93214285D01*
X69195295Y-93214285D02*
X69385771Y-93166666D01*
X69385771Y-93166666D02*
X69623866Y-93166666D01*
X69623866Y-93166666D02*
X69814342Y-93214285D01*
X69814342Y-93214285D02*
X69909580Y-93261904D01*
X69909580Y-93261904D02*
X69957200Y-93309523D01*
X69957200Y-93309523D02*
X70004819Y-93404761D01*
X70004819Y-93404761D02*
X70004819Y-93499999D01*
X70004819Y-93499999D02*
X69957200Y-93595237D01*
X69957200Y-93595237D02*
X69909580Y-93642856D01*
X69909580Y-93642856D02*
X69814342Y-93690475D01*
X69814342Y-93690475D02*
X69623866Y-93738094D01*
X69623866Y-93738094D02*
X69385771Y-93738094D01*
X69385771Y-93738094D02*
X69195295Y-93690475D01*
X69195295Y-93690475D02*
X69100057Y-93642856D01*
X69100057Y-93642856D02*
X69052438Y-93595237D01*
X69052438Y-93595237D02*
X69004819Y-93499999D01*
X70004819Y-92738094D02*
X69004819Y-92738094D01*
X69623866Y-92642856D02*
X70004819Y-92357142D01*
X69338152Y-92357142D02*
X69719104Y-92738094D01*
X59589285Y-99259580D02*
X59535713Y-99307200D01*
X59535713Y-99307200D02*
X59386904Y-99354819D01*
X59386904Y-99354819D02*
X59291666Y-99354819D01*
X59291666Y-99354819D02*
X59154761Y-99307200D01*
X59154761Y-99307200D02*
X59071428Y-99211961D01*
X59071428Y-99211961D02*
X59035713Y-99116723D01*
X59035713Y-99116723D02*
X59011904Y-98926247D01*
X59011904Y-98926247D02*
X59029761Y-98783390D01*
X59029761Y-98783390D02*
X59101189Y-98592914D01*
X59101189Y-98592914D02*
X59160713Y-98497676D01*
X59160713Y-98497676D02*
X59267856Y-98402438D01*
X59267856Y-98402438D02*
X59416666Y-98354819D01*
X59416666Y-98354819D02*
X59511904Y-98354819D01*
X59511904Y-98354819D02*
X59648809Y-98402438D01*
X59648809Y-98402438D02*
X59690475Y-98450057D01*
X59988094Y-98354819D02*
X60196428Y-99354819D01*
X60196428Y-99354819D02*
X60654761Y-98354819D01*
X61613095Y-99069104D02*
X62089285Y-99069104D01*
X61482142Y-99354819D02*
X61940476Y-98354819D01*
X61940476Y-98354819D02*
X62148809Y-99354819D01*
X62482142Y-99354819D02*
X62565476Y-98688152D01*
X62553571Y-98783390D02*
X62607142Y-98735771D01*
X62607142Y-98735771D02*
X62708333Y-98688152D01*
X62708333Y-98688152D02*
X62851190Y-98688152D01*
X62851190Y-98688152D02*
X62940476Y-98735771D01*
X62940476Y-98735771D02*
X62976190Y-98831009D01*
X62976190Y-98831009D02*
X62910714Y-99354819D01*
X62976190Y-98831009D02*
X63035714Y-98735771D01*
X63035714Y-98735771D02*
X63136904Y-98688152D01*
X63136904Y-98688152D02*
X63279761Y-98688152D01*
X63279761Y-98688152D02*
X63369047Y-98735771D01*
X63369047Y-98735771D02*
X63404761Y-98831009D01*
X63404761Y-98831009D02*
X63339285Y-99354819D01*
X63755952Y-98688152D02*
X64136904Y-98688152D01*
X63940475Y-98354819D02*
X63833333Y-99211961D01*
X63833333Y-99211961D02*
X63869047Y-99307200D01*
X63869047Y-99307200D02*
X63958333Y-99354819D01*
X63958333Y-99354819D02*
X64053571Y-99354819D01*
X65136905Y-99069104D02*
X65613095Y-99069104D01*
X65005952Y-99354819D02*
X65464286Y-98354819D01*
X65464286Y-98354819D02*
X65672619Y-99354819D01*
X66071429Y-98450057D02*
X66125000Y-98402438D01*
X66125000Y-98402438D02*
X66226190Y-98354819D01*
X66226190Y-98354819D02*
X66464286Y-98354819D01*
X66464286Y-98354819D02*
X66553571Y-98402438D01*
X66553571Y-98402438D02*
X66595238Y-98450057D01*
X66595238Y-98450057D02*
X66630952Y-98545295D01*
X66630952Y-98545295D02*
X66619048Y-98640533D01*
X66619048Y-98640533D02*
X66553571Y-98783390D01*
X66553571Y-98783390D02*
X65910714Y-99354819D01*
X65910714Y-99354819D02*
X66529762Y-99354819D01*
X78488095Y-95009819D02*
X78488095Y-95819342D01*
X78488095Y-95819342D02*
X78535714Y-95914580D01*
X78535714Y-95914580D02*
X78583333Y-95962200D01*
X78583333Y-95962200D02*
X78678571Y-96009819D01*
X78678571Y-96009819D02*
X78869047Y-96009819D01*
X78869047Y-96009819D02*
X78964285Y-95962200D01*
X78964285Y-95962200D02*
X79011904Y-95914580D01*
X79011904Y-95914580D02*
X79059523Y-95819342D01*
X79059523Y-95819342D02*
X79059523Y-95009819D01*
X79583333Y-96009819D02*
X79773809Y-96009819D01*
X79773809Y-96009819D02*
X79869047Y-95962200D01*
X79869047Y-95962200D02*
X79916666Y-95914580D01*
X79916666Y-95914580D02*
X80011904Y-95771723D01*
X80011904Y-95771723D02*
X80059523Y-95581247D01*
X80059523Y-95581247D02*
X80059523Y-95200295D01*
X80059523Y-95200295D02*
X80011904Y-95105057D01*
X80011904Y-95105057D02*
X79964285Y-95057438D01*
X79964285Y-95057438D02*
X79869047Y-95009819D01*
X79869047Y-95009819D02*
X79678571Y-95009819D01*
X79678571Y-95009819D02*
X79583333Y-95057438D01*
X79583333Y-95057438D02*
X79535714Y-95105057D01*
X79535714Y-95105057D02*
X79488095Y-95200295D01*
X79488095Y-95200295D02*
X79488095Y-95438390D01*
X79488095Y-95438390D02*
X79535714Y-95533628D01*
X79535714Y-95533628D02*
X79583333Y-95581247D01*
X79583333Y-95581247D02*
X79678571Y-95628866D01*
X79678571Y-95628866D02*
X79869047Y-95628866D01*
X79869047Y-95628866D02*
X79964285Y-95581247D01*
X79964285Y-95581247D02*
X80011904Y-95533628D01*
X80011904Y-95533628D02*
X80059523Y-95438390D01*
X73954819Y-107689047D02*
X73954819Y-107117619D01*
X74954819Y-107403333D02*
X73954819Y-107403333D01*
X74954819Y-106308095D02*
X74954819Y-106784285D01*
X74954819Y-106784285D02*
X73954819Y-106784285D01*
X73954819Y-105784285D02*
X73954819Y-105689047D01*
X73954819Y-105689047D02*
X74002438Y-105593809D01*
X74002438Y-105593809D02*
X74050057Y-105546190D01*
X74050057Y-105546190D02*
X74145295Y-105498571D01*
X74145295Y-105498571D02*
X74335771Y-105450952D01*
X74335771Y-105450952D02*
X74573866Y-105450952D01*
X74573866Y-105450952D02*
X74764342Y-105498571D01*
X74764342Y-105498571D02*
X74859580Y-105546190D01*
X74859580Y-105546190D02*
X74907200Y-105593809D01*
X74907200Y-105593809D02*
X74954819Y-105689047D01*
X74954819Y-105689047D02*
X74954819Y-105784285D01*
X74954819Y-105784285D02*
X74907200Y-105879523D01*
X74907200Y-105879523D02*
X74859580Y-105927142D01*
X74859580Y-105927142D02*
X74764342Y-105974761D01*
X74764342Y-105974761D02*
X74573866Y-106022380D01*
X74573866Y-106022380D02*
X74335771Y-106022380D01*
X74335771Y-106022380D02*
X74145295Y-105974761D01*
X74145295Y-105974761D02*
X74050057Y-105927142D01*
X74050057Y-105927142D02*
X74002438Y-105879523D01*
X74002438Y-105879523D02*
X73954819Y-105784285D01*
X73954819Y-105117618D02*
X73954819Y-104450952D01*
X73954819Y-104450952D02*
X74954819Y-104879523D01*
X74288152Y-103641428D02*
X74954819Y-103641428D01*
X73907200Y-103879523D02*
X74621485Y-104117618D01*
X74621485Y-104117618D02*
X74621485Y-103498571D01*
X56454819Y-158071428D02*
X55978628Y-158404761D01*
X56454819Y-158642856D02*
X55454819Y-158642856D01*
X55454819Y-158642856D02*
X55454819Y-158261904D01*
X55454819Y-158261904D02*
X55502438Y-158166666D01*
X55502438Y-158166666D02*
X55550057Y-158119047D01*
X55550057Y-158119047D02*
X55645295Y-158071428D01*
X55645295Y-158071428D02*
X55788152Y-158071428D01*
X55788152Y-158071428D02*
X55883390Y-158119047D01*
X55883390Y-158119047D02*
X55931009Y-158166666D01*
X55931009Y-158166666D02*
X55978628Y-158261904D01*
X55978628Y-158261904D02*
X55978628Y-158642856D01*
X55454819Y-157785713D02*
X56454819Y-157452380D01*
X56454819Y-157452380D02*
X55454819Y-157119047D01*
X56454819Y-156261904D02*
X56454819Y-156833332D01*
X56454819Y-156547618D02*
X55454819Y-156547618D01*
X55454819Y-156547618D02*
X55597676Y-156642856D01*
X55597676Y-156642856D02*
X55692914Y-156738094D01*
X55692914Y-156738094D02*
X55740533Y-156833332D01*
X55454819Y-155928570D02*
X55454819Y-155309523D01*
X55454819Y-155309523D02*
X55835771Y-155642856D01*
X55835771Y-155642856D02*
X55835771Y-155499999D01*
X55835771Y-155499999D02*
X55883390Y-155404761D01*
X55883390Y-155404761D02*
X55931009Y-155357142D01*
X55931009Y-155357142D02*
X56026247Y-155309523D01*
X56026247Y-155309523D02*
X56264342Y-155309523D01*
X56264342Y-155309523D02*
X56359580Y-155357142D01*
X56359580Y-155357142D02*
X56407200Y-155404761D01*
X56407200Y-155404761D02*
X56454819Y-155499999D01*
X56454819Y-155499999D02*
X56454819Y-155785713D01*
X56454819Y-155785713D02*
X56407200Y-155880951D01*
X56407200Y-155880951D02*
X56359580Y-155928570D01*
X70004819Y-158071428D02*
X70004819Y-158642856D01*
X70004819Y-158357142D02*
X69004819Y-158357142D01*
X69004819Y-158357142D02*
X69147676Y-158452380D01*
X69147676Y-158452380D02*
X69242914Y-158547618D01*
X69242914Y-158547618D02*
X69290533Y-158642856D01*
X69004819Y-157452380D02*
X69004819Y-157357142D01*
X69004819Y-157357142D02*
X69052438Y-157261904D01*
X69052438Y-157261904D02*
X69100057Y-157214285D01*
X69100057Y-157214285D02*
X69195295Y-157166666D01*
X69195295Y-157166666D02*
X69385771Y-157119047D01*
X69385771Y-157119047D02*
X69623866Y-157119047D01*
X69623866Y-157119047D02*
X69814342Y-157166666D01*
X69814342Y-157166666D02*
X69909580Y-157214285D01*
X69909580Y-157214285D02*
X69957200Y-157261904D01*
X69957200Y-157261904D02*
X70004819Y-157357142D01*
X70004819Y-157357142D02*
X70004819Y-157452380D01*
X70004819Y-157452380D02*
X69957200Y-157547618D01*
X69957200Y-157547618D02*
X69909580Y-157595237D01*
X69909580Y-157595237D02*
X69814342Y-157642856D01*
X69814342Y-157642856D02*
X69623866Y-157690475D01*
X69623866Y-157690475D02*
X69385771Y-157690475D01*
X69385771Y-157690475D02*
X69195295Y-157642856D01*
X69195295Y-157642856D02*
X69100057Y-157595237D01*
X69100057Y-157595237D02*
X69052438Y-157547618D01*
X69052438Y-157547618D02*
X69004819Y-157452380D01*
X69004819Y-156499999D02*
X69004819Y-156404761D01*
X69004819Y-156404761D02*
X69052438Y-156309523D01*
X69052438Y-156309523D02*
X69100057Y-156261904D01*
X69100057Y-156261904D02*
X69195295Y-156214285D01*
X69195295Y-156214285D02*
X69385771Y-156166666D01*
X69385771Y-156166666D02*
X69623866Y-156166666D01*
X69623866Y-156166666D02*
X69814342Y-156214285D01*
X69814342Y-156214285D02*
X69909580Y-156261904D01*
X69909580Y-156261904D02*
X69957200Y-156309523D01*
X69957200Y-156309523D02*
X70004819Y-156404761D01*
X70004819Y-156404761D02*
X70004819Y-156499999D01*
X70004819Y-156499999D02*
X69957200Y-156595237D01*
X69957200Y-156595237D02*
X69909580Y-156642856D01*
X69909580Y-156642856D02*
X69814342Y-156690475D01*
X69814342Y-156690475D02*
X69623866Y-156738094D01*
X69623866Y-156738094D02*
X69385771Y-156738094D01*
X69385771Y-156738094D02*
X69195295Y-156690475D01*
X69195295Y-156690475D02*
X69100057Y-156642856D01*
X69100057Y-156642856D02*
X69052438Y-156595237D01*
X69052438Y-156595237D02*
X69004819Y-156499999D01*
X70004819Y-155738094D02*
X69004819Y-155738094D01*
X69623866Y-155642856D02*
X70004819Y-155357142D01*
X69338152Y-155357142D02*
X69719104Y-155738094D01*
X59517857Y-162259580D02*
X59464285Y-162307200D01*
X59464285Y-162307200D02*
X59315476Y-162354819D01*
X59315476Y-162354819D02*
X59220238Y-162354819D01*
X59220238Y-162354819D02*
X59083333Y-162307200D01*
X59083333Y-162307200D02*
X59000000Y-162211961D01*
X59000000Y-162211961D02*
X58964285Y-162116723D01*
X58964285Y-162116723D02*
X58940476Y-161926247D01*
X58940476Y-161926247D02*
X58958333Y-161783390D01*
X58958333Y-161783390D02*
X59029761Y-161592914D01*
X59029761Y-161592914D02*
X59089285Y-161497676D01*
X59089285Y-161497676D02*
X59196428Y-161402438D01*
X59196428Y-161402438D02*
X59345238Y-161354819D01*
X59345238Y-161354819D02*
X59440476Y-161354819D01*
X59440476Y-161354819D02*
X59577381Y-161402438D01*
X59577381Y-161402438D02*
X59619047Y-161450057D01*
X59916666Y-161354819D02*
X60125000Y-162354819D01*
X60125000Y-162354819D02*
X60583333Y-161354819D01*
X61541667Y-162069104D02*
X62017857Y-162069104D01*
X61410714Y-162354819D02*
X61869048Y-161354819D01*
X61869048Y-161354819D02*
X62077381Y-162354819D01*
X62410714Y-162354819D02*
X62494048Y-161688152D01*
X62482143Y-161783390D02*
X62535714Y-161735771D01*
X62535714Y-161735771D02*
X62636905Y-161688152D01*
X62636905Y-161688152D02*
X62779762Y-161688152D01*
X62779762Y-161688152D02*
X62869048Y-161735771D01*
X62869048Y-161735771D02*
X62904762Y-161831009D01*
X62904762Y-161831009D02*
X62839286Y-162354819D01*
X62904762Y-161831009D02*
X62964286Y-161735771D01*
X62964286Y-161735771D02*
X63065476Y-161688152D01*
X63065476Y-161688152D02*
X63208333Y-161688152D01*
X63208333Y-161688152D02*
X63297619Y-161735771D01*
X63297619Y-161735771D02*
X63333333Y-161831009D01*
X63333333Y-161831009D02*
X63267857Y-162354819D01*
X63684524Y-161688152D02*
X64065476Y-161688152D01*
X63869047Y-161354819D02*
X63761905Y-162211961D01*
X63761905Y-162211961D02*
X63797619Y-162307200D01*
X63797619Y-162307200D02*
X63886905Y-162354819D01*
X63886905Y-162354819D02*
X63982143Y-162354819D01*
X65476191Y-161831009D02*
X65613096Y-161878628D01*
X65613096Y-161878628D02*
X65654762Y-161926247D01*
X65654762Y-161926247D02*
X65690477Y-162021485D01*
X65690477Y-162021485D02*
X65672619Y-162164342D01*
X65672619Y-162164342D02*
X65613096Y-162259580D01*
X65613096Y-162259580D02*
X65559524Y-162307200D01*
X65559524Y-162307200D02*
X65458334Y-162354819D01*
X65458334Y-162354819D02*
X65077381Y-162354819D01*
X65077381Y-162354819D02*
X65202381Y-161354819D01*
X65202381Y-161354819D02*
X65535715Y-161354819D01*
X65535715Y-161354819D02*
X65625000Y-161402438D01*
X65625000Y-161402438D02*
X65666667Y-161450057D01*
X65666667Y-161450057D02*
X65702381Y-161545295D01*
X65702381Y-161545295D02*
X65690477Y-161640533D01*
X65690477Y-161640533D02*
X65630953Y-161735771D01*
X65630953Y-161735771D02*
X65577381Y-161783390D01*
X65577381Y-161783390D02*
X65476191Y-161831009D01*
X65476191Y-161831009D02*
X65142858Y-161831009D01*
X66142858Y-161450057D02*
X66196429Y-161402438D01*
X66196429Y-161402438D02*
X66297619Y-161354819D01*
X66297619Y-161354819D02*
X66535715Y-161354819D01*
X66535715Y-161354819D02*
X66625000Y-161402438D01*
X66625000Y-161402438D02*
X66666667Y-161450057D01*
X66666667Y-161450057D02*
X66702381Y-161545295D01*
X66702381Y-161545295D02*
X66690477Y-161640533D01*
X66690477Y-161640533D02*
X66625000Y-161783390D01*
X66625000Y-161783390D02*
X65982143Y-162354819D01*
X65982143Y-162354819D02*
X66601191Y-162354819D01*
X84744819Y-89738094D02*
X83744819Y-89738094D01*
X83744819Y-89738094D02*
X83744819Y-89499999D01*
X83744819Y-89499999D02*
X83792438Y-89357142D01*
X83792438Y-89357142D02*
X83887676Y-89261904D01*
X83887676Y-89261904D02*
X83982914Y-89214285D01*
X83982914Y-89214285D02*
X84173390Y-89166666D01*
X84173390Y-89166666D02*
X84316247Y-89166666D01*
X84316247Y-89166666D02*
X84506723Y-89214285D01*
X84506723Y-89214285D02*
X84601961Y-89261904D01*
X84601961Y-89261904D02*
X84697200Y-89357142D01*
X84697200Y-89357142D02*
X84744819Y-89499999D01*
X84744819Y-89499999D02*
X84744819Y-89738094D01*
X83744819Y-88261904D02*
X83744819Y-88738094D01*
X83744819Y-88738094D02*
X84221009Y-88785713D01*
X84221009Y-88785713D02*
X84173390Y-88738094D01*
X84173390Y-88738094D02*
X84125771Y-88642856D01*
X84125771Y-88642856D02*
X84125771Y-88404761D01*
X84125771Y-88404761D02*
X84173390Y-88309523D01*
X84173390Y-88309523D02*
X84221009Y-88261904D01*
X84221009Y-88261904D02*
X84316247Y-88214285D01*
X84316247Y-88214285D02*
X84554342Y-88214285D01*
X84554342Y-88214285D02*
X84649580Y-88261904D01*
X84649580Y-88261904D02*
X84697200Y-88309523D01*
X84697200Y-88309523D02*
X84744819Y-88404761D01*
X84744819Y-88404761D02*
X84744819Y-88642856D01*
X84744819Y-88642856D02*
X84697200Y-88738094D01*
X84697200Y-88738094D02*
X84649580Y-88785713D01*
X90664819Y-90523809D02*
X90664819Y-90999999D01*
X90664819Y-90999999D02*
X89664819Y-90999999D01*
X90141009Y-90190475D02*
X90141009Y-89857142D01*
X90664819Y-89714285D02*
X90664819Y-90190475D01*
X90664819Y-90190475D02*
X89664819Y-90190475D01*
X89664819Y-90190475D02*
X89664819Y-89714285D01*
X90664819Y-89285713D02*
X89664819Y-89285713D01*
X89664819Y-89285713D02*
X89664819Y-89047618D01*
X89664819Y-89047618D02*
X89712438Y-88904761D01*
X89712438Y-88904761D02*
X89807676Y-88809523D01*
X89807676Y-88809523D02*
X89902914Y-88761904D01*
X89902914Y-88761904D02*
X90093390Y-88714285D01*
X90093390Y-88714285D02*
X90236247Y-88714285D01*
X90236247Y-88714285D02*
X90426723Y-88761904D01*
X90426723Y-88761904D02*
X90521961Y-88809523D01*
X90521961Y-88809523D02*
X90617200Y-88904761D01*
X90617200Y-88904761D02*
X90664819Y-89047618D01*
X90664819Y-89047618D02*
X90664819Y-89285713D01*
X90760057Y-88523809D02*
X90760057Y-87761904D01*
X90664819Y-86952380D02*
X90188628Y-87285713D01*
X90664819Y-87523808D02*
X89664819Y-87523808D01*
X89664819Y-87523808D02*
X89664819Y-87142856D01*
X89664819Y-87142856D02*
X89712438Y-87047618D01*
X89712438Y-87047618D02*
X89760057Y-86999999D01*
X89760057Y-86999999D02*
X89855295Y-86952380D01*
X89855295Y-86952380D02*
X89998152Y-86952380D01*
X89998152Y-86952380D02*
X90093390Y-86999999D01*
X90093390Y-86999999D02*
X90141009Y-87047618D01*
X90141009Y-87047618D02*
X90188628Y-87142856D01*
X90188628Y-87142856D02*
X90188628Y-87523808D01*
X56454819Y-64595238D02*
X55978628Y-64928571D01*
X56454819Y-65166666D02*
X55454819Y-65166666D01*
X55454819Y-65166666D02*
X55454819Y-64785714D01*
X55454819Y-64785714D02*
X55502438Y-64690476D01*
X55502438Y-64690476D02*
X55550057Y-64642857D01*
X55550057Y-64642857D02*
X55645295Y-64595238D01*
X55645295Y-64595238D02*
X55788152Y-64595238D01*
X55788152Y-64595238D02*
X55883390Y-64642857D01*
X55883390Y-64642857D02*
X55931009Y-64690476D01*
X55931009Y-64690476D02*
X55978628Y-64785714D01*
X55978628Y-64785714D02*
X55978628Y-65166666D01*
X55454819Y-64309523D02*
X56454819Y-63976190D01*
X56454819Y-63976190D02*
X55454819Y-63642857D01*
X55454819Y-63404761D02*
X55454819Y-62738095D01*
X55454819Y-62738095D02*
X56454819Y-63166666D01*
X70004819Y-65071428D02*
X70004819Y-65642856D01*
X70004819Y-65357142D02*
X69004819Y-65357142D01*
X69004819Y-65357142D02*
X69147676Y-65452380D01*
X69147676Y-65452380D02*
X69242914Y-65547618D01*
X69242914Y-65547618D02*
X69290533Y-65642856D01*
X69004819Y-64452380D02*
X69004819Y-64357142D01*
X69004819Y-64357142D02*
X69052438Y-64261904D01*
X69052438Y-64261904D02*
X69100057Y-64214285D01*
X69100057Y-64214285D02*
X69195295Y-64166666D01*
X69195295Y-64166666D02*
X69385771Y-64119047D01*
X69385771Y-64119047D02*
X69623866Y-64119047D01*
X69623866Y-64119047D02*
X69814342Y-64166666D01*
X69814342Y-64166666D02*
X69909580Y-64214285D01*
X69909580Y-64214285D02*
X69957200Y-64261904D01*
X69957200Y-64261904D02*
X70004819Y-64357142D01*
X70004819Y-64357142D02*
X70004819Y-64452380D01*
X70004819Y-64452380D02*
X69957200Y-64547618D01*
X69957200Y-64547618D02*
X69909580Y-64595237D01*
X69909580Y-64595237D02*
X69814342Y-64642856D01*
X69814342Y-64642856D02*
X69623866Y-64690475D01*
X69623866Y-64690475D02*
X69385771Y-64690475D01*
X69385771Y-64690475D02*
X69195295Y-64642856D01*
X69195295Y-64642856D02*
X69100057Y-64595237D01*
X69100057Y-64595237D02*
X69052438Y-64547618D01*
X69052438Y-64547618D02*
X69004819Y-64452380D01*
X69004819Y-63499999D02*
X69004819Y-63404761D01*
X69004819Y-63404761D02*
X69052438Y-63309523D01*
X69052438Y-63309523D02*
X69100057Y-63261904D01*
X69100057Y-63261904D02*
X69195295Y-63214285D01*
X69195295Y-63214285D02*
X69385771Y-63166666D01*
X69385771Y-63166666D02*
X69623866Y-63166666D01*
X69623866Y-63166666D02*
X69814342Y-63214285D01*
X69814342Y-63214285D02*
X69909580Y-63261904D01*
X69909580Y-63261904D02*
X69957200Y-63309523D01*
X69957200Y-63309523D02*
X70004819Y-63404761D01*
X70004819Y-63404761D02*
X70004819Y-63499999D01*
X70004819Y-63499999D02*
X69957200Y-63595237D01*
X69957200Y-63595237D02*
X69909580Y-63642856D01*
X69909580Y-63642856D02*
X69814342Y-63690475D01*
X69814342Y-63690475D02*
X69623866Y-63738094D01*
X69623866Y-63738094D02*
X69385771Y-63738094D01*
X69385771Y-63738094D02*
X69195295Y-63690475D01*
X69195295Y-63690475D02*
X69100057Y-63642856D01*
X69100057Y-63642856D02*
X69052438Y-63595237D01*
X69052438Y-63595237D02*
X69004819Y-63499999D01*
X70004819Y-62738094D02*
X69004819Y-62738094D01*
X69623866Y-62642856D02*
X70004819Y-62357142D01*
X69338152Y-62357142D02*
X69719104Y-62738094D01*
X59589285Y-69259580D02*
X59535713Y-69307200D01*
X59535713Y-69307200D02*
X59386904Y-69354819D01*
X59386904Y-69354819D02*
X59291666Y-69354819D01*
X59291666Y-69354819D02*
X59154761Y-69307200D01*
X59154761Y-69307200D02*
X59071428Y-69211961D01*
X59071428Y-69211961D02*
X59035713Y-69116723D01*
X59035713Y-69116723D02*
X59011904Y-68926247D01*
X59011904Y-68926247D02*
X59029761Y-68783390D01*
X59029761Y-68783390D02*
X59101189Y-68592914D01*
X59101189Y-68592914D02*
X59160713Y-68497676D01*
X59160713Y-68497676D02*
X59267856Y-68402438D01*
X59267856Y-68402438D02*
X59416666Y-68354819D01*
X59416666Y-68354819D02*
X59511904Y-68354819D01*
X59511904Y-68354819D02*
X59648809Y-68402438D01*
X59648809Y-68402438D02*
X59690475Y-68450057D01*
X59988094Y-68354819D02*
X60196428Y-69354819D01*
X60196428Y-69354819D02*
X60654761Y-68354819D01*
X61613095Y-69069104D02*
X62089285Y-69069104D01*
X61482142Y-69354819D02*
X61940476Y-68354819D01*
X61940476Y-68354819D02*
X62148809Y-69354819D01*
X62482142Y-69354819D02*
X62565476Y-68688152D01*
X62553571Y-68783390D02*
X62607142Y-68735771D01*
X62607142Y-68735771D02*
X62708333Y-68688152D01*
X62708333Y-68688152D02*
X62851190Y-68688152D01*
X62851190Y-68688152D02*
X62940476Y-68735771D01*
X62940476Y-68735771D02*
X62976190Y-68831009D01*
X62976190Y-68831009D02*
X62910714Y-69354819D01*
X62976190Y-68831009D02*
X63035714Y-68735771D01*
X63035714Y-68735771D02*
X63136904Y-68688152D01*
X63136904Y-68688152D02*
X63279761Y-68688152D01*
X63279761Y-68688152D02*
X63369047Y-68735771D01*
X63369047Y-68735771D02*
X63404761Y-68831009D01*
X63404761Y-68831009D02*
X63339285Y-69354819D01*
X63755952Y-68688152D02*
X64136904Y-68688152D01*
X63940475Y-68354819D02*
X63833333Y-69211961D01*
X63833333Y-69211961D02*
X63869047Y-69307200D01*
X63869047Y-69307200D02*
X63958333Y-69354819D01*
X63958333Y-69354819D02*
X64053571Y-69354819D01*
X65136905Y-69069104D02*
X65613095Y-69069104D01*
X65005952Y-69354819D02*
X65464286Y-68354819D01*
X65464286Y-68354819D02*
X65672619Y-69354819D01*
X66529762Y-69354819D02*
X65958333Y-69354819D01*
X66244048Y-69354819D02*
X66369048Y-68354819D01*
X66369048Y-68354819D02*
X66255952Y-68497676D01*
X66255952Y-68497676D02*
X66148810Y-68592914D01*
X66148810Y-68592914D02*
X66047619Y-68640533D01*
X63704819Y-103571428D02*
X63228628Y-103904761D01*
X63704819Y-104142856D02*
X62704819Y-104142856D01*
X62704819Y-104142856D02*
X62704819Y-103761904D01*
X62704819Y-103761904D02*
X62752438Y-103666666D01*
X62752438Y-103666666D02*
X62800057Y-103619047D01*
X62800057Y-103619047D02*
X62895295Y-103571428D01*
X62895295Y-103571428D02*
X63038152Y-103571428D01*
X63038152Y-103571428D02*
X63133390Y-103619047D01*
X63133390Y-103619047D02*
X63181009Y-103666666D01*
X63181009Y-103666666D02*
X63228628Y-103761904D01*
X63228628Y-103761904D02*
X63228628Y-104142856D01*
X62704819Y-103285713D02*
X63704819Y-102952380D01*
X63704819Y-102952380D02*
X62704819Y-102619047D01*
X63704819Y-101761904D02*
X63704819Y-102333332D01*
X63704819Y-102047618D02*
X62704819Y-102047618D01*
X62704819Y-102047618D02*
X62847676Y-102142856D01*
X62847676Y-102142856D02*
X62942914Y-102238094D01*
X62942914Y-102238094D02*
X62990533Y-102333332D01*
X62704819Y-101142856D02*
X62704819Y-101047618D01*
X62704819Y-101047618D02*
X62752438Y-100952380D01*
X62752438Y-100952380D02*
X62800057Y-100904761D01*
X62800057Y-100904761D02*
X62895295Y-100857142D01*
X62895295Y-100857142D02*
X63085771Y-100809523D01*
X63085771Y-100809523D02*
X63323866Y-100809523D01*
X63323866Y-100809523D02*
X63514342Y-100857142D01*
X63514342Y-100857142D02*
X63609580Y-100904761D01*
X63609580Y-100904761D02*
X63657200Y-100952380D01*
X63657200Y-100952380D02*
X63704819Y-101047618D01*
X63704819Y-101047618D02*
X63704819Y-101142856D01*
X63704819Y-101142856D02*
X63657200Y-101238094D01*
X63657200Y-101238094D02*
X63609580Y-101285713D01*
X63609580Y-101285713D02*
X63514342Y-101333332D01*
X63514342Y-101333332D02*
X63323866Y-101380951D01*
X63323866Y-101380951D02*
X63085771Y-101380951D01*
X63085771Y-101380951D02*
X62895295Y-101333332D01*
X62895295Y-101333332D02*
X62800057Y-101285713D01*
X62800057Y-101285713D02*
X62752438Y-101238094D01*
X62752438Y-101238094D02*
X62704819Y-101142856D01*
X56802142Y-103569819D02*
X56325952Y-103569819D01*
X56325952Y-103569819D02*
X56278333Y-104046009D01*
X56278333Y-104046009D02*
X56325952Y-103998390D01*
X56325952Y-103998390D02*
X56421190Y-103950771D01*
X56421190Y-103950771D02*
X56659285Y-103950771D01*
X56659285Y-103950771D02*
X56754523Y-103998390D01*
X56754523Y-103998390D02*
X56802142Y-104046009D01*
X56802142Y-104046009D02*
X56849761Y-104141247D01*
X56849761Y-104141247D02*
X56849761Y-104379342D01*
X56849761Y-104379342D02*
X56802142Y-104474580D01*
X56802142Y-104474580D02*
X56754523Y-104522200D01*
X56754523Y-104522200D02*
X56659285Y-104569819D01*
X56659285Y-104569819D02*
X56421190Y-104569819D01*
X56421190Y-104569819D02*
X56325952Y-104522200D01*
X56325952Y-104522200D02*
X56278333Y-104474580D01*
X57468809Y-103569819D02*
X57564047Y-103569819D01*
X57564047Y-103569819D02*
X57659285Y-103617438D01*
X57659285Y-103617438D02*
X57706904Y-103665057D01*
X57706904Y-103665057D02*
X57754523Y-103760295D01*
X57754523Y-103760295D02*
X57802142Y-103950771D01*
X57802142Y-103950771D02*
X57802142Y-104188866D01*
X57802142Y-104188866D02*
X57754523Y-104379342D01*
X57754523Y-104379342D02*
X57706904Y-104474580D01*
X57706904Y-104474580D02*
X57659285Y-104522200D01*
X57659285Y-104522200D02*
X57564047Y-104569819D01*
X57564047Y-104569819D02*
X57468809Y-104569819D01*
X57468809Y-104569819D02*
X57373571Y-104522200D01*
X57373571Y-104522200D02*
X57325952Y-104474580D01*
X57325952Y-104474580D02*
X57278333Y-104379342D01*
X57278333Y-104379342D02*
X57230714Y-104188866D01*
X57230714Y-104188866D02*
X57230714Y-103950771D01*
X57230714Y-103950771D02*
X57278333Y-103760295D01*
X57278333Y-103760295D02*
X57325952Y-103665057D01*
X57325952Y-103665057D02*
X57373571Y-103617438D01*
X57373571Y-103617438D02*
X57468809Y-103569819D01*
X58230714Y-104569819D02*
X58230714Y-103569819D01*
X58325952Y-104188866D02*
X58611666Y-104569819D01*
X58611666Y-103903152D02*
X58230714Y-104284104D01*
X93204819Y-142892857D02*
X92728628Y-143226190D01*
X93204819Y-143464285D02*
X92204819Y-143464285D01*
X92204819Y-143464285D02*
X92204819Y-143083333D01*
X92204819Y-143083333D02*
X92252438Y-142988095D01*
X92252438Y-142988095D02*
X92300057Y-142940476D01*
X92300057Y-142940476D02*
X92395295Y-142892857D01*
X92395295Y-142892857D02*
X92538152Y-142892857D01*
X92538152Y-142892857D02*
X92633390Y-142940476D01*
X92633390Y-142940476D02*
X92681009Y-142988095D01*
X92681009Y-142988095D02*
X92728628Y-143083333D01*
X92728628Y-143083333D02*
X92728628Y-143464285D01*
X92204819Y-142559523D02*
X92204819Y-141892857D01*
X92204819Y-141892857D02*
X93204819Y-142321428D01*
X92204819Y-141607142D02*
X92204819Y-140988095D01*
X92204819Y-140988095D02*
X92585771Y-141321428D01*
X92585771Y-141321428D02*
X92585771Y-141178571D01*
X92585771Y-141178571D02*
X92633390Y-141083333D01*
X92633390Y-141083333D02*
X92681009Y-141035714D01*
X92681009Y-141035714D02*
X92776247Y-140988095D01*
X92776247Y-140988095D02*
X93014342Y-140988095D01*
X93014342Y-140988095D02*
X93109580Y-141035714D01*
X93109580Y-141035714D02*
X93157200Y-141083333D01*
X93157200Y-141083333D02*
X93204819Y-141178571D01*
X93204819Y-141178571D02*
X93204819Y-141464285D01*
X93204819Y-141464285D02*
X93157200Y-141559523D01*
X93157200Y-141559523D02*
X93109580Y-141607142D01*
X86178571Y-142704819D02*
X85607143Y-142704819D01*
X85892857Y-142704819D02*
X85892857Y-141704819D01*
X85892857Y-141704819D02*
X85797619Y-141847676D01*
X85797619Y-141847676D02*
X85702381Y-141942914D01*
X85702381Y-141942914D02*
X85607143Y-141990533D01*
X86797619Y-141704819D02*
X86892857Y-141704819D01*
X86892857Y-141704819D02*
X86988095Y-141752438D01*
X86988095Y-141752438D02*
X87035714Y-141800057D01*
X87035714Y-141800057D02*
X87083333Y-141895295D01*
X87083333Y-141895295D02*
X87130952Y-142085771D01*
X87130952Y-142085771D02*
X87130952Y-142323866D01*
X87130952Y-142323866D02*
X87083333Y-142514342D01*
X87083333Y-142514342D02*
X87035714Y-142609580D01*
X87035714Y-142609580D02*
X86988095Y-142657200D01*
X86988095Y-142657200D02*
X86892857Y-142704819D01*
X86892857Y-142704819D02*
X86797619Y-142704819D01*
X86797619Y-142704819D02*
X86702381Y-142657200D01*
X86702381Y-142657200D02*
X86654762Y-142609580D01*
X86654762Y-142609580D02*
X86607143Y-142514342D01*
X86607143Y-142514342D02*
X86559524Y-142323866D01*
X86559524Y-142323866D02*
X86559524Y-142085771D01*
X86559524Y-142085771D02*
X86607143Y-141895295D01*
X86607143Y-141895295D02*
X86654762Y-141800057D01*
X86654762Y-141800057D02*
X86702381Y-141752438D01*
X86702381Y-141752438D02*
X86797619Y-141704819D01*
X87750000Y-141704819D02*
X87845238Y-141704819D01*
X87845238Y-141704819D02*
X87940476Y-141752438D01*
X87940476Y-141752438D02*
X87988095Y-141800057D01*
X87988095Y-141800057D02*
X88035714Y-141895295D01*
X88035714Y-141895295D02*
X88083333Y-142085771D01*
X88083333Y-142085771D02*
X88083333Y-142323866D01*
X88083333Y-142323866D02*
X88035714Y-142514342D01*
X88035714Y-142514342D02*
X87988095Y-142609580D01*
X87988095Y-142609580D02*
X87940476Y-142657200D01*
X87940476Y-142657200D02*
X87845238Y-142704819D01*
X87845238Y-142704819D02*
X87750000Y-142704819D01*
X87750000Y-142704819D02*
X87654762Y-142657200D01*
X87654762Y-142657200D02*
X87607143Y-142609580D01*
X87607143Y-142609580D02*
X87559524Y-142514342D01*
X87559524Y-142514342D02*
X87511905Y-142323866D01*
X87511905Y-142323866D02*
X87511905Y-142085771D01*
X87511905Y-142085771D02*
X87559524Y-141895295D01*
X87559524Y-141895295D02*
X87607143Y-141800057D01*
X87607143Y-141800057D02*
X87654762Y-141752438D01*
X87654762Y-141752438D02*
X87750000Y-141704819D01*
X88511905Y-142704819D02*
X88511905Y-141704819D01*
X88607143Y-142323866D02*
X88892857Y-142704819D01*
X88892857Y-142038152D02*
X88511905Y-142419104D01*
X82454819Y-112095238D02*
X81978628Y-112428571D01*
X82454819Y-112666666D02*
X81454819Y-112666666D01*
X81454819Y-112666666D02*
X81454819Y-112285714D01*
X81454819Y-112285714D02*
X81502438Y-112190476D01*
X81502438Y-112190476D02*
X81550057Y-112142857D01*
X81550057Y-112142857D02*
X81645295Y-112095238D01*
X81645295Y-112095238D02*
X81788152Y-112095238D01*
X81788152Y-112095238D02*
X81883390Y-112142857D01*
X81883390Y-112142857D02*
X81931009Y-112190476D01*
X81931009Y-112190476D02*
X81978628Y-112285714D01*
X81978628Y-112285714D02*
X81978628Y-112666666D01*
X81454819Y-111809523D02*
X82454819Y-111476190D01*
X82454819Y-111476190D02*
X81454819Y-111142857D01*
X81454819Y-110380952D02*
X81454819Y-110571428D01*
X81454819Y-110571428D02*
X81502438Y-110666666D01*
X81502438Y-110666666D02*
X81550057Y-110714285D01*
X81550057Y-110714285D02*
X81692914Y-110809523D01*
X81692914Y-110809523D02*
X81883390Y-110857142D01*
X81883390Y-110857142D02*
X82264342Y-110857142D01*
X82264342Y-110857142D02*
X82359580Y-110809523D01*
X82359580Y-110809523D02*
X82407200Y-110761904D01*
X82407200Y-110761904D02*
X82454819Y-110666666D01*
X82454819Y-110666666D02*
X82454819Y-110476190D01*
X82454819Y-110476190D02*
X82407200Y-110380952D01*
X82407200Y-110380952D02*
X82359580Y-110333333D01*
X82359580Y-110333333D02*
X82264342Y-110285714D01*
X82264342Y-110285714D02*
X82026247Y-110285714D01*
X82026247Y-110285714D02*
X81931009Y-110333333D01*
X81931009Y-110333333D02*
X81883390Y-110380952D01*
X81883390Y-110380952D02*
X81835771Y-110476190D01*
X81835771Y-110476190D02*
X81835771Y-110666666D01*
X81835771Y-110666666D02*
X81883390Y-110761904D01*
X81883390Y-110761904D02*
X81931009Y-110809523D01*
X81931009Y-110809523D02*
X82026247Y-110857142D01*
X92204819Y-112142857D02*
X92204819Y-112619047D01*
X92204819Y-112619047D02*
X92681009Y-112666666D01*
X92681009Y-112666666D02*
X92633390Y-112619047D01*
X92633390Y-112619047D02*
X92585771Y-112523809D01*
X92585771Y-112523809D02*
X92585771Y-112285714D01*
X92585771Y-112285714D02*
X92633390Y-112190476D01*
X92633390Y-112190476D02*
X92681009Y-112142857D01*
X92681009Y-112142857D02*
X92776247Y-112095238D01*
X92776247Y-112095238D02*
X93014342Y-112095238D01*
X93014342Y-112095238D02*
X93109580Y-112142857D01*
X93109580Y-112142857D02*
X93157200Y-112190476D01*
X93157200Y-112190476D02*
X93204819Y-112285714D01*
X93204819Y-112285714D02*
X93204819Y-112523809D01*
X93204819Y-112523809D02*
X93157200Y-112619047D01*
X93157200Y-112619047D02*
X93109580Y-112666666D01*
X92204819Y-111476190D02*
X92204819Y-111380952D01*
X92204819Y-111380952D02*
X92252438Y-111285714D01*
X92252438Y-111285714D02*
X92300057Y-111238095D01*
X92300057Y-111238095D02*
X92395295Y-111190476D01*
X92395295Y-111190476D02*
X92585771Y-111142857D01*
X92585771Y-111142857D02*
X92823866Y-111142857D01*
X92823866Y-111142857D02*
X93014342Y-111190476D01*
X93014342Y-111190476D02*
X93109580Y-111238095D01*
X93109580Y-111238095D02*
X93157200Y-111285714D01*
X93157200Y-111285714D02*
X93204819Y-111380952D01*
X93204819Y-111380952D02*
X93204819Y-111476190D01*
X93204819Y-111476190D02*
X93157200Y-111571428D01*
X93157200Y-111571428D02*
X93109580Y-111619047D01*
X93109580Y-111619047D02*
X93014342Y-111666666D01*
X93014342Y-111666666D02*
X92823866Y-111714285D01*
X92823866Y-111714285D02*
X92585771Y-111714285D01*
X92585771Y-111714285D02*
X92395295Y-111666666D01*
X92395295Y-111666666D02*
X92300057Y-111619047D01*
X92300057Y-111619047D02*
X92252438Y-111571428D01*
X92252438Y-111571428D02*
X92204819Y-111476190D01*
X93204819Y-110714285D02*
X92204819Y-110714285D01*
X92823866Y-110619047D02*
X93204819Y-110333333D01*
X92538152Y-110333333D02*
X92919104Y-110714285D01*
X84321428Y-97704819D02*
X84321428Y-96704819D01*
X84321428Y-96704819D02*
X84702380Y-96704819D01*
X84702380Y-96704819D02*
X84797618Y-96752438D01*
X84797618Y-96752438D02*
X84845237Y-96800057D01*
X84845237Y-96800057D02*
X84892856Y-96895295D01*
X84892856Y-96895295D02*
X84892856Y-97038152D01*
X84892856Y-97038152D02*
X84845237Y-97133390D01*
X84845237Y-97133390D02*
X84797618Y-97181009D01*
X84797618Y-97181009D02*
X84702380Y-97228628D01*
X84702380Y-97228628D02*
X84321428Y-97228628D01*
X85749999Y-97704819D02*
X85749999Y-97181009D01*
X85749999Y-97181009D02*
X85702380Y-97085771D01*
X85702380Y-97085771D02*
X85607142Y-97038152D01*
X85607142Y-97038152D02*
X85416666Y-97038152D01*
X85416666Y-97038152D02*
X85321428Y-97085771D01*
X85749999Y-97657200D02*
X85654761Y-97704819D01*
X85654761Y-97704819D02*
X85416666Y-97704819D01*
X85416666Y-97704819D02*
X85321428Y-97657200D01*
X85321428Y-97657200D02*
X85273809Y-97561961D01*
X85273809Y-97561961D02*
X85273809Y-97466723D01*
X85273809Y-97466723D02*
X85321428Y-97371485D01*
X85321428Y-97371485D02*
X85416666Y-97323866D01*
X85416666Y-97323866D02*
X85654761Y-97323866D01*
X85654761Y-97323866D02*
X85749999Y-97276247D01*
X86226190Y-97038152D02*
X86226190Y-97704819D01*
X86226190Y-97133390D02*
X86273809Y-97085771D01*
X86273809Y-97085771D02*
X86369047Y-97038152D01*
X86369047Y-97038152D02*
X86511904Y-97038152D01*
X86511904Y-97038152D02*
X86607142Y-97085771D01*
X86607142Y-97085771D02*
X86654761Y-97181009D01*
X86654761Y-97181009D02*
X86654761Y-97704819D01*
X87845238Y-97419104D02*
X88321428Y-97419104D01*
X87750000Y-97704819D02*
X88083333Y-96704819D01*
X88083333Y-96704819D02*
X88416666Y-97704819D01*
X88750000Y-97704819D02*
X88750000Y-97038152D01*
X88750000Y-97133390D02*
X88797619Y-97085771D01*
X88797619Y-97085771D02*
X88892857Y-97038152D01*
X88892857Y-97038152D02*
X89035714Y-97038152D01*
X89035714Y-97038152D02*
X89130952Y-97085771D01*
X89130952Y-97085771D02*
X89178571Y-97181009D01*
X89178571Y-97181009D02*
X89178571Y-97704819D01*
X89178571Y-97181009D02*
X89226190Y-97085771D01*
X89226190Y-97085771D02*
X89321428Y-97038152D01*
X89321428Y-97038152D02*
X89464285Y-97038152D01*
X89464285Y-97038152D02*
X89559524Y-97085771D01*
X89559524Y-97085771D02*
X89607143Y-97181009D01*
X89607143Y-97181009D02*
X89607143Y-97704819D01*
X89940476Y-97038152D02*
X90321428Y-97038152D01*
X90083333Y-96704819D02*
X90083333Y-97561961D01*
X90083333Y-97561961D02*
X90130952Y-97657200D01*
X90130952Y-97657200D02*
X90226190Y-97704819D01*
X90226190Y-97704819D02*
X90321428Y-97704819D01*
X75607142Y-50954819D02*
X75273809Y-50478628D01*
X75035714Y-50954819D02*
X75035714Y-49954819D01*
X75035714Y-49954819D02*
X75416666Y-49954819D01*
X75416666Y-49954819D02*
X75511904Y-50002438D01*
X75511904Y-50002438D02*
X75559523Y-50050057D01*
X75559523Y-50050057D02*
X75607142Y-50145295D01*
X75607142Y-50145295D02*
X75607142Y-50288152D01*
X75607142Y-50288152D02*
X75559523Y-50383390D01*
X75559523Y-50383390D02*
X75511904Y-50431009D01*
X75511904Y-50431009D02*
X75416666Y-50478628D01*
X75416666Y-50478628D02*
X75035714Y-50478628D01*
X76464285Y-49954819D02*
X76273809Y-49954819D01*
X76273809Y-49954819D02*
X76178571Y-50002438D01*
X76178571Y-50002438D02*
X76130952Y-50050057D01*
X76130952Y-50050057D02*
X76035714Y-50192914D01*
X76035714Y-50192914D02*
X75988095Y-50383390D01*
X75988095Y-50383390D02*
X75988095Y-50764342D01*
X75988095Y-50764342D02*
X76035714Y-50859580D01*
X76035714Y-50859580D02*
X76083333Y-50907200D01*
X76083333Y-50907200D02*
X76178571Y-50954819D01*
X76178571Y-50954819D02*
X76369047Y-50954819D01*
X76369047Y-50954819D02*
X76464285Y-50907200D01*
X76464285Y-50907200D02*
X76511904Y-50859580D01*
X76511904Y-50859580D02*
X76559523Y-50764342D01*
X76559523Y-50764342D02*
X76559523Y-50526247D01*
X76559523Y-50526247D02*
X76511904Y-50431009D01*
X76511904Y-50431009D02*
X76464285Y-50383390D01*
X76464285Y-50383390D02*
X76369047Y-50335771D01*
X76369047Y-50335771D02*
X76178571Y-50335771D01*
X76178571Y-50335771D02*
X76083333Y-50383390D01*
X76083333Y-50383390D02*
X76035714Y-50431009D01*
X76035714Y-50431009D02*
X75988095Y-50526247D01*
X77130952Y-50383390D02*
X77035714Y-50335771D01*
X77035714Y-50335771D02*
X76988095Y-50288152D01*
X76988095Y-50288152D02*
X76940476Y-50192914D01*
X76940476Y-50192914D02*
X76940476Y-50145295D01*
X76940476Y-50145295D02*
X76988095Y-50050057D01*
X76988095Y-50050057D02*
X77035714Y-50002438D01*
X77035714Y-50002438D02*
X77130952Y-49954819D01*
X77130952Y-49954819D02*
X77321428Y-49954819D01*
X77321428Y-49954819D02*
X77416666Y-50002438D01*
X77416666Y-50002438D02*
X77464285Y-50050057D01*
X77464285Y-50050057D02*
X77511904Y-50145295D01*
X77511904Y-50145295D02*
X77511904Y-50192914D01*
X77511904Y-50192914D02*
X77464285Y-50288152D01*
X77464285Y-50288152D02*
X77416666Y-50335771D01*
X77416666Y-50335771D02*
X77321428Y-50383390D01*
X77321428Y-50383390D02*
X77130952Y-50383390D01*
X77130952Y-50383390D02*
X77035714Y-50431009D01*
X77035714Y-50431009D02*
X76988095Y-50478628D01*
X76988095Y-50478628D02*
X76940476Y-50573866D01*
X76940476Y-50573866D02*
X76940476Y-50764342D01*
X76940476Y-50764342D02*
X76988095Y-50859580D01*
X76988095Y-50859580D02*
X77035714Y-50907200D01*
X77035714Y-50907200D02*
X77130952Y-50954819D01*
X77130952Y-50954819D02*
X77321428Y-50954819D01*
X77321428Y-50954819D02*
X77416666Y-50907200D01*
X77416666Y-50907200D02*
X77464285Y-50859580D01*
X77464285Y-50859580D02*
X77511904Y-50764342D01*
X77511904Y-50764342D02*
X77511904Y-50573866D01*
X77511904Y-50573866D02*
X77464285Y-50478628D01*
X77464285Y-50478628D02*
X77416666Y-50431009D01*
X77416666Y-50431009D02*
X77321428Y-50383390D01*
X76704819Y-57071428D02*
X76704819Y-57642856D01*
X76704819Y-57357142D02*
X75704819Y-57357142D01*
X75704819Y-57357142D02*
X75847676Y-57452380D01*
X75847676Y-57452380D02*
X75942914Y-57547618D01*
X75942914Y-57547618D02*
X75990533Y-57642856D01*
X75704819Y-56452380D02*
X75704819Y-56357142D01*
X75704819Y-56357142D02*
X75752438Y-56261904D01*
X75752438Y-56261904D02*
X75800057Y-56214285D01*
X75800057Y-56214285D02*
X75895295Y-56166666D01*
X75895295Y-56166666D02*
X76085771Y-56119047D01*
X76085771Y-56119047D02*
X76323866Y-56119047D01*
X76323866Y-56119047D02*
X76514342Y-56166666D01*
X76514342Y-56166666D02*
X76609580Y-56214285D01*
X76609580Y-56214285D02*
X76657200Y-56261904D01*
X76657200Y-56261904D02*
X76704819Y-56357142D01*
X76704819Y-56357142D02*
X76704819Y-56452380D01*
X76704819Y-56452380D02*
X76657200Y-56547618D01*
X76657200Y-56547618D02*
X76609580Y-56595237D01*
X76609580Y-56595237D02*
X76514342Y-56642856D01*
X76514342Y-56642856D02*
X76323866Y-56690475D01*
X76323866Y-56690475D02*
X76085771Y-56690475D01*
X76085771Y-56690475D02*
X75895295Y-56642856D01*
X75895295Y-56642856D02*
X75800057Y-56595237D01*
X75800057Y-56595237D02*
X75752438Y-56547618D01*
X75752438Y-56547618D02*
X75704819Y-56452380D01*
X75704819Y-55499999D02*
X75704819Y-55404761D01*
X75704819Y-55404761D02*
X75752438Y-55309523D01*
X75752438Y-55309523D02*
X75800057Y-55261904D01*
X75800057Y-55261904D02*
X75895295Y-55214285D01*
X75895295Y-55214285D02*
X76085771Y-55166666D01*
X76085771Y-55166666D02*
X76323866Y-55166666D01*
X76323866Y-55166666D02*
X76514342Y-55214285D01*
X76514342Y-55214285D02*
X76609580Y-55261904D01*
X76609580Y-55261904D02*
X76657200Y-55309523D01*
X76657200Y-55309523D02*
X76704819Y-55404761D01*
X76704819Y-55404761D02*
X76704819Y-55499999D01*
X76704819Y-55499999D02*
X76657200Y-55595237D01*
X76657200Y-55595237D02*
X76609580Y-55642856D01*
X76609580Y-55642856D02*
X76514342Y-55690475D01*
X76514342Y-55690475D02*
X76323866Y-55738094D01*
X76323866Y-55738094D02*
X76085771Y-55738094D01*
X76085771Y-55738094D02*
X75895295Y-55690475D01*
X75895295Y-55690475D02*
X75800057Y-55642856D01*
X75800057Y-55642856D02*
X75752438Y-55595237D01*
X75752438Y-55595237D02*
X75704819Y-55499999D01*
X76704819Y-54738094D02*
X75704819Y-54738094D01*
X76323866Y-54642856D02*
X76704819Y-54357142D01*
X76038152Y-54357142D02*
X76419104Y-54738094D01*
X93204819Y-139892857D02*
X92728628Y-140226190D01*
X93204819Y-140464285D02*
X92204819Y-140464285D01*
X92204819Y-140464285D02*
X92204819Y-140083333D01*
X92204819Y-140083333D02*
X92252438Y-139988095D01*
X92252438Y-139988095D02*
X92300057Y-139940476D01*
X92300057Y-139940476D02*
X92395295Y-139892857D01*
X92395295Y-139892857D02*
X92538152Y-139892857D01*
X92538152Y-139892857D02*
X92633390Y-139940476D01*
X92633390Y-139940476D02*
X92681009Y-139988095D01*
X92681009Y-139988095D02*
X92728628Y-140083333D01*
X92728628Y-140083333D02*
X92728628Y-140464285D01*
X92204819Y-139559523D02*
X92204819Y-138892857D01*
X92204819Y-138892857D02*
X93204819Y-139321428D01*
X92300057Y-138559523D02*
X92252438Y-138511904D01*
X92252438Y-138511904D02*
X92204819Y-138416666D01*
X92204819Y-138416666D02*
X92204819Y-138178571D01*
X92204819Y-138178571D02*
X92252438Y-138083333D01*
X92252438Y-138083333D02*
X92300057Y-138035714D01*
X92300057Y-138035714D02*
X92395295Y-137988095D01*
X92395295Y-137988095D02*
X92490533Y-137988095D01*
X92490533Y-137988095D02*
X92633390Y-138035714D01*
X92633390Y-138035714D02*
X93204819Y-138607142D01*
X93204819Y-138607142D02*
X93204819Y-137988095D01*
X86654761Y-139704819D02*
X86083333Y-139704819D01*
X86369047Y-139704819D02*
X86369047Y-138704819D01*
X86369047Y-138704819D02*
X86273809Y-138847676D01*
X86273809Y-138847676D02*
X86178571Y-138942914D01*
X86178571Y-138942914D02*
X86083333Y-138990533D01*
X87226190Y-139133390D02*
X87130952Y-139085771D01*
X87130952Y-139085771D02*
X87083333Y-139038152D01*
X87083333Y-139038152D02*
X87035714Y-138942914D01*
X87035714Y-138942914D02*
X87035714Y-138895295D01*
X87035714Y-138895295D02*
X87083333Y-138800057D01*
X87083333Y-138800057D02*
X87130952Y-138752438D01*
X87130952Y-138752438D02*
X87226190Y-138704819D01*
X87226190Y-138704819D02*
X87416666Y-138704819D01*
X87416666Y-138704819D02*
X87511904Y-138752438D01*
X87511904Y-138752438D02*
X87559523Y-138800057D01*
X87559523Y-138800057D02*
X87607142Y-138895295D01*
X87607142Y-138895295D02*
X87607142Y-138942914D01*
X87607142Y-138942914D02*
X87559523Y-139038152D01*
X87559523Y-139038152D02*
X87511904Y-139085771D01*
X87511904Y-139085771D02*
X87416666Y-139133390D01*
X87416666Y-139133390D02*
X87226190Y-139133390D01*
X87226190Y-139133390D02*
X87130952Y-139181009D01*
X87130952Y-139181009D02*
X87083333Y-139228628D01*
X87083333Y-139228628D02*
X87035714Y-139323866D01*
X87035714Y-139323866D02*
X87035714Y-139514342D01*
X87035714Y-139514342D02*
X87083333Y-139609580D01*
X87083333Y-139609580D02*
X87130952Y-139657200D01*
X87130952Y-139657200D02*
X87226190Y-139704819D01*
X87226190Y-139704819D02*
X87416666Y-139704819D01*
X87416666Y-139704819D02*
X87511904Y-139657200D01*
X87511904Y-139657200D02*
X87559523Y-139609580D01*
X87559523Y-139609580D02*
X87607142Y-139514342D01*
X87607142Y-139514342D02*
X87607142Y-139323866D01*
X87607142Y-139323866D02*
X87559523Y-139228628D01*
X87559523Y-139228628D02*
X87511904Y-139181009D01*
X87511904Y-139181009D02*
X87416666Y-139133390D01*
X88035714Y-139704819D02*
X88035714Y-138704819D01*
X88130952Y-139323866D02*
X88416666Y-139704819D01*
X88416666Y-139038152D02*
X88035714Y-139419104D01*
X94834819Y-88214285D02*
X93834819Y-88214285D01*
X93834819Y-88214285D02*
X93834819Y-87976190D01*
X93834819Y-87976190D02*
X93882438Y-87833333D01*
X93882438Y-87833333D02*
X93977676Y-87738095D01*
X93977676Y-87738095D02*
X94072914Y-87690476D01*
X94072914Y-87690476D02*
X94263390Y-87642857D01*
X94263390Y-87642857D02*
X94406247Y-87642857D01*
X94406247Y-87642857D02*
X94596723Y-87690476D01*
X94596723Y-87690476D02*
X94691961Y-87738095D01*
X94691961Y-87738095D02*
X94787200Y-87833333D01*
X94787200Y-87833333D02*
X94834819Y-87976190D01*
X94834819Y-87976190D02*
X94834819Y-88214285D01*
X94834819Y-86690476D02*
X94834819Y-87261904D01*
X94834819Y-86976190D02*
X93834819Y-86976190D01*
X93834819Y-86976190D02*
X93977676Y-87071428D01*
X93977676Y-87071428D02*
X94072914Y-87166666D01*
X94072914Y-87166666D02*
X94120533Y-87261904D01*
X93834819Y-86071428D02*
X93834819Y-85976190D01*
X93834819Y-85976190D02*
X93882438Y-85880952D01*
X93882438Y-85880952D02*
X93930057Y-85833333D01*
X93930057Y-85833333D02*
X94025295Y-85785714D01*
X94025295Y-85785714D02*
X94215771Y-85738095D01*
X94215771Y-85738095D02*
X94453866Y-85738095D01*
X94453866Y-85738095D02*
X94644342Y-85785714D01*
X94644342Y-85785714D02*
X94739580Y-85833333D01*
X94739580Y-85833333D02*
X94787200Y-85880952D01*
X94787200Y-85880952D02*
X94834819Y-85976190D01*
X94834819Y-85976190D02*
X94834819Y-86071428D01*
X94834819Y-86071428D02*
X94787200Y-86166666D01*
X94787200Y-86166666D02*
X94739580Y-86214285D01*
X94739580Y-86214285D02*
X94644342Y-86261904D01*
X94644342Y-86261904D02*
X94453866Y-86309523D01*
X94453866Y-86309523D02*
X94215771Y-86309523D01*
X94215771Y-86309523D02*
X94025295Y-86261904D01*
X94025295Y-86261904D02*
X93930057Y-86214285D01*
X93930057Y-86214285D02*
X93882438Y-86166666D01*
X93882438Y-86166666D02*
X93834819Y-86071428D01*
X98074819Y-89714285D02*
X98074819Y-89047619D01*
X98074819Y-89047619D02*
X99074819Y-89714285D01*
X99074819Y-89714285D02*
X99074819Y-89047619D01*
X99074819Y-88666666D02*
X98074819Y-88666666D01*
X98074819Y-88666666D02*
X98074819Y-88285714D01*
X98074819Y-88285714D02*
X98122438Y-88190476D01*
X98122438Y-88190476D02*
X98170057Y-88142857D01*
X98170057Y-88142857D02*
X98265295Y-88095238D01*
X98265295Y-88095238D02*
X98408152Y-88095238D01*
X98408152Y-88095238D02*
X98503390Y-88142857D01*
X98503390Y-88142857D02*
X98551009Y-88190476D01*
X98551009Y-88190476D02*
X98598628Y-88285714D01*
X98598628Y-88285714D02*
X98598628Y-88666666D01*
X99074819Y-87666666D02*
X98074819Y-87666666D01*
X98074819Y-87666666D02*
X98074819Y-87428571D01*
X98074819Y-87428571D02*
X98122438Y-87285714D01*
X98122438Y-87285714D02*
X98217676Y-87190476D01*
X98217676Y-87190476D02*
X98312914Y-87142857D01*
X98312914Y-87142857D02*
X98503390Y-87095238D01*
X98503390Y-87095238D02*
X98646247Y-87095238D01*
X98646247Y-87095238D02*
X98836723Y-87142857D01*
X98836723Y-87142857D02*
X98931961Y-87190476D01*
X98931961Y-87190476D02*
X99027200Y-87285714D01*
X99027200Y-87285714D02*
X99074819Y-87428571D01*
X99074819Y-87428571D02*
X99074819Y-87666666D01*
X98408152Y-86238095D02*
X99074819Y-86238095D01*
X98027200Y-86476190D02*
X98741485Y-86714285D01*
X98741485Y-86714285D02*
X98741485Y-86095238D01*
X98074819Y-85857142D02*
X99074819Y-85523809D01*
X99074819Y-85523809D02*
X98074819Y-85190476D01*
X98074819Y-84952380D02*
X98074819Y-84285714D01*
X98074819Y-84285714D02*
X99074819Y-84714285D01*
X95154819Y-91071904D02*
X94154819Y-91071904D01*
X95154819Y-90500476D02*
X94583390Y-90929047D01*
X94154819Y-90500476D02*
X94726247Y-91071904D01*
X73857142Y-119109580D02*
X73809523Y-119157200D01*
X73809523Y-119157200D02*
X73666666Y-119204819D01*
X73666666Y-119204819D02*
X73571428Y-119204819D01*
X73571428Y-119204819D02*
X73428571Y-119157200D01*
X73428571Y-119157200D02*
X73333333Y-119061961D01*
X73333333Y-119061961D02*
X73285714Y-118966723D01*
X73285714Y-118966723D02*
X73238095Y-118776247D01*
X73238095Y-118776247D02*
X73238095Y-118633390D01*
X73238095Y-118633390D02*
X73285714Y-118442914D01*
X73285714Y-118442914D02*
X73333333Y-118347676D01*
X73333333Y-118347676D02*
X73428571Y-118252438D01*
X73428571Y-118252438D02*
X73571428Y-118204819D01*
X73571428Y-118204819D02*
X73666666Y-118204819D01*
X73666666Y-118204819D02*
X73809523Y-118252438D01*
X73809523Y-118252438D02*
X73857142Y-118300057D01*
X74809523Y-119204819D02*
X74238095Y-119204819D01*
X74523809Y-119204819D02*
X74523809Y-118204819D01*
X74523809Y-118204819D02*
X74428571Y-118347676D01*
X74428571Y-118347676D02*
X74333333Y-118442914D01*
X74333333Y-118442914D02*
X74238095Y-118490533D01*
X75380952Y-118633390D02*
X75285714Y-118585771D01*
X75285714Y-118585771D02*
X75238095Y-118538152D01*
X75238095Y-118538152D02*
X75190476Y-118442914D01*
X75190476Y-118442914D02*
X75190476Y-118395295D01*
X75190476Y-118395295D02*
X75238095Y-118300057D01*
X75238095Y-118300057D02*
X75285714Y-118252438D01*
X75285714Y-118252438D02*
X75380952Y-118204819D01*
X75380952Y-118204819D02*
X75571428Y-118204819D01*
X75571428Y-118204819D02*
X75666666Y-118252438D01*
X75666666Y-118252438D02*
X75714285Y-118300057D01*
X75714285Y-118300057D02*
X75761904Y-118395295D01*
X75761904Y-118395295D02*
X75761904Y-118442914D01*
X75761904Y-118442914D02*
X75714285Y-118538152D01*
X75714285Y-118538152D02*
X75666666Y-118585771D01*
X75666666Y-118585771D02*
X75571428Y-118633390D01*
X75571428Y-118633390D02*
X75380952Y-118633390D01*
X75380952Y-118633390D02*
X75285714Y-118681009D01*
X75285714Y-118681009D02*
X75238095Y-118728628D01*
X75238095Y-118728628D02*
X75190476Y-118823866D01*
X75190476Y-118823866D02*
X75190476Y-119014342D01*
X75190476Y-119014342D02*
X75238095Y-119109580D01*
X75238095Y-119109580D02*
X75285714Y-119157200D01*
X75285714Y-119157200D02*
X75380952Y-119204819D01*
X75380952Y-119204819D02*
X75571428Y-119204819D01*
X75571428Y-119204819D02*
X75666666Y-119157200D01*
X75666666Y-119157200D02*
X75714285Y-119109580D01*
X75714285Y-119109580D02*
X75761904Y-119014342D01*
X75761904Y-119014342D02*
X75761904Y-118823866D01*
X75761904Y-118823866D02*
X75714285Y-118728628D01*
X75714285Y-118728628D02*
X75666666Y-118681009D01*
X75666666Y-118681009D02*
X75571428Y-118633390D01*
X73452380Y-116954819D02*
X72880952Y-116954819D01*
X73166666Y-116954819D02*
X73166666Y-115954819D01*
X73166666Y-115954819D02*
X73071428Y-116097676D01*
X73071428Y-116097676D02*
X72976190Y-116192914D01*
X72976190Y-116192914D02*
X72880952Y-116240533D01*
X74071428Y-115954819D02*
X74166666Y-115954819D01*
X74166666Y-115954819D02*
X74261904Y-116002438D01*
X74261904Y-116002438D02*
X74309523Y-116050057D01*
X74309523Y-116050057D02*
X74357142Y-116145295D01*
X74357142Y-116145295D02*
X74404761Y-116335771D01*
X74404761Y-116335771D02*
X74404761Y-116573866D01*
X74404761Y-116573866D02*
X74357142Y-116764342D01*
X74357142Y-116764342D02*
X74309523Y-116859580D01*
X74309523Y-116859580D02*
X74261904Y-116907200D01*
X74261904Y-116907200D02*
X74166666Y-116954819D01*
X74166666Y-116954819D02*
X74071428Y-116954819D01*
X74071428Y-116954819D02*
X73976190Y-116907200D01*
X73976190Y-116907200D02*
X73928571Y-116859580D01*
X73928571Y-116859580D02*
X73880952Y-116764342D01*
X73880952Y-116764342D02*
X73833333Y-116573866D01*
X73833333Y-116573866D02*
X73833333Y-116335771D01*
X73833333Y-116335771D02*
X73880952Y-116145295D01*
X73880952Y-116145295D02*
X73928571Y-116050057D01*
X73928571Y-116050057D02*
X73976190Y-116002438D01*
X73976190Y-116002438D02*
X74071428Y-115954819D01*
X75023809Y-115954819D02*
X75119047Y-115954819D01*
X75119047Y-115954819D02*
X75214285Y-116002438D01*
X75214285Y-116002438D02*
X75261904Y-116050057D01*
X75261904Y-116050057D02*
X75309523Y-116145295D01*
X75309523Y-116145295D02*
X75357142Y-116335771D01*
X75357142Y-116335771D02*
X75357142Y-116573866D01*
X75357142Y-116573866D02*
X75309523Y-116764342D01*
X75309523Y-116764342D02*
X75261904Y-116859580D01*
X75261904Y-116859580D02*
X75214285Y-116907200D01*
X75214285Y-116907200D02*
X75119047Y-116954819D01*
X75119047Y-116954819D02*
X75023809Y-116954819D01*
X75023809Y-116954819D02*
X74928571Y-116907200D01*
X74928571Y-116907200D02*
X74880952Y-116859580D01*
X74880952Y-116859580D02*
X74833333Y-116764342D01*
X74833333Y-116764342D02*
X74785714Y-116573866D01*
X74785714Y-116573866D02*
X74785714Y-116335771D01*
X74785714Y-116335771D02*
X74833333Y-116145295D01*
X74833333Y-116145295D02*
X74880952Y-116050057D01*
X74880952Y-116050057D02*
X74928571Y-116002438D01*
X74928571Y-116002438D02*
X75023809Y-115954819D01*
X75785714Y-116288152D02*
X75785714Y-116954819D01*
X75785714Y-116383390D02*
X75833333Y-116335771D01*
X75833333Y-116335771D02*
X75928571Y-116288152D01*
X75928571Y-116288152D02*
X76071428Y-116288152D01*
X76071428Y-116288152D02*
X76166666Y-116335771D01*
X76166666Y-116335771D02*
X76214285Y-116431009D01*
X76214285Y-116431009D02*
X76214285Y-116954819D01*
X77023809Y-116431009D02*
X76690476Y-116431009D01*
X76690476Y-116954819D02*
X76690476Y-115954819D01*
X76690476Y-115954819D02*
X77166666Y-115954819D01*
X56454819Y-128071428D02*
X55978628Y-128404761D01*
X56454819Y-128642856D02*
X55454819Y-128642856D01*
X55454819Y-128642856D02*
X55454819Y-128261904D01*
X55454819Y-128261904D02*
X55502438Y-128166666D01*
X55502438Y-128166666D02*
X55550057Y-128119047D01*
X55550057Y-128119047D02*
X55645295Y-128071428D01*
X55645295Y-128071428D02*
X55788152Y-128071428D01*
X55788152Y-128071428D02*
X55883390Y-128119047D01*
X55883390Y-128119047D02*
X55931009Y-128166666D01*
X55931009Y-128166666D02*
X55978628Y-128261904D01*
X55978628Y-128261904D02*
X55978628Y-128642856D01*
X55454819Y-127785713D02*
X56454819Y-127452380D01*
X56454819Y-127452380D02*
X55454819Y-127119047D01*
X56454819Y-126261904D02*
X56454819Y-126833332D01*
X56454819Y-126547618D02*
X55454819Y-126547618D01*
X55454819Y-126547618D02*
X55597676Y-126642856D01*
X55597676Y-126642856D02*
X55692914Y-126738094D01*
X55692914Y-126738094D02*
X55740533Y-126833332D01*
X55550057Y-125880951D02*
X55502438Y-125833332D01*
X55502438Y-125833332D02*
X55454819Y-125738094D01*
X55454819Y-125738094D02*
X55454819Y-125499999D01*
X55454819Y-125499999D02*
X55502438Y-125404761D01*
X55502438Y-125404761D02*
X55550057Y-125357142D01*
X55550057Y-125357142D02*
X55645295Y-125309523D01*
X55645295Y-125309523D02*
X55740533Y-125309523D01*
X55740533Y-125309523D02*
X55883390Y-125357142D01*
X55883390Y-125357142D02*
X56454819Y-125928570D01*
X56454819Y-125928570D02*
X56454819Y-125309523D01*
X70004819Y-128071428D02*
X70004819Y-128642856D01*
X70004819Y-128357142D02*
X69004819Y-128357142D01*
X69004819Y-128357142D02*
X69147676Y-128452380D01*
X69147676Y-128452380D02*
X69242914Y-128547618D01*
X69242914Y-128547618D02*
X69290533Y-128642856D01*
X69004819Y-127452380D02*
X69004819Y-127357142D01*
X69004819Y-127357142D02*
X69052438Y-127261904D01*
X69052438Y-127261904D02*
X69100057Y-127214285D01*
X69100057Y-127214285D02*
X69195295Y-127166666D01*
X69195295Y-127166666D02*
X69385771Y-127119047D01*
X69385771Y-127119047D02*
X69623866Y-127119047D01*
X69623866Y-127119047D02*
X69814342Y-127166666D01*
X69814342Y-127166666D02*
X69909580Y-127214285D01*
X69909580Y-127214285D02*
X69957200Y-127261904D01*
X69957200Y-127261904D02*
X70004819Y-127357142D01*
X70004819Y-127357142D02*
X70004819Y-127452380D01*
X70004819Y-127452380D02*
X69957200Y-127547618D01*
X69957200Y-127547618D02*
X69909580Y-127595237D01*
X69909580Y-127595237D02*
X69814342Y-127642856D01*
X69814342Y-127642856D02*
X69623866Y-127690475D01*
X69623866Y-127690475D02*
X69385771Y-127690475D01*
X69385771Y-127690475D02*
X69195295Y-127642856D01*
X69195295Y-127642856D02*
X69100057Y-127595237D01*
X69100057Y-127595237D02*
X69052438Y-127547618D01*
X69052438Y-127547618D02*
X69004819Y-127452380D01*
X69004819Y-126499999D02*
X69004819Y-126404761D01*
X69004819Y-126404761D02*
X69052438Y-126309523D01*
X69052438Y-126309523D02*
X69100057Y-126261904D01*
X69100057Y-126261904D02*
X69195295Y-126214285D01*
X69195295Y-126214285D02*
X69385771Y-126166666D01*
X69385771Y-126166666D02*
X69623866Y-126166666D01*
X69623866Y-126166666D02*
X69814342Y-126214285D01*
X69814342Y-126214285D02*
X69909580Y-126261904D01*
X69909580Y-126261904D02*
X69957200Y-126309523D01*
X69957200Y-126309523D02*
X70004819Y-126404761D01*
X70004819Y-126404761D02*
X70004819Y-126499999D01*
X70004819Y-126499999D02*
X69957200Y-126595237D01*
X69957200Y-126595237D02*
X69909580Y-126642856D01*
X69909580Y-126642856D02*
X69814342Y-126690475D01*
X69814342Y-126690475D02*
X69623866Y-126738094D01*
X69623866Y-126738094D02*
X69385771Y-126738094D01*
X69385771Y-126738094D02*
X69195295Y-126690475D01*
X69195295Y-126690475D02*
X69100057Y-126642856D01*
X69100057Y-126642856D02*
X69052438Y-126595237D01*
X69052438Y-126595237D02*
X69004819Y-126499999D01*
X70004819Y-125738094D02*
X69004819Y-125738094D01*
X69623866Y-125642856D02*
X70004819Y-125357142D01*
X69338152Y-125357142D02*
X69719104Y-125738094D01*
X59517857Y-132259580D02*
X59464285Y-132307200D01*
X59464285Y-132307200D02*
X59315476Y-132354819D01*
X59315476Y-132354819D02*
X59220238Y-132354819D01*
X59220238Y-132354819D02*
X59083333Y-132307200D01*
X59083333Y-132307200D02*
X59000000Y-132211961D01*
X59000000Y-132211961D02*
X58964285Y-132116723D01*
X58964285Y-132116723D02*
X58940476Y-131926247D01*
X58940476Y-131926247D02*
X58958333Y-131783390D01*
X58958333Y-131783390D02*
X59029761Y-131592914D01*
X59029761Y-131592914D02*
X59089285Y-131497676D01*
X59089285Y-131497676D02*
X59196428Y-131402438D01*
X59196428Y-131402438D02*
X59345238Y-131354819D01*
X59345238Y-131354819D02*
X59440476Y-131354819D01*
X59440476Y-131354819D02*
X59577381Y-131402438D01*
X59577381Y-131402438D02*
X59619047Y-131450057D01*
X59916666Y-131354819D02*
X60125000Y-132354819D01*
X60125000Y-132354819D02*
X60583333Y-131354819D01*
X61541667Y-132069104D02*
X62017857Y-132069104D01*
X61410714Y-132354819D02*
X61869048Y-131354819D01*
X61869048Y-131354819D02*
X62077381Y-132354819D01*
X62410714Y-132354819D02*
X62494048Y-131688152D01*
X62482143Y-131783390D02*
X62535714Y-131735771D01*
X62535714Y-131735771D02*
X62636905Y-131688152D01*
X62636905Y-131688152D02*
X62779762Y-131688152D01*
X62779762Y-131688152D02*
X62869048Y-131735771D01*
X62869048Y-131735771D02*
X62904762Y-131831009D01*
X62904762Y-131831009D02*
X62839286Y-132354819D01*
X62904762Y-131831009D02*
X62964286Y-131735771D01*
X62964286Y-131735771D02*
X63065476Y-131688152D01*
X63065476Y-131688152D02*
X63208333Y-131688152D01*
X63208333Y-131688152D02*
X63297619Y-131735771D01*
X63297619Y-131735771D02*
X63333333Y-131831009D01*
X63333333Y-131831009D02*
X63267857Y-132354819D01*
X63684524Y-131688152D02*
X64065476Y-131688152D01*
X63869047Y-131354819D02*
X63761905Y-132211961D01*
X63761905Y-132211961D02*
X63797619Y-132307200D01*
X63797619Y-132307200D02*
X63886905Y-132354819D01*
X63886905Y-132354819D02*
X63982143Y-132354819D01*
X65476191Y-131831009D02*
X65613096Y-131878628D01*
X65613096Y-131878628D02*
X65654762Y-131926247D01*
X65654762Y-131926247D02*
X65690477Y-132021485D01*
X65690477Y-132021485D02*
X65672619Y-132164342D01*
X65672619Y-132164342D02*
X65613096Y-132259580D01*
X65613096Y-132259580D02*
X65559524Y-132307200D01*
X65559524Y-132307200D02*
X65458334Y-132354819D01*
X65458334Y-132354819D02*
X65077381Y-132354819D01*
X65077381Y-132354819D02*
X65202381Y-131354819D01*
X65202381Y-131354819D02*
X65535715Y-131354819D01*
X65535715Y-131354819D02*
X65625000Y-131402438D01*
X65625000Y-131402438D02*
X65666667Y-131450057D01*
X65666667Y-131450057D02*
X65702381Y-131545295D01*
X65702381Y-131545295D02*
X65690477Y-131640533D01*
X65690477Y-131640533D02*
X65630953Y-131735771D01*
X65630953Y-131735771D02*
X65577381Y-131783390D01*
X65577381Y-131783390D02*
X65476191Y-131831009D01*
X65476191Y-131831009D02*
X65142858Y-131831009D01*
X66601191Y-132354819D02*
X66029762Y-132354819D01*
X66315477Y-132354819D02*
X66440477Y-131354819D01*
X66440477Y-131354819D02*
X66327381Y-131497676D01*
X66327381Y-131497676D02*
X66220239Y-131592914D01*
X66220239Y-131592914D02*
X66119048Y-131640533D01*
%TO.C,RV14*%
D11*
X51065000Y-108445000D02*
X52585000Y-108445000D01*
X51065000Y-109650000D02*
X51825000Y-109650000D01*
X51065000Y-110855000D02*
X51065000Y-108445000D01*
X52585000Y-105980000D02*
X62335000Y-105980000D01*
X52585000Y-108445000D02*
X52585000Y-110855000D01*
X52585000Y-110855000D02*
X51065000Y-110855000D01*
X52585000Y-111030000D02*
X52585000Y-105980000D01*
X62335000Y-105980000D02*
X62335000Y-111030000D01*
X62335000Y-111030000D02*
X52585000Y-111030000D01*
%TO.C,R69*%
X77880000Y-52730000D02*
X78210000Y-52730000D01*
X77880000Y-59270000D02*
X77880000Y-52730000D01*
X78210000Y-59270000D02*
X77880000Y-59270000D01*
X80290000Y-59270000D02*
X80620000Y-59270000D01*
X80620000Y-52730000D02*
X80290000Y-52730000D01*
X80620000Y-59270000D02*
X80620000Y-52730000D01*
%TO.C,RV15*%
X51065000Y-136445000D02*
X52585000Y-136445000D01*
X51065000Y-137650000D02*
X51825000Y-137650000D01*
X51065000Y-138855000D02*
X51065000Y-136445000D01*
X52585000Y-133980000D02*
X62335000Y-133980000D01*
X52585000Y-136445000D02*
X52585000Y-138855000D01*
X52585000Y-138855000D02*
X51065000Y-138855000D01*
X52585000Y-139030000D02*
X52585000Y-133980000D01*
X62335000Y-133980000D02*
X62335000Y-139030000D01*
X62335000Y-139030000D02*
X52585000Y-139030000D01*
%TO.C,D8*%
X76880000Y-88280000D02*
X79120000Y-88280000D01*
X76880000Y-88400000D02*
X79120000Y-88400000D01*
X76880000Y-88520000D02*
X79120000Y-88520000D01*
X78000000Y-84230000D02*
X78000000Y-84880000D01*
X78000000Y-89770000D02*
X78000000Y-89120000D01*
X76880000Y-84880000D02*
X79120000Y-84880000D01*
X79120000Y-89120000D01*
X76880000Y-89120000D01*
X76880000Y-84880000D01*
%TO.C,R65*%
X66130000Y-100980000D02*
X66460000Y-100980000D01*
X66130000Y-107520000D02*
X66130000Y-100980000D01*
X66460000Y-107520000D02*
X66130000Y-107520000D01*
X68540000Y-107520000D02*
X68870000Y-107520000D01*
X68870000Y-100980000D02*
X68540000Y-100980000D01*
X68870000Y-107520000D02*
X68870000Y-100980000D01*
%TO.C,R67*%
X83980000Y-47880000D02*
X83980000Y-48210000D01*
X83980000Y-50620000D02*
X83980000Y-50290000D01*
X90520000Y-47880000D02*
X83980000Y-47880000D01*
X90520000Y-48210000D02*
X90520000Y-47880000D01*
X90520000Y-50290000D02*
X90520000Y-50620000D01*
X90520000Y-50620000D02*
X83980000Y-50620000D01*
%TO.C,RV16*%
X82370000Y-155620000D02*
X82370000Y-150900000D01*
X82380000Y-147090000D02*
X82380000Y-144030000D01*
X83560000Y-155620000D02*
X82380000Y-155620000D01*
X86460000Y-155620000D02*
X85930000Y-155620000D01*
X88910000Y-155620000D02*
X88080000Y-155620000D01*
X92120000Y-144030000D02*
X82380000Y-144030000D01*
X92120000Y-147090000D02*
X92120000Y-144030000D01*
X92120000Y-155620000D02*
X90630000Y-155620000D01*
X92120000Y-155620000D02*
X92120000Y-150900000D01*
%TO.C,R66*%
X83980000Y-44880000D02*
X83980000Y-45210000D01*
X83980000Y-47620000D02*
X83980000Y-47290000D01*
X90520000Y-44880000D02*
X83980000Y-44880000D01*
X90520000Y-45210000D02*
X90520000Y-44880000D01*
X90520000Y-47290000D02*
X90520000Y-47620000D01*
X90520000Y-47620000D02*
X83980000Y-47620000D01*
%TO.C,R75*%
X77880000Y-145730000D02*
X77880000Y-152270000D01*
X77880000Y-152270000D02*
X78210000Y-152270000D01*
X78210000Y-145730000D02*
X77880000Y-145730000D01*
X80290000Y-145730000D02*
X80620000Y-145730000D01*
X80620000Y-145730000D02*
X80620000Y-152270000D01*
X80620000Y-152270000D02*
X80290000Y-152270000D01*
%TO.C,RV9*%
X51105000Y-73945000D02*
X52625000Y-73945000D01*
X51105000Y-75150000D02*
X51865000Y-75150000D01*
X51105000Y-76355000D02*
X51105000Y-73945000D01*
X52625000Y-71480000D02*
X62375000Y-71480000D01*
X52625000Y-73945000D02*
X52625000Y-76355000D01*
X52625000Y-76355000D02*
X51105000Y-76355000D01*
X52625000Y-76530000D02*
X52625000Y-71480000D01*
X62375000Y-71480000D02*
X62375000Y-76530000D01*
X62375000Y-76530000D02*
X52625000Y-76530000D01*
%TO.C,D6*%
X85690000Y-116264000D02*
X85690000Y-116420000D01*
X85690000Y-118580000D02*
X85690000Y-118736000D01*
X85690000Y-116264484D02*
G75*
G02*
X88921437Y-116420000I1560000J-1235516D01*
G01*
X86209039Y-116420000D02*
G75*
G02*
X88290961Y-116420000I1040961J-1080000D01*
G01*
X88290961Y-118580000D02*
G75*
G02*
X86209039Y-118580000I-1040961J1080000D01*
G01*
X88921437Y-118580000D02*
G75*
G02*
X85690000Y-118735516I-1671437J1080000D01*
G01*
%TO.C,C19*%
X72230000Y-93430000D02*
X76770000Y-93430000D01*
X72230000Y-93486000D02*
X72230000Y-93430000D01*
X76770000Y-95514000D02*
X76770000Y-95570000D01*
X76770000Y-95570000D02*
X72230000Y-95570000D01*
%TO.C,D9*%
X96500000Y-74480000D02*
X96500000Y-75130000D01*
X96500000Y-80020000D02*
X96500000Y-79370000D01*
X97620000Y-75730000D02*
X95380000Y-75730000D01*
X97620000Y-75850000D02*
X95380000Y-75850000D01*
X97620000Y-75970000D02*
X95380000Y-75970000D01*
X95380000Y-75130000D02*
X97620000Y-75130000D01*
X97620000Y-79370000D01*
X95380000Y-79370000D01*
X95380000Y-75130000D01*
%TO.C,D7*%
X78000000Y-74480000D02*
X78000000Y-75130000D01*
X78000000Y-80020000D02*
X78000000Y-79370000D01*
X79120000Y-75730000D02*
X76880000Y-75730000D01*
X79120000Y-75850000D02*
X76880000Y-75850000D01*
X79120000Y-75970000D02*
X76880000Y-75970000D01*
X76880000Y-75130000D02*
X79120000Y-75130000D01*
X79120000Y-79370000D01*
X76880000Y-79370000D01*
X76880000Y-75130000D01*
%TO.C,R74*%
X74880000Y-145730000D02*
X74880000Y-152270000D01*
X74880000Y-152270000D02*
X75210000Y-152270000D01*
X75210000Y-145730000D02*
X74880000Y-145730000D01*
X77290000Y-145730000D02*
X77620000Y-145730000D01*
X77620000Y-145730000D02*
X77620000Y-152270000D01*
X77620000Y-152270000D02*
X77290000Y-152270000D01*
%TO.C,SW2*%
X81050000Y-72950000D02*
X93450000Y-72950000D01*
X93450000Y-86550000D01*
X81050000Y-86550000D01*
X81050000Y-72950000D01*
%TO.C,RV11*%
X82370000Y-62620000D02*
X82370000Y-57900000D01*
X82380000Y-54090000D02*
X82380000Y-51030000D01*
X83560000Y-62620000D02*
X82380000Y-62620000D01*
X86460000Y-62620000D02*
X85930000Y-62620000D01*
X88910000Y-62620000D02*
X88080000Y-62620000D01*
X92120000Y-51030000D02*
X82380000Y-51030000D01*
X92120000Y-54090000D02*
X92120000Y-51030000D01*
X92120000Y-62620000D02*
X90630000Y-62620000D01*
X92120000Y-62620000D02*
X92120000Y-57900000D01*
%TO.C,R71*%
X77630000Y-130480000D02*
X77960000Y-130480000D01*
X77630000Y-137020000D02*
X77630000Y-130480000D01*
X77960000Y-137020000D02*
X77630000Y-137020000D01*
X80040000Y-137020000D02*
X80370000Y-137020000D01*
X80370000Y-130480000D02*
X80040000Y-130480000D01*
X80370000Y-137020000D02*
X80370000Y-130480000D01*
%TO.C,R70*%
X69130000Y-130480000D02*
X69460000Y-130480000D01*
X69130000Y-137020000D02*
X69130000Y-130480000D01*
X69460000Y-137020000D02*
X69130000Y-137020000D01*
X71540000Y-137020000D02*
X71870000Y-137020000D01*
X71870000Y-130480000D02*
X71540000Y-130480000D01*
X71870000Y-137020000D02*
X71870000Y-130480000D01*
%TO.C,SW1*%
X81050000Y-119950000D02*
X93450000Y-119950000D01*
X93450000Y-133550000D01*
X81050000Y-133550000D01*
X81050000Y-119950000D01*
%TO.C,R64*%
X69130000Y-67480000D02*
X69130000Y-74020000D01*
X69130000Y-74020000D02*
X69460000Y-74020000D01*
X69460000Y-67480000D02*
X69130000Y-67480000D01*
X71540000Y-67480000D02*
X71870000Y-67480000D01*
X71870000Y-67480000D02*
X71870000Y-74020000D01*
X71870000Y-74020000D02*
X71540000Y-74020000D01*
%TO.C,RV8*%
X56850000Y-79380000D02*
X56850000Y-83750000D01*
X56850000Y-88300000D02*
X56850000Y-96120000D01*
X57850000Y-96120000D02*
X56850000Y-96120000D01*
X68650000Y-79380000D02*
X56850000Y-79380000D01*
X68650000Y-79380000D02*
X68650000Y-83750000D01*
X68650000Y-88300000D02*
X68650000Y-96120000D01*
X68650000Y-96120000D02*
X67650000Y-96120000D01*
%TO.C,U9*%
X71850000Y-96555000D02*
X71850000Y-114455000D01*
X71850000Y-114455000D02*
X77150000Y-114455000D01*
X73500000Y-96555000D02*
X71850000Y-96555000D01*
X77150000Y-96555000D02*
X75500000Y-96555000D01*
X77150000Y-114455000D02*
X77150000Y-96555000D01*
X69360000Y-96495000D02*
X79640000Y-96495000D01*
X79640000Y-114515000D01*
X69360000Y-114515000D01*
X69360000Y-96495000D01*
X75500000Y-96555000D02*
G75*
G02*
X73500000Y-96555000I-1000000J0D01*
G01*
%TO.C,RV13*%
X56850000Y-142380000D02*
X56850000Y-146750000D01*
X56850000Y-151300000D02*
X56850000Y-159120000D01*
X57850000Y-159120000D02*
X56850000Y-159120000D01*
X68650000Y-142380000D02*
X56850000Y-142380000D01*
X68650000Y-142380000D02*
X68650000Y-146750000D01*
X68650000Y-151300000D02*
X68650000Y-159120000D01*
X68650000Y-159120000D02*
X67650000Y-159120000D01*
%TO.C,D5*%
X85690000Y-87764000D02*
X85690000Y-87920000D01*
X85690000Y-90080000D02*
X85690000Y-90236000D01*
X85690000Y-87764484D02*
G75*
G02*
X88921437Y-87920000I1560000J-1235516D01*
G01*
X86209039Y-87920000D02*
G75*
G02*
X88290961Y-87920000I1040961J-1080000D01*
G01*
X88290961Y-90080000D02*
G75*
G02*
X86209039Y-90080000I-1040961J1080000D01*
G01*
X88921437Y-90080000D02*
G75*
G02*
X85690000Y-90235516I-1671437J1080000D01*
G01*
%TO.C,RV7*%
X56850000Y-49380000D02*
X56850000Y-53750000D01*
X56850000Y-58300000D02*
X56850000Y-66120000D01*
X57850000Y-66120000D02*
X56850000Y-66120000D01*
X68650000Y-49380000D02*
X56850000Y-49380000D01*
X68650000Y-49380000D02*
X68650000Y-53750000D01*
X68650000Y-58300000D02*
X68650000Y-66120000D01*
X68650000Y-66120000D02*
X67650000Y-66120000D01*
%TO.C,RV10*%
X51105000Y-102445000D02*
X52625000Y-102445000D01*
X51105000Y-103650000D02*
X51865000Y-103650000D01*
X51105000Y-104855000D02*
X51105000Y-102445000D01*
X52625000Y-99980000D02*
X62375000Y-99980000D01*
X52625000Y-102445000D02*
X52625000Y-104855000D01*
X52625000Y-104855000D02*
X51105000Y-104855000D01*
X52625000Y-105030000D02*
X52625000Y-99980000D01*
X62375000Y-99980000D02*
X62375000Y-105030000D01*
X62375000Y-105030000D02*
X52625000Y-105030000D01*
%TO.C,R73*%
X83980000Y-140880000D02*
X83980000Y-141210000D01*
X83980000Y-143620000D02*
X83980000Y-143290000D01*
X90520000Y-140880000D02*
X83980000Y-140880000D01*
X90520000Y-141210000D02*
X90520000Y-140880000D01*
X90520000Y-143290000D02*
X90520000Y-143620000D01*
X90520000Y-143620000D02*
X83980000Y-143620000D01*
%TO.C,RV6*%
X81080000Y-98280000D02*
X93420000Y-98280000D01*
X81080000Y-101295000D02*
X81080000Y-98280000D01*
X81080000Y-109870000D02*
X81080000Y-105204000D01*
X81080000Y-109870000D02*
X83879000Y-109870000D01*
X85621000Y-109870000D02*
X86380000Y-109870000D01*
X88121000Y-109870000D02*
X88880000Y-109870000D01*
X90620000Y-109870000D02*
X93420000Y-109870000D01*
X93420000Y-101295000D02*
X93420000Y-98280000D01*
X93420000Y-109870000D02*
X93420000Y-105204000D01*
X85250000Y-98250000D02*
X89250000Y-98250000D01*
X89250000Y-99750000D01*
X85250000Y-99750000D01*
X85250000Y-98250000D01*
X85250000Y-106750000D02*
X89250000Y-106750000D01*
X89250000Y-108250000D01*
X85250000Y-108250000D01*
X85250000Y-106750000D01*
%TO.C,R68*%
X74880000Y-52730000D02*
X75210000Y-52730000D01*
X74880000Y-59270000D02*
X74880000Y-52730000D01*
X75210000Y-59270000D02*
X74880000Y-59270000D01*
X77290000Y-59270000D02*
X77620000Y-59270000D01*
X77620000Y-52730000D02*
X77290000Y-52730000D01*
X77620000Y-59270000D02*
X77620000Y-52730000D01*
%TO.C,R72*%
X83980000Y-137880000D02*
X83980000Y-138210000D01*
X83980000Y-140620000D02*
X83980000Y-140290000D01*
X90520000Y-137880000D02*
X83980000Y-137880000D01*
X90520000Y-138210000D02*
X90520000Y-137880000D01*
X90520000Y-140290000D02*
X90520000Y-140620000D01*
X90520000Y-140620000D02*
X83980000Y-140620000D01*
%TO.C,D10*%
X95380000Y-88280000D02*
X97620000Y-88280000D01*
X95380000Y-88400000D02*
X97620000Y-88400000D01*
X95380000Y-88520000D02*
X97620000Y-88520000D01*
X96500000Y-84230000D02*
X96500000Y-84880000D01*
X96500000Y-89770000D02*
X96500000Y-89120000D01*
X95380000Y-84880000D02*
X97620000Y-84880000D01*
X97620000Y-89120000D01*
X95380000Y-89120000D01*
X95380000Y-84880000D01*
%TO.C,C18*%
X72230000Y-115430000D02*
X76770000Y-115430000D01*
X72230000Y-115486000D02*
X72230000Y-115430000D01*
X76770000Y-117514000D02*
X76770000Y-117570000D01*
X76770000Y-117570000D02*
X72230000Y-117570000D01*
%TO.C,RV12*%
X56850000Y-112380000D02*
X56850000Y-116750000D01*
X56850000Y-121300000D02*
X56850000Y-129120000D01*
X57850000Y-129120000D02*
X56850000Y-129120000D01*
X68650000Y-112380000D02*
X56850000Y-112380000D01*
X68650000Y-112380000D02*
X68650000Y-116750000D01*
X68650000Y-121300000D02*
X68650000Y-129120000D01*
X68650000Y-129120000D02*
X67650000Y-129120000D01*
%TD*%
%LPC*%
D12*
%TO.C,RV14*%
X60000000Y-108500000D03*
X57460000Y-108500000D03*
X54920000Y-108500000D03*
%TD*%
D13*
%TO.C,R69*%
X79250000Y-59810000D03*
X79250000Y-52190000D03*
%TD*%
D12*
%TO.C,RV15*%
X60000000Y-136500000D03*
X57460000Y-136500000D03*
X54920000Y-136500000D03*
%TD*%
D14*
%TO.C,D8*%
X78000000Y-90810000D03*
D13*
X78000000Y-83190000D03*
%TD*%
%TO.C,R65*%
X67500000Y-108060000D03*
X67500000Y-100440000D03*
%TD*%
%TO.C,R67*%
X91060000Y-49250000D03*
X83440000Y-49250000D03*
%TD*%
D15*
%TO.C,RV16*%
X82450000Y-149000000D03*
X92050000Y-149000000D03*
D16*
X84750000Y-156500000D03*
D17*
X87250000Y-156500000D03*
X89750000Y-156500000D03*
%TD*%
D13*
%TO.C,R66*%
X91060000Y-46250000D03*
X83440000Y-46250000D03*
%TD*%
%TO.C,R75*%
X79250000Y-145190000D03*
X79250000Y-152810000D03*
%TD*%
D12*
%TO.C,RV9*%
X60040000Y-74000000D03*
X57500000Y-74000000D03*
X54960000Y-74000000D03*
%TD*%
D16*
%TO.C,D6*%
X85980000Y-117500000D03*
D17*
X88520000Y-117500000D03*
%TD*%
D13*
%TO.C,C19*%
X72000000Y-94500000D03*
X77000000Y-94500000D03*
%TD*%
D18*
%TO.C,D9*%
X96500000Y-73440000D03*
D13*
X96500000Y-81060000D03*
%TD*%
D18*
%TO.C,D7*%
X78000000Y-73440000D03*
D13*
X78000000Y-81060000D03*
%TD*%
%TO.C,R74*%
X76250000Y-145190000D03*
X76250000Y-152810000D03*
%TD*%
D19*
%TO.C,SW2*%
X84837000Y-84450000D03*
X84837000Y-79750000D03*
X84837000Y-75050000D03*
X89663000Y-84450000D03*
X89663000Y-79750000D03*
X89663000Y-75050000D03*
%TD*%
D15*
%TO.C,RV11*%
X82450000Y-56000000D03*
X92050000Y-56000000D03*
D16*
X84750000Y-63500000D03*
D17*
X87250000Y-63500000D03*
X89750000Y-63500000D03*
%TD*%
D13*
%TO.C,R71*%
X79000000Y-137560000D03*
X79000000Y-129940000D03*
%TD*%
%TO.C,R70*%
X70500000Y-137560000D03*
X70500000Y-129940000D03*
%TD*%
D19*
%TO.C,SW1*%
X84837000Y-131450000D03*
X84837000Y-126750000D03*
X84837000Y-122050000D03*
X89663000Y-131450000D03*
X89663000Y-126750000D03*
X89663000Y-122050000D03*
%TD*%
D13*
%TO.C,R64*%
X70500000Y-66940000D03*
X70500000Y-74560000D03*
%TD*%
D20*
%TO.C,RV8*%
X56950000Y-86000000D03*
D17*
X66500000Y-97000000D03*
D20*
X68550000Y-86000000D03*
D16*
X59000000Y-97000000D03*
D17*
X61500000Y-97000000D03*
X64000000Y-97000000D03*
%TD*%
D21*
%TO.C,U9*%
X70690000Y-97885000D03*
D13*
X70690000Y-100425000D03*
X70690000Y-102965000D03*
X70690000Y-105505000D03*
X70690000Y-108045000D03*
X70690000Y-110585000D03*
X70690000Y-113125000D03*
X78310000Y-113125000D03*
X78310000Y-110585000D03*
X78310000Y-108045000D03*
X78310000Y-105505000D03*
X78310000Y-102965000D03*
X78310000Y-100425000D03*
X78310000Y-97885000D03*
%TD*%
D20*
%TO.C,RV13*%
X56950000Y-149000000D03*
D17*
X66500000Y-160000000D03*
D20*
X68550000Y-149000000D03*
D16*
X59000000Y-160000000D03*
D17*
X61500000Y-160000000D03*
X64000000Y-160000000D03*
%TD*%
D16*
%TO.C,D5*%
X85980000Y-89000000D03*
D17*
X88520000Y-89000000D03*
%TD*%
D20*
%TO.C,RV7*%
X56950000Y-56000000D03*
D17*
X66500000Y-67000000D03*
D20*
X68550000Y-56000000D03*
D16*
X59000000Y-67000000D03*
D17*
X61500000Y-67000000D03*
X64000000Y-67000000D03*
%TD*%
D12*
%TO.C,RV10*%
X60040000Y-102500000D03*
X57500000Y-102500000D03*
X54960000Y-102500000D03*
%TD*%
D13*
%TO.C,R73*%
X91060000Y-142250000D03*
X83440000Y-142250000D03*
%TD*%
D16*
%TO.C,RV6*%
X84750000Y-113250000D03*
D17*
X87250000Y-113250000D03*
X89750000Y-113250000D03*
X84750000Y-110750000D03*
X87250000Y-110750000D03*
X89750000Y-110750000D03*
D22*
X82500000Y-103250000D03*
X92000000Y-103250000D03*
%TD*%
D13*
%TO.C,R68*%
X76250000Y-59810000D03*
X76250000Y-52190000D03*
%TD*%
%TO.C,R72*%
X91060000Y-139250000D03*
X83440000Y-139250000D03*
%TD*%
D14*
%TO.C,D10*%
X96500000Y-90810000D03*
D13*
X96500000Y-83190000D03*
%TD*%
%TO.C,C18*%
X72000000Y-116500000D03*
X77000000Y-116500000D03*
%TD*%
D20*
%TO.C,RV12*%
X56950000Y-119000000D03*
D17*
X66500000Y-130000000D03*
D20*
X68550000Y-119000000D03*
D16*
X59000000Y-130000000D03*
D17*
X61500000Y-130000000D03*
X64000000Y-130000000D03*
%TD*%
D23*
%TO.C,J14*%
X52750000Y-144000000D03*
D24*
X52750000Y-146540000D03*
X52750000Y-149080000D03*
X52750000Y-151620000D03*
X52750000Y-154160000D03*
X52750000Y-156700000D03*
%TD*%
D23*
%TO.C,J16*%
X52750000Y-52000000D03*
D24*
X52750000Y-54540000D03*
X52750000Y-57080000D03*
X52750000Y-59620000D03*
X52750000Y-62160000D03*
X52750000Y-64700000D03*
%TD*%
D23*
%TO.C,J15*%
X97250000Y-138920000D03*
D24*
X97250000Y-141460000D03*
X97250000Y-144000000D03*
X97250000Y-146540000D03*
X97250000Y-149080000D03*
X97250000Y-151620000D03*
X97250000Y-154160000D03*
X97250000Y-156700000D03*
%TD*%
D23*
%TO.C,J24*%
X97250000Y-52000000D03*
D24*
X97250000Y-54540000D03*
X97250000Y-57080000D03*
X97250000Y-59620000D03*
X97250000Y-62160000D03*
X97250000Y-64700000D03*
X97250000Y-67240000D03*
X97250000Y-69780000D03*
%TD*%
%LPD*%
M02*
