%TF.GenerationSoftware,KiCad,Pcbnew,10.0.1*%
%TF.CreationDate,2026-06-20T13:47:53+02:00*%
%TF.ProjectId,DMH_Dual_VCA_Mk3_PCB_Controls,444d485f-4475-4616-9c5f-5643415f4d6b,1*%
%TF.SameCoordinates,Original*%
%TF.FileFunction,Soldermask,Top*%
%TF.FilePolarity,Negative*%
%FSLAX46Y46*%
G04 Gerber Fmt 4.6, Leading zero omitted, Abs format (unit mm)*
G04 Created by KiCad (PCBNEW 10.0.1) date 2026-06-20 13:47:53*
%MOMM*%
%LPD*%
G01*
G04 APERTURE LIST*
G04 Aperture macros list*
%AMRoundRect*
0 Rectangle with rounded corners*
0 $1 Rounding radius*
0 $2 $3 $4 $5 $6 $7 $8 $9 X,Y pos of 4 corners*
0 Add a 4 corners polygon primitive as box body*
4,1,4,$2,$3,$4,$5,$6,$7,$8,$9,$2,$3,0*
0 Add four circle primitives for the rounded corners*
1,1,$1+$1,$2,$3*
1,1,$1+$1,$4,$5*
1,1,$1+$1,$6,$7*
1,1,$1+$1,$8,$9*
0 Add four rect primitives between the rounded corners*
20,1,$1+$1,$2,$3,$4,$5,0*
20,1,$1+$1,$4,$5,$6,$7,0*
20,1,$1+$1,$6,$7,$8,$9,0*
20,1,$1+$1,$8,$9,$2,$3,0*%
G04 Aperture macros list end*
%ADD10C,1.440000*%
%ADD11C,1.600000*%
%ADD12RoundRect,0.250000X0.550000X-0.550000X0.550000X0.550000X-0.550000X0.550000X-0.550000X-0.550000X0*%
%ADD13O,2.720000X3.240000*%
%ADD14R,1.800000X1.800000*%
%ADD15C,1.800000*%
%ADD16RoundRect,0.250000X-0.550000X0.550000X-0.550000X-0.550000X0.550000X-0.550000X0.550000X0.550000X0*%
%ADD17C,2.800000*%
%ADD18O,4.000000X4.200000*%
%ADD19RoundRect,0.250000X-0.550000X-0.550000X0.550000X-0.550000X0.550000X0.550000X-0.550000X0.550000X0*%
%ADD20RoundRect,0.500000X1.000000X-0.500000X1.000000X0.500000X-1.000000X0.500000X-1.000000X-0.500000X0*%
%ADD21R,1.700000X1.700000*%
%ADD22C,1.700000*%
G04 APERTURE END LIST*
D10*
%TO.C,RV14*%
X60000000Y-108500000D03*
X57460000Y-108500000D03*
X54920000Y-108500000D03*
%TD*%
D11*
%TO.C,R69*%
X79250000Y-59810000D03*
X79250000Y-52190000D03*
%TD*%
D10*
%TO.C,RV15*%
X60000000Y-136500000D03*
X57460000Y-136500000D03*
X54920000Y-136500000D03*
%TD*%
D12*
%TO.C,D8*%
X78000000Y-90810000D03*
D11*
X78000000Y-83190000D03*
%TD*%
%TO.C,R65*%
X67500000Y-108060000D03*
X67500000Y-100440000D03*
%TD*%
%TO.C,R67*%
X91060000Y-49250000D03*
X83440000Y-49250000D03*
%TD*%
D13*
%TO.C,RV16*%
X82450000Y-149000000D03*
X92050000Y-149000000D03*
D14*
X84750000Y-156500000D03*
D15*
X87250000Y-156500000D03*
X89750000Y-156500000D03*
%TD*%
D11*
%TO.C,R66*%
X91060000Y-46250000D03*
X83440000Y-46250000D03*
%TD*%
%TO.C,R75*%
X79250000Y-145190000D03*
X79250000Y-152810000D03*
%TD*%
D10*
%TO.C,RV9*%
X60040000Y-74000000D03*
X57500000Y-74000000D03*
X54960000Y-74000000D03*
%TD*%
D14*
%TO.C,D6*%
X85980000Y-117500000D03*
D15*
X88520000Y-117500000D03*
%TD*%
D11*
%TO.C,C19*%
X72000000Y-94500000D03*
X77000000Y-94500000D03*
%TD*%
D16*
%TO.C,D9*%
X96500000Y-73440000D03*
D11*
X96500000Y-81060000D03*
%TD*%
D16*
%TO.C,D7*%
X78000000Y-73440000D03*
D11*
X78000000Y-81060000D03*
%TD*%
%TO.C,R74*%
X76250000Y-145190000D03*
X76250000Y-152810000D03*
%TD*%
D17*
%TO.C,SW2*%
X84837000Y-84450000D03*
X84837000Y-79750000D03*
X84837000Y-75050000D03*
X89663000Y-84450000D03*
X89663000Y-79750000D03*
X89663000Y-75050000D03*
%TD*%
D13*
%TO.C,RV11*%
X82450000Y-56000000D03*
X92050000Y-56000000D03*
D14*
X84750000Y-63500000D03*
D15*
X87250000Y-63500000D03*
X89750000Y-63500000D03*
%TD*%
D11*
%TO.C,R71*%
X79000000Y-137560000D03*
X79000000Y-129940000D03*
%TD*%
%TO.C,R70*%
X70500000Y-137560000D03*
X70500000Y-129940000D03*
%TD*%
D17*
%TO.C,SW1*%
X84837000Y-131450000D03*
X84837000Y-126750000D03*
X84837000Y-122050000D03*
X89663000Y-131450000D03*
X89663000Y-126750000D03*
X89663000Y-122050000D03*
%TD*%
D11*
%TO.C,R64*%
X70500000Y-66940000D03*
X70500000Y-74560000D03*
%TD*%
D18*
%TO.C,RV8*%
X56950000Y-86000000D03*
D15*
X66500000Y-97000000D03*
D18*
X68550000Y-86000000D03*
D14*
X59000000Y-97000000D03*
D15*
X61500000Y-97000000D03*
X64000000Y-97000000D03*
%TD*%
D19*
%TO.C,U9*%
X70690000Y-97885000D03*
D11*
X70690000Y-100425000D03*
X70690000Y-102965000D03*
X70690000Y-105505000D03*
X70690000Y-108045000D03*
X70690000Y-110585000D03*
X70690000Y-113125000D03*
X78310000Y-113125000D03*
X78310000Y-110585000D03*
X78310000Y-108045000D03*
X78310000Y-105505000D03*
X78310000Y-102965000D03*
X78310000Y-100425000D03*
X78310000Y-97885000D03*
%TD*%
D18*
%TO.C,RV13*%
X56950000Y-149000000D03*
D15*
X66500000Y-160000000D03*
D18*
X68550000Y-149000000D03*
D14*
X59000000Y-160000000D03*
D15*
X61500000Y-160000000D03*
X64000000Y-160000000D03*
%TD*%
D14*
%TO.C,D5*%
X85980000Y-89000000D03*
D15*
X88520000Y-89000000D03*
%TD*%
D18*
%TO.C,RV7*%
X56950000Y-56000000D03*
D15*
X66500000Y-67000000D03*
D18*
X68550000Y-56000000D03*
D14*
X59000000Y-67000000D03*
D15*
X61500000Y-67000000D03*
X64000000Y-67000000D03*
%TD*%
D10*
%TO.C,RV10*%
X60040000Y-102500000D03*
X57500000Y-102500000D03*
X54960000Y-102500000D03*
%TD*%
D11*
%TO.C,R73*%
X91060000Y-142250000D03*
X83440000Y-142250000D03*
%TD*%
D14*
%TO.C,RV6*%
X84750000Y-113250000D03*
D15*
X87250000Y-113250000D03*
X89750000Y-113250000D03*
X84750000Y-110750000D03*
X87250000Y-110750000D03*
X89750000Y-110750000D03*
D20*
X82500000Y-103250000D03*
X92000000Y-103250000D03*
%TD*%
D11*
%TO.C,R68*%
X76250000Y-59810000D03*
X76250000Y-52190000D03*
%TD*%
%TO.C,R72*%
X91060000Y-139250000D03*
X83440000Y-139250000D03*
%TD*%
D12*
%TO.C,D10*%
X96500000Y-90810000D03*
D11*
X96500000Y-83190000D03*
%TD*%
%TO.C,C18*%
X72000000Y-116500000D03*
X77000000Y-116500000D03*
%TD*%
D18*
%TO.C,RV12*%
X56950000Y-119000000D03*
D15*
X66500000Y-130000000D03*
D18*
X68550000Y-119000000D03*
D14*
X59000000Y-130000000D03*
D15*
X61500000Y-130000000D03*
X64000000Y-130000000D03*
%TD*%
D21*
%TO.C,J14*%
X52750000Y-144000000D03*
D22*
X52750000Y-146540000D03*
X52750000Y-149080000D03*
X52750000Y-151620000D03*
X52750000Y-154160000D03*
X52750000Y-156700000D03*
%TD*%
D21*
%TO.C,J16*%
X52750000Y-52000000D03*
D22*
X52750000Y-54540000D03*
X52750000Y-57080000D03*
X52750000Y-59620000D03*
X52750000Y-62160000D03*
X52750000Y-64700000D03*
%TD*%
D21*
%TO.C,J15*%
X97250000Y-138920000D03*
D22*
X97250000Y-141460000D03*
X97250000Y-144000000D03*
X97250000Y-146540000D03*
X97250000Y-149080000D03*
X97250000Y-151620000D03*
X97250000Y-154160000D03*
X97250000Y-156700000D03*
%TD*%
D21*
%TO.C,J24*%
X97250000Y-52000000D03*
D22*
X97250000Y-54540000D03*
X97250000Y-57080000D03*
X97250000Y-59620000D03*
X97250000Y-62160000D03*
X97250000Y-64700000D03*
X97250000Y-67240000D03*
X97250000Y-69780000D03*
%TD*%
M02*
