%TF.GenerationSoftware,KiCad,Pcbnew,10.0.1*%
%TF.CreationDate,2026-07-12T11:55:44+02:00*%
%TF.ProjectId,DMH_Dual_VCA_Mk3_PANEL,444d485f-4475-4616-9c5f-5643415f4d6b,rev?*%
%TF.SameCoordinates,Original*%
%TF.FileFunction,Legend,Top*%
%TF.FilePolarity,Positive*%
%FSLAX46Y46*%
G04 Gerber Fmt 4.6, Leading zero omitted, Abs format (unit mm)*
G04 Created by KiCad (PCBNEW 10.0.1) date 2026-07-12 11:55:44*
%MOMM*%
%LPD*%
G01*
G04 APERTURE LIST*
%ADD10C,0.400000*%
%ADD11C,0.100000*%
%ADD12C,0.300000*%
%ADD13C,0.875000*%
%ADD14C,0.800000*%
%ADD15C,0.150000*%
%ADD16C,0.500000*%
%ADD17C,0.000000*%
%ADD18C,14.000000*%
%ADD19O,2.500000X1.500000*%
%ADD20C,3.100000*%
%ADD21C,2.900000*%
%ADD22C,13.000000*%
%ADD23C,0.500000*%
%ADD24C,12.000000*%
%ADD25C,4.000000*%
G04 APERTURE END LIST*
D10*
X52000000Y-103250000D02*
X75000000Y-103250000D01*
D11*
X81249999Y-80500000D02*
X81250001Y-103249998D01*
X81249999Y-103250002D02*
X81250001Y-126000000D01*
X81749999Y-80500000D02*
X81750001Y-103249998D01*
X81749999Y-103250002D02*
X81750001Y-126000000D01*
X82249999Y-80500000D02*
X82250001Y-103249998D01*
X82249999Y-103250002D02*
X82250001Y-126000000D01*
X82749999Y-80500000D02*
X82750001Y-103249998D01*
X82749999Y-103250002D02*
X82750001Y-126000000D01*
X83249999Y-80500000D02*
X83250001Y-103249998D01*
X83249999Y-103250002D02*
X83250001Y-126000000D01*
X83749999Y-80500000D02*
X83750001Y-103249998D01*
X83749999Y-103250002D02*
X83750001Y-126000000D01*
X84249999Y-80500000D02*
X84250001Y-103249998D01*
X84249999Y-103250002D02*
X84250001Y-126000000D01*
X84749999Y-80500000D02*
X84750001Y-103249998D01*
X84749999Y-103250002D02*
X84750001Y-126000000D01*
X85249999Y-80500000D02*
X85250001Y-103249998D01*
X85249999Y-103250002D02*
X85250001Y-126000000D01*
X85749999Y-80500000D02*
X85750001Y-103249998D01*
X85749999Y-103250002D02*
X85750001Y-126000000D01*
X86249999Y-80500000D02*
X86250001Y-103249998D01*
X86249999Y-103250002D02*
X86250001Y-126000000D01*
X86749999Y-80500000D02*
X86750001Y-103249998D01*
X86749999Y-103250002D02*
X86750001Y-126000000D01*
X87249998Y-80500000D02*
X87250000Y-103249998D01*
X87249998Y-103250002D02*
X87250000Y-126000000D01*
X87750000Y-80500000D02*
X87750002Y-103249998D01*
X87750000Y-103250002D02*
X87750002Y-126000000D01*
X88249999Y-80500000D02*
X88250001Y-103249998D01*
X88249999Y-103250002D02*
X88250001Y-126000000D01*
X88750000Y-80500000D02*
X88750002Y-103249998D01*
X88750000Y-103250002D02*
X88750002Y-126000000D01*
X89249999Y-80500000D02*
X89250001Y-103249998D01*
X89249999Y-103250002D02*
X89250001Y-126000000D01*
X89750000Y-80500000D02*
X89750002Y-103249998D01*
X89750000Y-103250002D02*
X89750002Y-126000000D01*
X90249999Y-80500000D02*
X90250001Y-103249998D01*
X90249999Y-103250002D02*
X90250001Y-126000000D01*
X90750000Y-80500000D02*
X90750002Y-103249998D01*
X90750000Y-103250002D02*
X90750002Y-126000000D01*
X91249999Y-80500000D02*
X91250001Y-103249998D01*
X91249999Y-103250002D02*
X91250001Y-126000000D01*
X91750000Y-80500000D02*
X91750002Y-103249998D01*
X91750000Y-103250002D02*
X91750002Y-126000000D01*
X92249999Y-80500000D02*
X92250001Y-103249998D01*
X92249999Y-103250002D02*
X92250001Y-126000000D01*
X92750000Y-80500000D02*
X92750002Y-103249998D01*
X92750000Y-103250002D02*
X92750002Y-126000000D01*
X93249999Y-80500000D02*
X93250001Y-103249998D01*
X93249999Y-103250002D02*
X93250001Y-126000000D01*
D12*
G36*
X77200554Y-117507548D02*
G01*
X77719234Y-117507548D01*
X77719234Y-117310078D01*
X77452521Y-117310078D01*
X77452521Y-115653104D01*
X77719234Y-115653104D01*
X77719234Y-115457740D01*
X77200554Y-115457740D01*
X77200554Y-117507548D01*
G37*
G36*
X78858069Y-115679185D02*
G01*
X78950559Y-115709041D01*
X78991716Y-115731302D01*
X79029593Y-115758488D01*
X79065505Y-115791930D01*
X79098036Y-115830725D01*
X79129249Y-115878300D01*
X79156756Y-115932090D01*
X79669117Y-117059576D01*
X79692198Y-117122500D01*
X79263826Y-117122500D01*
X79247162Y-117074670D01*
X79246973Y-117074231D01*
X79171411Y-116902040D01*
X78331429Y-116902040D01*
X78257973Y-117072124D01*
X78257820Y-117072533D01*
X78243227Y-117122500D01*
X77804322Y-117122500D01*
X77827403Y-117059576D01*
X78039493Y-116589073D01*
X78470006Y-116589073D01*
X79032833Y-116589073D01*
X78814389Y-116079460D01*
X78791124Y-116048032D01*
X78771409Y-116038289D01*
X78749359Y-116035222D01*
X78746056Y-116035283D01*
X78712577Y-116045547D01*
X78698263Y-116059025D01*
X78686344Y-116079460D01*
X78470006Y-116589073D01*
X78039493Y-116589073D01*
X78335642Y-115932090D01*
X78391589Y-115833881D01*
X78455892Y-115763329D01*
X78492625Y-115735607D01*
X78532729Y-115712714D01*
X78578027Y-115694050D01*
X78627261Y-115680530D01*
X78684791Y-115671702D01*
X78747253Y-115668766D01*
X78858069Y-115679185D01*
G37*
G36*
X80300362Y-115457740D02*
G01*
X79779575Y-115457740D01*
X79779575Y-115653104D01*
X80048395Y-115653104D01*
X80048395Y-117310078D01*
X79779575Y-117310078D01*
X79779575Y-117507548D01*
X80300362Y-117507548D01*
X80300362Y-115457740D01*
G37*
G36*
X94322187Y-117507548D02*
G01*
X94840867Y-117507548D01*
X94840867Y-117310078D01*
X94574154Y-117310078D01*
X94574154Y-115653104D01*
X94840867Y-115653104D01*
X94840867Y-115457740D01*
X94322187Y-115457740D01*
X94322187Y-117507548D01*
G37*
G36*
X96185115Y-115709121D02*
G01*
X96289355Y-115733598D01*
X96377225Y-115776686D01*
X96415782Y-115805256D01*
X96450580Y-115838393D01*
X96463308Y-115852618D01*
X96514509Y-115929842D01*
X96546467Y-116019277D01*
X96554787Y-116068654D01*
X96557650Y-116121501D01*
X96550700Y-116197305D01*
X96523283Y-116282497D01*
X96477402Y-116353287D01*
X96414860Y-116408181D01*
X96447485Y-116428552D01*
X96476327Y-116453429D01*
X96504063Y-116485924D01*
X96527081Y-116522723D01*
X96546555Y-116566267D01*
X96560581Y-116613116D01*
X96569374Y-116664283D01*
X96572305Y-116717117D01*
X96562422Y-116805705D01*
X96548420Y-116853570D01*
X96528903Y-116898848D01*
X96503693Y-116942097D01*
X96473661Y-116981816D01*
X96421713Y-117032222D01*
X96343152Y-117080295D01*
X96296896Y-117098060D01*
X96245607Y-117111218D01*
X96187274Y-117119624D01*
X96122959Y-117122500D01*
X95087705Y-117122500D01*
X95080989Y-117122384D01*
X95033733Y-117111939D01*
X95017153Y-117100551D01*
X95004907Y-117084976D01*
X94996114Y-117061531D01*
X94993183Y-117032282D01*
X94993183Y-116746610D01*
X95373286Y-116746610D01*
X95377312Y-116766351D01*
X95386803Y-116775181D01*
X95402687Y-116778117D01*
X96032650Y-116778117D01*
X96038009Y-116778066D01*
X96072668Y-116774810D01*
X96100857Y-116766910D01*
X96125350Y-116753544D01*
X96143933Y-116736077D01*
X96162051Y-116707383D01*
X96173334Y-116656209D01*
X96169258Y-116627168D01*
X96158312Y-116601156D01*
X96141827Y-116578357D01*
X96140612Y-116577047D01*
X96101370Y-116549560D01*
X96071362Y-116541281D01*
X96032650Y-116538423D01*
X95373286Y-116538423D01*
X95373286Y-116746610D01*
X94993183Y-116746610D01*
X94993183Y-116092283D01*
X95373286Y-116092283D01*
X95373286Y-116284258D01*
X96034757Y-116284258D01*
X96039216Y-116284217D01*
X96071203Y-116281068D01*
X96097482Y-116273216D01*
X96121234Y-116259245D01*
X96139720Y-116240478D01*
X96154589Y-116216127D01*
X96164908Y-116171601D01*
X96162823Y-116151789D01*
X96153930Y-116125647D01*
X96139720Y-116102725D01*
X96136698Y-116099249D01*
X96097423Y-116071747D01*
X96069333Y-116063773D01*
X96034757Y-116060959D01*
X95402687Y-116060959D01*
X95386421Y-116064072D01*
X95376394Y-116074506D01*
X95373286Y-116092283D01*
X94993183Y-116092283D01*
X94993183Y-115792139D01*
X94993218Y-115788813D01*
X95003223Y-115744017D01*
X95015021Y-115727726D01*
X95031347Y-115715661D01*
X95056385Y-115706868D01*
X95087705Y-115703937D01*
X96101985Y-115703937D01*
X96185115Y-115709121D01*
G37*
G36*
X97178729Y-115457740D02*
G01*
X96657943Y-115457740D01*
X96657943Y-115653104D01*
X96926762Y-115653104D01*
X96926762Y-117310078D01*
X96657943Y-117310078D01*
X96657943Y-117507548D01*
X97178729Y-117507548D01*
X97178729Y-115457740D01*
G37*
G36*
X92272793Y-131953937D02*
G01*
X92272793Y-132329918D01*
X92896528Y-132329918D01*
X92896528Y-133372500D01*
X93278646Y-133372500D01*
X93278646Y-132329918D01*
X93900275Y-132329918D01*
X93900275Y-131953937D01*
X92272793Y-131953937D01*
G37*
G36*
X95234344Y-131958310D02*
G01*
X95292311Y-131967558D01*
X95344615Y-131981570D01*
X95392886Y-132000594D01*
X95436047Y-132023961D01*
X95477850Y-132054022D01*
X95514659Y-132088393D01*
X95528741Y-132104065D01*
X95583465Y-132185452D01*
X95616916Y-132274746D01*
X95628140Y-132367654D01*
X95621803Y-132448162D01*
X95597599Y-132532179D01*
X95555572Y-132602657D01*
X95527404Y-132633441D01*
X95493685Y-132661570D01*
X95542638Y-132697008D01*
X95588353Y-132752281D01*
X95605564Y-132788095D01*
X95618130Y-132829581D01*
X95627187Y-132887194D01*
X95630155Y-132955394D01*
X95630155Y-133238410D01*
X95636475Y-133372500D01*
X95252159Y-133372500D01*
X95245931Y-133278252D01*
X95245931Y-132995236D01*
X95241530Y-132951852D01*
X95221607Y-132909958D01*
X95203431Y-132893709D01*
X95179722Y-132881790D01*
X95140308Y-132872405D01*
X95090501Y-132869390D01*
X94429030Y-132869390D01*
X94429030Y-133372500D01*
X94048927Y-133372500D01*
X94048927Y-132340360D01*
X94429030Y-132340360D01*
X94429030Y-132545982D01*
X95101034Y-132545982D01*
X95157695Y-132536502D01*
X95185867Y-132520980D01*
X95208104Y-132499820D01*
X95224647Y-132473418D01*
X95235398Y-132426364D01*
X95228756Y-132386789D01*
X95203891Y-132346680D01*
X95164202Y-132319701D01*
X95135428Y-132311674D01*
X95101034Y-132308852D01*
X94460537Y-132308852D01*
X94440796Y-132314192D01*
X94431966Y-132324977D01*
X94429030Y-132340360D01*
X94048927Y-132340360D01*
X94048927Y-132042139D01*
X94048961Y-132038813D01*
X94058967Y-131994017D01*
X94070765Y-131977726D01*
X94087091Y-131965661D01*
X94112129Y-131956868D01*
X94143449Y-131953937D01*
X95151409Y-131953937D01*
X95234344Y-131958310D01*
G37*
G36*
X96015754Y-131953937D02*
G01*
X95968686Y-131956872D01*
X95927864Y-131965693D01*
X95896986Y-131978409D01*
X95870988Y-131995759D01*
X95851087Y-132016199D01*
X95835459Y-132040723D01*
X95816854Y-132103276D01*
X95814162Y-132145088D01*
X95814162Y-133175121D01*
X95817089Y-133220054D01*
X95825855Y-133259141D01*
X95838627Y-133289177D01*
X95856039Y-133314571D01*
X95901741Y-133350038D01*
X95965944Y-133369281D01*
X96013647Y-133372500D01*
X97307279Y-133372500D01*
X97307279Y-133009249D01*
X96227879Y-133009249D01*
X96211395Y-133006318D01*
X96200551Y-132997526D01*
X96194265Y-132971880D01*
X96194265Y-132801429D01*
X97300960Y-132801429D01*
X97300960Y-132528396D01*
X96194265Y-132528396D01*
X96194265Y-132365822D01*
X96197253Y-132347580D01*
X96206444Y-132335592D01*
X96227879Y-132329918D01*
X97307279Y-132329918D01*
X97307279Y-131953937D01*
X96015754Y-131953937D01*
G37*
G36*
X98573160Y-133401809D02*
G01*
X98619951Y-133398835D01*
X98664790Y-133389743D01*
X98703399Y-133375774D01*
X98738704Y-133356223D01*
X98767288Y-133333418D01*
X98791886Y-133305679D01*
X98812579Y-133271475D01*
X99243057Y-132376630D01*
X99258880Y-132362070D01*
X99270351Y-132359777D01*
X99284027Y-132362708D01*
X99295512Y-132371501D01*
X99303965Y-132397696D01*
X99303965Y-133372500D01*
X99669413Y-133372500D01*
X99669413Y-132330376D01*
X99666519Y-132265945D01*
X99657982Y-132208382D01*
X99644975Y-132159986D01*
X99627338Y-132116817D01*
X99605743Y-132079184D01*
X99580051Y-132045771D01*
X99537064Y-132004953D01*
X99496943Y-131976716D01*
X99452029Y-131952984D01*
X99406548Y-131935955D01*
X99357319Y-131924380D01*
X99289310Y-131918766D01*
X99239604Y-131921647D01*
X99193804Y-131930094D01*
X99152180Y-131943607D01*
X99113919Y-131961973D01*
X99044724Y-132013907D01*
X98982683Y-132088961D01*
X98930182Y-132183373D01*
X98608880Y-132881938D01*
X98598779Y-132899406D01*
X98585784Y-132907694D01*
X98573160Y-132909323D01*
X98556033Y-132905880D01*
X98543213Y-132893502D01*
X98537531Y-132881938D01*
X98216229Y-132183373D01*
X98183335Y-132120298D01*
X98146009Y-132064088D01*
X98111811Y-132024015D01*
X98073791Y-131989631D01*
X98036625Y-131964348D01*
X97995880Y-131944273D01*
X97953973Y-131930443D01*
X97908415Y-131921843D01*
X97857101Y-131918766D01*
X97762762Y-131929731D01*
X97676323Y-131961611D01*
X97609347Y-132004953D01*
X97575255Y-132036075D01*
X97545843Y-132071670D01*
X97523073Y-132108900D01*
X97504655Y-132150793D01*
X97481746Y-132248969D01*
X97476998Y-132330376D01*
X97476998Y-133372500D01*
X97842446Y-133372500D01*
X97842446Y-132397696D01*
X97845141Y-132381597D01*
X97852283Y-132369918D01*
X97875968Y-132359777D01*
X97899603Y-132370476D01*
X97903354Y-132376630D01*
X98333832Y-133271475D01*
X98373741Y-133328145D01*
X98430015Y-133369465D01*
X98502671Y-133394862D01*
X98573160Y-133401809D01*
G37*
G36*
X94840651Y-73454393D02*
G01*
X94915939Y-73459444D01*
X94986696Y-73469880D01*
X95053489Y-73485568D01*
X95115964Y-73506196D01*
X95175687Y-73532205D01*
X95231163Y-73562854D01*
X95284884Y-73599633D01*
X95334277Y-73640874D01*
X95386416Y-73694460D01*
X95462316Y-73798649D01*
X95517912Y-73913836D01*
X95551773Y-74036382D01*
X95563163Y-74163310D01*
X95563140Y-74169289D01*
X95559606Y-74236105D01*
X95550260Y-74300973D01*
X95535061Y-74364699D01*
X95514403Y-74425846D01*
X95488232Y-74484807D01*
X95457053Y-74540543D01*
X95421019Y-74592946D01*
X95380531Y-74641507D01*
X95312293Y-74706859D01*
X95210394Y-74776921D01*
X95154160Y-74805053D01*
X95093927Y-74828603D01*
X95029541Y-74847367D01*
X94961001Y-74861087D01*
X94887341Y-74869608D01*
X94809277Y-74872500D01*
X94042843Y-74872500D01*
X94037173Y-74872412D01*
X93990693Y-74862094D01*
X93974248Y-74850664D01*
X93962060Y-74834976D01*
X93953347Y-74811531D01*
X93950428Y-74782282D01*
X93950428Y-73859228D01*
X94330531Y-73859228D01*
X94330531Y-74469407D01*
X94333106Y-74485611D01*
X94342037Y-74495613D01*
X94357825Y-74498716D01*
X94809277Y-74498716D01*
X94843926Y-74497746D01*
X94897338Y-74491932D01*
X94945427Y-74481153D01*
X94988924Y-74465534D01*
X95027566Y-74445498D01*
X95063658Y-74419721D01*
X95094950Y-74389723D01*
X95138626Y-74330634D01*
X95171833Y-74250625D01*
X95183060Y-74165325D01*
X95182996Y-74158758D01*
X95179050Y-74113671D01*
X95169252Y-74070188D01*
X95153742Y-74028326D01*
X95132995Y-73989212D01*
X95078097Y-73922151D01*
X95073879Y-73918292D01*
X95006000Y-73871082D01*
X94966460Y-73853925D01*
X94921746Y-73841110D01*
X94869088Y-73832783D01*
X94809277Y-73829918D01*
X94357825Y-73829918D01*
X94342891Y-73832602D01*
X94333541Y-73842028D01*
X94330531Y-73859228D01*
X93950428Y-73859228D01*
X93950428Y-73542139D01*
X93960273Y-73494254D01*
X93971943Y-73477817D01*
X93988052Y-73465661D01*
X94012478Y-73456868D01*
X94042843Y-73453937D01*
X94809277Y-73453937D01*
X94840651Y-73454393D01*
G37*
G36*
X95747719Y-73453937D02*
G01*
X95747719Y-74872500D01*
X96129929Y-74872500D01*
X96129929Y-73453937D01*
X95747719Y-73453937D01*
G37*
G36*
X97826745Y-73453937D02*
G01*
X96785171Y-73453937D01*
X96710888Y-73456805D01*
X96645308Y-73465159D01*
X96590008Y-73477926D01*
X96541200Y-73495034D01*
X96460633Y-73540641D01*
X96413403Y-73582073D01*
X96380260Y-73620338D01*
X96351788Y-73662172D01*
X96328522Y-73706805D01*
X96310609Y-73754115D01*
X96298632Y-73802536D01*
X96292470Y-73852724D01*
X96291679Y-73878462D01*
X96294569Y-73929439D01*
X96303073Y-73978440D01*
X96336418Y-74070474D01*
X96390569Y-74152438D01*
X96411388Y-74175400D01*
X96447920Y-74208548D01*
X96489957Y-74237511D01*
X96533103Y-74259534D01*
X96582115Y-74277477D01*
X96636390Y-74290756D01*
X96697567Y-74299491D01*
X96785171Y-74303536D01*
X97362653Y-74303536D01*
X97405786Y-74306469D01*
X97436743Y-74315281D01*
X97463403Y-74334677D01*
X97487315Y-74374084D01*
X97492804Y-74409507D01*
X97489950Y-74434213D01*
X97481698Y-74456466D01*
X97469723Y-74473895D01*
X97452753Y-74489457D01*
X97429677Y-74500668D01*
X97362653Y-74509249D01*
X96329414Y-74509249D01*
X96329414Y-74872500D01*
X97429789Y-74872500D01*
X97493194Y-74869621D01*
X97551202Y-74861195D01*
X97602914Y-74847906D01*
X97649962Y-74829914D01*
X97731151Y-74780894D01*
X97788918Y-74725587D01*
X97845759Y-74641675D01*
X97866554Y-74595365D01*
X97881782Y-74546806D01*
X97890794Y-74498432D01*
X97893881Y-74448982D01*
X97882570Y-74354791D01*
X97848700Y-74263378D01*
X97793238Y-74179803D01*
X97772157Y-74156532D01*
X97735031Y-74122781D01*
X97693008Y-74093377D01*
X97649630Y-74070602D01*
X97601362Y-74052326D01*
X97549554Y-74039273D01*
X97492487Y-74031177D01*
X97429789Y-74028396D01*
X96806146Y-74028396D01*
X96763667Y-74025337D01*
X96735768Y-74015648D01*
X96724263Y-74007330D01*
X96708080Y-73990540D01*
X96696115Y-73969554D01*
X96688543Y-73931310D01*
X96691412Y-73905512D01*
X96699770Y-73882416D01*
X96717944Y-73857304D01*
X96736014Y-73843764D01*
X96760949Y-73834471D01*
X96806146Y-73829918D01*
X97826745Y-73829918D01*
X97826745Y-73453937D01*
G37*
G36*
X97983366Y-73453937D02*
G01*
X97983366Y-73829918D01*
X98607101Y-73829918D01*
X98607101Y-74872500D01*
X98989219Y-74872500D01*
X98989219Y-73829918D01*
X99610847Y-73829918D01*
X99610847Y-73453937D01*
X97983366Y-73453937D01*
G37*
G36*
X95499691Y-85748716D02*
G01*
X94756338Y-85748716D01*
X94697787Y-85745845D01*
X94645093Y-85737466D01*
X94599266Y-85724407D01*
X94558371Y-85706823D01*
X94490212Y-85659353D01*
X94470757Y-85639723D01*
X94443176Y-85605761D01*
X94420196Y-85568178D01*
X94402339Y-85527687D01*
X94389941Y-85484646D01*
X94382554Y-85415325D01*
X94393824Y-85329285D01*
X94427200Y-85248362D01*
X94451677Y-85211677D01*
X94480696Y-85178721D01*
X94487518Y-85172151D01*
X94523674Y-85142822D01*
X94564891Y-85118419D01*
X94605971Y-85101564D01*
X94652554Y-85089285D01*
X94756338Y-85079918D01*
X95499691Y-85079918D01*
X95499691Y-84703937D01*
X94756338Y-84703937D01*
X94678428Y-84706824D01*
X94605201Y-84715310D01*
X94537173Y-84728971D01*
X94473459Y-84747608D01*
X94413709Y-84771063D01*
X94358029Y-84799016D01*
X94256380Y-84868998D01*
X94231338Y-84890874D01*
X94144684Y-84987022D01*
X94108143Y-85040678D01*
X94076502Y-85097655D01*
X94050338Y-85156936D01*
X94029557Y-85218838D01*
X94014690Y-85281796D01*
X94005562Y-85346685D01*
X94002452Y-85413310D01*
X94013837Y-85542679D01*
X94047481Y-85665945D01*
X94102365Y-85780255D01*
X94176861Y-85882258D01*
X94185176Y-85891507D01*
X94230758Y-85937134D01*
X94280648Y-85978415D01*
X94332789Y-86013770D01*
X94389072Y-86044601D01*
X94448157Y-86070127D01*
X94511341Y-86090867D01*
X94578157Y-86106490D01*
X94649150Y-86116951D01*
X94756338Y-86122500D01*
X95499691Y-86122500D01*
X95499691Y-85748716D01*
G37*
G36*
X97162893Y-86122500D02*
G01*
X97162893Y-85759249D01*
X96178014Y-85759249D01*
X96132260Y-85756101D01*
X96098351Y-85745789D01*
X96081058Y-85733773D01*
X96068267Y-85717270D01*
X96054310Y-85669385D01*
X96051985Y-85624977D01*
X96051985Y-84703937D01*
X95669775Y-84703937D01*
X95669775Y-85660606D01*
X95672804Y-85742542D01*
X95682278Y-85816454D01*
X95695589Y-85872155D01*
X95714168Y-85922248D01*
X95735384Y-85962076D01*
X95761274Y-85997482D01*
X95790153Y-86026790D01*
X95823594Y-86052182D01*
X95904804Y-86091177D01*
X96011917Y-86115325D01*
X96131761Y-86122500D01*
X97162893Y-86122500D01*
G37*
G36*
X97311362Y-84703937D02*
G01*
X97311362Y-86122500D01*
X97693572Y-86122500D01*
X97693572Y-84703937D01*
X97311362Y-84703937D01*
G37*
G36*
X99060940Y-84712090D02*
G01*
X99122189Y-84723676D01*
X99177968Y-84739970D01*
X99230077Y-84761367D01*
X99277274Y-84787178D01*
X99323597Y-84819960D01*
X99365200Y-84857260D01*
X99421324Y-84923349D01*
X99477138Y-85020859D01*
X99511246Y-85126284D01*
X99522645Y-85234524D01*
X99521857Y-85262915D01*
X99515673Y-85318816D01*
X99503602Y-85373307D01*
X99485486Y-85427166D01*
X99461857Y-85478715D01*
X99432802Y-85527894D01*
X99398814Y-85573869D01*
X99369862Y-85605760D01*
X99288447Y-85672595D01*
X99242394Y-85699421D01*
X99191878Y-85722073D01*
X99136758Y-85740230D01*
X99076762Y-85753623D01*
X99010544Y-85762049D01*
X98938844Y-85764928D01*
X98285799Y-85764928D01*
X98285799Y-86122500D01*
X97905696Y-86122500D01*
X97905696Y-85109136D01*
X98285799Y-85109136D01*
X98285799Y-85416332D01*
X98947270Y-85416332D01*
X98999489Y-85412511D01*
X99033956Y-85404256D01*
X99062876Y-85391699D01*
X99089525Y-85372891D01*
X99111035Y-85349471D01*
X99133626Y-85309824D01*
X99141805Y-85280978D01*
X99144649Y-85249179D01*
X99137717Y-85198323D01*
X99126006Y-85168948D01*
X99108928Y-85142567D01*
X99084921Y-85119186D01*
X99059876Y-85103114D01*
X99029689Y-85090878D01*
X98992025Y-85082754D01*
X98947270Y-85079918D01*
X98313094Y-85079918D01*
X98296600Y-85083934D01*
X98288615Y-85093374D01*
X98285799Y-85109136D01*
X97905696Y-85109136D01*
X97905696Y-84792139D01*
X97915542Y-84744254D01*
X97927212Y-84727817D01*
X97943320Y-84715661D01*
X97967747Y-84706868D01*
X97998112Y-84703937D01*
X98938844Y-84703937D01*
X99060940Y-84712090D01*
G37*
G36*
X95519602Y-78954385D02*
G01*
X95594897Y-78959419D01*
X95665657Y-78969838D01*
X95732459Y-78985512D01*
X95794944Y-79006127D01*
X95854697Y-79032133D01*
X95910207Y-79062785D01*
X95964001Y-79099594D01*
X96013472Y-79140874D01*
X96065611Y-79194460D01*
X96141510Y-79298649D01*
X96197107Y-79413836D01*
X96230968Y-79536382D01*
X96242358Y-79663310D01*
X96242335Y-79669225D01*
X96238805Y-79736019D01*
X96229461Y-79800866D01*
X96214256Y-79864594D01*
X96193592Y-79925744D01*
X96167404Y-79984728D01*
X96136207Y-80040484D01*
X96100147Y-80092919D01*
X96059634Y-80141507D01*
X95991429Y-80206858D01*
X95889557Y-80276912D01*
X95833322Y-80305047D01*
X95773086Y-80328599D01*
X95708698Y-80347365D01*
X95640159Y-80361087D01*
X95566513Y-80369608D01*
X95488472Y-80372500D01*
X95190252Y-80372500D01*
X95083064Y-80366951D01*
X95012071Y-80356490D01*
X94945255Y-80340867D01*
X94882071Y-80320127D01*
X94822986Y-80294601D01*
X94766703Y-80263770D01*
X94714562Y-80228415D01*
X94664672Y-80187134D01*
X94619090Y-80141507D01*
X94610775Y-80132258D01*
X94536279Y-80030255D01*
X94481395Y-79915945D01*
X94447751Y-79792679D01*
X94436543Y-79665325D01*
X94816468Y-79665325D01*
X94823855Y-79734646D01*
X94836253Y-79777687D01*
X94854110Y-79818178D01*
X94877090Y-79855761D01*
X94904671Y-79889723D01*
X94924126Y-79909353D01*
X94992285Y-79956823D01*
X95033180Y-79974407D01*
X95079007Y-79987466D01*
X95131701Y-79995845D01*
X95190252Y-79998716D01*
X95488472Y-79998716D01*
X95523063Y-79997748D01*
X95576458Y-79991936D01*
X95624537Y-79981157D01*
X95668029Y-79965537D01*
X95706672Y-79945498D01*
X95742762Y-79919721D01*
X95774053Y-79889723D01*
X95817829Y-79830498D01*
X95851033Y-79750513D01*
X95862255Y-79665325D01*
X95862196Y-79659011D01*
X95858276Y-79613918D01*
X95848496Y-79570427D01*
X95832982Y-79528506D01*
X95812227Y-79489337D01*
X95757292Y-79422151D01*
X95753094Y-79418310D01*
X95685193Y-79371092D01*
X95645631Y-79353929D01*
X95600900Y-79341110D01*
X95548251Y-79332783D01*
X95488472Y-79329918D01*
X95190252Y-79329918D01*
X95086468Y-79339285D01*
X95039885Y-79351564D01*
X94998805Y-79368419D01*
X94957588Y-79392822D01*
X94921432Y-79422151D01*
X94914610Y-79428721D01*
X94885591Y-79461677D01*
X94861114Y-79498362D01*
X94827738Y-79579285D01*
X94816468Y-79665325D01*
X94436543Y-79665325D01*
X94436366Y-79663310D01*
X94439476Y-79596685D01*
X94448604Y-79531796D01*
X94463471Y-79468838D01*
X94484252Y-79406936D01*
X94510416Y-79347655D01*
X94542057Y-79290678D01*
X94578598Y-79237022D01*
X94665252Y-79140874D01*
X94690294Y-79118998D01*
X94791943Y-79049016D01*
X94847623Y-79021063D01*
X94907373Y-78997608D01*
X94971087Y-78978971D01*
X95039115Y-78965310D01*
X95112342Y-78956824D01*
X95190252Y-78953937D01*
X95488472Y-78953937D01*
X95519602Y-78954385D01*
G37*
G36*
X96678332Y-78953937D02*
G01*
X96626260Y-78956878D01*
X96580059Y-78965743D01*
X96543726Y-78978741D01*
X96512112Y-78996571D01*
X96486831Y-79017656D01*
X96465696Y-79043041D01*
X96435949Y-79106713D01*
X96422584Y-79193235D01*
X96422151Y-79214422D01*
X96422151Y-80372500D01*
X96802254Y-80372500D01*
X96802254Y-79898790D01*
X97908949Y-79898790D01*
X97908949Y-79545982D01*
X96802254Y-79545982D01*
X96802254Y-79392841D01*
X96805211Y-79367463D01*
X96814185Y-79348601D01*
X96842027Y-79331843D01*
X96861056Y-79329918D01*
X97915269Y-79329918D01*
X97915269Y-78953937D01*
X96678332Y-78953937D01*
G37*
G36*
X98337229Y-78953937D02*
G01*
X98285157Y-78956878D01*
X98238957Y-78965743D01*
X98202623Y-78978741D01*
X98171010Y-78996571D01*
X98145728Y-79017656D01*
X98124594Y-79043041D01*
X98094846Y-79106713D01*
X98081481Y-79193235D01*
X98081049Y-79214422D01*
X98081049Y-80372500D01*
X98461152Y-80372500D01*
X98461152Y-79898790D01*
X99567847Y-79898790D01*
X99567847Y-79545982D01*
X98461152Y-79545982D01*
X98461152Y-79392841D01*
X98464109Y-79367463D01*
X98473083Y-79348601D01*
X98500924Y-79331843D01*
X98519953Y-79329918D01*
X99574166Y-79329918D01*
X99574166Y-78953937D01*
X98337229Y-78953937D01*
G37*
G36*
X95528594Y-120212090D02*
G01*
X95589843Y-120223676D01*
X95645622Y-120239970D01*
X95697731Y-120261367D01*
X95744929Y-120287178D01*
X95791252Y-120319960D01*
X95832855Y-120357260D01*
X95888979Y-120423349D01*
X95944792Y-120520859D01*
X95978901Y-120626284D01*
X95990300Y-120734524D01*
X95989511Y-120762915D01*
X95983328Y-120818816D01*
X95971257Y-120873307D01*
X95953140Y-120927166D01*
X95929511Y-120978715D01*
X95900456Y-121027894D01*
X95866468Y-121073869D01*
X95837516Y-121105760D01*
X95756102Y-121172595D01*
X95710048Y-121199421D01*
X95659532Y-121222073D01*
X95604412Y-121240230D01*
X95544417Y-121253623D01*
X95478199Y-121262049D01*
X95406498Y-121264928D01*
X94753454Y-121264928D01*
X94753454Y-121622500D01*
X94373351Y-121622500D01*
X94373351Y-120609136D01*
X94753454Y-120609136D01*
X94753454Y-120916332D01*
X95414924Y-120916332D01*
X95467143Y-120912511D01*
X95501611Y-120904256D01*
X95530530Y-120891699D01*
X95557179Y-120872891D01*
X95578689Y-120849471D01*
X95601280Y-120809824D01*
X95609460Y-120780978D01*
X95612303Y-120749179D01*
X95605371Y-120698323D01*
X95593661Y-120668948D01*
X95576583Y-120642567D01*
X95552575Y-120619186D01*
X95527531Y-120603114D01*
X95497344Y-120590878D01*
X95459679Y-120582754D01*
X95414924Y-120579918D01*
X94780748Y-120579918D01*
X94764255Y-120583934D01*
X94756269Y-120593374D01*
X94753454Y-120609136D01*
X94373351Y-120609136D01*
X94373351Y-120292139D01*
X94383196Y-120244254D01*
X94394866Y-120227817D01*
X94410975Y-120215661D01*
X94435401Y-120206868D01*
X94465766Y-120203937D01*
X95406498Y-120203937D01*
X95528594Y-120212090D01*
G37*
G36*
X96883121Y-120179185D02*
G01*
X96975611Y-120209041D01*
X97016767Y-120231302D01*
X97054644Y-120258488D01*
X97090557Y-120291930D01*
X97123088Y-120330725D01*
X97154301Y-120378300D01*
X97181808Y-120432090D01*
X97694168Y-121559576D01*
X97717249Y-121622500D01*
X97288878Y-121622500D01*
X97272213Y-121574670D01*
X97272025Y-121574231D01*
X97196462Y-121402040D01*
X96356481Y-121402040D01*
X96283025Y-121572124D01*
X96282871Y-121572533D01*
X96268278Y-121622500D01*
X95829374Y-121622500D01*
X95852455Y-121559576D01*
X96064545Y-121089073D01*
X96495058Y-121089073D01*
X97057885Y-121089073D01*
X96839440Y-120579460D01*
X96816176Y-120548032D01*
X96796461Y-120538289D01*
X96774411Y-120535222D01*
X96771107Y-120535283D01*
X96737629Y-120545547D01*
X96723315Y-120559025D01*
X96711396Y-120579460D01*
X96495058Y-121089073D01*
X96064545Y-121089073D01*
X96360694Y-120432090D01*
X96416640Y-120333881D01*
X96480943Y-120263329D01*
X96517676Y-120235607D01*
X96557781Y-120212714D01*
X96603079Y-120194050D01*
X96652313Y-120180530D01*
X96709842Y-120171702D01*
X96772304Y-120168766D01*
X96883121Y-120179185D01*
G37*
G36*
X99627381Y-120203937D02*
G01*
X99255704Y-120203937D01*
X99255704Y-121121038D01*
X99252956Y-121139117D01*
X99245445Y-121151346D01*
X99226304Y-121158774D01*
X99207653Y-121155889D01*
X99190583Y-121142013D01*
X98497605Y-120309725D01*
X98457024Y-120266022D01*
X98415849Y-120231423D01*
X98378822Y-120208264D01*
X98339688Y-120190901D01*
X98252989Y-120171767D01*
X98191050Y-120168766D01*
X98133265Y-120171765D01*
X98079464Y-120181037D01*
X98035881Y-120194709D01*
X97996224Y-120213834D01*
X97963993Y-120236122D01*
X97935608Y-120263333D01*
X97912484Y-120293916D01*
X97893344Y-120329302D01*
X97868092Y-120414809D01*
X97861322Y-120501242D01*
X97861322Y-121622500D01*
X98235105Y-121622500D01*
X98235105Y-120658961D01*
X98237829Y-120642644D01*
X98245172Y-120630319D01*
X98269816Y-120619042D01*
X98270826Y-120619028D01*
X98284854Y-120621959D01*
X98297679Y-120630751D01*
X98304439Y-120637987D01*
X99083513Y-121540342D01*
X99114262Y-121571476D01*
X99148041Y-121597214D01*
X99223674Y-121632815D01*
X99316176Y-121650135D01*
X99360668Y-121651809D01*
X99403438Y-121648840D01*
X99444728Y-121639781D01*
X99481296Y-121625600D01*
X99515231Y-121605710D01*
X99543996Y-121581791D01*
X99569367Y-121552569D01*
X99589991Y-121519477D01*
X99606555Y-121481249D01*
X99618468Y-121438354D01*
X99625527Y-121390199D01*
X99627381Y-121346810D01*
X99627381Y-120203937D01*
G37*
G36*
X95719797Y-125959121D02*
G01*
X95824037Y-125983598D01*
X95911907Y-126026686D01*
X95950465Y-126055256D01*
X95985263Y-126088393D01*
X95997990Y-126102618D01*
X96049192Y-126179842D01*
X96081149Y-126269277D01*
X96089469Y-126318654D01*
X96092332Y-126371501D01*
X96085382Y-126447305D01*
X96057966Y-126532497D01*
X96012084Y-126603287D01*
X95949542Y-126658181D01*
X95982168Y-126678552D01*
X96011009Y-126703429D01*
X96038746Y-126735924D01*
X96061763Y-126772723D01*
X96081237Y-126816267D01*
X96095263Y-126863116D01*
X96104056Y-126914283D01*
X96106987Y-126967117D01*
X96097105Y-127055705D01*
X96083102Y-127103570D01*
X96063585Y-127148848D01*
X96038375Y-127192097D01*
X96008343Y-127231816D01*
X95956395Y-127282222D01*
X95877835Y-127330295D01*
X95831578Y-127348060D01*
X95780289Y-127361218D01*
X95721956Y-127369624D01*
X95657641Y-127372500D01*
X94622387Y-127372500D01*
X94615671Y-127372384D01*
X94568415Y-127361939D01*
X94551836Y-127350551D01*
X94539589Y-127334976D01*
X94530796Y-127311531D01*
X94527865Y-127282282D01*
X94527865Y-126996610D01*
X94907968Y-126996610D01*
X94911994Y-127016351D01*
X94921486Y-127025181D01*
X94937369Y-127028117D01*
X95567332Y-127028117D01*
X95572691Y-127028066D01*
X95607350Y-127024810D01*
X95635539Y-127016910D01*
X95660032Y-127003544D01*
X95678616Y-126986077D01*
X95696733Y-126957383D01*
X95708016Y-126906209D01*
X95703940Y-126877168D01*
X95692994Y-126851156D01*
X95676509Y-126828357D01*
X95675294Y-126827047D01*
X95636052Y-126799560D01*
X95606044Y-126791281D01*
X95567332Y-126788423D01*
X94907968Y-126788423D01*
X94907968Y-126996610D01*
X94527865Y-126996610D01*
X94527865Y-126342283D01*
X94907968Y-126342283D01*
X94907968Y-126534258D01*
X95569439Y-126534258D01*
X95573898Y-126534217D01*
X95605886Y-126531068D01*
X95632164Y-126523216D01*
X95655916Y-126509245D01*
X95674402Y-126490478D01*
X95689271Y-126466127D01*
X95699590Y-126421601D01*
X95697506Y-126401789D01*
X95688613Y-126375647D01*
X95674402Y-126352725D01*
X95671380Y-126349249D01*
X95632105Y-126321747D01*
X95604015Y-126313773D01*
X95569439Y-126310959D01*
X94937369Y-126310959D01*
X94921103Y-126314072D01*
X94911076Y-126324506D01*
X94907968Y-126342283D01*
X94527865Y-126342283D01*
X94527865Y-126042139D01*
X94527900Y-126038813D01*
X94537905Y-125994017D01*
X94549703Y-125977726D01*
X94566030Y-125965661D01*
X94591068Y-125956868D01*
X94622387Y-125953937D01*
X95636667Y-125953937D01*
X95719797Y-125959121D01*
G37*
G36*
X97161558Y-125929185D02*
G01*
X97254048Y-125959041D01*
X97295205Y-125981302D01*
X97333082Y-126008488D01*
X97368994Y-126041930D01*
X97401525Y-126080725D01*
X97432738Y-126128300D01*
X97460245Y-126182090D01*
X97972606Y-127309576D01*
X97995686Y-127372500D01*
X97567315Y-127372500D01*
X97550651Y-127324670D01*
X97550462Y-127324231D01*
X97474900Y-127152040D01*
X96634918Y-127152040D01*
X96561462Y-127322124D01*
X96561309Y-127322533D01*
X96546716Y-127372500D01*
X96107811Y-127372500D01*
X96130892Y-127309576D01*
X96342982Y-126839073D01*
X96773495Y-126839073D01*
X97336322Y-126839073D01*
X97117878Y-126329460D01*
X97094613Y-126298032D01*
X97074898Y-126288289D01*
X97052848Y-126285222D01*
X97049545Y-126285283D01*
X97016066Y-126295547D01*
X97001752Y-126309025D01*
X96989833Y-126329460D01*
X96773495Y-126839073D01*
X96342982Y-126839073D01*
X96639131Y-126182090D01*
X96695078Y-126083881D01*
X96759381Y-126013329D01*
X96796113Y-125985607D01*
X96836218Y-125962714D01*
X96881516Y-125944050D01*
X96930750Y-125930530D01*
X96988280Y-125921702D01*
X97050741Y-125918766D01*
X97161558Y-125929185D01*
G37*
G36*
X99537805Y-127372500D02*
G01*
X99537805Y-127009249D01*
X98552927Y-127009249D01*
X98507172Y-127006101D01*
X98473263Y-126995789D01*
X98455970Y-126983773D01*
X98443179Y-126967270D01*
X98429222Y-126919385D01*
X98426897Y-126874977D01*
X98426897Y-125953937D01*
X98044688Y-125953937D01*
X98044688Y-126910606D01*
X98047716Y-126992542D01*
X98057191Y-127066454D01*
X98070501Y-127122155D01*
X98089080Y-127172248D01*
X98110296Y-127212076D01*
X98136187Y-127247482D01*
X98165065Y-127276790D01*
X98198506Y-127302182D01*
X98279716Y-127341177D01*
X98386829Y-127365325D01*
X98506673Y-127372500D01*
X99537805Y-127372500D01*
G37*
D13*
G36*
X68976488Y-223893568D02*
G01*
X69152175Y-223905313D01*
X69317283Y-223929624D01*
X69473154Y-223966196D01*
X69618952Y-224014298D01*
X69758376Y-224074980D01*
X69887899Y-224146500D01*
X70013418Y-224232387D01*
X70128851Y-224328709D01*
X70250509Y-224453742D01*
X70427607Y-224696849D01*
X70557332Y-224965618D01*
X70636341Y-225251559D01*
X70662919Y-225547725D01*
X70662865Y-225561527D01*
X70654629Y-225717379D01*
X70632825Y-225868689D01*
X70597348Y-226017389D01*
X70549131Y-226160071D01*
X70488025Y-226297700D01*
X70415233Y-226427799D01*
X70331092Y-226550146D01*
X70236562Y-226663518D01*
X70077392Y-226815963D01*
X69839621Y-226979464D01*
X69708413Y-227045113D01*
X69567876Y-227100070D01*
X69417663Y-227143855D01*
X69257765Y-227175872D01*
X69085939Y-227195753D01*
X68903851Y-227202501D01*
X68399062Y-227202501D01*
X68148958Y-227189555D01*
X67983309Y-227165145D01*
X67827404Y-227128692D01*
X67679974Y-227080298D01*
X67542110Y-227020738D01*
X67410783Y-226948799D01*
X67289119Y-226866303D01*
X67172711Y-226769982D01*
X67066351Y-226663518D01*
X67046950Y-226641937D01*
X66873126Y-226403931D01*
X66745065Y-226137206D01*
X66666561Y-225849585D01*
X66640409Y-225552426D01*
X67526902Y-225552426D01*
X67544136Y-225714176D01*
X67573066Y-225814604D01*
X67614732Y-225909085D01*
X67668351Y-225996778D01*
X67732707Y-226076022D01*
X67778103Y-226121826D01*
X67937139Y-226232588D01*
X68032562Y-226273619D01*
X68139491Y-226304088D01*
X68262445Y-226323639D01*
X68399062Y-226330340D01*
X68903851Y-226330340D01*
X68984564Y-226328080D01*
X69109151Y-226314520D01*
X69221336Y-226289369D01*
X69322818Y-226252921D01*
X69412984Y-226206164D01*
X69497193Y-226146018D01*
X69570207Y-226076022D01*
X69672350Y-225937830D01*
X69749826Y-225751199D01*
X69776012Y-225552426D01*
X69775865Y-225537276D01*
X69766667Y-225432109D01*
X69743804Y-225330683D01*
X69707577Y-225232955D01*
X69659122Y-225141642D01*
X69530884Y-224985020D01*
X69521089Y-224976058D01*
X69362691Y-224865872D01*
X69270439Y-224825831D01*
X69166127Y-224795924D01*
X69043320Y-224776495D01*
X68903851Y-224769811D01*
X68399062Y-224769811D01*
X68156901Y-224791668D01*
X68048207Y-224820317D01*
X67952354Y-224859647D01*
X67856180Y-224916587D01*
X67771816Y-224985020D01*
X67755899Y-225000351D01*
X67688187Y-225077249D01*
X67631074Y-225162847D01*
X67553197Y-225351667D01*
X67526902Y-225552426D01*
X66640409Y-225552426D01*
X66639995Y-225547725D01*
X66647252Y-225392268D01*
X66668551Y-225240859D01*
X66703241Y-225093958D01*
X66751730Y-224949518D01*
X66812780Y-224811198D01*
X66886607Y-224678250D01*
X66971871Y-224553052D01*
X67174062Y-224328709D01*
X67232496Y-224277663D01*
X67469675Y-224114372D01*
X67599595Y-224049148D01*
X67739012Y-223994421D01*
X67887677Y-223950934D01*
X68046411Y-223919059D01*
X68217273Y-223899258D01*
X68399062Y-223892521D01*
X68903851Y-223892521D01*
X68976488Y-223893568D01*
G37*
G36*
X73321289Y-224769811D02*
G01*
X73362799Y-224776100D01*
X73389626Y-224792764D01*
X73409338Y-224848030D01*
X73403915Y-224885991D01*
X73380059Y-224931164D01*
X71870822Y-227065511D01*
X71797305Y-227202501D01*
X72914594Y-227202501D01*
X72983195Y-227075342D01*
X74350314Y-225068368D01*
X74437831Y-224928017D01*
X74494733Y-224810696D01*
X74524724Y-224719137D01*
X74538739Y-224636736D01*
X74541373Y-224578539D01*
X74515072Y-224387559D01*
X74438305Y-224214802D01*
X74369762Y-224122904D01*
X74302459Y-224055576D01*
X74224354Y-223998493D01*
X74140833Y-223955232D01*
X74046639Y-223922640D01*
X73942588Y-223901726D01*
X73826997Y-223892799D01*
X73801501Y-223892521D01*
X70787941Y-223892521D01*
X70787941Y-224769811D01*
X73321289Y-224769811D01*
G37*
G36*
X77446544Y-223828069D02*
G01*
X77619521Y-223888539D01*
X77758601Y-223987410D01*
X77857752Y-224118403D01*
X77895412Y-224203259D01*
X77924040Y-224303858D01*
X77943038Y-224427523D01*
X77949660Y-224572341D01*
X77949660Y-227202501D01*
X77058051Y-227202501D01*
X77058051Y-226745797D01*
X74750170Y-226745797D01*
X74558799Y-226731111D01*
X74463989Y-226708498D01*
X74384134Y-226676463D01*
X74313067Y-226632414D01*
X74255212Y-226579315D01*
X74236289Y-226556605D01*
X74192339Y-226487296D01*
X74160687Y-226409478D01*
X74139666Y-226315048D01*
X74132755Y-226212798D01*
X74132913Y-226199222D01*
X74158704Y-226050673D01*
X74189619Y-225979974D01*
X74232375Y-225913814D01*
X75490043Y-225913814D01*
X75498689Y-225944972D01*
X75516751Y-225961600D01*
X75543898Y-225967883D01*
X77058051Y-225967883D01*
X77058051Y-224940781D01*
X77051743Y-224899552D01*
X77035356Y-224869158D01*
X76984534Y-224842473D01*
X76947081Y-224848003D01*
X76906102Y-224871966D01*
X75524237Y-225859745D01*
X75521598Y-225861378D01*
X75497407Y-225884051D01*
X75490043Y-225913814D01*
X74232375Y-225913814D01*
X74235551Y-225908899D01*
X74254645Y-225884565D01*
X74331331Y-225805690D01*
X74456102Y-225707368D01*
X76812923Y-223977579D01*
X76884562Y-223928346D01*
X77066049Y-223840948D01*
X77167476Y-223817687D01*
X77273474Y-223810456D01*
X77446544Y-223828069D01*
G37*
G36*
X78340113Y-225834741D02*
G01*
X79673037Y-225834741D01*
X79673037Y-225271394D01*
X78340113Y-225271394D01*
X78340113Y-225834741D01*
G37*
G36*
X79878843Y-224769811D02*
G01*
X82171978Y-224769811D01*
X82254078Y-224776826D01*
X82318169Y-224798574D01*
X82355193Y-224826307D01*
X82380799Y-224864059D01*
X82397444Y-224950826D01*
X82390563Y-225004009D01*
X82369747Y-225049492D01*
X82292084Y-225117738D01*
X82230962Y-225146373D01*
X80295368Y-225919371D01*
X80180828Y-225972858D01*
X80084731Y-226032134D01*
X80006016Y-226095946D01*
X79942796Y-226163643D01*
X79855393Y-226311695D01*
X79814353Y-226477773D01*
X79810241Y-226555807D01*
X79817162Y-226652877D01*
X79838254Y-226748425D01*
X79871947Y-226836016D01*
X79919353Y-226918457D01*
X79976529Y-226989329D01*
X80046441Y-227052571D01*
X80124771Y-227104097D01*
X80215151Y-227146131D01*
X80314850Y-227176678D01*
X80426492Y-227195861D01*
X80550114Y-227202501D01*
X83382445Y-227202501D01*
X83382445Y-226354917D01*
X81285071Y-226354917D01*
X81257582Y-226348475D01*
X81238073Y-226330734D01*
X81231215Y-226305977D01*
X81256180Y-226264562D01*
X81270538Y-226257036D01*
X82765030Y-225713993D01*
X82882516Y-225663650D01*
X82988954Y-225603589D01*
X83084680Y-225534243D01*
X83168853Y-225456810D01*
X83241830Y-225371445D01*
X83302681Y-225279646D01*
X83387763Y-225078474D01*
X83421153Y-224860506D01*
X83421555Y-224833284D01*
X83414769Y-224711776D01*
X83394624Y-224595820D01*
X83362081Y-224487872D01*
X83317223Y-224386677D01*
X83261279Y-224294252D01*
X83193965Y-224209702D01*
X83116357Y-224134354D01*
X83028156Y-224068012D01*
X82929832Y-224011406D01*
X82821514Y-223965042D01*
X82702829Y-223929392D01*
X82574610Y-223905376D01*
X82377783Y-223892521D01*
X79878843Y-223892521D01*
X79878843Y-224769811D01*
G37*
D14*
G36*
X63648570Y-38839016D02*
G01*
X63794353Y-39122984D01*
X63959816Y-39373672D01*
X64132303Y-39577694D01*
X64322862Y-39753342D01*
X64524506Y-39896302D01*
X64743865Y-40013279D01*
X65240116Y-40170779D01*
X65843824Y-40226315D01*
X66178355Y-40210627D01*
X66486496Y-40163337D01*
X66748894Y-40091171D01*
X66990389Y-39991411D01*
X67203469Y-39869327D01*
X67398710Y-39721286D01*
X67739744Y-39344695D01*
X68027355Y-38839016D01*
X70737963Y-32840411D01*
X70861061Y-32504333D01*
X68497767Y-32504333D01*
X68408374Y-32773000D01*
X66168179Y-37999309D01*
X66098945Y-38119832D01*
X66018246Y-38193425D01*
X65854571Y-38234270D01*
X65745722Y-38217896D01*
X65647979Y-38165801D01*
X65530217Y-37999309D01*
X63267551Y-32773000D01*
X63189393Y-32504333D01*
X60792394Y-32504333D01*
X60915492Y-32840411D01*
X63648570Y-38839016D01*
G37*
G36*
X78515632Y-38076489D02*
G01*
X74551082Y-38076489D01*
X74238813Y-38061173D01*
X73957777Y-38016485D01*
X73713366Y-37946842D01*
X73495257Y-37853056D01*
X73131745Y-37599887D01*
X73027983Y-37495191D01*
X72880884Y-37314063D01*
X72758326Y-37113620D01*
X72663090Y-36897664D01*
X72596965Y-36668114D01*
X72557572Y-36298401D01*
X72617675Y-35839522D01*
X72795679Y-35407933D01*
X72926223Y-35212281D01*
X73080994Y-35036515D01*
X73117376Y-35001472D01*
X73310208Y-34845054D01*
X73530034Y-34714905D01*
X73749126Y-34625009D01*
X73997570Y-34559525D01*
X74551082Y-34509567D01*
X78515632Y-34509567D01*
X78515632Y-32504333D01*
X74551082Y-32504333D01*
X74135563Y-32519731D01*
X73745022Y-32564991D01*
X73382202Y-32637849D01*
X73042396Y-32737247D01*
X72723728Y-32862337D01*
X72426768Y-33011420D01*
X71884644Y-33384657D01*
X71751082Y-33501332D01*
X71288930Y-34014118D01*
X71094042Y-34300285D01*
X70925293Y-34604164D01*
X70785750Y-34920325D01*
X70674919Y-35250473D01*
X70595627Y-35586247D01*
X70546945Y-35932325D01*
X70530356Y-36287655D01*
X70591078Y-36977622D01*
X70770515Y-37635040D01*
X71063227Y-38244697D01*
X71460538Y-38788711D01*
X71504885Y-38838039D01*
X71747993Y-39081385D01*
X72014068Y-39301548D01*
X72292157Y-39490111D01*
X72592333Y-39654543D01*
X72907450Y-39790681D01*
X73244434Y-39901294D01*
X73600788Y-39984615D01*
X73979415Y-40040409D01*
X74551082Y-40070000D01*
X78515632Y-40070000D01*
X78515632Y-38076489D01*
G37*
G36*
X84740360Y-32372322D02*
G01*
X85233641Y-32531552D01*
X85453141Y-32650281D01*
X85655152Y-32795272D01*
X85846684Y-32973631D01*
X86020183Y-33180534D01*
X86186653Y-33434270D01*
X86333357Y-33721151D01*
X89065946Y-39734410D01*
X89189044Y-40070000D01*
X86904397Y-40070000D01*
X86815520Y-39814911D01*
X86814515Y-39812568D01*
X86411515Y-38894214D01*
X81931612Y-38894214D01*
X81539847Y-39801332D01*
X81539029Y-39803513D01*
X81461200Y-40070000D01*
X79120377Y-40070000D01*
X79243475Y-39734410D01*
X80374620Y-37225059D01*
X82670691Y-37225059D01*
X85672436Y-37225059D01*
X84507397Y-34507124D01*
X84383319Y-34339506D01*
X84278173Y-34287542D01*
X84160572Y-34271186D01*
X84142955Y-34271514D01*
X83964403Y-34326253D01*
X83888062Y-34398134D01*
X83824494Y-34507124D01*
X82670691Y-37225059D01*
X80374620Y-37225059D01*
X81954083Y-33721151D01*
X82252465Y-33197366D01*
X82595413Y-32821092D01*
X82791321Y-32673241D01*
X83005212Y-32551142D01*
X83246803Y-32451603D01*
X83509383Y-32379497D01*
X83816208Y-32332413D01*
X84149337Y-32316755D01*
X84740360Y-32372322D01*
G37*
D15*
G36*
X71678908Y-199881622D02*
G01*
X70687770Y-199881622D01*
X70609703Y-199877793D01*
X70539444Y-199866621D01*
X70478341Y-199849210D01*
X70423814Y-199825764D01*
X70332936Y-199762471D01*
X70306996Y-199736297D01*
X70270221Y-199691015D01*
X70239581Y-199640905D01*
X70215772Y-199586916D01*
X70199241Y-199529528D01*
X70189393Y-199437100D01*
X70204419Y-199322380D01*
X70248920Y-199214483D01*
X70281556Y-199165570D01*
X70320248Y-199121628D01*
X70329344Y-199112868D01*
X70377552Y-199073763D01*
X70432508Y-199041226D01*
X70487281Y-199018752D01*
X70549392Y-199002381D01*
X70687770Y-198989891D01*
X71678908Y-198989891D01*
X71678908Y-198488583D01*
X70687770Y-198488583D01*
X70583891Y-198492432D01*
X70486255Y-198503747D01*
X70395550Y-198521962D01*
X70310599Y-198546811D01*
X70230932Y-198578084D01*
X70156692Y-198615355D01*
X70021161Y-198708664D01*
X69987770Y-198737833D01*
X69872232Y-198866029D01*
X69823510Y-198937571D01*
X69781323Y-199013541D01*
X69746437Y-199092581D01*
X69718729Y-199175118D01*
X69698907Y-199259061D01*
X69686736Y-199345581D01*
X69682589Y-199434413D01*
X69697769Y-199606905D01*
X69742629Y-199771260D01*
X69815807Y-199923674D01*
X69915134Y-200059677D01*
X69926221Y-200072009D01*
X69986998Y-200132846D01*
X70053517Y-200187887D01*
X70123039Y-200235027D01*
X70198083Y-200276135D01*
X70276862Y-200310170D01*
X70361108Y-200337823D01*
X70450197Y-200358653D01*
X70544854Y-200372602D01*
X70687770Y-200380000D01*
X71678908Y-200380000D01*
X71678908Y-199881622D01*
G37*
G36*
X72544138Y-200072254D02*
G01*
X72580584Y-200143246D01*
X72621950Y-200205918D01*
X72665071Y-200256923D01*
X72712711Y-200300835D01*
X72763122Y-200336575D01*
X72817962Y-200365819D01*
X72942025Y-200405194D01*
X73092952Y-200419078D01*
X73176584Y-200415156D01*
X73253620Y-200403334D01*
X73319219Y-200385292D01*
X73379593Y-200360352D01*
X73432863Y-200329831D01*
X73481673Y-200292821D01*
X73566932Y-200198673D01*
X73638835Y-200072254D01*
X74316486Y-198572602D01*
X74347261Y-198488583D01*
X73756437Y-198488583D01*
X73734089Y-198555750D01*
X73174040Y-199862327D01*
X73156732Y-199892458D01*
X73136557Y-199910856D01*
X73095638Y-199921067D01*
X73068426Y-199916974D01*
X73043990Y-199903950D01*
X73014550Y-199862327D01*
X72448883Y-198555750D01*
X72429344Y-198488583D01*
X71830094Y-198488583D01*
X71860869Y-198572602D01*
X72544138Y-200072254D01*
G37*
G36*
X76990568Y-198455580D02*
G01*
X77113888Y-198495388D01*
X77168763Y-198525070D01*
X77219266Y-198561318D01*
X77267149Y-198605907D01*
X77310524Y-198657633D01*
X77352141Y-198721067D01*
X77388817Y-198792787D01*
X78071964Y-200296102D01*
X78102739Y-200380000D01*
X77531577Y-200380000D01*
X77509358Y-200316227D01*
X77509107Y-200315642D01*
X77408357Y-200086053D01*
X76288381Y-200086053D01*
X76190440Y-200312833D01*
X76190235Y-200313378D01*
X76170778Y-200380000D01*
X75585572Y-200380000D01*
X75616347Y-200296102D01*
X75899133Y-199668764D01*
X76473151Y-199668764D01*
X77223587Y-199668764D01*
X76932327Y-198989281D01*
X76901308Y-198947376D01*
X76875021Y-198934385D01*
X76845621Y-198930296D01*
X76841217Y-198930378D01*
X76796579Y-198944063D01*
X76777493Y-198962033D01*
X76761601Y-198989281D01*
X76473151Y-199668764D01*
X75899133Y-199668764D01*
X76293999Y-198792787D01*
X76368594Y-198661841D01*
X76454331Y-198567773D01*
X76503308Y-198530810D01*
X76556781Y-198500285D01*
X76617179Y-198475400D01*
X76682824Y-198457374D01*
X76759530Y-198445603D01*
X76842812Y-198441688D01*
X76990568Y-198455580D01*
G37*
G36*
X79366207Y-198488583D02*
G01*
X79366207Y-198989891D01*
X79677006Y-198989891D01*
X79707157Y-198993832D01*
X79729008Y-199005788D01*
X79747984Y-199043750D01*
X79749913Y-199068171D01*
X79749913Y-200380000D01*
X80253908Y-200380000D01*
X80253908Y-198992578D01*
X80249851Y-198886663D01*
X80237085Y-198794096D01*
X80219812Y-198728849D01*
X80195809Y-198671875D01*
X80168783Y-198628482D01*
X80135876Y-198591202D01*
X80055736Y-198536617D01*
X79947287Y-198502156D01*
X79786305Y-198488583D01*
X79366207Y-198488583D01*
G37*
G36*
X51514776Y-198488583D02*
G01*
X51514776Y-200380000D01*
X52024389Y-200380000D01*
X52024389Y-198488583D01*
X51514776Y-198488583D01*
G37*
G36*
X54656350Y-198488583D02*
G01*
X54160781Y-198488583D01*
X54160781Y-199711385D01*
X54157118Y-199735490D01*
X54147102Y-199751795D01*
X54121580Y-199761699D01*
X54096713Y-199757852D01*
X54073953Y-199739351D01*
X53149982Y-198629633D01*
X53095874Y-198571363D01*
X53040975Y-198525230D01*
X52991605Y-198494352D01*
X52939427Y-198471201D01*
X52823827Y-198445690D01*
X52741242Y-198441688D01*
X52664195Y-198445687D01*
X52592461Y-198458050D01*
X52534350Y-198476278D01*
X52481475Y-198501778D01*
X52438500Y-198531497D01*
X52400653Y-198567778D01*
X52369821Y-198608554D01*
X52344302Y-198655736D01*
X52310632Y-198769745D01*
X52301605Y-198884989D01*
X52301605Y-200380000D01*
X52799982Y-200380000D01*
X52799982Y-199095282D01*
X52803614Y-199073526D01*
X52813405Y-199057092D01*
X52846264Y-199042056D01*
X52847610Y-199042037D01*
X52866314Y-199045945D01*
X52883414Y-199057669D01*
X52892428Y-199067316D01*
X53931193Y-200270457D01*
X53972191Y-200311968D01*
X54017230Y-200346285D01*
X54118075Y-200393754D01*
X54241411Y-200416847D01*
X54300732Y-200419078D01*
X54357760Y-200415120D01*
X54412814Y-200403042D01*
X54461571Y-200384134D01*
X54506817Y-200357614D01*
X54545171Y-200325722D01*
X54578998Y-200286759D01*
X54606497Y-200242636D01*
X54628582Y-200191666D01*
X54644466Y-200134473D01*
X54653878Y-200070265D01*
X54656350Y-200012414D01*
X54656350Y-198488583D01*
G37*
G36*
X56475600Y-198499453D02*
G01*
X56557265Y-198514902D01*
X56631637Y-198536626D01*
X56701116Y-198565156D01*
X56764046Y-198599570D01*
X56825810Y-198643281D01*
X56881280Y-198693014D01*
X56956113Y-198781132D01*
X57030531Y-198911146D01*
X57076009Y-199051712D01*
X57091207Y-199196032D01*
X57090155Y-199233887D01*
X57081911Y-199308421D01*
X57065817Y-199381076D01*
X57041661Y-199452888D01*
X57010156Y-199521620D01*
X56971416Y-199587193D01*
X56926099Y-199648492D01*
X56887496Y-199691013D01*
X56778943Y-199780127D01*
X56717538Y-199815895D01*
X56650184Y-199846097D01*
X56576691Y-199870306D01*
X56496696Y-199888165D01*
X56408406Y-199899399D01*
X56312805Y-199903237D01*
X55442079Y-199903237D01*
X55442079Y-200380000D01*
X54935275Y-200380000D01*
X54935275Y-199028848D01*
X55442079Y-199028848D01*
X55442079Y-199438443D01*
X56324040Y-199438443D01*
X56393665Y-199433348D01*
X56439622Y-199422341D01*
X56478181Y-199405599D01*
X56513713Y-199380522D01*
X56542393Y-199349295D01*
X56572514Y-199296432D01*
X56583421Y-199257970D01*
X56587212Y-199215572D01*
X56577969Y-199147764D01*
X56562355Y-199108598D01*
X56539585Y-199073422D01*
X56507574Y-199042248D01*
X56474182Y-199020819D01*
X56433933Y-199004504D01*
X56383713Y-198993672D01*
X56324040Y-198989891D01*
X55478471Y-198989891D01*
X55456481Y-198995245D01*
X55445833Y-199007832D01*
X55442079Y-199028848D01*
X54935275Y-199028848D01*
X54935275Y-198606186D01*
X54948403Y-198542338D01*
X54963962Y-198520423D01*
X54985440Y-198504214D01*
X55018009Y-198492491D01*
X55058496Y-198488583D01*
X56312805Y-198488583D01*
X56475600Y-198499453D01*
G37*
G36*
X58796388Y-200380000D02*
G01*
X58911085Y-200376056D01*
X59013758Y-200364083D01*
X59094658Y-200346682D01*
X59166735Y-200322716D01*
X59224901Y-200295062D01*
X59276152Y-200261734D01*
X59318583Y-200224741D01*
X59355113Y-200182440D01*
X59411084Y-200081636D01*
X59446613Y-199951795D01*
X59459996Y-199775376D01*
X59459996Y-198488583D01*
X58950384Y-198488583D01*
X58950384Y-199719445D01*
X58946467Y-199767883D01*
X58934680Y-199808305D01*
X58918043Y-199836991D01*
X58895410Y-199859866D01*
X58833852Y-199888151D01*
X58762805Y-199895666D01*
X57975977Y-199895666D01*
X57924330Y-199891758D01*
X57881703Y-199880034D01*
X57852024Y-199863681D01*
X57828654Y-199841536D01*
X57800759Y-199782498D01*
X57794016Y-199719445D01*
X57794016Y-198488583D01*
X57284403Y-198488583D01*
X57284403Y-199775376D01*
X57288369Y-199876061D01*
X57300502Y-199966921D01*
X57318140Y-200038680D01*
X57342564Y-200103176D01*
X57371032Y-200155901D01*
X57405549Y-200202775D01*
X57444575Y-200242396D01*
X57489511Y-200276808D01*
X57599303Y-200330936D01*
X57744223Y-200366238D01*
X57948011Y-200380000D01*
X58796388Y-200380000D01*
G37*
G36*
X59644277Y-198488583D02*
G01*
X59644277Y-198989891D01*
X60475924Y-198989891D01*
X60475924Y-200380000D01*
X60985415Y-200380000D01*
X60985415Y-198989891D01*
X61814253Y-198989891D01*
X61814253Y-198488583D01*
X59644277Y-198488583D01*
G37*
G36*
X64458049Y-198455580D02*
G01*
X64581369Y-198495388D01*
X64636244Y-198525070D01*
X64686746Y-198561318D01*
X64734630Y-198605907D01*
X64778004Y-198657633D01*
X64819622Y-198721067D01*
X64856298Y-198792787D01*
X65539445Y-200296102D01*
X65570220Y-200380000D01*
X64999058Y-200380000D01*
X64976838Y-200316227D01*
X64976587Y-200315642D01*
X64875837Y-200086053D01*
X63755862Y-200086053D01*
X63657920Y-200312833D01*
X63657716Y-200313378D01*
X63638259Y-200380000D01*
X63053053Y-200380000D01*
X63083827Y-200296102D01*
X63366613Y-199668764D01*
X63940631Y-199668764D01*
X64691067Y-199668764D01*
X64399808Y-198989281D01*
X64368788Y-198947376D01*
X64342502Y-198934385D01*
X64313102Y-198930296D01*
X64308697Y-198930378D01*
X64264059Y-198944063D01*
X64244974Y-198962033D01*
X64229082Y-198989281D01*
X63940631Y-199668764D01*
X63366613Y-199668764D01*
X63761479Y-198792787D01*
X63836075Y-198661841D01*
X63921812Y-198567773D01*
X63970789Y-198530810D01*
X64024262Y-198500285D01*
X64084659Y-198475400D01*
X64150304Y-198457374D01*
X64227011Y-198445603D01*
X64310293Y-198441688D01*
X64458049Y-198455580D01*
G37*
G36*
X51676953Y-216988583D02*
G01*
X51676953Y-218880000D01*
X52186566Y-218880000D01*
X52186566Y-216988583D01*
X51676953Y-216988583D01*
G37*
G36*
X54818527Y-216988583D02*
G01*
X54322958Y-216988583D01*
X54322958Y-218211385D01*
X54319295Y-218235490D01*
X54309279Y-218251795D01*
X54283757Y-218261699D01*
X54258890Y-218257852D01*
X54236130Y-218239351D01*
X53312159Y-217129633D01*
X53258051Y-217071363D01*
X53203152Y-217025230D01*
X53153782Y-216994352D01*
X53101604Y-216971201D01*
X52986004Y-216945690D01*
X52903419Y-216941688D01*
X52826372Y-216945687D01*
X52754638Y-216958050D01*
X52696527Y-216976278D01*
X52643652Y-217001778D01*
X52600677Y-217031497D01*
X52562830Y-217067778D01*
X52531998Y-217108554D01*
X52506479Y-217155736D01*
X52472809Y-217269745D01*
X52463782Y-217384989D01*
X52463782Y-218880000D01*
X52962159Y-218880000D01*
X52962159Y-217595282D01*
X52965791Y-217573526D01*
X52975582Y-217557092D01*
X53008441Y-217542056D01*
X53009787Y-217542037D01*
X53028491Y-217545945D01*
X53045591Y-217557669D01*
X53054605Y-217567316D01*
X54093370Y-218770457D01*
X54134368Y-218811968D01*
X54179407Y-218846285D01*
X54280252Y-218893754D01*
X54403588Y-218916847D01*
X54462909Y-218919078D01*
X54519937Y-218915120D01*
X54574991Y-218903042D01*
X54623748Y-218884134D01*
X54668994Y-218857614D01*
X54707348Y-218825722D01*
X54741175Y-218786759D01*
X54768674Y-218742636D01*
X54790759Y-218691666D01*
X54806643Y-218634473D01*
X54816055Y-218570265D01*
X54818527Y-218512414D01*
X54818527Y-216988583D01*
G37*
G36*
X56637777Y-216999453D02*
G01*
X56719442Y-217014902D01*
X56793814Y-217036626D01*
X56863293Y-217065156D01*
X56926223Y-217099570D01*
X56987987Y-217143281D01*
X57043457Y-217193014D01*
X57118290Y-217281132D01*
X57192708Y-217411146D01*
X57238186Y-217551712D01*
X57253384Y-217696032D01*
X57252332Y-217733887D01*
X57244088Y-217808421D01*
X57227994Y-217881076D01*
X57203838Y-217952888D01*
X57172333Y-218021620D01*
X57133593Y-218087193D01*
X57088276Y-218148492D01*
X57049673Y-218191013D01*
X56941120Y-218280127D01*
X56879715Y-218315895D01*
X56812361Y-218346097D01*
X56738868Y-218370306D01*
X56658873Y-218388165D01*
X56570583Y-218399399D01*
X56474982Y-218403237D01*
X55604256Y-218403237D01*
X55604256Y-218880000D01*
X55097452Y-218880000D01*
X55097452Y-217528848D01*
X55604256Y-217528848D01*
X55604256Y-217938443D01*
X56486217Y-217938443D01*
X56555842Y-217933348D01*
X56601799Y-217922341D01*
X56640358Y-217905599D01*
X56675890Y-217880522D01*
X56704570Y-217849295D01*
X56734691Y-217796432D01*
X56745598Y-217757970D01*
X56749389Y-217715572D01*
X56740146Y-217647764D01*
X56724532Y-217608598D01*
X56701762Y-217573422D01*
X56669751Y-217542248D01*
X56636359Y-217520819D01*
X56596110Y-217504504D01*
X56545890Y-217493672D01*
X56486217Y-217489891D01*
X55640648Y-217489891D01*
X55618658Y-217495245D01*
X55608010Y-217507832D01*
X55604256Y-217528848D01*
X55097452Y-217528848D01*
X55097452Y-217106186D01*
X55110580Y-217042338D01*
X55126139Y-217020423D01*
X55147617Y-217004214D01*
X55180186Y-216992491D01*
X55220673Y-216988583D01*
X56474982Y-216988583D01*
X56637777Y-216999453D01*
G37*
G36*
X58958565Y-218880000D02*
G01*
X59073262Y-218876056D01*
X59175935Y-218864083D01*
X59256835Y-218846682D01*
X59328912Y-218822716D01*
X59387078Y-218795062D01*
X59438329Y-218761734D01*
X59480760Y-218724741D01*
X59517290Y-218682440D01*
X59573261Y-218581636D01*
X59608790Y-218451795D01*
X59622173Y-218275376D01*
X59622173Y-216988583D01*
X59112561Y-216988583D01*
X59112561Y-218219445D01*
X59108644Y-218267883D01*
X59096857Y-218308305D01*
X59080220Y-218336991D01*
X59057587Y-218359866D01*
X58996029Y-218388151D01*
X58924982Y-218395666D01*
X58138154Y-218395666D01*
X58086507Y-218391758D01*
X58043880Y-218380034D01*
X58014201Y-218363681D01*
X57990831Y-218341536D01*
X57962936Y-218282498D01*
X57956193Y-218219445D01*
X57956193Y-216988583D01*
X57446580Y-216988583D01*
X57446580Y-218275376D01*
X57450546Y-218376061D01*
X57462679Y-218466921D01*
X57480317Y-218538680D01*
X57504741Y-218603176D01*
X57533209Y-218655901D01*
X57567726Y-218702775D01*
X57606752Y-218742396D01*
X57651688Y-218776808D01*
X57761480Y-218830936D01*
X57906400Y-218866238D01*
X58110188Y-218880000D01*
X58958565Y-218880000D01*
G37*
G36*
X59806454Y-216988583D02*
G01*
X59806454Y-217489891D01*
X60638101Y-217489891D01*
X60638101Y-218880000D01*
X61147592Y-218880000D01*
X61147592Y-217489891D01*
X61976430Y-217489891D01*
X61976430Y-216988583D01*
X59806454Y-216988583D01*
G37*
G36*
X64894109Y-216995495D02*
G01*
X65033095Y-217028131D01*
X65150256Y-217085582D01*
X65201666Y-217123675D01*
X65248063Y-217167857D01*
X65265034Y-217186825D01*
X65333302Y-217289789D01*
X65375911Y-217409036D01*
X65387005Y-217474872D01*
X65390823Y-217545334D01*
X65381556Y-217646407D01*
X65345000Y-217759996D01*
X65283825Y-217854383D01*
X65200436Y-217927575D01*
X65243936Y-217954736D01*
X65282392Y-217987906D01*
X65319374Y-218031233D01*
X65350064Y-218080297D01*
X65376029Y-218138356D01*
X65394731Y-218200821D01*
X65406454Y-218269044D01*
X65410362Y-218339490D01*
X65397186Y-218457606D01*
X65378516Y-218521427D01*
X65352493Y-218581798D01*
X65318880Y-218639463D01*
X65278838Y-218692421D01*
X65209573Y-218759630D01*
X65104826Y-218823727D01*
X65043150Y-218847414D01*
X64974765Y-218864957D01*
X64896988Y-218876165D01*
X64811235Y-218880000D01*
X63430896Y-218880000D01*
X63421941Y-218879846D01*
X63358934Y-218865919D01*
X63336827Y-218850735D01*
X63320498Y-218829969D01*
X63308775Y-218798709D01*
X63304867Y-218759710D01*
X63304867Y-218378813D01*
X63811671Y-218378813D01*
X63817039Y-218405135D01*
X63829694Y-218416908D01*
X63850872Y-218420823D01*
X64690823Y-218420823D01*
X64697968Y-218420755D01*
X64744180Y-218416413D01*
X64781765Y-218405880D01*
X64814422Y-218388059D01*
X64839200Y-218364769D01*
X64863357Y-218326510D01*
X64878401Y-218258279D01*
X64872966Y-218219557D01*
X64858372Y-218184875D01*
X64836392Y-218154476D01*
X64834771Y-218152729D01*
X64782449Y-218116080D01*
X64742439Y-218105041D01*
X64690823Y-218101231D01*
X63811671Y-218101231D01*
X63811671Y-218378813D01*
X63304867Y-218378813D01*
X63304867Y-217506378D01*
X63811671Y-217506378D01*
X63811671Y-217762344D01*
X64693632Y-217762344D01*
X64699578Y-217762290D01*
X64742227Y-217758091D01*
X64777265Y-217747622D01*
X64808935Y-217728994D01*
X64833583Y-217703970D01*
X64853408Y-217671503D01*
X64867166Y-217612135D01*
X64864387Y-217585718D01*
X64852530Y-217550862D01*
X64833583Y-217520300D01*
X64829553Y-217515666D01*
X64777186Y-217478996D01*
X64739734Y-217468364D01*
X64693632Y-217464612D01*
X63850872Y-217464612D01*
X63829184Y-217468763D01*
X63815814Y-217482675D01*
X63811671Y-217506378D01*
X63304867Y-217506378D01*
X63304867Y-217106186D01*
X63304913Y-217101750D01*
X63318253Y-217042023D01*
X63333984Y-217020302D01*
X63355752Y-217004214D01*
X63389136Y-216992491D01*
X63430896Y-216988583D01*
X64783269Y-216988583D01*
X64894109Y-216995495D01*
G37*
G36*
X54989550Y-132631622D02*
G01*
X53998412Y-132631622D01*
X53920345Y-132627793D01*
X53850086Y-132616621D01*
X53788983Y-132599210D01*
X53734456Y-132575764D01*
X53643578Y-132512471D01*
X53617638Y-132486297D01*
X53580863Y-132441015D01*
X53550223Y-132390905D01*
X53526414Y-132336916D01*
X53509883Y-132279528D01*
X53500035Y-132187100D01*
X53515061Y-132072380D01*
X53559562Y-131964483D01*
X53592198Y-131915570D01*
X53630890Y-131871628D01*
X53639986Y-131862868D01*
X53688194Y-131823763D01*
X53743150Y-131791226D01*
X53797923Y-131768752D01*
X53860034Y-131752381D01*
X53998412Y-131739891D01*
X54989550Y-131739891D01*
X54989550Y-131238583D01*
X53998412Y-131238583D01*
X53894533Y-131242432D01*
X53796897Y-131253747D01*
X53706192Y-131271962D01*
X53621241Y-131296811D01*
X53541574Y-131328084D01*
X53467334Y-131365355D01*
X53331803Y-131458664D01*
X53298412Y-131487833D01*
X53182874Y-131616029D01*
X53134152Y-131687571D01*
X53091965Y-131763541D01*
X53057079Y-131842581D01*
X53029371Y-131925118D01*
X53009549Y-132009061D01*
X52997378Y-132095581D01*
X52993231Y-132184413D01*
X53008411Y-132356905D01*
X53053271Y-132521260D01*
X53126449Y-132673674D01*
X53225776Y-132809677D01*
X53236863Y-132822009D01*
X53297640Y-132882846D01*
X53364159Y-132937887D01*
X53433681Y-132985027D01*
X53508725Y-133026135D01*
X53587504Y-133060170D01*
X53671750Y-133087823D01*
X53760839Y-133108653D01*
X53855496Y-133122602D01*
X53998412Y-133130000D01*
X54989550Y-133130000D01*
X54989550Y-132631622D01*
G37*
G36*
X55854780Y-132822254D02*
G01*
X55891226Y-132893246D01*
X55932592Y-132955918D01*
X55975713Y-133006923D01*
X56023353Y-133050835D01*
X56073764Y-133086575D01*
X56128604Y-133115819D01*
X56252667Y-133155194D01*
X56403594Y-133169078D01*
X56487226Y-133165156D01*
X56564262Y-133153334D01*
X56629861Y-133135292D01*
X56690235Y-133110352D01*
X56743505Y-133079831D01*
X56792315Y-133042821D01*
X56877574Y-132948673D01*
X56949477Y-132822254D01*
X57627128Y-131322602D01*
X57657903Y-131238583D01*
X57067079Y-131238583D01*
X57044731Y-131305750D01*
X56484682Y-132612327D01*
X56467374Y-132642458D01*
X56447199Y-132660856D01*
X56406280Y-132671067D01*
X56379068Y-132666974D01*
X56354632Y-132653950D01*
X56325192Y-132612327D01*
X55759525Y-131305750D01*
X55739986Y-131238583D01*
X55140736Y-131238583D01*
X55171511Y-131322602D01*
X55854780Y-132822254D01*
G37*
G36*
X60575094Y-131245495D02*
G01*
X60714080Y-131278131D01*
X60831240Y-131335582D01*
X60882650Y-131373675D01*
X60929047Y-131417857D01*
X60946018Y-131436825D01*
X61014286Y-131539789D01*
X61056896Y-131659036D01*
X61067989Y-131724872D01*
X61071807Y-131795334D01*
X61062540Y-131896407D01*
X61025985Y-132009996D01*
X60964810Y-132104383D01*
X60881420Y-132177575D01*
X60924921Y-132204736D01*
X60963377Y-132237906D01*
X61000358Y-132281233D01*
X61031048Y-132330297D01*
X61057014Y-132388356D01*
X61075715Y-132450821D01*
X61087439Y-132519044D01*
X61091347Y-132589490D01*
X61078170Y-132707606D01*
X61059500Y-132771427D01*
X61033477Y-132831798D01*
X60999864Y-132889463D01*
X60959822Y-132942421D01*
X60890557Y-133009630D01*
X60785810Y-133073727D01*
X60724134Y-133097414D01*
X60655750Y-133114957D01*
X60577972Y-133126165D01*
X60492219Y-133130000D01*
X59111881Y-133130000D01*
X59102925Y-133129846D01*
X59039918Y-133115919D01*
X59017812Y-133100735D01*
X59001483Y-133079969D01*
X58989759Y-133048709D01*
X58985851Y-133009710D01*
X58985851Y-132628813D01*
X59492655Y-132628813D01*
X59498023Y-132655135D01*
X59510678Y-132666908D01*
X59531856Y-132670823D01*
X60371807Y-132670823D01*
X60378953Y-132670755D01*
X60425165Y-132666413D01*
X60462749Y-132655880D01*
X60495407Y-132638059D01*
X60520185Y-132614769D01*
X60544341Y-132576510D01*
X60559386Y-132508279D01*
X60553950Y-132469557D01*
X60539356Y-132434875D01*
X60517376Y-132404476D01*
X60515756Y-132402729D01*
X60463434Y-132366080D01*
X60423423Y-132355041D01*
X60371807Y-132351231D01*
X59492655Y-132351231D01*
X59492655Y-132628813D01*
X58985851Y-132628813D01*
X58985851Y-131756378D01*
X59492655Y-131756378D01*
X59492655Y-132012344D01*
X60374616Y-132012344D01*
X60380562Y-132012290D01*
X60423211Y-132008091D01*
X60458250Y-131997622D01*
X60489919Y-131978994D01*
X60514567Y-131953970D01*
X60534393Y-131921503D01*
X60548151Y-131862135D01*
X60545371Y-131835718D01*
X60533514Y-131800862D01*
X60514567Y-131770300D01*
X60510537Y-131765666D01*
X60458171Y-131728996D01*
X60420718Y-131718364D01*
X60374616Y-131714612D01*
X59531856Y-131714612D01*
X59510169Y-131718763D01*
X59496798Y-131732675D01*
X59492655Y-131756378D01*
X58985851Y-131756378D01*
X58985851Y-131356186D01*
X58985897Y-131351750D01*
X58999237Y-131292023D01*
X59014968Y-131270302D01*
X59036737Y-131254214D01*
X59070121Y-131242491D01*
X59111881Y-131238583D01*
X60464253Y-131238583D01*
X60575094Y-131245495D01*
G37*
G36*
X62352495Y-131238583D02*
G01*
X62352495Y-131739891D01*
X62663294Y-131739891D01*
X62693445Y-131743832D01*
X62715296Y-131755788D01*
X62734271Y-131793750D01*
X62736200Y-131818171D01*
X62736200Y-133130000D01*
X63240195Y-133130000D01*
X63240195Y-131742578D01*
X63236138Y-131636663D01*
X63223372Y-131544096D01*
X63206100Y-131478849D01*
X63182096Y-131421875D01*
X63155071Y-131378482D01*
X63122164Y-131341202D01*
X63042023Y-131286617D01*
X62933575Y-131252156D01*
X62772592Y-131238583D01*
X62352495Y-131238583D01*
G37*
G36*
X65987183Y-131205580D02*
G01*
X66110504Y-131245388D01*
X66165379Y-131275070D01*
X66215881Y-131311318D01*
X66263764Y-131355907D01*
X66307139Y-131407633D01*
X66348757Y-131471067D01*
X66385433Y-131542787D01*
X67068580Y-133046102D01*
X67099354Y-133130000D01*
X66528193Y-133130000D01*
X66505973Y-133066227D01*
X66505722Y-133065642D01*
X66404972Y-132836053D01*
X65284996Y-132836053D01*
X65187055Y-133062833D01*
X65186851Y-133063378D01*
X65167393Y-133130000D01*
X64582188Y-133130000D01*
X64612962Y-133046102D01*
X64895748Y-132418764D01*
X65469766Y-132418764D01*
X66220202Y-132418764D01*
X65928943Y-131739281D01*
X65897923Y-131697376D01*
X65871637Y-131684385D01*
X65842236Y-131680296D01*
X65837832Y-131680378D01*
X65793194Y-131694063D01*
X65774109Y-131712033D01*
X65758217Y-131739281D01*
X65469766Y-132418764D01*
X64895748Y-132418764D01*
X65290614Y-131542787D01*
X65365209Y-131411841D01*
X65450947Y-131317773D01*
X65499924Y-131280810D01*
X65553396Y-131250285D01*
X65613794Y-131225400D01*
X65679439Y-131207374D01*
X65756145Y-131195603D01*
X65839428Y-131191688D01*
X65987183Y-131205580D01*
G37*
G36*
X68747383Y-133169078D02*
G01*
X68809772Y-133165114D01*
X68869557Y-133152991D01*
X68921035Y-133134365D01*
X68968109Y-133108297D01*
X69006221Y-133077891D01*
X69039018Y-133040906D01*
X69066608Y-132995300D01*
X69640579Y-131802173D01*
X69661677Y-131782760D01*
X69676971Y-131779703D01*
X69695207Y-131783611D01*
X69710520Y-131795334D01*
X69721790Y-131830261D01*
X69721790Y-133130000D01*
X70209054Y-133130000D01*
X70209054Y-131740502D01*
X70205195Y-131654594D01*
X70193813Y-131577843D01*
X70176470Y-131513314D01*
X70152954Y-131455756D01*
X70124161Y-131405579D01*
X70089905Y-131361028D01*
X70032589Y-131306605D01*
X69979094Y-131268955D01*
X69919208Y-131237312D01*
X69858567Y-131214607D01*
X69792929Y-131199174D01*
X69702250Y-131191688D01*
X69635975Y-131195530D01*
X69574909Y-131206792D01*
X69519410Y-131224810D01*
X69468396Y-131249298D01*
X69376135Y-131318543D01*
X69293414Y-131418615D01*
X69223412Y-131544497D01*
X68795010Y-132475917D01*
X68781543Y-132499209D01*
X68764215Y-132510258D01*
X68747383Y-132512431D01*
X68724547Y-132507841D01*
X68707454Y-132491337D01*
X68699878Y-132475917D01*
X68271476Y-131544497D01*
X68227617Y-131460398D01*
X68177849Y-131385451D01*
X68132252Y-131332020D01*
X68081558Y-131286175D01*
X68032004Y-131252464D01*
X67977677Y-131225698D01*
X67921800Y-131207257D01*
X67861057Y-131195791D01*
X67792638Y-131191688D01*
X67666853Y-131206308D01*
X67551601Y-131248815D01*
X67462299Y-131306605D01*
X67416844Y-131348100D01*
X67377628Y-131395560D01*
X67347268Y-131445201D01*
X67322711Y-131501057D01*
X67292165Y-131631958D01*
X67285834Y-131740502D01*
X67285834Y-133130000D01*
X67773098Y-133130000D01*
X67773098Y-131830261D01*
X67776692Y-131808796D01*
X67786214Y-131793224D01*
X67817795Y-131779703D01*
X67849307Y-131793969D01*
X67854309Y-131802173D01*
X68428280Y-132995300D01*
X68481492Y-133070861D01*
X68556523Y-133125953D01*
X68653398Y-133159816D01*
X68747383Y-133169078D01*
G37*
G36*
X70376483Y-131238583D02*
G01*
X70376483Y-131739891D01*
X71208130Y-131739891D01*
X71208130Y-133130000D01*
X71717620Y-133130000D01*
X71717620Y-131739891D01*
X72546458Y-131739891D01*
X72546458Y-131238583D01*
X70376483Y-131238583D01*
G37*
G36*
X54464916Y-162631622D02*
G01*
X53473778Y-162631622D01*
X53395711Y-162627793D01*
X53325452Y-162616621D01*
X53264349Y-162599210D01*
X53209822Y-162575764D01*
X53118944Y-162512471D01*
X53093004Y-162486297D01*
X53056229Y-162441015D01*
X53025589Y-162390905D01*
X53001780Y-162336916D01*
X52985249Y-162279528D01*
X52975401Y-162187100D01*
X52990427Y-162072380D01*
X53034928Y-161964483D01*
X53067564Y-161915570D01*
X53106256Y-161871628D01*
X53115352Y-161862868D01*
X53163560Y-161823763D01*
X53218516Y-161791226D01*
X53273289Y-161768752D01*
X53335400Y-161752381D01*
X53473778Y-161739891D01*
X54464916Y-161739891D01*
X54464916Y-161238583D01*
X53473778Y-161238583D01*
X53369899Y-161242432D01*
X53272263Y-161253747D01*
X53181558Y-161271962D01*
X53096607Y-161296811D01*
X53016940Y-161328084D01*
X52942700Y-161365355D01*
X52807169Y-161458664D01*
X52773778Y-161487833D01*
X52658240Y-161616029D01*
X52609518Y-161687571D01*
X52567331Y-161763541D01*
X52532445Y-161842581D01*
X52504737Y-161925118D01*
X52484915Y-162009061D01*
X52472744Y-162095581D01*
X52468597Y-162184413D01*
X52483777Y-162356905D01*
X52528637Y-162521260D01*
X52601815Y-162673674D01*
X52701142Y-162809677D01*
X52712229Y-162822009D01*
X52773006Y-162882846D01*
X52839525Y-162937887D01*
X52909047Y-162985027D01*
X52984091Y-163026135D01*
X53062870Y-163060170D01*
X53147116Y-163087823D01*
X53236205Y-163108653D01*
X53330862Y-163122602D01*
X53473778Y-163130000D01*
X54464916Y-163130000D01*
X54464916Y-162631622D01*
G37*
G36*
X55330146Y-162822254D02*
G01*
X55366592Y-162893246D01*
X55407958Y-162955918D01*
X55451079Y-163006923D01*
X55498719Y-163050835D01*
X55549130Y-163086575D01*
X55603970Y-163115819D01*
X55728033Y-163155194D01*
X55878960Y-163169078D01*
X55962592Y-163165156D01*
X56039628Y-163153334D01*
X56105227Y-163135292D01*
X56165601Y-163110352D01*
X56218871Y-163079831D01*
X56267681Y-163042821D01*
X56352940Y-162948673D01*
X56424843Y-162822254D01*
X57102494Y-161322602D01*
X57133269Y-161238583D01*
X56542445Y-161238583D01*
X56520097Y-161305750D01*
X55960048Y-162612327D01*
X55942740Y-162642458D01*
X55922565Y-162660856D01*
X55881646Y-162671067D01*
X55854434Y-162666974D01*
X55829998Y-162653950D01*
X55800558Y-162612327D01*
X55234891Y-161305750D01*
X55215352Y-161238583D01*
X54616102Y-161238583D01*
X54646877Y-161322602D01*
X55330146Y-162822254D01*
G37*
G36*
X60050460Y-161245495D02*
G01*
X60189446Y-161278131D01*
X60306606Y-161335582D01*
X60358016Y-161373675D01*
X60404413Y-161417857D01*
X60421384Y-161436825D01*
X60489652Y-161539789D01*
X60532262Y-161659036D01*
X60543355Y-161724872D01*
X60547173Y-161795334D01*
X60537906Y-161896407D01*
X60501351Y-162009996D01*
X60440176Y-162104383D01*
X60356786Y-162177575D01*
X60400287Y-162204736D01*
X60438743Y-162237906D01*
X60475724Y-162281233D01*
X60506414Y-162330297D01*
X60532380Y-162388356D01*
X60551081Y-162450821D01*
X60562805Y-162519044D01*
X60566713Y-162589490D01*
X60553536Y-162707606D01*
X60534866Y-162771427D01*
X60508843Y-162831798D01*
X60475230Y-162889463D01*
X60435188Y-162942421D01*
X60365923Y-163009630D01*
X60261176Y-163073727D01*
X60199500Y-163097414D01*
X60131116Y-163114957D01*
X60053338Y-163126165D01*
X59967585Y-163130000D01*
X58587247Y-163130000D01*
X58578291Y-163129846D01*
X58515284Y-163115919D01*
X58493178Y-163100735D01*
X58476849Y-163079969D01*
X58465125Y-163048709D01*
X58461217Y-163009710D01*
X58461217Y-162628813D01*
X58968021Y-162628813D01*
X58973389Y-162655135D01*
X58986044Y-162666908D01*
X59007222Y-162670823D01*
X59847173Y-162670823D01*
X59854319Y-162670755D01*
X59900531Y-162666413D01*
X59938115Y-162655880D01*
X59970773Y-162638059D01*
X59995551Y-162614769D01*
X60019707Y-162576510D01*
X60034752Y-162508279D01*
X60029316Y-162469557D01*
X60014722Y-162434875D01*
X59992742Y-162404476D01*
X59991122Y-162402729D01*
X59938800Y-162366080D01*
X59898789Y-162355041D01*
X59847173Y-162351231D01*
X58968021Y-162351231D01*
X58968021Y-162628813D01*
X58461217Y-162628813D01*
X58461217Y-161756378D01*
X58968021Y-161756378D01*
X58968021Y-162012344D01*
X59849982Y-162012344D01*
X59855928Y-162012290D01*
X59898577Y-162008091D01*
X59933616Y-161997622D01*
X59965285Y-161978994D01*
X59989933Y-161953970D01*
X60009759Y-161921503D01*
X60023517Y-161862135D01*
X60020737Y-161835718D01*
X60008880Y-161800862D01*
X59989933Y-161770300D01*
X59985903Y-161765666D01*
X59933537Y-161728996D01*
X59896084Y-161718364D01*
X59849982Y-161714612D01*
X59007222Y-161714612D01*
X58985535Y-161718763D01*
X58972164Y-161732675D01*
X58968021Y-161756378D01*
X58461217Y-161756378D01*
X58461217Y-161356186D01*
X58461263Y-161351750D01*
X58474603Y-161292023D01*
X58490334Y-161270302D01*
X58512103Y-161254214D01*
X58545487Y-161242491D01*
X58587247Y-161238583D01*
X59939619Y-161238583D01*
X60050460Y-161245495D01*
G37*
G36*
X61839096Y-161739891D02*
G01*
X63149459Y-161739891D01*
X63196373Y-161743900D01*
X63232996Y-161756327D01*
X63254153Y-161772174D01*
X63268785Y-161793747D01*
X63278297Y-161843328D01*
X63274364Y-161873718D01*
X63262470Y-161899709D01*
X63218091Y-161938706D01*
X63183164Y-161955069D01*
X62077110Y-162396782D01*
X62011659Y-162427347D01*
X61956746Y-162461219D01*
X61911766Y-162497682D01*
X61875641Y-162536367D01*
X61825696Y-162620968D01*
X61802245Y-162715870D01*
X61799895Y-162760460D01*
X61803850Y-162815929D01*
X61815902Y-162870528D01*
X61835155Y-162920580D01*
X61862245Y-162967689D01*
X61894916Y-163008187D01*
X61934866Y-163044325D01*
X61979626Y-163073769D01*
X62031272Y-163097789D01*
X62088243Y-163115244D01*
X62152038Y-163126205D01*
X62222679Y-163130000D01*
X63841154Y-163130000D01*
X63841154Y-162645666D01*
X62642655Y-162645666D01*
X62626947Y-162641985D01*
X62615799Y-162631847D01*
X62611880Y-162617700D01*
X62626146Y-162594035D01*
X62634351Y-162589734D01*
X63488346Y-162279424D01*
X63555481Y-162250657D01*
X63616302Y-162216336D01*
X63671003Y-162176710D01*
X63719102Y-162132462D01*
X63760803Y-162083682D01*
X63795575Y-162031226D01*
X63844193Y-161916270D01*
X63863273Y-161791717D01*
X63863503Y-161776161D01*
X63859625Y-161706728D01*
X63848114Y-161640468D01*
X63829518Y-161578783D01*
X63803885Y-161520958D01*
X63771917Y-161468143D01*
X63733451Y-161419829D01*
X63689104Y-161376773D01*
X63638704Y-161338863D01*
X63582518Y-161306517D01*
X63520622Y-161280023D01*
X63452802Y-161259652D01*
X63379535Y-161245928D01*
X63267062Y-161238583D01*
X61839096Y-161238583D01*
X61839096Y-161739891D01*
G37*
G36*
X66511817Y-161205580D02*
G01*
X66635137Y-161245388D01*
X66690012Y-161275070D01*
X66740515Y-161311318D01*
X66788398Y-161355907D01*
X66831772Y-161407633D01*
X66873390Y-161471067D01*
X66910066Y-161542787D01*
X67593213Y-163046102D01*
X67623988Y-163130000D01*
X67052826Y-163130000D01*
X67030607Y-163066227D01*
X67030355Y-163065642D01*
X66929605Y-162836053D01*
X65809630Y-162836053D01*
X65711688Y-163062833D01*
X65711484Y-163063378D01*
X65692027Y-163130000D01*
X65106821Y-163130000D01*
X65137595Y-163046102D01*
X65420381Y-162418764D01*
X65994399Y-162418764D01*
X66744836Y-162418764D01*
X66453576Y-161739281D01*
X66422556Y-161697376D01*
X66396270Y-161684385D01*
X66366870Y-161680296D01*
X66362465Y-161680378D01*
X66317827Y-161694063D01*
X66298742Y-161712033D01*
X66282850Y-161739281D01*
X65994399Y-162418764D01*
X65420381Y-162418764D01*
X65815247Y-161542787D01*
X65889843Y-161411841D01*
X65975580Y-161317773D01*
X66024557Y-161280810D01*
X66078030Y-161250285D01*
X66138427Y-161225400D01*
X66204072Y-161207374D01*
X66280779Y-161195603D01*
X66364061Y-161191688D01*
X66511817Y-161205580D01*
G37*
G36*
X69272016Y-163169078D02*
G01*
X69334405Y-163165114D01*
X69394190Y-163152991D01*
X69445669Y-163134365D01*
X69492743Y-163108297D01*
X69530854Y-163077891D01*
X69563651Y-163040906D01*
X69591242Y-162995300D01*
X70165212Y-161802173D01*
X70186311Y-161782760D01*
X70201605Y-161779703D01*
X70219840Y-161783611D01*
X70235153Y-161795334D01*
X70246423Y-161830261D01*
X70246423Y-163130000D01*
X70733688Y-163130000D01*
X70733688Y-161740502D01*
X70729828Y-161654594D01*
X70718446Y-161577843D01*
X70701103Y-161513314D01*
X70677587Y-161455756D01*
X70648794Y-161405579D01*
X70614539Y-161361028D01*
X70557222Y-161306605D01*
X70503728Y-161268955D01*
X70443842Y-161237312D01*
X70383200Y-161214607D01*
X70317562Y-161199174D01*
X70226884Y-161191688D01*
X70160608Y-161195530D01*
X70099543Y-161206792D01*
X70044044Y-161224810D01*
X69993029Y-161249298D01*
X69900768Y-161318543D01*
X69818047Y-161418615D01*
X69748046Y-161544497D01*
X69319644Y-162475917D01*
X69306176Y-162499209D01*
X69288848Y-162510258D01*
X69272016Y-162512431D01*
X69249180Y-162507841D01*
X69232087Y-162491337D01*
X69224511Y-162475917D01*
X68796109Y-161544497D01*
X68752250Y-161460398D01*
X68702482Y-161385451D01*
X68656885Y-161332020D01*
X68606191Y-161286175D01*
X68556637Y-161252464D01*
X68502310Y-161225698D01*
X68446434Y-161207257D01*
X68385690Y-161195791D01*
X68317271Y-161191688D01*
X68191486Y-161206308D01*
X68076234Y-161248815D01*
X67986933Y-161306605D01*
X67941477Y-161348100D01*
X67902261Y-161395560D01*
X67871901Y-161445201D01*
X67847344Y-161501057D01*
X67816799Y-161631958D01*
X67810467Y-161740502D01*
X67810467Y-163130000D01*
X68297732Y-163130000D01*
X68297732Y-161830261D01*
X68301325Y-161808796D01*
X68310847Y-161793224D01*
X68342428Y-161779703D01*
X68373940Y-161793969D01*
X68378942Y-161802173D01*
X68952913Y-162995300D01*
X69006125Y-163070861D01*
X69081156Y-163125953D01*
X69178031Y-163159816D01*
X69272016Y-163169078D01*
G37*
G36*
X70901116Y-161238583D02*
G01*
X70901116Y-161739891D01*
X71732763Y-161739891D01*
X71732763Y-163130000D01*
X72242254Y-163130000D01*
X72242254Y-161739891D01*
X73071092Y-161739891D01*
X73071092Y-161238583D01*
X70901116Y-161238583D01*
G37*
G36*
X71841085Y-218381622D02*
G01*
X70849947Y-218381622D01*
X70771880Y-218377793D01*
X70701621Y-218366621D01*
X70640518Y-218349210D01*
X70585991Y-218325764D01*
X70495113Y-218262471D01*
X70469173Y-218236297D01*
X70432398Y-218191015D01*
X70401758Y-218140905D01*
X70377949Y-218086916D01*
X70361418Y-218029528D01*
X70351570Y-217937100D01*
X70366596Y-217822380D01*
X70411097Y-217714483D01*
X70443733Y-217665570D01*
X70482425Y-217621628D01*
X70491521Y-217612868D01*
X70539729Y-217573763D01*
X70594685Y-217541226D01*
X70649458Y-217518752D01*
X70711569Y-217502381D01*
X70849947Y-217489891D01*
X71841085Y-217489891D01*
X71841085Y-216988583D01*
X70849947Y-216988583D01*
X70746068Y-216992432D01*
X70648432Y-217003747D01*
X70557727Y-217021962D01*
X70472776Y-217046811D01*
X70393109Y-217078084D01*
X70318869Y-217115355D01*
X70183338Y-217208664D01*
X70149947Y-217237833D01*
X70034409Y-217366029D01*
X69985687Y-217437571D01*
X69943500Y-217513541D01*
X69908614Y-217592581D01*
X69880906Y-217675118D01*
X69861084Y-217759061D01*
X69848913Y-217845581D01*
X69844766Y-217934413D01*
X69859946Y-218106905D01*
X69904806Y-218271260D01*
X69977984Y-218423674D01*
X70077311Y-218559677D01*
X70088398Y-218572009D01*
X70149175Y-218632846D01*
X70215694Y-218687887D01*
X70285216Y-218735027D01*
X70360260Y-218776135D01*
X70439039Y-218810170D01*
X70523285Y-218837823D01*
X70612374Y-218858653D01*
X70707031Y-218872602D01*
X70849947Y-218880000D01*
X71841085Y-218880000D01*
X71841085Y-218381622D01*
G37*
G36*
X72706315Y-218572254D02*
G01*
X72742761Y-218643246D01*
X72784127Y-218705918D01*
X72827248Y-218756923D01*
X72874888Y-218800835D01*
X72925299Y-218836575D01*
X72980139Y-218865819D01*
X73104202Y-218905194D01*
X73255129Y-218919078D01*
X73338761Y-218915156D01*
X73415797Y-218903334D01*
X73481396Y-218885292D01*
X73541770Y-218860352D01*
X73595040Y-218829831D01*
X73643850Y-218792821D01*
X73729109Y-218698673D01*
X73801012Y-218572254D01*
X74478663Y-217072602D01*
X74509438Y-216988583D01*
X73918614Y-216988583D01*
X73896266Y-217055750D01*
X73336217Y-218362327D01*
X73318909Y-218392458D01*
X73298734Y-218410856D01*
X73257815Y-218421067D01*
X73230603Y-218416974D01*
X73206167Y-218403950D01*
X73176727Y-218362327D01*
X72611060Y-217055750D01*
X72591521Y-216988583D01*
X71992271Y-216988583D01*
X72023046Y-217072602D01*
X72706315Y-218572254D01*
G37*
G36*
X77426629Y-216995495D02*
G01*
X77565615Y-217028131D01*
X77682775Y-217085582D01*
X77734185Y-217123675D01*
X77780582Y-217167857D01*
X77797553Y-217186825D01*
X77865821Y-217289789D01*
X77908431Y-217409036D01*
X77919524Y-217474872D01*
X77923342Y-217545334D01*
X77914075Y-217646407D01*
X77877520Y-217759996D01*
X77816345Y-217854383D01*
X77732955Y-217927575D01*
X77776456Y-217954736D01*
X77814912Y-217987906D01*
X77851893Y-218031233D01*
X77882583Y-218080297D01*
X77908549Y-218138356D01*
X77927250Y-218200821D01*
X77938974Y-218269044D01*
X77942882Y-218339490D01*
X77929705Y-218457606D01*
X77911035Y-218521427D01*
X77885012Y-218581798D01*
X77851399Y-218639463D01*
X77811357Y-218692421D01*
X77742092Y-218759630D01*
X77637345Y-218823727D01*
X77575669Y-218847414D01*
X77507285Y-218864957D01*
X77429507Y-218876165D01*
X77343754Y-218880000D01*
X75963416Y-218880000D01*
X75954460Y-218879846D01*
X75891453Y-218865919D01*
X75869347Y-218850735D01*
X75853018Y-218829969D01*
X75841294Y-218798709D01*
X75837386Y-218759710D01*
X75837386Y-218378813D01*
X76344190Y-218378813D01*
X76349558Y-218405135D01*
X76362213Y-218416908D01*
X76383391Y-218420823D01*
X77223342Y-218420823D01*
X77230488Y-218420755D01*
X77276700Y-218416413D01*
X77314284Y-218405880D01*
X77346942Y-218388059D01*
X77371720Y-218364769D01*
X77395876Y-218326510D01*
X77410921Y-218258279D01*
X77405485Y-218219557D01*
X77390891Y-218184875D01*
X77368911Y-218154476D01*
X77367291Y-218152729D01*
X77314969Y-218116080D01*
X77274958Y-218105041D01*
X77223342Y-218101231D01*
X76344190Y-218101231D01*
X76344190Y-218378813D01*
X75837386Y-218378813D01*
X75837386Y-217506378D01*
X76344190Y-217506378D01*
X76344190Y-217762344D01*
X77226151Y-217762344D01*
X77232097Y-217762290D01*
X77274746Y-217758091D01*
X77309785Y-217747622D01*
X77341454Y-217728994D01*
X77366102Y-217703970D01*
X77385928Y-217671503D01*
X77399686Y-217612135D01*
X77396906Y-217585718D01*
X77385049Y-217550862D01*
X77366102Y-217520300D01*
X77362072Y-217515666D01*
X77309706Y-217478996D01*
X77272253Y-217468364D01*
X77226151Y-217464612D01*
X76383391Y-217464612D01*
X76361704Y-217468763D01*
X76348333Y-217482675D01*
X76344190Y-217506378D01*
X75837386Y-217506378D01*
X75837386Y-217106186D01*
X75837432Y-217101750D01*
X75850772Y-217042023D01*
X75866503Y-217020302D01*
X75888272Y-217004214D01*
X75921656Y-216992491D01*
X75963416Y-216988583D01*
X77315788Y-216988583D01*
X77426629Y-216995495D01*
G37*
G36*
X79204030Y-216988583D02*
G01*
X79204030Y-217489891D01*
X79514829Y-217489891D01*
X79544980Y-217493832D01*
X79566831Y-217505788D01*
X79585806Y-217543750D01*
X79587735Y-217568171D01*
X79587735Y-218880000D01*
X80091730Y-218880000D01*
X80091730Y-217492578D01*
X80087673Y-217386663D01*
X80074907Y-217294096D01*
X80057635Y-217228849D01*
X80033631Y-217171875D01*
X80006606Y-217128482D01*
X79973699Y-217091202D01*
X79893558Y-217036617D01*
X79785110Y-217002156D01*
X79624127Y-216988583D01*
X79204030Y-216988583D01*
G37*
G36*
X54654274Y-181381622D02*
G01*
X53663136Y-181381622D01*
X53585069Y-181377793D01*
X53514810Y-181366621D01*
X53453707Y-181349210D01*
X53399180Y-181325764D01*
X53308302Y-181262471D01*
X53282362Y-181236297D01*
X53245587Y-181191015D01*
X53214947Y-181140905D01*
X53191138Y-181086916D01*
X53174607Y-181029528D01*
X53164759Y-180937100D01*
X53179785Y-180822380D01*
X53224286Y-180714483D01*
X53256922Y-180665570D01*
X53295614Y-180621628D01*
X53304710Y-180612868D01*
X53352918Y-180573763D01*
X53407874Y-180541226D01*
X53462647Y-180518752D01*
X53524758Y-180502381D01*
X53663136Y-180489891D01*
X54654274Y-180489891D01*
X54654274Y-179988583D01*
X53663136Y-179988583D01*
X53559257Y-179992432D01*
X53461621Y-180003747D01*
X53370916Y-180021962D01*
X53285965Y-180046811D01*
X53206298Y-180078084D01*
X53132058Y-180115355D01*
X52996527Y-180208664D01*
X52963136Y-180237833D01*
X52847598Y-180366029D01*
X52798876Y-180437571D01*
X52756689Y-180513541D01*
X52721803Y-180592581D01*
X52694095Y-180675118D01*
X52674273Y-180759061D01*
X52662102Y-180845581D01*
X52657955Y-180934413D01*
X52673135Y-181106905D01*
X52717995Y-181271260D01*
X52791173Y-181423674D01*
X52890500Y-181559677D01*
X52901587Y-181572009D01*
X52962364Y-181632846D01*
X53028883Y-181687887D01*
X53098405Y-181735027D01*
X53173449Y-181776135D01*
X53252228Y-181810170D01*
X53336474Y-181837823D01*
X53425563Y-181858653D01*
X53520220Y-181872602D01*
X53663136Y-181880000D01*
X54654274Y-181880000D01*
X54654274Y-181381622D01*
G37*
G36*
X55519504Y-181572254D02*
G01*
X55555950Y-181643246D01*
X55597316Y-181705918D01*
X55640437Y-181756923D01*
X55688077Y-181800835D01*
X55738488Y-181836575D01*
X55793328Y-181865819D01*
X55917391Y-181905194D01*
X56068318Y-181919078D01*
X56151950Y-181915156D01*
X56228986Y-181903334D01*
X56294585Y-181885292D01*
X56354959Y-181860352D01*
X56408229Y-181829831D01*
X56457039Y-181792821D01*
X56542298Y-181698673D01*
X56614201Y-181572254D01*
X57291852Y-180072602D01*
X57322627Y-179988583D01*
X56731803Y-179988583D01*
X56709455Y-180055750D01*
X56149406Y-181362327D01*
X56132098Y-181392458D01*
X56111923Y-181410856D01*
X56071004Y-181421067D01*
X56043792Y-181416974D01*
X56019356Y-181403950D01*
X55989916Y-181362327D01*
X55424249Y-180055750D01*
X55404710Y-179988583D01*
X54805460Y-179988583D01*
X54836235Y-180072602D01*
X55519504Y-181572254D01*
G37*
G36*
X59965934Y-179955580D02*
G01*
X60089254Y-179995388D01*
X60144129Y-180025070D01*
X60194632Y-180061318D01*
X60242515Y-180105907D01*
X60285890Y-180157633D01*
X60327507Y-180221067D01*
X60364183Y-180292787D01*
X61047330Y-181796102D01*
X61078105Y-181880000D01*
X60506943Y-181880000D01*
X60484724Y-181816227D01*
X60484473Y-181815642D01*
X60383723Y-181586053D01*
X59263747Y-181586053D01*
X59165806Y-181812833D01*
X59165601Y-181813378D01*
X59146144Y-181880000D01*
X58560938Y-181880000D01*
X58591713Y-181796102D01*
X58874499Y-181168764D01*
X59448517Y-181168764D01*
X60198953Y-181168764D01*
X59907693Y-180489281D01*
X59876674Y-180447376D01*
X59850387Y-180434385D01*
X59820987Y-180430296D01*
X59816583Y-180430378D01*
X59771945Y-180444063D01*
X59752859Y-180462033D01*
X59736967Y-180489281D01*
X59448517Y-181168764D01*
X58874499Y-181168764D01*
X59269365Y-180292787D01*
X59343960Y-180161841D01*
X59429697Y-180067773D01*
X59478674Y-180030810D01*
X59532147Y-180000285D01*
X59592545Y-179975400D01*
X59658190Y-179957374D01*
X59734896Y-179945603D01*
X59818178Y-179941688D01*
X59965934Y-179955580D01*
G37*
G36*
X62352808Y-180489891D02*
G01*
X63663171Y-180489891D01*
X63710085Y-180493900D01*
X63746709Y-180506327D01*
X63767866Y-180522174D01*
X63782498Y-180543747D01*
X63792009Y-180593328D01*
X63788077Y-180623718D01*
X63776182Y-180649709D01*
X63731803Y-180688706D01*
X63696877Y-180705069D01*
X62590823Y-181146782D01*
X62525371Y-181177347D01*
X62470459Y-181211219D01*
X62425479Y-181247682D01*
X62389353Y-181286367D01*
X62339409Y-181370968D01*
X62315957Y-181465870D01*
X62313607Y-181510460D01*
X62317562Y-181565929D01*
X62329615Y-181620528D01*
X62348868Y-181670580D01*
X62375957Y-181717689D01*
X62408629Y-181758187D01*
X62448579Y-181794325D01*
X62493339Y-181823769D01*
X62544985Y-181847789D01*
X62601956Y-181865244D01*
X62665751Y-181876205D01*
X62736392Y-181880000D01*
X64354867Y-181880000D01*
X64354867Y-181395666D01*
X63156367Y-181395666D01*
X63140660Y-181391985D01*
X63129511Y-181381847D01*
X63125593Y-181367700D01*
X63139858Y-181344035D01*
X63148063Y-181339734D01*
X64002058Y-181029424D01*
X64069193Y-181000657D01*
X64130015Y-180966336D01*
X64184715Y-180926710D01*
X64232814Y-180882462D01*
X64274515Y-180833682D01*
X64309287Y-180781226D01*
X64357906Y-180666270D01*
X64376985Y-180541717D01*
X64377215Y-180526161D01*
X64373338Y-180456728D01*
X64361826Y-180390468D01*
X64343231Y-180328783D01*
X64317597Y-180270958D01*
X64285629Y-180218143D01*
X64247164Y-180169829D01*
X64202816Y-180126773D01*
X64152416Y-180088863D01*
X64096231Y-180056517D01*
X64034335Y-180030023D01*
X63966515Y-180009652D01*
X63893247Y-179995928D01*
X63780774Y-179988583D01*
X62352808Y-179988583D01*
X62352808Y-180489891D01*
G37*
G36*
X80007330Y-68239181D02*
G01*
X80107723Y-68245892D01*
X80202070Y-68259784D01*
X80291139Y-68280683D01*
X80374452Y-68308169D01*
X80454124Y-68342845D01*
X80528137Y-68383713D01*
X80599862Y-68432792D01*
X80665824Y-68487833D01*
X80735342Y-68559281D01*
X80836541Y-68698198D01*
X80910670Y-68851781D01*
X80955818Y-69015176D01*
X80971005Y-69184413D01*
X80970974Y-69192301D01*
X80966268Y-69281359D01*
X80953808Y-69367822D01*
X80933536Y-69452793D01*
X80905984Y-69534326D01*
X80871066Y-69612971D01*
X80829471Y-69687313D01*
X80781390Y-69757226D01*
X80727373Y-69822009D01*
X80636433Y-69909144D01*
X80500603Y-70002550D01*
X80425624Y-70040063D01*
X80345309Y-70071466D01*
X80259459Y-70096487D01*
X80168073Y-70114783D01*
X80069878Y-70126144D01*
X79965824Y-70130000D01*
X79568196Y-70130000D01*
X79425280Y-70122602D01*
X79330623Y-70108653D01*
X79241534Y-70087823D01*
X79157288Y-70060170D01*
X79078509Y-70026135D01*
X79003465Y-69985027D01*
X78933943Y-69937887D01*
X78867424Y-69882846D01*
X78806647Y-69822009D01*
X78795560Y-69809677D01*
X78696233Y-69673674D01*
X78623055Y-69521260D01*
X78578195Y-69356905D01*
X78563251Y-69187100D01*
X79069819Y-69187100D01*
X79079667Y-69279528D01*
X79096198Y-69336916D01*
X79120007Y-69390905D01*
X79150647Y-69441015D01*
X79187422Y-69486297D01*
X79213362Y-69512471D01*
X79304240Y-69575764D01*
X79358767Y-69599210D01*
X79419870Y-69616621D01*
X79490129Y-69627793D01*
X79568196Y-69631622D01*
X79965824Y-69631622D01*
X80011945Y-69630330D01*
X80083138Y-69622582D01*
X80147243Y-69608210D01*
X80205233Y-69587383D01*
X80256757Y-69560665D01*
X80304876Y-69526295D01*
X80346598Y-69486297D01*
X80404966Y-69407330D01*
X80449238Y-69300684D01*
X80464201Y-69187100D01*
X80464122Y-69178682D01*
X80458895Y-69118558D01*
X80445855Y-69060570D01*
X80425170Y-69004675D01*
X80397496Y-68952450D01*
X80324250Y-68862868D01*
X80318652Y-68857747D01*
X80228118Y-68794790D01*
X80175369Y-68771905D01*
X80115727Y-68754813D01*
X80045529Y-68743710D01*
X79965824Y-68739891D01*
X79568196Y-68739891D01*
X79429818Y-68752381D01*
X79367707Y-68768752D01*
X79312934Y-68791226D01*
X79257978Y-68823763D01*
X79209770Y-68862868D01*
X79200674Y-68871628D01*
X79161982Y-68915570D01*
X79129346Y-68964483D01*
X79084845Y-69072380D01*
X79069819Y-69187100D01*
X78563251Y-69187100D01*
X78563015Y-69184413D01*
X78567162Y-69095581D01*
X78579333Y-69009061D01*
X78599155Y-68925118D01*
X78626863Y-68842581D01*
X78661749Y-68763541D01*
X78703936Y-68687571D01*
X78752658Y-68616029D01*
X78868196Y-68487833D01*
X78901587Y-68458664D01*
X79037118Y-68365355D01*
X79111358Y-68328084D01*
X79191025Y-68296811D01*
X79275976Y-68271962D01*
X79366681Y-68253747D01*
X79464317Y-68242432D01*
X79568196Y-68238583D01*
X79965824Y-68238583D01*
X80007330Y-68239181D01*
G37*
G36*
X81552303Y-68238583D02*
G01*
X81482874Y-68242505D01*
X81421273Y-68254325D01*
X81372828Y-68271655D01*
X81330677Y-68295428D01*
X81296969Y-68323541D01*
X81268789Y-68357389D01*
X81229126Y-68442285D01*
X81211306Y-68557647D01*
X81210729Y-68585896D01*
X81210729Y-70130000D01*
X81717533Y-70130000D01*
X81717533Y-69498387D01*
X83193127Y-69498387D01*
X83193127Y-69027976D01*
X81717533Y-69027976D01*
X81717533Y-68823789D01*
X81721476Y-68789951D01*
X81733441Y-68764801D01*
X81770563Y-68742457D01*
X81795935Y-68739891D01*
X83201553Y-68739891D01*
X83201553Y-68238583D01*
X81552303Y-68238583D01*
G37*
G36*
X83764166Y-68238583D02*
G01*
X83694737Y-68242505D01*
X83633137Y-68254325D01*
X83584692Y-68271655D01*
X83542541Y-68295428D01*
X83508832Y-68323541D01*
X83480652Y-68357389D01*
X83440989Y-68442285D01*
X83423169Y-68557647D01*
X83422593Y-68585896D01*
X83422593Y-70130000D01*
X83929397Y-70130000D01*
X83929397Y-69498387D01*
X85404990Y-69498387D01*
X85404990Y-69027976D01*
X83929397Y-69027976D01*
X83929397Y-68823789D01*
X83933339Y-68789951D01*
X83945304Y-68764801D01*
X83982426Y-68742457D01*
X84007799Y-68739891D01*
X85413416Y-68739891D01*
X85413416Y-68238583D01*
X83764166Y-68238583D01*
G37*
G36*
X87616853Y-68238583D02*
G01*
X86228088Y-68238583D01*
X86129043Y-68242407D01*
X86041604Y-68253546D01*
X85967870Y-68270569D01*
X85902793Y-68293379D01*
X85795371Y-68354188D01*
X85732397Y-68409431D01*
X85688206Y-68460451D01*
X85650243Y-68516229D01*
X85619223Y-68575740D01*
X85595339Y-68638821D01*
X85579369Y-68703381D01*
X85571153Y-68770299D01*
X85570098Y-68804616D01*
X85573951Y-68872586D01*
X85585291Y-68937920D01*
X85629750Y-69060632D01*
X85701951Y-69169918D01*
X85729711Y-69200533D01*
X85778419Y-69244731D01*
X85834469Y-69283348D01*
X85891997Y-69312712D01*
X85957346Y-69336636D01*
X86029713Y-69354342D01*
X86111282Y-69365988D01*
X86228088Y-69371381D01*
X86998064Y-69371381D01*
X87055574Y-69375293D01*
X87096850Y-69387041D01*
X87132397Y-69412903D01*
X87164279Y-69465446D01*
X87171598Y-69512676D01*
X87167793Y-69545618D01*
X87156790Y-69575289D01*
X87140824Y-69598527D01*
X87118198Y-69619276D01*
X87087429Y-69634224D01*
X86998064Y-69645666D01*
X85620412Y-69645666D01*
X85620412Y-70130000D01*
X87087579Y-70130000D01*
X87172118Y-70126162D01*
X87249462Y-70114927D01*
X87318412Y-70097208D01*
X87381142Y-70073219D01*
X87489395Y-70007858D01*
X87566417Y-69934117D01*
X87642205Y-69822234D01*
X87669931Y-69760487D01*
X87690235Y-69695741D01*
X87702252Y-69631242D01*
X87706368Y-69565310D01*
X87691287Y-69439721D01*
X87646126Y-69317838D01*
X87572177Y-69206404D01*
X87544069Y-69175376D01*
X87494568Y-69130374D01*
X87438536Y-69091170D01*
X87380699Y-69060803D01*
X87316342Y-69036435D01*
X87247265Y-69019031D01*
X87171176Y-69008236D01*
X87087579Y-69004528D01*
X86256054Y-69004528D01*
X86199416Y-69000450D01*
X86162217Y-68987531D01*
X86146877Y-68976441D01*
X86125299Y-68954054D01*
X86109347Y-68926072D01*
X86099250Y-68875080D01*
X86103075Y-68840683D01*
X86114219Y-68809888D01*
X86138451Y-68776406D01*
X86162545Y-68758352D01*
X86195791Y-68745961D01*
X86256054Y-68739891D01*
X87616853Y-68739891D01*
X87616853Y-68238583D01*
G37*
G36*
X88175681Y-68238583D02*
G01*
X88112923Y-68242496D01*
X88058494Y-68254258D01*
X88017323Y-68271213D01*
X87982659Y-68294346D01*
X87956125Y-68321599D01*
X87935288Y-68354297D01*
X87910481Y-68437702D01*
X87906891Y-68493450D01*
X87906891Y-69866828D01*
X87910794Y-69926739D01*
X87922482Y-69978855D01*
X87939512Y-70018903D01*
X87962727Y-70052761D01*
X88023664Y-70100051D01*
X88109267Y-70125709D01*
X88172872Y-70130000D01*
X89897715Y-70130000D01*
X89897715Y-69645666D01*
X88458514Y-69645666D01*
X88436536Y-69641758D01*
X88422077Y-69630034D01*
X88413695Y-69595840D01*
X88413695Y-69368572D01*
X89889288Y-69368572D01*
X89889288Y-69004528D01*
X88413695Y-69004528D01*
X88413695Y-68787763D01*
X88417679Y-68763440D01*
X88429934Y-68747456D01*
X88458514Y-68739891D01*
X89897715Y-68739891D01*
X89897715Y-68238583D01*
X88175681Y-68238583D01*
G37*
G36*
X90051221Y-68238583D02*
G01*
X90051221Y-68739891D01*
X90882868Y-68739891D01*
X90882868Y-70130000D01*
X91392359Y-70130000D01*
X91392359Y-68739891D01*
X92221197Y-68739891D01*
X92221197Y-68238583D01*
X90051221Y-68238583D01*
G37*
G36*
X94864992Y-68205580D02*
G01*
X94988313Y-68245388D01*
X95043188Y-68275070D01*
X95093690Y-68311318D01*
X95141574Y-68355907D01*
X95184948Y-68407633D01*
X95226566Y-68471067D01*
X95263242Y-68542787D01*
X95946389Y-70046102D01*
X95977164Y-70130000D01*
X95406002Y-70130000D01*
X95383782Y-70066227D01*
X95383531Y-70065642D01*
X95282781Y-69836053D01*
X94162806Y-69836053D01*
X94064864Y-70062833D01*
X94064660Y-70063378D01*
X94045203Y-70130000D01*
X93459997Y-70130000D01*
X93490771Y-70046102D01*
X93773557Y-69418764D01*
X94347575Y-69418764D01*
X95098011Y-69418764D01*
X94806752Y-68739281D01*
X94775732Y-68697376D01*
X94749446Y-68684385D01*
X94720046Y-68680296D01*
X94715641Y-68680378D01*
X94671003Y-68694063D01*
X94651918Y-68712033D01*
X94636026Y-68739281D01*
X94347575Y-69418764D01*
X93773557Y-69418764D01*
X94168423Y-68542787D01*
X94243019Y-68411841D01*
X94328756Y-68317773D01*
X94377733Y-68280810D01*
X94431206Y-68250285D01*
X94491603Y-68225400D01*
X94557248Y-68207374D01*
X94633954Y-68195603D01*
X94717237Y-68191688D01*
X94864992Y-68205580D01*
G37*
G36*
X87501852Y-198489181D02*
G01*
X87602245Y-198495892D01*
X87696592Y-198509784D01*
X87785661Y-198530683D01*
X87868974Y-198558169D01*
X87948646Y-198592845D01*
X88022659Y-198633713D01*
X88094384Y-198682792D01*
X88160346Y-198737833D01*
X88229864Y-198809281D01*
X88331063Y-198948198D01*
X88405192Y-199101781D01*
X88450340Y-199265176D01*
X88465527Y-199434413D01*
X88465496Y-199442301D01*
X88460790Y-199531359D01*
X88448330Y-199617822D01*
X88428058Y-199702793D01*
X88400506Y-199784326D01*
X88365588Y-199862971D01*
X88323993Y-199937313D01*
X88275912Y-200007226D01*
X88221895Y-200072009D01*
X88130955Y-200159144D01*
X87995125Y-200252550D01*
X87920146Y-200290063D01*
X87839831Y-200321466D01*
X87753981Y-200346487D01*
X87662595Y-200364783D01*
X87564400Y-200376144D01*
X87460346Y-200380000D01*
X87062718Y-200380000D01*
X86919802Y-200372602D01*
X86825145Y-200358653D01*
X86736056Y-200337823D01*
X86651810Y-200310170D01*
X86573031Y-200276135D01*
X86497987Y-200235027D01*
X86428465Y-200187887D01*
X86361946Y-200132846D01*
X86301169Y-200072009D01*
X86290082Y-200059677D01*
X86190755Y-199923674D01*
X86117577Y-199771260D01*
X86072717Y-199606905D01*
X86057773Y-199437100D01*
X86564341Y-199437100D01*
X86574189Y-199529528D01*
X86590720Y-199586916D01*
X86614529Y-199640905D01*
X86645169Y-199691015D01*
X86681944Y-199736297D01*
X86707884Y-199762471D01*
X86798762Y-199825764D01*
X86853289Y-199849210D01*
X86914392Y-199866621D01*
X86984651Y-199877793D01*
X87062718Y-199881622D01*
X87460346Y-199881622D01*
X87506467Y-199880330D01*
X87577660Y-199872582D01*
X87641765Y-199858210D01*
X87699755Y-199837383D01*
X87751279Y-199810665D01*
X87799398Y-199776295D01*
X87841120Y-199736297D01*
X87899488Y-199657330D01*
X87943760Y-199550684D01*
X87958723Y-199437100D01*
X87958644Y-199428682D01*
X87953417Y-199368558D01*
X87940377Y-199310570D01*
X87919692Y-199254675D01*
X87892018Y-199202450D01*
X87818772Y-199112868D01*
X87813174Y-199107747D01*
X87722640Y-199044790D01*
X87669891Y-199021905D01*
X87610249Y-199004813D01*
X87540051Y-198993710D01*
X87460346Y-198989891D01*
X87062718Y-198989891D01*
X86924340Y-199002381D01*
X86862229Y-199018752D01*
X86807456Y-199041226D01*
X86752500Y-199073763D01*
X86704292Y-199112868D01*
X86695196Y-199121628D01*
X86656504Y-199165570D01*
X86623868Y-199214483D01*
X86579367Y-199322380D01*
X86564341Y-199437100D01*
X86057773Y-199437100D01*
X86057537Y-199434413D01*
X86061684Y-199345581D01*
X86073855Y-199259061D01*
X86093677Y-199175118D01*
X86121385Y-199092581D01*
X86156271Y-199013541D01*
X86198458Y-198937571D01*
X86247180Y-198866029D01*
X86362718Y-198737833D01*
X86396109Y-198708664D01*
X86531640Y-198615355D01*
X86605880Y-198578084D01*
X86685547Y-198546811D01*
X86770498Y-198521962D01*
X86861203Y-198503747D01*
X86958839Y-198492432D01*
X87062718Y-198488583D01*
X87460346Y-198488583D01*
X87501852Y-198489181D01*
G37*
G36*
X90208810Y-200380000D02*
G01*
X90323507Y-200376056D01*
X90426180Y-200364083D01*
X90507080Y-200346682D01*
X90579157Y-200322716D01*
X90637323Y-200295062D01*
X90688574Y-200261734D01*
X90731005Y-200224741D01*
X90767535Y-200182440D01*
X90823506Y-200081636D01*
X90859035Y-199951795D01*
X90872418Y-199775376D01*
X90872418Y-198488583D01*
X90362806Y-198488583D01*
X90362806Y-199719445D01*
X90358889Y-199767883D01*
X90347102Y-199808305D01*
X90330465Y-199836991D01*
X90307832Y-199859866D01*
X90246274Y-199888151D01*
X90175227Y-199895666D01*
X89388399Y-199895666D01*
X89336752Y-199891758D01*
X89294125Y-199880034D01*
X89264446Y-199863681D01*
X89241076Y-199841536D01*
X89213181Y-199782498D01*
X89206438Y-199719445D01*
X89206438Y-198488583D01*
X88696825Y-198488583D01*
X88696825Y-199775376D01*
X88700791Y-199876061D01*
X88712924Y-199966921D01*
X88730562Y-200038680D01*
X88754986Y-200103176D01*
X88783454Y-200155901D01*
X88817971Y-200202775D01*
X88856997Y-200242396D01*
X88901933Y-200276808D01*
X89011725Y-200330936D01*
X89156645Y-200366238D01*
X89360433Y-200380000D01*
X90208810Y-200380000D01*
G37*
G36*
X91056699Y-198488583D02*
G01*
X91056699Y-198989891D01*
X91888346Y-198989891D01*
X91888346Y-200380000D01*
X92397837Y-200380000D01*
X92397837Y-198989891D01*
X93226675Y-198989891D01*
X93226675Y-198488583D01*
X91056699Y-198488583D01*
G37*
G36*
X95870471Y-198455580D02*
G01*
X95993791Y-198495388D01*
X96048666Y-198525070D01*
X96099168Y-198561318D01*
X96147052Y-198605907D01*
X96190426Y-198657633D01*
X96232044Y-198721067D01*
X96268720Y-198792787D01*
X96951867Y-200296102D01*
X96982642Y-200380000D01*
X96411480Y-200380000D01*
X96389260Y-200316227D01*
X96389009Y-200315642D01*
X96288259Y-200086053D01*
X95168284Y-200086053D01*
X95070342Y-200312833D01*
X95070138Y-200313378D01*
X95050681Y-200380000D01*
X94465475Y-200380000D01*
X94496249Y-200296102D01*
X94779035Y-199668764D01*
X95353053Y-199668764D01*
X96103489Y-199668764D01*
X95812230Y-198989281D01*
X95781210Y-198947376D01*
X95754924Y-198934385D01*
X95725524Y-198930296D01*
X95721119Y-198930378D01*
X95676481Y-198944063D01*
X95657396Y-198962033D01*
X95641504Y-198989281D01*
X95353053Y-199668764D01*
X94779035Y-199668764D01*
X95173901Y-198792787D01*
X95248497Y-198661841D01*
X95334234Y-198567773D01*
X95383211Y-198530810D01*
X95436684Y-198500285D01*
X95497081Y-198475400D01*
X95562726Y-198457374D01*
X95639433Y-198445603D01*
X95722715Y-198441688D01*
X95870471Y-198455580D01*
G37*
G36*
X87640597Y-181381622D02*
G01*
X86649459Y-181381622D01*
X86571392Y-181377793D01*
X86501133Y-181366621D01*
X86440030Y-181349210D01*
X86385503Y-181325764D01*
X86294625Y-181262471D01*
X86268685Y-181236297D01*
X86231910Y-181191015D01*
X86201270Y-181140905D01*
X86177461Y-181086916D01*
X86160930Y-181029528D01*
X86151082Y-180937100D01*
X86166108Y-180822380D01*
X86210609Y-180714483D01*
X86243245Y-180665570D01*
X86281937Y-180621628D01*
X86291033Y-180612868D01*
X86339241Y-180573763D01*
X86394197Y-180541226D01*
X86448970Y-180518752D01*
X86511081Y-180502381D01*
X86649459Y-180489891D01*
X87640597Y-180489891D01*
X87640597Y-179988583D01*
X86649459Y-179988583D01*
X86545580Y-179992432D01*
X86447944Y-180003747D01*
X86357239Y-180021962D01*
X86272288Y-180046811D01*
X86192621Y-180078084D01*
X86118381Y-180115355D01*
X85982850Y-180208664D01*
X85949459Y-180237833D01*
X85833921Y-180366029D01*
X85785199Y-180437571D01*
X85743012Y-180513541D01*
X85708126Y-180592581D01*
X85680418Y-180675118D01*
X85660596Y-180759061D01*
X85648425Y-180845581D01*
X85644278Y-180934413D01*
X85659458Y-181106905D01*
X85704318Y-181271260D01*
X85777496Y-181423674D01*
X85876823Y-181559677D01*
X85887910Y-181572009D01*
X85948687Y-181632846D01*
X86015206Y-181687887D01*
X86084728Y-181735027D01*
X86159772Y-181776135D01*
X86238551Y-181810170D01*
X86322797Y-181837823D01*
X86411886Y-181858653D01*
X86506543Y-181872602D01*
X86649459Y-181880000D01*
X87640597Y-181880000D01*
X87640597Y-181381622D01*
G37*
G36*
X88505827Y-181572254D02*
G01*
X88542273Y-181643246D01*
X88583639Y-181705918D01*
X88626760Y-181756923D01*
X88674400Y-181800835D01*
X88724811Y-181836575D01*
X88779651Y-181865819D01*
X88903714Y-181905194D01*
X89054641Y-181919078D01*
X89138273Y-181915156D01*
X89215309Y-181903334D01*
X89280908Y-181885292D01*
X89341282Y-181860352D01*
X89394552Y-181829831D01*
X89443362Y-181792821D01*
X89528621Y-181698673D01*
X89600524Y-181572254D01*
X90278175Y-180072602D01*
X90308950Y-179988583D01*
X89718126Y-179988583D01*
X89695778Y-180055750D01*
X89135729Y-181362327D01*
X89118421Y-181392458D01*
X89098246Y-181410856D01*
X89057327Y-181421067D01*
X89030115Y-181416974D01*
X89005679Y-181403950D01*
X88976239Y-181362327D01*
X88410572Y-180055750D01*
X88391033Y-179988583D01*
X87791783Y-179988583D01*
X87822558Y-180072602D01*
X88505827Y-181572254D01*
G37*
G36*
X93174414Y-179999453D02*
G01*
X93256080Y-180014902D01*
X93330451Y-180036626D01*
X93399930Y-180065156D01*
X93462860Y-180099570D01*
X93524624Y-180143281D01*
X93580094Y-180193014D01*
X93654927Y-180281132D01*
X93729345Y-180411146D01*
X93774823Y-180551712D01*
X93790021Y-180696032D01*
X93788970Y-180733887D01*
X93780725Y-180808421D01*
X93764631Y-180881076D01*
X93740475Y-180952888D01*
X93708970Y-181021620D01*
X93670230Y-181087193D01*
X93624913Y-181148492D01*
X93586310Y-181191013D01*
X93477757Y-181280127D01*
X93416352Y-181315895D01*
X93348998Y-181346097D01*
X93275505Y-181370306D01*
X93195510Y-181388165D01*
X93107220Y-181399399D01*
X93011619Y-181403237D01*
X92140893Y-181403237D01*
X92140893Y-181880000D01*
X91634089Y-181880000D01*
X91634089Y-180528848D01*
X92140893Y-180528848D01*
X92140893Y-180938443D01*
X93022854Y-180938443D01*
X93092479Y-180933348D01*
X93138436Y-180922341D01*
X93176995Y-180905599D01*
X93212527Y-180880522D01*
X93241207Y-180849295D01*
X93271328Y-180796432D01*
X93282235Y-180757970D01*
X93286026Y-180715572D01*
X93276783Y-180647764D01*
X93261169Y-180608598D01*
X93238399Y-180573422D01*
X93206388Y-180542248D01*
X93172996Y-180520819D01*
X93132747Y-180504504D01*
X93082528Y-180493672D01*
X93022854Y-180489891D01*
X92177286Y-180489891D01*
X92155295Y-180495245D01*
X92144647Y-180507832D01*
X92140893Y-180528848D01*
X91634089Y-180528848D01*
X91634089Y-180106186D01*
X91647217Y-180042338D01*
X91662776Y-180020423D01*
X91684254Y-180004214D01*
X91716823Y-179992491D01*
X91757310Y-179988583D01*
X93011619Y-179988583D01*
X93174414Y-179999453D01*
G37*
G36*
X93820185Y-182205942D02*
G01*
X93848151Y-182138775D01*
X95124930Y-179946451D01*
X95140669Y-179912807D01*
X95150087Y-179879162D01*
X94777739Y-179879162D01*
X94749773Y-179946451D01*
X93475803Y-182138775D01*
X93457546Y-182172404D01*
X93447715Y-182205942D01*
X93820185Y-182205942D01*
G37*
G36*
X95225436Y-179988583D02*
G01*
X95225436Y-180489891D01*
X96057083Y-180489891D01*
X96057083Y-181880000D01*
X96566574Y-181880000D01*
X96566574Y-180489891D01*
X97395412Y-180489891D01*
X97395412Y-179988583D01*
X95225436Y-179988583D01*
G37*
G36*
X71316452Y-181381622D02*
G01*
X70325314Y-181381622D01*
X70247247Y-181377793D01*
X70176988Y-181366621D01*
X70115885Y-181349210D01*
X70061358Y-181325764D01*
X69970480Y-181262471D01*
X69944540Y-181236297D01*
X69907765Y-181191015D01*
X69877125Y-181140905D01*
X69853316Y-181086916D01*
X69836785Y-181029528D01*
X69826937Y-180937100D01*
X69841963Y-180822380D01*
X69886464Y-180714483D01*
X69919100Y-180665570D01*
X69957792Y-180621628D01*
X69966888Y-180612868D01*
X70015096Y-180573763D01*
X70070052Y-180541226D01*
X70124825Y-180518752D01*
X70186936Y-180502381D01*
X70325314Y-180489891D01*
X71316452Y-180489891D01*
X71316452Y-179988583D01*
X70325314Y-179988583D01*
X70221435Y-179992432D01*
X70123799Y-180003747D01*
X70033094Y-180021962D01*
X69948143Y-180046811D01*
X69868476Y-180078084D01*
X69794236Y-180115355D01*
X69658705Y-180208664D01*
X69625314Y-180237833D01*
X69509776Y-180366029D01*
X69461054Y-180437571D01*
X69418867Y-180513541D01*
X69383981Y-180592581D01*
X69356273Y-180675118D01*
X69336451Y-180759061D01*
X69324280Y-180845581D01*
X69320133Y-180934413D01*
X69335313Y-181106905D01*
X69380173Y-181271260D01*
X69453351Y-181423674D01*
X69552678Y-181559677D01*
X69563765Y-181572009D01*
X69624542Y-181632846D01*
X69691061Y-181687887D01*
X69760583Y-181735027D01*
X69835627Y-181776135D01*
X69914406Y-181810170D01*
X69998652Y-181837823D01*
X70087741Y-181858653D01*
X70182398Y-181872602D01*
X70325314Y-181880000D01*
X71316452Y-181880000D01*
X71316452Y-181381622D01*
G37*
G36*
X72181682Y-181572254D02*
G01*
X72218128Y-181643246D01*
X72259494Y-181705918D01*
X72302615Y-181756923D01*
X72350255Y-181800835D01*
X72400666Y-181836575D01*
X72455506Y-181865819D01*
X72579569Y-181905194D01*
X72730496Y-181919078D01*
X72814128Y-181915156D01*
X72891164Y-181903334D01*
X72956763Y-181885292D01*
X73017137Y-181860352D01*
X73070407Y-181829831D01*
X73119217Y-181792821D01*
X73204476Y-181698673D01*
X73276379Y-181572254D01*
X73954030Y-180072602D01*
X73984805Y-179988583D01*
X73393981Y-179988583D01*
X73371633Y-180055750D01*
X72811584Y-181362327D01*
X72794276Y-181392458D01*
X72774101Y-181410856D01*
X72733182Y-181421067D01*
X72705970Y-181416974D01*
X72681534Y-181403950D01*
X72652094Y-181362327D01*
X72086427Y-180055750D01*
X72066888Y-179988583D01*
X71467638Y-179988583D01*
X71498413Y-180072602D01*
X72181682Y-181572254D01*
G37*
G36*
X76901996Y-179995495D02*
G01*
X77040982Y-180028131D01*
X77158142Y-180085582D01*
X77209552Y-180123675D01*
X77255949Y-180167857D01*
X77272920Y-180186825D01*
X77341188Y-180289789D01*
X77383798Y-180409036D01*
X77394891Y-180474872D01*
X77398709Y-180545334D01*
X77389442Y-180646407D01*
X77352887Y-180759996D01*
X77291712Y-180854383D01*
X77208322Y-180927575D01*
X77251823Y-180954736D01*
X77290279Y-180987906D01*
X77327260Y-181031233D01*
X77357950Y-181080297D01*
X77383916Y-181138356D01*
X77402617Y-181200821D01*
X77414341Y-181269044D01*
X77418249Y-181339490D01*
X77405072Y-181457606D01*
X77386402Y-181521427D01*
X77360379Y-181581798D01*
X77326766Y-181639463D01*
X77286724Y-181692421D01*
X77217459Y-181759630D01*
X77112712Y-181823727D01*
X77051036Y-181847414D01*
X76982652Y-181864957D01*
X76904874Y-181876165D01*
X76819121Y-181880000D01*
X75438783Y-181880000D01*
X75429827Y-181879846D01*
X75366820Y-181865919D01*
X75344714Y-181850735D01*
X75328385Y-181829969D01*
X75316661Y-181798709D01*
X75312753Y-181759710D01*
X75312753Y-181378813D01*
X75819557Y-181378813D01*
X75824925Y-181405135D01*
X75837580Y-181416908D01*
X75858758Y-181420823D01*
X76698709Y-181420823D01*
X76705855Y-181420755D01*
X76752067Y-181416413D01*
X76789651Y-181405880D01*
X76822309Y-181388059D01*
X76847087Y-181364769D01*
X76871243Y-181326510D01*
X76886288Y-181258279D01*
X76880852Y-181219557D01*
X76866258Y-181184875D01*
X76844278Y-181154476D01*
X76842658Y-181152729D01*
X76790336Y-181116080D01*
X76750325Y-181105041D01*
X76698709Y-181101231D01*
X75819557Y-181101231D01*
X75819557Y-181378813D01*
X75312753Y-181378813D01*
X75312753Y-180506378D01*
X75819557Y-180506378D01*
X75819557Y-180762344D01*
X76701518Y-180762344D01*
X76707464Y-180762290D01*
X76750113Y-180758091D01*
X76785152Y-180747622D01*
X76816821Y-180728994D01*
X76841469Y-180703970D01*
X76861295Y-180671503D01*
X76875053Y-180612135D01*
X76872273Y-180585718D01*
X76860416Y-180550862D01*
X76841469Y-180520300D01*
X76837439Y-180515666D01*
X76785073Y-180478996D01*
X76747620Y-180468364D01*
X76701518Y-180464612D01*
X75858758Y-180464612D01*
X75837071Y-180468763D01*
X75823700Y-180482675D01*
X75819557Y-180506378D01*
X75312753Y-180506378D01*
X75312753Y-180106186D01*
X75312799Y-180101750D01*
X75326139Y-180042023D01*
X75341870Y-180020302D01*
X75363639Y-180004214D01*
X75397023Y-179992491D01*
X75438783Y-179988583D01*
X76791155Y-179988583D01*
X76901996Y-179995495D01*
G37*
G36*
X78690632Y-180489891D02*
G01*
X80000995Y-180489891D01*
X80047909Y-180493900D01*
X80084532Y-180506327D01*
X80105689Y-180522174D01*
X80120321Y-180543747D01*
X80129833Y-180593328D01*
X80125900Y-180623718D01*
X80114006Y-180649709D01*
X80069627Y-180688706D01*
X80034700Y-180705069D01*
X78928646Y-181146782D01*
X78863195Y-181177347D01*
X78808282Y-181211219D01*
X78763302Y-181247682D01*
X78727177Y-181286367D01*
X78677232Y-181370968D01*
X78653781Y-181465870D01*
X78651431Y-181510460D01*
X78655386Y-181565929D01*
X78667438Y-181620528D01*
X78686691Y-181670580D01*
X78713781Y-181717689D01*
X78746452Y-181758187D01*
X78786402Y-181794325D01*
X78831162Y-181823769D01*
X78882808Y-181847789D01*
X78939779Y-181865244D01*
X79003574Y-181876205D01*
X79074215Y-181880000D01*
X80692690Y-181880000D01*
X80692690Y-181395666D01*
X79494191Y-181395666D01*
X79478483Y-181391985D01*
X79467335Y-181381847D01*
X79463416Y-181367700D01*
X79477682Y-181344035D01*
X79485887Y-181339734D01*
X80339882Y-181029424D01*
X80407017Y-181000657D01*
X80467838Y-180966336D01*
X80522539Y-180926710D01*
X80570638Y-180882462D01*
X80612339Y-180833682D01*
X80647111Y-180781226D01*
X80695729Y-180666270D01*
X80714809Y-180541717D01*
X80715039Y-180526161D01*
X80711161Y-180456728D01*
X80699650Y-180390468D01*
X80681054Y-180328783D01*
X80655421Y-180270958D01*
X80623453Y-180218143D01*
X80584987Y-180169829D01*
X80540640Y-180126773D01*
X80490240Y-180088863D01*
X80434054Y-180056517D01*
X80372158Y-180030023D01*
X80304338Y-180009652D01*
X80231071Y-179995928D01*
X80118598Y-179988583D01*
X78690632Y-179988583D01*
X78690632Y-180489891D01*
G37*
G36*
X54827373Y-69631622D02*
G01*
X53836235Y-69631622D01*
X53758168Y-69627793D01*
X53687909Y-69616621D01*
X53626806Y-69599210D01*
X53572279Y-69575764D01*
X53481401Y-69512471D01*
X53455461Y-69486297D01*
X53418686Y-69441015D01*
X53388046Y-69390905D01*
X53364237Y-69336916D01*
X53347706Y-69279528D01*
X53337858Y-69187100D01*
X53352884Y-69072380D01*
X53397385Y-68964483D01*
X53430021Y-68915570D01*
X53468713Y-68871628D01*
X53477809Y-68862868D01*
X53526017Y-68823763D01*
X53580973Y-68791226D01*
X53635746Y-68768752D01*
X53697857Y-68752381D01*
X53836235Y-68739891D01*
X54827373Y-68739891D01*
X54827373Y-68238583D01*
X53836235Y-68238583D01*
X53732356Y-68242432D01*
X53634720Y-68253747D01*
X53544015Y-68271962D01*
X53459064Y-68296811D01*
X53379397Y-68328084D01*
X53305157Y-68365355D01*
X53169626Y-68458664D01*
X53136235Y-68487833D01*
X53020697Y-68616029D01*
X52971975Y-68687571D01*
X52929788Y-68763541D01*
X52894902Y-68842581D01*
X52867194Y-68925118D01*
X52847372Y-69009061D01*
X52835201Y-69095581D01*
X52831054Y-69184413D01*
X52846234Y-69356905D01*
X52891094Y-69521260D01*
X52964272Y-69673674D01*
X53063599Y-69809677D01*
X53074686Y-69822009D01*
X53135463Y-69882846D01*
X53201982Y-69937887D01*
X53271504Y-69985027D01*
X53346548Y-70026135D01*
X53425327Y-70060170D01*
X53509573Y-70087823D01*
X53598662Y-70108653D01*
X53693319Y-70122602D01*
X53836235Y-70130000D01*
X54827373Y-70130000D01*
X54827373Y-69631622D01*
G37*
G36*
X55692603Y-69822254D02*
G01*
X55729049Y-69893246D01*
X55770415Y-69955918D01*
X55813536Y-70006923D01*
X55861176Y-70050835D01*
X55911587Y-70086575D01*
X55966427Y-70115819D01*
X56090490Y-70155194D01*
X56241417Y-70169078D01*
X56325049Y-70165156D01*
X56402085Y-70153334D01*
X56467684Y-70135292D01*
X56528058Y-70110352D01*
X56581328Y-70079831D01*
X56630138Y-70042821D01*
X56715397Y-69948673D01*
X56787300Y-69822254D01*
X57464951Y-68322602D01*
X57495726Y-68238583D01*
X56904902Y-68238583D01*
X56882554Y-68305750D01*
X56322505Y-69612327D01*
X56305197Y-69642458D01*
X56285022Y-69660856D01*
X56244103Y-69671067D01*
X56216891Y-69666974D01*
X56192455Y-69653950D01*
X56163015Y-69612327D01*
X55597348Y-68305750D01*
X55577809Y-68238583D01*
X54978559Y-68238583D01*
X55009334Y-68322602D01*
X55692603Y-69822254D01*
G37*
G36*
X60139033Y-68205580D02*
G01*
X60262353Y-68245388D01*
X60317228Y-68275070D01*
X60367731Y-68311318D01*
X60415614Y-68355907D01*
X60458989Y-68407633D01*
X60500606Y-68471067D01*
X60537282Y-68542787D01*
X61220429Y-70046102D01*
X61251204Y-70130000D01*
X60680042Y-70130000D01*
X60657823Y-70066227D01*
X60657572Y-70065642D01*
X60556822Y-69836053D01*
X59436846Y-69836053D01*
X59338905Y-70062833D01*
X59338700Y-70063378D01*
X59319243Y-70130000D01*
X58734037Y-70130000D01*
X58764812Y-70046102D01*
X59047598Y-69418764D01*
X59621616Y-69418764D01*
X60372052Y-69418764D01*
X60080792Y-68739281D01*
X60049773Y-68697376D01*
X60023486Y-68684385D01*
X59994086Y-68680296D01*
X59989682Y-68680378D01*
X59945044Y-68694063D01*
X59925958Y-68712033D01*
X59910066Y-68739281D01*
X59621616Y-69418764D01*
X59047598Y-69418764D01*
X59442464Y-68542787D01*
X59517059Y-68411841D01*
X59602796Y-68317773D01*
X59651773Y-68280810D01*
X59705246Y-68250285D01*
X59765644Y-68225400D01*
X59831289Y-68207374D01*
X59907995Y-68195603D01*
X59991277Y-68191688D01*
X60139033Y-68205580D01*
G37*
G36*
X62514672Y-68238583D02*
G01*
X62514672Y-68739891D01*
X62825471Y-68739891D01*
X62855622Y-68743832D01*
X62877473Y-68755788D01*
X62896449Y-68793750D01*
X62898378Y-68818171D01*
X62898378Y-70130000D01*
X63402373Y-70130000D01*
X63402373Y-68742578D01*
X63398316Y-68636663D01*
X63385550Y-68544096D01*
X63368277Y-68478849D01*
X63344274Y-68421875D01*
X63317248Y-68378482D01*
X63284341Y-68341202D01*
X63204201Y-68286617D01*
X63095752Y-68252156D01*
X62934770Y-68238583D01*
X62514672Y-68238583D01*
G37*
G36*
X66149361Y-68205580D02*
G01*
X66272681Y-68245388D01*
X66327556Y-68275070D01*
X66378059Y-68311318D01*
X66425942Y-68355907D01*
X66469317Y-68407633D01*
X66510934Y-68471067D01*
X66547610Y-68542787D01*
X67230757Y-70046102D01*
X67261532Y-70130000D01*
X66690370Y-70130000D01*
X66668151Y-70066227D01*
X66667900Y-70065642D01*
X66567149Y-69836053D01*
X65447174Y-69836053D01*
X65349233Y-70062833D01*
X65349028Y-70063378D01*
X65329571Y-70130000D01*
X64744365Y-70130000D01*
X64775140Y-70046102D01*
X65057926Y-69418764D01*
X65631944Y-69418764D01*
X66382380Y-69418764D01*
X66091120Y-68739281D01*
X66060101Y-68697376D01*
X66033814Y-68684385D01*
X66004414Y-68680296D01*
X66000010Y-68680378D01*
X65955372Y-68694063D01*
X65936286Y-68712033D01*
X65920394Y-68739281D01*
X65631944Y-69418764D01*
X65057926Y-69418764D01*
X65452791Y-68542787D01*
X65527387Y-68411841D01*
X65613124Y-68317773D01*
X65662101Y-68280810D01*
X65715574Y-68250285D01*
X65775972Y-68225400D01*
X65841617Y-68207374D01*
X65918323Y-68195603D01*
X66001605Y-68191688D01*
X66149361Y-68205580D01*
G37*
G36*
X68909561Y-70169078D02*
G01*
X68971949Y-70165114D01*
X69031735Y-70152991D01*
X69083213Y-70134365D01*
X69130287Y-70108297D01*
X69168398Y-70077891D01*
X69201195Y-70040906D01*
X69228786Y-69995300D01*
X69802757Y-68802173D01*
X69823855Y-68782760D01*
X69839149Y-68779703D01*
X69857384Y-68783611D01*
X69872698Y-68795334D01*
X69883967Y-68830261D01*
X69883967Y-70130000D01*
X70371232Y-70130000D01*
X70371232Y-68740502D01*
X70367373Y-68654594D01*
X70355990Y-68577843D01*
X70338647Y-68513314D01*
X70315131Y-68455756D01*
X70286338Y-68405579D01*
X70252083Y-68361028D01*
X70194766Y-68306605D01*
X70141272Y-68268955D01*
X70081386Y-68237312D01*
X70020745Y-68214607D01*
X69955106Y-68199174D01*
X69864428Y-68191688D01*
X69798153Y-68195530D01*
X69737087Y-68206792D01*
X69681588Y-68224810D01*
X69630573Y-68249298D01*
X69538313Y-68318543D01*
X69455591Y-68418615D01*
X69385590Y-68544497D01*
X68957188Y-69475917D01*
X68943720Y-69499209D01*
X68926393Y-69510258D01*
X68909561Y-69512431D01*
X68886725Y-69507841D01*
X68869632Y-69491337D01*
X68862055Y-69475917D01*
X68433653Y-68544497D01*
X68389795Y-68460398D01*
X68340026Y-68385451D01*
X68294429Y-68332020D01*
X68243735Y-68286175D01*
X68194181Y-68252464D01*
X68139855Y-68225698D01*
X68083978Y-68207257D01*
X68023234Y-68195791D01*
X67954815Y-68191688D01*
X67829030Y-68206308D01*
X67713778Y-68248815D01*
X67624477Y-68306605D01*
X67579021Y-68348100D01*
X67539805Y-68395560D01*
X67509446Y-68445201D01*
X67484888Y-68501057D01*
X67454343Y-68631958D01*
X67448011Y-68740502D01*
X67448011Y-70130000D01*
X67935276Y-70130000D01*
X67935276Y-68830261D01*
X67938869Y-68808796D01*
X67948391Y-68793224D01*
X67979972Y-68779703D01*
X68011485Y-68793969D01*
X68016487Y-68802173D01*
X68590457Y-69995300D01*
X68643669Y-70070861D01*
X68718700Y-70125953D01*
X68815576Y-70159816D01*
X68909561Y-70169078D01*
G37*
G36*
X70538660Y-68238583D02*
G01*
X70538660Y-68739891D01*
X71370307Y-68739891D01*
X71370307Y-70130000D01*
X71879798Y-70130000D01*
X71879798Y-68739891D01*
X72708636Y-68739891D01*
X72708636Y-68238583D01*
X70538660Y-68238583D01*
G37*
G36*
X54302739Y-99631622D02*
G01*
X53311601Y-99631622D01*
X53233534Y-99627793D01*
X53163275Y-99616621D01*
X53102172Y-99599210D01*
X53047645Y-99575764D01*
X52956767Y-99512471D01*
X52930827Y-99486297D01*
X52894052Y-99441015D01*
X52863412Y-99390905D01*
X52839603Y-99336916D01*
X52823072Y-99279528D01*
X52813224Y-99187100D01*
X52828250Y-99072380D01*
X52872751Y-98964483D01*
X52905387Y-98915570D01*
X52944079Y-98871628D01*
X52953175Y-98862868D01*
X53001383Y-98823763D01*
X53056339Y-98791226D01*
X53111112Y-98768752D01*
X53173223Y-98752381D01*
X53311601Y-98739891D01*
X54302739Y-98739891D01*
X54302739Y-98238583D01*
X53311601Y-98238583D01*
X53207722Y-98242432D01*
X53110086Y-98253747D01*
X53019381Y-98271962D01*
X52934430Y-98296811D01*
X52854763Y-98328084D01*
X52780523Y-98365355D01*
X52644992Y-98458664D01*
X52611601Y-98487833D01*
X52496063Y-98616029D01*
X52447341Y-98687571D01*
X52405154Y-98763541D01*
X52370268Y-98842581D01*
X52342560Y-98925118D01*
X52322738Y-99009061D01*
X52310567Y-99095581D01*
X52306420Y-99184413D01*
X52321600Y-99356905D01*
X52366460Y-99521260D01*
X52439638Y-99673674D01*
X52538965Y-99809677D01*
X52550052Y-99822009D01*
X52610829Y-99882846D01*
X52677348Y-99937887D01*
X52746870Y-99985027D01*
X52821914Y-100026135D01*
X52900693Y-100060170D01*
X52984939Y-100087823D01*
X53074028Y-100108653D01*
X53168685Y-100122602D01*
X53311601Y-100130000D01*
X54302739Y-100130000D01*
X54302739Y-99631622D01*
G37*
G36*
X55167969Y-99822254D02*
G01*
X55204415Y-99893246D01*
X55245781Y-99955918D01*
X55288902Y-100006923D01*
X55336542Y-100050835D01*
X55386953Y-100086575D01*
X55441793Y-100115819D01*
X55565856Y-100155194D01*
X55716783Y-100169078D01*
X55800415Y-100165156D01*
X55877451Y-100153334D01*
X55943050Y-100135292D01*
X56003424Y-100110352D01*
X56056694Y-100079831D01*
X56105504Y-100042821D01*
X56190763Y-99948673D01*
X56262666Y-99822254D01*
X56940317Y-98322602D01*
X56971092Y-98238583D01*
X56380268Y-98238583D01*
X56357920Y-98305750D01*
X55797871Y-99612327D01*
X55780563Y-99642458D01*
X55760388Y-99660856D01*
X55719469Y-99671067D01*
X55692257Y-99666974D01*
X55667821Y-99653950D01*
X55638381Y-99612327D01*
X55072714Y-98305750D01*
X55053175Y-98238583D01*
X54453925Y-98238583D01*
X54484700Y-98322602D01*
X55167969Y-99822254D01*
G37*
G36*
X59614399Y-98205580D02*
G01*
X59737719Y-98245388D01*
X59792594Y-98275070D01*
X59843097Y-98311318D01*
X59890980Y-98355907D01*
X59934355Y-98407633D01*
X59975972Y-98471067D01*
X60012648Y-98542787D01*
X60695795Y-100046102D01*
X60726570Y-100130000D01*
X60155408Y-100130000D01*
X60133189Y-100066227D01*
X60132938Y-100065642D01*
X60032188Y-99836053D01*
X58912212Y-99836053D01*
X58814271Y-100062833D01*
X58814066Y-100063378D01*
X58794609Y-100130000D01*
X58209403Y-100130000D01*
X58240178Y-100046102D01*
X58522964Y-99418764D01*
X59096982Y-99418764D01*
X59847418Y-99418764D01*
X59556158Y-98739281D01*
X59525139Y-98697376D01*
X59498852Y-98684385D01*
X59469452Y-98680296D01*
X59465048Y-98680378D01*
X59420410Y-98694063D01*
X59401324Y-98712033D01*
X59385432Y-98739281D01*
X59096982Y-99418764D01*
X58522964Y-99418764D01*
X58917830Y-98542787D01*
X58992425Y-98411841D01*
X59078162Y-98317773D01*
X59127139Y-98280810D01*
X59180612Y-98250285D01*
X59241010Y-98225400D01*
X59306655Y-98207374D01*
X59383361Y-98195603D01*
X59466643Y-98191688D01*
X59614399Y-98205580D01*
G37*
G36*
X62001273Y-98739891D02*
G01*
X63311636Y-98739891D01*
X63358550Y-98743900D01*
X63395174Y-98756327D01*
X63416331Y-98772174D01*
X63430963Y-98793747D01*
X63440474Y-98843328D01*
X63436542Y-98873718D01*
X63424647Y-98899709D01*
X63380268Y-98938706D01*
X63345342Y-98955069D01*
X62239288Y-99396782D01*
X62173836Y-99427347D01*
X62118924Y-99461219D01*
X62073944Y-99497682D01*
X62037818Y-99536367D01*
X61987874Y-99620968D01*
X61964422Y-99715870D01*
X61962072Y-99760460D01*
X61966027Y-99815929D01*
X61978080Y-99870528D01*
X61997333Y-99920580D01*
X62024422Y-99967689D01*
X62057094Y-100008187D01*
X62097044Y-100044325D01*
X62141804Y-100073769D01*
X62193450Y-100097789D01*
X62250421Y-100115244D01*
X62314216Y-100126205D01*
X62384857Y-100130000D01*
X64003332Y-100130000D01*
X64003332Y-99645666D01*
X62804832Y-99645666D01*
X62789125Y-99641985D01*
X62777976Y-99631847D01*
X62774058Y-99617700D01*
X62788323Y-99594035D01*
X62796528Y-99589734D01*
X63650523Y-99279424D01*
X63717658Y-99250657D01*
X63778480Y-99216336D01*
X63833180Y-99176710D01*
X63881279Y-99132462D01*
X63922980Y-99083682D01*
X63957752Y-99031226D01*
X64006371Y-98916270D01*
X64025450Y-98791717D01*
X64025680Y-98776161D01*
X64021803Y-98706728D01*
X64010291Y-98640468D01*
X63991696Y-98578783D01*
X63966062Y-98520958D01*
X63934094Y-98468143D01*
X63895629Y-98419829D01*
X63851281Y-98376773D01*
X63800881Y-98338863D01*
X63744696Y-98306517D01*
X63682800Y-98280023D01*
X63614980Y-98259652D01*
X63541712Y-98245928D01*
X63429239Y-98238583D01*
X62001273Y-98238583D01*
X62001273Y-98739891D01*
G37*
G36*
X66673994Y-98205580D02*
G01*
X66797314Y-98245388D01*
X66852189Y-98275070D01*
X66902692Y-98311318D01*
X66950575Y-98355907D01*
X66993950Y-98407633D01*
X67035567Y-98471067D01*
X67072243Y-98542787D01*
X67755391Y-100046102D01*
X67786165Y-100130000D01*
X67215003Y-100130000D01*
X67192784Y-100066227D01*
X67192533Y-100065642D01*
X67091783Y-99836053D01*
X65971807Y-99836053D01*
X65873866Y-100062833D01*
X65873661Y-100063378D01*
X65854204Y-100130000D01*
X65268998Y-100130000D01*
X65299773Y-100046102D01*
X65582559Y-99418764D01*
X66156577Y-99418764D01*
X66907013Y-99418764D01*
X66615753Y-98739281D01*
X66584734Y-98697376D01*
X66558447Y-98684385D01*
X66529047Y-98680296D01*
X66524643Y-98680378D01*
X66480005Y-98694063D01*
X66460920Y-98712033D01*
X66445028Y-98739281D01*
X66156577Y-99418764D01*
X65582559Y-99418764D01*
X65977425Y-98542787D01*
X66052020Y-98411841D01*
X66137757Y-98317773D01*
X66186734Y-98280810D01*
X66240207Y-98250285D01*
X66300605Y-98225400D01*
X66366250Y-98207374D01*
X66442956Y-98195603D01*
X66526238Y-98191688D01*
X66673994Y-98205580D01*
G37*
G36*
X69434194Y-100169078D02*
G01*
X69496582Y-100165114D01*
X69556368Y-100152991D01*
X69607846Y-100134365D01*
X69654920Y-100108297D01*
X69693032Y-100077891D01*
X69725828Y-100040906D01*
X69753419Y-99995300D01*
X70327390Y-98802173D01*
X70348488Y-98782760D01*
X70363782Y-98779703D01*
X70382018Y-98783611D01*
X70397331Y-98795334D01*
X70408601Y-98830261D01*
X70408601Y-100130000D01*
X70895865Y-100130000D01*
X70895865Y-98740502D01*
X70892006Y-98654594D01*
X70880623Y-98577843D01*
X70863281Y-98513314D01*
X70839765Y-98455756D01*
X70810971Y-98405579D01*
X70776716Y-98361028D01*
X70719400Y-98306605D01*
X70665905Y-98268955D01*
X70606019Y-98237312D01*
X70545378Y-98214607D01*
X70479739Y-98199174D01*
X70389061Y-98191688D01*
X70322786Y-98195530D01*
X70261720Y-98206792D01*
X70206221Y-98224810D01*
X70155206Y-98249298D01*
X70062946Y-98318543D01*
X69980224Y-98418615D01*
X69910223Y-98544497D01*
X69481821Y-99475917D01*
X69468354Y-99499209D01*
X69451026Y-99510258D01*
X69434194Y-99512431D01*
X69411358Y-99507841D01*
X69394265Y-99491337D01*
X69386689Y-99475917D01*
X68958287Y-98544497D01*
X68914428Y-98460398D01*
X68864659Y-98385451D01*
X68819063Y-98332020D01*
X68768368Y-98286175D01*
X68718815Y-98252464D01*
X68664488Y-98225698D01*
X68608611Y-98207257D01*
X68547868Y-98195791D01*
X68479448Y-98191688D01*
X68353664Y-98206308D01*
X68238411Y-98248815D01*
X68149110Y-98306605D01*
X68103654Y-98348100D01*
X68064439Y-98395560D01*
X68034079Y-98445201D01*
X68009521Y-98501057D01*
X67978976Y-98631958D01*
X67972645Y-98740502D01*
X67972645Y-100130000D01*
X68459909Y-100130000D01*
X68459909Y-98830261D01*
X68463502Y-98808796D01*
X68473025Y-98793224D01*
X68504606Y-98779703D01*
X68536118Y-98793969D01*
X68541120Y-98802173D01*
X69115091Y-99995300D01*
X69168302Y-100070861D01*
X69243334Y-100125953D01*
X69340209Y-100159816D01*
X69434194Y-100169078D01*
G37*
G36*
X71063294Y-98238583D02*
G01*
X71063294Y-98739891D01*
X71894940Y-98739891D01*
X71894940Y-100130000D01*
X72404431Y-100130000D01*
X72404431Y-98739891D01*
X73233269Y-98739891D01*
X73233269Y-98238583D01*
X71063294Y-98238583D01*
G37*
G36*
X87664029Y-216989181D02*
G01*
X87764422Y-216995892D01*
X87858769Y-217009784D01*
X87947838Y-217030683D01*
X88031151Y-217058169D01*
X88110823Y-217092845D01*
X88184836Y-217133713D01*
X88256561Y-217182792D01*
X88322523Y-217237833D01*
X88392041Y-217309281D01*
X88493240Y-217448198D01*
X88567369Y-217601781D01*
X88612517Y-217765176D01*
X88627704Y-217934413D01*
X88627673Y-217942301D01*
X88622967Y-218031359D01*
X88610507Y-218117822D01*
X88590235Y-218202793D01*
X88562683Y-218284326D01*
X88527765Y-218362971D01*
X88486170Y-218437313D01*
X88438089Y-218507226D01*
X88384072Y-218572009D01*
X88293132Y-218659144D01*
X88157302Y-218752550D01*
X88082323Y-218790063D01*
X88002008Y-218821466D01*
X87916158Y-218846487D01*
X87824772Y-218864783D01*
X87726577Y-218876144D01*
X87622523Y-218880000D01*
X87224895Y-218880000D01*
X87081979Y-218872602D01*
X86987322Y-218858653D01*
X86898233Y-218837823D01*
X86813987Y-218810170D01*
X86735208Y-218776135D01*
X86660164Y-218735027D01*
X86590642Y-218687887D01*
X86524123Y-218632846D01*
X86463346Y-218572009D01*
X86452259Y-218559677D01*
X86352932Y-218423674D01*
X86279754Y-218271260D01*
X86234894Y-218106905D01*
X86219950Y-217937100D01*
X86726518Y-217937100D01*
X86736366Y-218029528D01*
X86752897Y-218086916D01*
X86776706Y-218140905D01*
X86807346Y-218191015D01*
X86844121Y-218236297D01*
X86870061Y-218262471D01*
X86960939Y-218325764D01*
X87015466Y-218349210D01*
X87076569Y-218366621D01*
X87146828Y-218377793D01*
X87224895Y-218381622D01*
X87622523Y-218381622D01*
X87668644Y-218380330D01*
X87739837Y-218372582D01*
X87803942Y-218358210D01*
X87861932Y-218337383D01*
X87913456Y-218310665D01*
X87961575Y-218276295D01*
X88003297Y-218236297D01*
X88061665Y-218157330D01*
X88105937Y-218050684D01*
X88120900Y-217937100D01*
X88120821Y-217928682D01*
X88115594Y-217868558D01*
X88102554Y-217810570D01*
X88081869Y-217754675D01*
X88054195Y-217702450D01*
X87980949Y-217612868D01*
X87975351Y-217607747D01*
X87884817Y-217544790D01*
X87832068Y-217521905D01*
X87772426Y-217504813D01*
X87702228Y-217493710D01*
X87622523Y-217489891D01*
X87224895Y-217489891D01*
X87086517Y-217502381D01*
X87024406Y-217518752D01*
X86969633Y-217541226D01*
X86914677Y-217573763D01*
X86866469Y-217612868D01*
X86857373Y-217621628D01*
X86818681Y-217665570D01*
X86786045Y-217714483D01*
X86741544Y-217822380D01*
X86726518Y-217937100D01*
X86219950Y-217937100D01*
X86219714Y-217934413D01*
X86223861Y-217845581D01*
X86236032Y-217759061D01*
X86255854Y-217675118D01*
X86283562Y-217592581D01*
X86318448Y-217513541D01*
X86360635Y-217437571D01*
X86409357Y-217366029D01*
X86524895Y-217237833D01*
X86558286Y-217208664D01*
X86693817Y-217115355D01*
X86768057Y-217078084D01*
X86847724Y-217046811D01*
X86932675Y-217021962D01*
X87023380Y-217003747D01*
X87121016Y-216992432D01*
X87224895Y-216988583D01*
X87622523Y-216988583D01*
X87664029Y-216989181D01*
G37*
G36*
X90370987Y-218880000D02*
G01*
X90485684Y-218876056D01*
X90588357Y-218864083D01*
X90669257Y-218846682D01*
X90741334Y-218822716D01*
X90799500Y-218795062D01*
X90850751Y-218761734D01*
X90893182Y-218724741D01*
X90929712Y-218682440D01*
X90985683Y-218581636D01*
X91021212Y-218451795D01*
X91034595Y-218275376D01*
X91034595Y-216988583D01*
X90524983Y-216988583D01*
X90524983Y-218219445D01*
X90521066Y-218267883D01*
X90509279Y-218308305D01*
X90492642Y-218336991D01*
X90470009Y-218359866D01*
X90408451Y-218388151D01*
X90337404Y-218395666D01*
X89550576Y-218395666D01*
X89498929Y-218391758D01*
X89456302Y-218380034D01*
X89426623Y-218363681D01*
X89403253Y-218341536D01*
X89375358Y-218282498D01*
X89368615Y-218219445D01*
X89368615Y-216988583D01*
X88859002Y-216988583D01*
X88859002Y-218275376D01*
X88862968Y-218376061D01*
X88875101Y-218466921D01*
X88892739Y-218538680D01*
X88917163Y-218603176D01*
X88945631Y-218655901D01*
X88980148Y-218702775D01*
X89019174Y-218742396D01*
X89064110Y-218776808D01*
X89173902Y-218830936D01*
X89318822Y-218866238D01*
X89522610Y-218880000D01*
X90370987Y-218880000D01*
G37*
G36*
X91218876Y-216988583D02*
G01*
X91218876Y-217489891D01*
X92050523Y-217489891D01*
X92050523Y-218880000D01*
X92560014Y-218880000D01*
X92560014Y-217489891D01*
X93388852Y-217489891D01*
X93388852Y-216988583D01*
X91218876Y-216988583D01*
G37*
G36*
X96306531Y-216995495D02*
G01*
X96445517Y-217028131D01*
X96562678Y-217085582D01*
X96614088Y-217123675D01*
X96660485Y-217167857D01*
X96677456Y-217186825D01*
X96745724Y-217289789D01*
X96788333Y-217409036D01*
X96799427Y-217474872D01*
X96803245Y-217545334D01*
X96793978Y-217646407D01*
X96757422Y-217759996D01*
X96696247Y-217854383D01*
X96612858Y-217927575D01*
X96656358Y-217954736D01*
X96694814Y-217987906D01*
X96731796Y-218031233D01*
X96762486Y-218080297D01*
X96788451Y-218138356D01*
X96807153Y-218200821D01*
X96818876Y-218269044D01*
X96822784Y-218339490D01*
X96809608Y-218457606D01*
X96790938Y-218521427D01*
X96764915Y-218581798D01*
X96731302Y-218639463D01*
X96691260Y-218692421D01*
X96621995Y-218759630D01*
X96517248Y-218823727D01*
X96455572Y-218847414D01*
X96387187Y-218864957D01*
X96309410Y-218876165D01*
X96223657Y-218880000D01*
X94843318Y-218880000D01*
X94834363Y-218879846D01*
X94771356Y-218865919D01*
X94749249Y-218850735D01*
X94732920Y-218829969D01*
X94721197Y-218798709D01*
X94717289Y-218759710D01*
X94717289Y-218378813D01*
X95224093Y-218378813D01*
X95229461Y-218405135D01*
X95242116Y-218416908D01*
X95263294Y-218420823D01*
X96103245Y-218420823D01*
X96110390Y-218420755D01*
X96156602Y-218416413D01*
X96194187Y-218405880D01*
X96226844Y-218388059D01*
X96251622Y-218364769D01*
X96275779Y-218326510D01*
X96290823Y-218258279D01*
X96285388Y-218219557D01*
X96270794Y-218184875D01*
X96248814Y-218154476D01*
X96247193Y-218152729D01*
X96194871Y-218116080D01*
X96154861Y-218105041D01*
X96103245Y-218101231D01*
X95224093Y-218101231D01*
X95224093Y-218378813D01*
X94717289Y-218378813D01*
X94717289Y-217506378D01*
X95224093Y-217506378D01*
X95224093Y-217762344D01*
X96106054Y-217762344D01*
X96112000Y-217762290D01*
X96154649Y-217758091D01*
X96189687Y-217747622D01*
X96221356Y-217728994D01*
X96246005Y-217703970D01*
X96265830Y-217671503D01*
X96279588Y-217612135D01*
X96276809Y-217585718D01*
X96264952Y-217550862D01*
X96246005Y-217520300D01*
X96241975Y-217515666D01*
X96189608Y-217478996D01*
X96152156Y-217468364D01*
X96106054Y-217464612D01*
X95263294Y-217464612D01*
X95241606Y-217468763D01*
X95228236Y-217482675D01*
X95224093Y-217506378D01*
X94717289Y-217506378D01*
X94717289Y-217106186D01*
X94717335Y-217101750D01*
X94730675Y-217042023D01*
X94746406Y-217020302D01*
X94768174Y-217004214D01*
X94801558Y-216992491D01*
X94843318Y-216988583D01*
X96195691Y-216988583D01*
X96306531Y-216995495D01*
G37*
G36*
X80169507Y-161239181D02*
G01*
X80269900Y-161245892D01*
X80364247Y-161259784D01*
X80453316Y-161280683D01*
X80536629Y-161308169D01*
X80616301Y-161342845D01*
X80690314Y-161383713D01*
X80762039Y-161432792D01*
X80828001Y-161487833D01*
X80897519Y-161559281D01*
X80998718Y-161698198D01*
X81072847Y-161851781D01*
X81117995Y-162015176D01*
X81133182Y-162184413D01*
X81133151Y-162192301D01*
X81128445Y-162281359D01*
X81115985Y-162367822D01*
X81095713Y-162452793D01*
X81068161Y-162534326D01*
X81033243Y-162612971D01*
X80991648Y-162687313D01*
X80943567Y-162757226D01*
X80889550Y-162822009D01*
X80798610Y-162909144D01*
X80662780Y-163002550D01*
X80587801Y-163040063D01*
X80507486Y-163071466D01*
X80421636Y-163096487D01*
X80330250Y-163114783D01*
X80232055Y-163126144D01*
X80128001Y-163130000D01*
X79730373Y-163130000D01*
X79587457Y-163122602D01*
X79492800Y-163108653D01*
X79403711Y-163087823D01*
X79319465Y-163060170D01*
X79240686Y-163026135D01*
X79165642Y-162985027D01*
X79096120Y-162937887D01*
X79029601Y-162882846D01*
X78968824Y-162822009D01*
X78957737Y-162809677D01*
X78858410Y-162673674D01*
X78785232Y-162521260D01*
X78740372Y-162356905D01*
X78725428Y-162187100D01*
X79231996Y-162187100D01*
X79241844Y-162279528D01*
X79258375Y-162336916D01*
X79282184Y-162390905D01*
X79312824Y-162441015D01*
X79349599Y-162486297D01*
X79375539Y-162512471D01*
X79466417Y-162575764D01*
X79520944Y-162599210D01*
X79582047Y-162616621D01*
X79652306Y-162627793D01*
X79730373Y-162631622D01*
X80128001Y-162631622D01*
X80174122Y-162630330D01*
X80245315Y-162622582D01*
X80309420Y-162608210D01*
X80367410Y-162587383D01*
X80418934Y-162560665D01*
X80467053Y-162526295D01*
X80508775Y-162486297D01*
X80567143Y-162407330D01*
X80611415Y-162300684D01*
X80626378Y-162187100D01*
X80626299Y-162178682D01*
X80621072Y-162118558D01*
X80608032Y-162060570D01*
X80587347Y-162004675D01*
X80559673Y-161952450D01*
X80486427Y-161862868D01*
X80480829Y-161857747D01*
X80390295Y-161794790D01*
X80337546Y-161771905D01*
X80277904Y-161754813D01*
X80207706Y-161743710D01*
X80128001Y-161739891D01*
X79730373Y-161739891D01*
X79591995Y-161752381D01*
X79529884Y-161768752D01*
X79475111Y-161791226D01*
X79420155Y-161823763D01*
X79371947Y-161862868D01*
X79362851Y-161871628D01*
X79324159Y-161915570D01*
X79291523Y-161964483D01*
X79247022Y-162072380D01*
X79231996Y-162187100D01*
X78725428Y-162187100D01*
X78725192Y-162184413D01*
X78729339Y-162095581D01*
X78741510Y-162009061D01*
X78761332Y-161925118D01*
X78789040Y-161842581D01*
X78823926Y-161763541D01*
X78866113Y-161687571D01*
X78914835Y-161616029D01*
X79030373Y-161487833D01*
X79063764Y-161458664D01*
X79199295Y-161365355D01*
X79273535Y-161328084D01*
X79353202Y-161296811D01*
X79438153Y-161271962D01*
X79528858Y-161253747D01*
X79626494Y-161242432D01*
X79730373Y-161238583D01*
X80128001Y-161238583D01*
X80169507Y-161239181D01*
G37*
G36*
X81714480Y-161238583D02*
G01*
X81645051Y-161242505D01*
X81583450Y-161254325D01*
X81535005Y-161271655D01*
X81492854Y-161295428D01*
X81459146Y-161323541D01*
X81430966Y-161357389D01*
X81391303Y-161442285D01*
X81373483Y-161557647D01*
X81372906Y-161585896D01*
X81372906Y-163130000D01*
X81879710Y-163130000D01*
X81879710Y-162498387D01*
X83355304Y-162498387D01*
X83355304Y-162027976D01*
X81879710Y-162027976D01*
X81879710Y-161823789D01*
X81883653Y-161789951D01*
X81895618Y-161764801D01*
X81932740Y-161742457D01*
X81958112Y-161739891D01*
X83363730Y-161739891D01*
X83363730Y-161238583D01*
X81714480Y-161238583D01*
G37*
G36*
X83926343Y-161238583D02*
G01*
X83856914Y-161242505D01*
X83795314Y-161254325D01*
X83746869Y-161271655D01*
X83704718Y-161295428D01*
X83671009Y-161323541D01*
X83642829Y-161357389D01*
X83603166Y-161442285D01*
X83585346Y-161557647D01*
X83584770Y-161585896D01*
X83584770Y-163130000D01*
X84091574Y-163130000D01*
X84091574Y-162498387D01*
X85567167Y-162498387D01*
X85567167Y-162027976D01*
X84091574Y-162027976D01*
X84091574Y-161823789D01*
X84095516Y-161789951D01*
X84107481Y-161764801D01*
X84144603Y-161742457D01*
X84169976Y-161739891D01*
X85575593Y-161739891D01*
X85575593Y-161238583D01*
X83926343Y-161238583D01*
G37*
G36*
X87779030Y-161238583D02*
G01*
X86390265Y-161238583D01*
X86291220Y-161242407D01*
X86203781Y-161253546D01*
X86130047Y-161270569D01*
X86064970Y-161293379D01*
X85957548Y-161354188D01*
X85894574Y-161409431D01*
X85850383Y-161460451D01*
X85812420Y-161516229D01*
X85781400Y-161575740D01*
X85757516Y-161638821D01*
X85741546Y-161703381D01*
X85733330Y-161770299D01*
X85732275Y-161804616D01*
X85736128Y-161872586D01*
X85747468Y-161937920D01*
X85791927Y-162060632D01*
X85864128Y-162169918D01*
X85891888Y-162200533D01*
X85940596Y-162244731D01*
X85996646Y-162283348D01*
X86054174Y-162312712D01*
X86119523Y-162336636D01*
X86191890Y-162354342D01*
X86273459Y-162365988D01*
X86390265Y-162371381D01*
X87160241Y-162371381D01*
X87217751Y-162375293D01*
X87259027Y-162387041D01*
X87294574Y-162412903D01*
X87326456Y-162465446D01*
X87333775Y-162512676D01*
X87329970Y-162545618D01*
X87318967Y-162575289D01*
X87303001Y-162598527D01*
X87280375Y-162619276D01*
X87249606Y-162634224D01*
X87160241Y-162645666D01*
X85782589Y-162645666D01*
X85782589Y-163130000D01*
X87249756Y-163130000D01*
X87334295Y-163126162D01*
X87411639Y-163114927D01*
X87480589Y-163097208D01*
X87543319Y-163073219D01*
X87651572Y-163007858D01*
X87728594Y-162934117D01*
X87804382Y-162822234D01*
X87832108Y-162760487D01*
X87852412Y-162695741D01*
X87864429Y-162631242D01*
X87868545Y-162565310D01*
X87853464Y-162439721D01*
X87808303Y-162317838D01*
X87734354Y-162206404D01*
X87706246Y-162175376D01*
X87656745Y-162130374D01*
X87600713Y-162091170D01*
X87542876Y-162060803D01*
X87478519Y-162036435D01*
X87409442Y-162019031D01*
X87333353Y-162008236D01*
X87249756Y-162004528D01*
X86418231Y-162004528D01*
X86361593Y-162000450D01*
X86324394Y-161987531D01*
X86309054Y-161976441D01*
X86287476Y-161954054D01*
X86271524Y-161926072D01*
X86261427Y-161875080D01*
X86265252Y-161840683D01*
X86276396Y-161809888D01*
X86300628Y-161776406D01*
X86324722Y-161758352D01*
X86357968Y-161745961D01*
X86418231Y-161739891D01*
X87779030Y-161739891D01*
X87779030Y-161238583D01*
G37*
G36*
X88337858Y-161238583D02*
G01*
X88275100Y-161242496D01*
X88220671Y-161254258D01*
X88179500Y-161271213D01*
X88144836Y-161294346D01*
X88118302Y-161321599D01*
X88097465Y-161354297D01*
X88072658Y-161437702D01*
X88069068Y-161493450D01*
X88069068Y-162866828D01*
X88072971Y-162926739D01*
X88084659Y-162978855D01*
X88101689Y-163018903D01*
X88124904Y-163052761D01*
X88185841Y-163100051D01*
X88271444Y-163125709D01*
X88335049Y-163130000D01*
X90059892Y-163130000D01*
X90059892Y-162645666D01*
X88620691Y-162645666D01*
X88598713Y-162641758D01*
X88584254Y-162630034D01*
X88575872Y-162595840D01*
X88575872Y-162368572D01*
X90051465Y-162368572D01*
X90051465Y-162004528D01*
X88575872Y-162004528D01*
X88575872Y-161787763D01*
X88579856Y-161763440D01*
X88592111Y-161747456D01*
X88620691Y-161739891D01*
X90059892Y-161739891D01*
X90059892Y-161238583D01*
X88337858Y-161238583D01*
G37*
G36*
X90213398Y-161238583D02*
G01*
X90213398Y-161739891D01*
X91045045Y-161739891D01*
X91045045Y-163130000D01*
X91554536Y-163130000D01*
X91554536Y-161739891D01*
X92383374Y-161739891D01*
X92383374Y-161238583D01*
X90213398Y-161238583D01*
G37*
G36*
X95301053Y-161245495D02*
G01*
X95440039Y-161278131D01*
X95557200Y-161335582D01*
X95608610Y-161373675D01*
X95655007Y-161417857D01*
X95671978Y-161436825D01*
X95740246Y-161539789D01*
X95782855Y-161659036D01*
X95793949Y-161724872D01*
X95797767Y-161795334D01*
X95788500Y-161896407D01*
X95751944Y-162009996D01*
X95690769Y-162104383D01*
X95607380Y-162177575D01*
X95650880Y-162204736D01*
X95689336Y-162237906D01*
X95726318Y-162281233D01*
X95757008Y-162330297D01*
X95782973Y-162388356D01*
X95801675Y-162450821D01*
X95813398Y-162519044D01*
X95817306Y-162589490D01*
X95804130Y-162707606D01*
X95785460Y-162771427D01*
X95759437Y-162831798D01*
X95725824Y-162889463D01*
X95685782Y-162942421D01*
X95616517Y-163009630D01*
X95511770Y-163073727D01*
X95450094Y-163097414D01*
X95381709Y-163114957D01*
X95303932Y-163126165D01*
X95218179Y-163130000D01*
X93837840Y-163130000D01*
X93828885Y-163129846D01*
X93765878Y-163115919D01*
X93743771Y-163100735D01*
X93727442Y-163079969D01*
X93715719Y-163048709D01*
X93711811Y-163009710D01*
X93711811Y-162628813D01*
X94218615Y-162628813D01*
X94223983Y-162655135D01*
X94236638Y-162666908D01*
X94257816Y-162670823D01*
X95097767Y-162670823D01*
X95104912Y-162670755D01*
X95151124Y-162666413D01*
X95188709Y-162655880D01*
X95221366Y-162638059D01*
X95246144Y-162614769D01*
X95270301Y-162576510D01*
X95285345Y-162508279D01*
X95279910Y-162469557D01*
X95265316Y-162434875D01*
X95243336Y-162404476D01*
X95241715Y-162402729D01*
X95189393Y-162366080D01*
X95149383Y-162355041D01*
X95097767Y-162351231D01*
X94218615Y-162351231D01*
X94218615Y-162628813D01*
X93711811Y-162628813D01*
X93711811Y-161756378D01*
X94218615Y-161756378D01*
X94218615Y-162012344D01*
X95100576Y-162012344D01*
X95106522Y-162012290D01*
X95149171Y-162008091D01*
X95184209Y-161997622D01*
X95215878Y-161978994D01*
X95240527Y-161953970D01*
X95260352Y-161921503D01*
X95274110Y-161862135D01*
X95271331Y-161835718D01*
X95259474Y-161800862D01*
X95240527Y-161770300D01*
X95236497Y-161765666D01*
X95184130Y-161728996D01*
X95146678Y-161718364D01*
X95100576Y-161714612D01*
X94257816Y-161714612D01*
X94236128Y-161718763D01*
X94222758Y-161732675D01*
X94218615Y-161756378D01*
X93711811Y-161756378D01*
X93711811Y-161356186D01*
X93711857Y-161351750D01*
X93725197Y-161292023D01*
X93740928Y-161270302D01*
X93762696Y-161254214D01*
X93796080Y-161242491D01*
X93837840Y-161238583D01*
X95190213Y-161238583D01*
X95301053Y-161245495D01*
G37*
%TO.C,H20*%
D16*
X76500000Y-113250000D02*
X78000000Y-113250000D01*
X79750002Y-103250000D02*
X75250000Y-103250000D01*
X80756990Y-99496229D02*
X76855715Y-97253433D01*
X80756990Y-107003772D02*
X76855773Y-109246669D01*
X83496228Y-96756990D02*
X81253331Y-92855773D01*
X83496229Y-109743010D02*
X81253433Y-113644285D01*
X87250000Y-95750000D02*
X87250000Y-91250000D01*
X91003771Y-96756990D02*
X93246567Y-92855715D01*
X91003772Y-109743010D02*
X93246669Y-113644227D01*
X93743010Y-99496228D02*
X97644227Y-97253331D01*
X93743010Y-107003771D02*
X97644285Y-109246567D01*
X94750000Y-103250000D02*
X99250000Y-103250000D01*
X96500000Y-113250000D02*
X98000000Y-113250000D01*
X97250000Y-114000000D02*
X97250000Y-112500000D01*
X81253433Y-113644285D02*
G75*
G02*
X87250000Y-91250001I5996567J10394285D01*
G01*
X87250000Y-91250004D02*
G75*
G02*
X93246668Y-113644226I-2J-11999998D01*
G01*
%TO.C,H13*%
X52000000Y-129000000D02*
X53500000Y-129000000D01*
X55250002Y-119000000D02*
X50750000Y-119000000D01*
X56256990Y-115246229D02*
X52355715Y-113003433D01*
X56256990Y-122753772D02*
X52355773Y-124996669D01*
X58996228Y-112506990D02*
X56753331Y-108605773D01*
X58996229Y-125493010D02*
X56753433Y-129394285D01*
X62750000Y-111500000D02*
X62750000Y-107000000D01*
X66503771Y-112506990D02*
X68746567Y-108605715D01*
X66503772Y-125493010D02*
X68746669Y-129394227D01*
X69243010Y-115246228D02*
X73144227Y-113003331D01*
X69243010Y-122753771D02*
X73144285Y-124996567D01*
X70250000Y-119000000D02*
X74750000Y-119000000D01*
X72000000Y-129000000D02*
X73500000Y-129000000D01*
X72750000Y-129750000D02*
X72750000Y-128250000D01*
X56753433Y-129394285D02*
G75*
G02*
X62750000Y-107000001I5996567J10394285D01*
G01*
X62750000Y-107000004D02*
G75*
G02*
X68746668Y-129394226I-2J-11999998D01*
G01*
%TO.C,H14*%
X52000000Y-159000000D02*
X53500000Y-159000000D01*
X55250002Y-149000000D02*
X50750000Y-149000000D01*
X56256990Y-145246229D02*
X52355715Y-143003433D01*
X56256990Y-152753772D02*
X52355773Y-154996669D01*
X58996228Y-142506990D02*
X56753331Y-138605773D01*
X58996229Y-155493010D02*
X56753433Y-159394285D01*
X62750000Y-141500000D02*
X62750000Y-137000000D01*
X66503771Y-142506990D02*
X68746567Y-138605715D01*
X66503772Y-155493010D02*
X68746669Y-159394227D01*
X69243010Y-145246228D02*
X73144227Y-143003331D01*
X69243010Y-152753771D02*
X73144285Y-154996567D01*
X70250000Y-149000000D02*
X74750000Y-149000000D01*
X72000000Y-159000000D02*
X73500000Y-159000000D01*
X72750000Y-159750000D02*
X72750000Y-158250000D01*
X56753433Y-159394285D02*
G75*
G02*
X62750000Y-137000001I5996567J10394285D01*
G01*
X62750000Y-137000004D02*
G75*
G02*
X68746668Y-159394226I-2J-11999998D01*
G01*
%TO.C,H5*%
X79750002Y-56000000D02*
X75250000Y-56000000D01*
X80756990Y-52246229D02*
X76855715Y-50003433D01*
X80756990Y-59753772D02*
X76855773Y-61996669D01*
X83496228Y-49506990D02*
X81253331Y-45605773D01*
X83496229Y-62493010D02*
X81253433Y-66394285D01*
X87250000Y-48500000D02*
X87250000Y-44000000D01*
X91003771Y-49506990D02*
X93246567Y-45605715D01*
X91003772Y-62493010D02*
X93246669Y-66394227D01*
X93743010Y-52246228D02*
X97644227Y-50003331D01*
X93743010Y-59753771D02*
X97644285Y-61996567D01*
X94750000Y-56000000D02*
X99250000Y-56000000D01*
D17*
%TO.C,H11*%
G36*
X85000000Y-190250000D02*
G01*
X85000000Y-190250000D01*
G75*
G03*
X91500000Y-196750000I6500000J0D01*
G01*
X86000000Y-196750000D01*
X85000000Y-195750000D01*
X85000000Y-190250000D01*
G37*
G36*
X91500000Y-183750000D02*
G01*
X91500000Y-183750000D01*
G75*
G03*
X85000000Y-190250000I0J-6500000D01*
G01*
X85000000Y-184750000D01*
X86000000Y-183750000D01*
X91500000Y-183750000D01*
G37*
G36*
X98000000Y-195750000D02*
G01*
X97000000Y-196750000D01*
X91500000Y-196750000D01*
G75*
G03*
X98000000Y-190250000I0J6500000D01*
G01*
X98000000Y-195750000D01*
G37*
G36*
X98000000Y-184750000D02*
G01*
X98000000Y-190250000D01*
G75*
G03*
X91500000Y-183750000I-6500000J0D01*
G01*
X97000000Y-183750000D01*
X98000000Y-184750000D01*
G37*
%TO.C,H6*%
D16*
X52000000Y-66000000D02*
X53500000Y-66000000D01*
X55250002Y-56000000D02*
X50750000Y-56000000D01*
X56256990Y-52246229D02*
X52355715Y-50003433D01*
X56256990Y-59753772D02*
X52355773Y-61996669D01*
X58996228Y-49506990D02*
X56753331Y-45605773D01*
X58996229Y-62493010D02*
X56753433Y-66394285D01*
X62750000Y-48500000D02*
X62750000Y-44000000D01*
X66503771Y-49506990D02*
X68746567Y-45605715D01*
X66503772Y-62493010D02*
X68746669Y-66394227D01*
X69243010Y-52246228D02*
X73144227Y-50003331D01*
X69243010Y-59753771D02*
X73144285Y-61996567D01*
X70250000Y-56000000D02*
X74750000Y-56000000D01*
X72000000Y-66000000D02*
X73500000Y-66000000D01*
X72750000Y-66750000D02*
X72750000Y-65250000D01*
X56753433Y-66394285D02*
G75*
G02*
X62750000Y-44000001I5996567J10394285D01*
G01*
X62750000Y-44000004D02*
G75*
G02*
X68746668Y-66394226I-2J-11999998D01*
G01*
%TO.C,H7*%
X52000000Y-96000000D02*
X53500000Y-96000000D01*
X55250002Y-86000000D02*
X50750000Y-86000000D01*
X56256990Y-82246229D02*
X52355715Y-80003433D01*
X56256990Y-89753772D02*
X52355773Y-91996669D01*
X58996228Y-79506990D02*
X56753331Y-75605773D01*
X58996229Y-92493010D02*
X56753433Y-96394285D01*
X62750000Y-78500000D02*
X62750000Y-74000000D01*
X66503771Y-79506990D02*
X68746567Y-75605715D01*
X66503772Y-92493010D02*
X68746669Y-96394227D01*
X69243010Y-82246228D02*
X73144227Y-80003331D01*
X69243010Y-89753771D02*
X73144285Y-91996567D01*
X70250000Y-86000000D02*
X74750000Y-86000000D01*
X72000000Y-96000000D02*
X73500000Y-96000000D01*
X72750000Y-96750000D02*
X72750000Y-95250000D01*
X56753433Y-96394285D02*
G75*
G02*
X62750000Y-74000001I5996567J10394285D01*
G01*
X62750000Y-74000004D02*
G75*
G02*
X68746668Y-96394226I-2J-11999998D01*
G01*
D17*
%TO.C,H16*%
G36*
X85000000Y-208750000D02*
G01*
X85000000Y-208750000D01*
G75*
G03*
X91500000Y-215250000I6500000J0D01*
G01*
X86000000Y-215250000D01*
X85000000Y-214250000D01*
X85000000Y-208750000D01*
G37*
G36*
X91500000Y-202250000D02*
G01*
X91500000Y-202250000D01*
G75*
G03*
X85000000Y-208750000I0J-6500000D01*
G01*
X85000000Y-203250000D01*
X86000000Y-202250000D01*
X91500000Y-202250000D01*
G37*
G36*
X98000000Y-214250000D02*
G01*
X97000000Y-215250000D01*
X91500000Y-215250000D01*
G75*
G03*
X98000000Y-208750000I0J6500000D01*
G01*
X98000000Y-214250000D01*
G37*
G36*
X98000000Y-203250000D02*
G01*
X98000000Y-208750000D01*
G75*
G03*
X91500000Y-202250000I-6500000J0D01*
G01*
X97000000Y-202250000D01*
X98000000Y-203250000D01*
G37*
%TO.C,H12*%
D16*
X79750002Y-149000000D02*
X75250000Y-149000000D01*
X80756990Y-145246229D02*
X76855715Y-143003433D01*
X80756990Y-152753772D02*
X76855773Y-154996669D01*
X83496228Y-142506990D02*
X81253331Y-138605773D01*
X83496229Y-155493010D02*
X81253433Y-159394285D01*
X87250000Y-141500000D02*
X87250000Y-137000000D01*
X91003771Y-142506990D02*
X93246567Y-138605715D01*
X91003772Y-155493010D02*
X93246669Y-159394227D01*
X93743010Y-145246228D02*
X97644227Y-143003331D01*
X93743010Y-152753771D02*
X97644285Y-154996567D01*
X94750000Y-149000000D02*
X99250000Y-149000000D01*
%TD*%
%LPC*%
D18*
%TO.C,H20*%
X87250000Y-103250000D03*
D19*
X87250000Y-109250000D03*
%TD*%
D20*
%TO.C,H24*%
X87250000Y-117500000D03*
%TD*%
%TO.C,H23*%
X87250000Y-89000000D03*
%TD*%
D21*
%TO.C,H21*%
X87250000Y-132850000D03*
D22*
X87250000Y-126750000D03*
%TD*%
D23*
%TO.C,H9*%
X69300000Y-190250000D03*
X70960000Y-186220000D03*
X70970000Y-194290000D03*
X75000000Y-184550000D03*
D24*
X75000000Y-190250000D03*
D23*
X75000000Y-195950000D03*
X79030000Y-194290000D03*
X79040000Y-186220000D03*
X80700000Y-190250000D03*
%TD*%
D25*
%TO.C,H3*%
X53500000Y-226500000D03*
%TD*%
D23*
%TO.C,H8*%
X52800000Y-190250000D03*
X54460000Y-186220000D03*
X54470000Y-194290000D03*
X58500000Y-184550000D03*
D24*
X58500000Y-190250000D03*
D23*
X58500000Y-195950000D03*
X62530000Y-194290000D03*
X62540000Y-186220000D03*
X64200000Y-190250000D03*
%TD*%
%TO.C,H15*%
X52800000Y-208750000D03*
X54460000Y-204720000D03*
X54470000Y-212790000D03*
X58500000Y-203050000D03*
D24*
X58500000Y-208750000D03*
D23*
X58500000Y-214450000D03*
X62530000Y-212790000D03*
X62540000Y-204720000D03*
X64200000Y-208750000D03*
%TD*%
D24*
%TO.C,H13*%
X62750000Y-119000000D03*
%TD*%
%TO.C,H14*%
X62750000Y-149000000D03*
%TD*%
D23*
%TO.C,H17*%
X69300000Y-208750000D03*
X70960000Y-204720000D03*
X70970000Y-212790000D03*
X75000000Y-203050000D03*
D24*
X75000000Y-208750000D03*
D23*
X75000000Y-214450000D03*
X79030000Y-212790000D03*
X79040000Y-204720000D03*
X80700000Y-208750000D03*
%TD*%
%TO.C,H10*%
X52800000Y-171750000D03*
X54460000Y-167720000D03*
X54470000Y-175790000D03*
X58500000Y-166050000D03*
D24*
X58500000Y-171750000D03*
D23*
X58500000Y-177450000D03*
X62530000Y-175790000D03*
X62540000Y-167720000D03*
X64200000Y-171750000D03*
%TD*%
D24*
%TO.C,H5*%
X87250000Y-56000000D03*
D19*
X87250000Y-62000000D03*
%TD*%
D23*
%TO.C,H11*%
X85800000Y-190250000D03*
X87460000Y-186220000D03*
X87470000Y-194290000D03*
X91500000Y-184550000D03*
D24*
X91500000Y-190250000D03*
D23*
X91500000Y-195950000D03*
X95530000Y-194290000D03*
X95540000Y-186220000D03*
X97200000Y-190250000D03*
%TD*%
%TO.C,H19*%
X85800000Y-171750000D03*
X87460000Y-167720000D03*
X87470000Y-175790000D03*
X91500000Y-166050000D03*
D24*
X91500000Y-171750000D03*
D23*
X91500000Y-177450000D03*
X95530000Y-175790000D03*
X95540000Y-167720000D03*
X97200000Y-171750000D03*
%TD*%
D25*
%TO.C,H2*%
X96500000Y-33500000D03*
%TD*%
%TO.C,H4*%
X96500000Y-226500000D03*
%TD*%
D23*
%TO.C,H18*%
X69300000Y-171750000D03*
X70960000Y-167720000D03*
X70970000Y-175790000D03*
X75000000Y-166050000D03*
D24*
X75000000Y-171750000D03*
D23*
X75000000Y-177450000D03*
X79030000Y-175790000D03*
X79040000Y-167720000D03*
X80700000Y-171750000D03*
%TD*%
D24*
%TO.C,H6*%
X62750000Y-56000000D03*
%TD*%
D25*
%TO.C,H1*%
X53500000Y-33500000D03*
%TD*%
D24*
%TO.C,H7*%
X62750000Y-86000000D03*
%TD*%
D21*
%TO.C,H22*%
X87250000Y-73650000D03*
D22*
X87250000Y-79750000D03*
%TD*%
D23*
%TO.C,H16*%
X85800000Y-208750000D03*
X87460000Y-204720000D03*
X87470000Y-212790000D03*
X91500000Y-203050000D03*
D24*
X91500000Y-208750000D03*
D23*
X91500000Y-214450000D03*
X95530000Y-212790000D03*
X95540000Y-204720000D03*
X97200000Y-208750000D03*
%TD*%
D24*
%TO.C,H12*%
X87250000Y-149000000D03*
D19*
X87250000Y-155000000D03*
%TD*%
%LPD*%
M02*
