%TF.GenerationSoftware,KiCad,Pcbnew,10.0.1*%
%TF.CreationDate,2026-07-12T11:55:44+02:00*%
%TF.ProjectId,DMH_Dual_VCA_Mk3_PANEL,444d485f-4475-4616-9c5f-5643415f4d6b,rev?*%
%TF.SameCoordinates,Original*%
%TF.FileFunction,Legend,Bot*%
%TF.FilePolarity,Positive*%
%FSLAX46Y46*%
G04 Gerber Fmt 4.6, Leading zero omitted, Abs format (unit mm)*
G04 Created by KiCad (PCBNEW 10.0.1) date 2026-07-12 11:55:44*
%MOMM*%
%LPD*%
G01*
G04 APERTURE LIST*
%ADD10C,0.100000*%
%ADD11C,0.300000*%
%ADD12C,0.200000*%
%ADD13C,14.000000*%
%ADD14O,2.500000X1.500000*%
%ADD15C,3.100000*%
%ADD16C,2.900000*%
%ADD17C,13.000000*%
%ADD18C,0.500000*%
%ADD19C,12.000000*%
%ADD20C,4.000000*%
%ADD21R,5.000000X10.000000*%
G04 APERTURE END LIST*
D10*
X70000000Y-225450000D02*
X80000000Y-225450000D01*
X80000000Y-227450000D01*
X70000000Y-227450000D01*
X70000000Y-225450000D01*
G36*
X70000000Y-225450000D02*
G01*
X80000000Y-225450000D01*
X80000000Y-227450000D01*
X70000000Y-227450000D01*
X70000000Y-225450000D01*
G37*
D11*
X85964284Y-223628328D02*
X85964284Y-222128328D01*
X85964284Y-222128328D02*
X85464284Y-223199757D01*
X85464284Y-223199757D02*
X84964284Y-222128328D01*
X84964284Y-222128328D02*
X84964284Y-223628328D01*
X84249998Y-223628328D02*
X84249998Y-222128328D01*
X84107141Y-223056900D02*
X83678569Y-223628328D01*
X83678569Y-222628328D02*
X84249998Y-223199757D01*
X83178569Y-222128328D02*
X82249997Y-222128328D01*
X82249997Y-222128328D02*
X82749997Y-222699757D01*
X82749997Y-222699757D02*
X82535712Y-222699757D01*
X82535712Y-222699757D02*
X82392855Y-222771185D01*
X82392855Y-222771185D02*
X82321426Y-222842614D01*
X82321426Y-222842614D02*
X82249997Y-222985471D01*
X82249997Y-222985471D02*
X82249997Y-223342614D01*
X82249997Y-223342614D02*
X82321426Y-223485471D01*
X82321426Y-223485471D02*
X82392855Y-223556900D01*
X82392855Y-223556900D02*
X82535712Y-223628328D01*
X82535712Y-223628328D02*
X82964283Y-223628328D01*
X82964283Y-223628328D02*
X83107140Y-223556900D01*
X83107140Y-223556900D02*
X83178569Y-223485471D01*
X81607141Y-223485471D02*
X81535712Y-223556900D01*
X81535712Y-223556900D02*
X81607141Y-223628328D01*
X81607141Y-223628328D02*
X81678569Y-223556900D01*
X81678569Y-223556900D02*
X81607141Y-223485471D01*
X81607141Y-223485471D02*
X81607141Y-223628328D01*
X80107140Y-223628328D02*
X80964283Y-223628328D01*
X80535712Y-223628328D02*
X80535712Y-222128328D01*
X80535712Y-222128328D02*
X80678569Y-222342614D01*
X80678569Y-222342614D02*
X80821426Y-222485471D01*
X80821426Y-222485471D02*
X80964283Y-222556900D01*
X78321427Y-223056900D02*
X77178570Y-223056900D01*
X74892855Y-222128328D02*
X74892855Y-223199757D01*
X74892855Y-223199757D02*
X74964284Y-223414042D01*
X74964284Y-223414042D02*
X75107141Y-223556900D01*
X75107141Y-223556900D02*
X75321427Y-223628328D01*
X75321427Y-223628328D02*
X75464284Y-223628328D01*
X73535713Y-222628328D02*
X73535713Y-223628328D01*
X74178570Y-222628328D02*
X74178570Y-223414042D01*
X74178570Y-223414042D02*
X74107141Y-223556900D01*
X74107141Y-223556900D02*
X73964284Y-223628328D01*
X73964284Y-223628328D02*
X73749998Y-223628328D01*
X73749998Y-223628328D02*
X73607141Y-223556900D01*
X73607141Y-223556900D02*
X73535713Y-223485471D01*
X72821427Y-222628328D02*
X72821427Y-223628328D01*
X72821427Y-222771185D02*
X72749998Y-222699757D01*
X72749998Y-222699757D02*
X72607141Y-222628328D01*
X72607141Y-222628328D02*
X72392855Y-222628328D01*
X72392855Y-222628328D02*
X72249998Y-222699757D01*
X72249998Y-222699757D02*
X72178570Y-222842614D01*
X72178570Y-222842614D02*
X72178570Y-223628328D01*
X70892855Y-223556900D02*
X71035712Y-223628328D01*
X71035712Y-223628328D02*
X71321427Y-223628328D01*
X71321427Y-223628328D02*
X71464284Y-223556900D01*
X71464284Y-223556900D02*
X71535712Y-223414042D01*
X71535712Y-223414042D02*
X71535712Y-222842614D01*
X71535712Y-222842614D02*
X71464284Y-222699757D01*
X71464284Y-222699757D02*
X71321427Y-222628328D01*
X71321427Y-222628328D02*
X71035712Y-222628328D01*
X71035712Y-222628328D02*
X70892855Y-222699757D01*
X70892855Y-222699757D02*
X70821427Y-222842614D01*
X70821427Y-222842614D02*
X70821427Y-222985471D01*
X70821427Y-222985471D02*
X71535712Y-223128328D01*
X69107141Y-222271185D02*
X69035713Y-222199757D01*
X69035713Y-222199757D02*
X68892856Y-222128328D01*
X68892856Y-222128328D02*
X68535713Y-222128328D01*
X68535713Y-222128328D02*
X68392856Y-222199757D01*
X68392856Y-222199757D02*
X68321427Y-222271185D01*
X68321427Y-222271185D02*
X68249998Y-222414042D01*
X68249998Y-222414042D02*
X68249998Y-222556900D01*
X68249998Y-222556900D02*
X68321427Y-222771185D01*
X68321427Y-222771185D02*
X69178570Y-223628328D01*
X69178570Y-223628328D02*
X68249998Y-223628328D01*
X67321427Y-222128328D02*
X67178570Y-222128328D01*
X67178570Y-222128328D02*
X67035713Y-222199757D01*
X67035713Y-222199757D02*
X66964285Y-222271185D01*
X66964285Y-222271185D02*
X66892856Y-222414042D01*
X66892856Y-222414042D02*
X66821427Y-222699757D01*
X66821427Y-222699757D02*
X66821427Y-223056900D01*
X66821427Y-223056900D02*
X66892856Y-223342614D01*
X66892856Y-223342614D02*
X66964285Y-223485471D01*
X66964285Y-223485471D02*
X67035713Y-223556900D01*
X67035713Y-223556900D02*
X67178570Y-223628328D01*
X67178570Y-223628328D02*
X67321427Y-223628328D01*
X67321427Y-223628328D02*
X67464285Y-223556900D01*
X67464285Y-223556900D02*
X67535713Y-223485471D01*
X67535713Y-223485471D02*
X67607142Y-223342614D01*
X67607142Y-223342614D02*
X67678570Y-223056900D01*
X67678570Y-223056900D02*
X67678570Y-222699757D01*
X67678570Y-222699757D02*
X67607142Y-222414042D01*
X67607142Y-222414042D02*
X67535713Y-222271185D01*
X67535713Y-222271185D02*
X67464285Y-222199757D01*
X67464285Y-222199757D02*
X67321427Y-222128328D01*
X66249999Y-222271185D02*
X66178571Y-222199757D01*
X66178571Y-222199757D02*
X66035714Y-222128328D01*
X66035714Y-222128328D02*
X65678571Y-222128328D01*
X65678571Y-222128328D02*
X65535714Y-222199757D01*
X65535714Y-222199757D02*
X65464285Y-222271185D01*
X65464285Y-222271185D02*
X65392856Y-222414042D01*
X65392856Y-222414042D02*
X65392856Y-222556900D01*
X65392856Y-222556900D02*
X65464285Y-222771185D01*
X65464285Y-222771185D02*
X66321428Y-223628328D01*
X66321428Y-223628328D02*
X65392856Y-223628328D01*
X64107143Y-222128328D02*
X64392857Y-222128328D01*
X64392857Y-222128328D02*
X64535714Y-222199757D01*
X64535714Y-222199757D02*
X64607143Y-222271185D01*
X64607143Y-222271185D02*
X64750000Y-222485471D01*
X64750000Y-222485471D02*
X64821428Y-222771185D01*
X64821428Y-222771185D02*
X64821428Y-223342614D01*
X64821428Y-223342614D02*
X64750000Y-223485471D01*
X64750000Y-223485471D02*
X64678571Y-223556900D01*
X64678571Y-223556900D02*
X64535714Y-223628328D01*
X64535714Y-223628328D02*
X64250000Y-223628328D01*
X64250000Y-223628328D02*
X64107143Y-223556900D01*
X64107143Y-223556900D02*
X64035714Y-223485471D01*
X64035714Y-223485471D02*
X63964285Y-223342614D01*
X63964285Y-223342614D02*
X63964285Y-222985471D01*
X63964285Y-222985471D02*
X64035714Y-222842614D01*
X64035714Y-222842614D02*
X64107143Y-222771185D01*
X64107143Y-222771185D02*
X64250000Y-222699757D01*
X64250000Y-222699757D02*
X64535714Y-222699757D01*
X64535714Y-222699757D02*
X64678571Y-222771185D01*
X64678571Y-222771185D02*
X64750000Y-222842614D01*
X64750000Y-222842614D02*
X64821428Y-222985471D01*
D12*
X55761904Y-109899838D02*
X55857142Y-109852219D01*
X55857142Y-109852219D02*
X55999999Y-109852219D01*
X55999999Y-109852219D02*
X56142856Y-109899838D01*
X56142856Y-109899838D02*
X56238094Y-109995076D01*
X56238094Y-109995076D02*
X56285713Y-110090314D01*
X56285713Y-110090314D02*
X56333332Y-110280790D01*
X56333332Y-110280790D02*
X56333332Y-110423647D01*
X56333332Y-110423647D02*
X56285713Y-110614123D01*
X56285713Y-110614123D02*
X56238094Y-110709361D01*
X56238094Y-110709361D02*
X56142856Y-110804600D01*
X56142856Y-110804600D02*
X55999999Y-110852219D01*
X55999999Y-110852219D02*
X55904761Y-110852219D01*
X55904761Y-110852219D02*
X55761904Y-110804600D01*
X55761904Y-110804600D02*
X55714285Y-110756980D01*
X55714285Y-110756980D02*
X55714285Y-110423647D01*
X55714285Y-110423647D02*
X55904761Y-110423647D01*
X55285713Y-110852219D02*
X55285713Y-109852219D01*
X55285713Y-109852219D02*
X54714285Y-110852219D01*
X54714285Y-110852219D02*
X54714285Y-109852219D01*
X54238094Y-110852219D02*
X54238094Y-109852219D01*
X54238094Y-109852219D02*
X53999999Y-109852219D01*
X53999999Y-109852219D02*
X53857142Y-109899838D01*
X53857142Y-109899838D02*
X53761904Y-109995076D01*
X53761904Y-109995076D02*
X53714285Y-110090314D01*
X53714285Y-110090314D02*
X53666666Y-110280790D01*
X53666666Y-110280790D02*
X53666666Y-110423647D01*
X53666666Y-110423647D02*
X53714285Y-110614123D01*
X53714285Y-110614123D02*
X53761904Y-110709361D01*
X53761904Y-110709361D02*
X53857142Y-110804600D01*
X53857142Y-110804600D02*
X53999999Y-110852219D01*
X53999999Y-110852219D02*
X54238094Y-110852219D01*
%LPC*%
D13*
%TO.C,H20*%
X87250000Y-103250000D03*
D14*
X87250000Y-109250000D03*
%TD*%
D15*
%TO.C,H24*%
X87250000Y-117500000D03*
%TD*%
%TO.C,H23*%
X87250000Y-89000000D03*
%TD*%
D16*
%TO.C,H21*%
X87250000Y-132850000D03*
D17*
X87250000Y-126750000D03*
%TD*%
D18*
%TO.C,H9*%
X69300000Y-190250000D03*
X70960000Y-186220000D03*
X70970000Y-194290000D03*
X75000000Y-184550000D03*
D19*
X75000000Y-190250000D03*
D18*
X75000000Y-195950000D03*
X79030000Y-194290000D03*
X79040000Y-186220000D03*
X80700000Y-190250000D03*
%TD*%
D20*
%TO.C,H3*%
X53500000Y-226500000D03*
%TD*%
D18*
%TO.C,H8*%
X52800000Y-190250000D03*
X54460000Y-186220000D03*
X54470000Y-194290000D03*
X58500000Y-184550000D03*
D19*
X58500000Y-190250000D03*
D18*
X58500000Y-195950000D03*
X62530000Y-194290000D03*
X62540000Y-186220000D03*
X64200000Y-190250000D03*
%TD*%
%TO.C,H15*%
X52800000Y-208750000D03*
X54460000Y-204720000D03*
X54470000Y-212790000D03*
X58500000Y-203050000D03*
D19*
X58500000Y-208750000D03*
D18*
X58500000Y-214450000D03*
X62530000Y-212790000D03*
X62540000Y-204720000D03*
X64200000Y-208750000D03*
%TD*%
D19*
%TO.C,H13*%
X62750000Y-119000000D03*
%TD*%
%TO.C,H14*%
X62750000Y-149000000D03*
%TD*%
D18*
%TO.C,H17*%
X69300000Y-208750000D03*
X70960000Y-204720000D03*
X70970000Y-212790000D03*
X75000000Y-203050000D03*
D19*
X75000000Y-208750000D03*
D18*
X75000000Y-214450000D03*
X79030000Y-212790000D03*
X79040000Y-204720000D03*
X80700000Y-208750000D03*
%TD*%
%TO.C,H10*%
X52800000Y-171750000D03*
X54460000Y-167720000D03*
X54470000Y-175790000D03*
X58500000Y-166050000D03*
D19*
X58500000Y-171750000D03*
D18*
X58500000Y-177450000D03*
X62530000Y-175790000D03*
X62540000Y-167720000D03*
X64200000Y-171750000D03*
%TD*%
D19*
%TO.C,H5*%
X87250000Y-56000000D03*
D14*
X87250000Y-62000000D03*
%TD*%
D18*
%TO.C,H11*%
X85800000Y-190250000D03*
X87460000Y-186220000D03*
X87470000Y-194290000D03*
X91500000Y-184550000D03*
D19*
X91500000Y-190250000D03*
D18*
X91500000Y-195950000D03*
X95530000Y-194290000D03*
X95540000Y-186220000D03*
X97200000Y-190250000D03*
%TD*%
%TO.C,H19*%
X85800000Y-171750000D03*
X87460000Y-167720000D03*
X87470000Y-175790000D03*
X91500000Y-166050000D03*
D19*
X91500000Y-171750000D03*
D18*
X91500000Y-177450000D03*
X95530000Y-175790000D03*
X95540000Y-167720000D03*
X97200000Y-171750000D03*
%TD*%
D20*
%TO.C,H2*%
X96500000Y-33500000D03*
%TD*%
%TO.C,H4*%
X96500000Y-226500000D03*
%TD*%
D18*
%TO.C,H18*%
X69300000Y-171750000D03*
X70960000Y-167720000D03*
X70970000Y-175790000D03*
X75000000Y-166050000D03*
D19*
X75000000Y-171750000D03*
D18*
X75000000Y-177450000D03*
X79030000Y-175790000D03*
X79040000Y-167720000D03*
X80700000Y-171750000D03*
%TD*%
D19*
%TO.C,H6*%
X62750000Y-56000000D03*
%TD*%
D20*
%TO.C,H1*%
X53500000Y-33500000D03*
%TD*%
D19*
%TO.C,H7*%
X62750000Y-86000000D03*
%TD*%
D16*
%TO.C,H22*%
X87250000Y-73650000D03*
D17*
X87250000Y-79750000D03*
%TD*%
D18*
%TO.C,H16*%
X85800000Y-208750000D03*
X87460000Y-204720000D03*
X87470000Y-212790000D03*
X91500000Y-203050000D03*
D19*
X91500000Y-208750000D03*
D18*
X91500000Y-214450000D03*
X95530000Y-212790000D03*
X95540000Y-204720000D03*
X97200000Y-208750000D03*
%TD*%
D19*
%TO.C,H12*%
X87250000Y-149000000D03*
D14*
X87250000Y-155000000D03*
%TD*%
D21*
%TO.C,J0*%
X55000000Y-104000000D03*
%TD*%
%LPD*%
M02*
