%TF.GenerationSoftware,KiCad,Pcbnew,10.0.1*%
%TF.CreationDate,2026-07-12T11:55:44+02:00*%
%TF.ProjectId,DMH_Dual_VCA_Mk3_PANEL,444d485f-4475-4616-9c5f-5643415f4d6b,rev?*%
%TF.SameCoordinates,Original*%
%TF.FileFunction,Copper,L1,Top*%
%TF.FilePolarity,Positive*%
%FSLAX46Y46*%
G04 Gerber Fmt 4.6, Leading zero omitted, Abs format (unit mm)*
G04 Created by KiCad (PCBNEW 10.0.1) date 2026-07-12 11:55:44*
%MOMM*%
%LPD*%
G01*
G04 APERTURE LIST*
%TA.AperFunction,ConnectorPad*%
%ADD10C,14.000000*%
%TD*%
%TA.AperFunction,ComponentPad*%
%ADD11O,2.500000X1.500000*%
%TD*%
%TA.AperFunction,ComponentPad*%
%ADD12C,2.900000*%
%TD*%
%TA.AperFunction,ComponentPad*%
%ADD13C,13.000000*%
%TD*%
%TA.AperFunction,ComponentPad*%
%ADD14C,0.500000*%
%TD*%
%TA.AperFunction,ConnectorPad*%
%ADD15C,12.000000*%
%TD*%
%TA.AperFunction,ComponentPad*%
%ADD16C,4.000000*%
%TD*%
G04 APERTURE END LIST*
D10*
%TO.P,H20,1,1_1*%
%TO.N,GND*%
X87250000Y-103250000D03*
D11*
X87250000Y-109250000D03*
%TD*%
D12*
%TO.P,H21,1,1_1*%
%TO.N,GND*%
X87250000Y-132850000D03*
D13*
X87250000Y-126750000D03*
%TD*%
D14*
%TO.P,H9,1,1_1*%
%TO.N,GND*%
X69300000Y-190250000D03*
X70960000Y-186220000D03*
X70970000Y-194290000D03*
X75000000Y-184550000D03*
D15*
X75000000Y-190250000D03*
D14*
X75000000Y-195950000D03*
X79030000Y-194290000D03*
X79040000Y-186220000D03*
X80700000Y-190250000D03*
%TD*%
D16*
%TO.P,H3,1,1_1*%
%TO.N,GND*%
X53500000Y-226500000D03*
%TD*%
D14*
%TO.P,H8,1,1_1*%
%TO.N,GND*%
X52800000Y-190250000D03*
X54460000Y-186220000D03*
X54470000Y-194290000D03*
X58500000Y-184550000D03*
D15*
X58500000Y-190250000D03*
D14*
X58500000Y-195950000D03*
X62530000Y-194290000D03*
X62540000Y-186220000D03*
X64200000Y-190250000D03*
%TD*%
%TO.P,H15,1,1_1*%
%TO.N,GND*%
X52800000Y-208750000D03*
X54460000Y-204720000D03*
X54470000Y-212790000D03*
X58500000Y-203050000D03*
D15*
X58500000Y-208750000D03*
D14*
X58500000Y-214450000D03*
X62530000Y-212790000D03*
X62540000Y-204720000D03*
X64200000Y-208750000D03*
%TD*%
D15*
%TO.P,H13,1,1_1*%
%TO.N,GND*%
X62750000Y-119000000D03*
%TD*%
%TO.P,H14,1,1_1*%
%TO.N,GND*%
X62750000Y-149000000D03*
%TD*%
D14*
%TO.P,H17,1,1_1*%
%TO.N,GND*%
X69300000Y-208750000D03*
X70960000Y-204720000D03*
X70970000Y-212790000D03*
X75000000Y-203050000D03*
D15*
X75000000Y-208750000D03*
D14*
X75000000Y-214450000D03*
X79030000Y-212790000D03*
X79040000Y-204720000D03*
X80700000Y-208750000D03*
%TD*%
%TO.P,H10,1,1_1*%
%TO.N,GND*%
X52800000Y-171750000D03*
X54460000Y-167720000D03*
X54470000Y-175790000D03*
X58500000Y-166050000D03*
D15*
X58500000Y-171750000D03*
D14*
X58500000Y-177450000D03*
X62530000Y-175790000D03*
X62540000Y-167720000D03*
X64200000Y-171750000D03*
%TD*%
D15*
%TO.P,H5,1,1_1*%
%TO.N,GND*%
X87250000Y-56000000D03*
D11*
X87250000Y-62000000D03*
%TD*%
D14*
%TO.P,H11,1,1_1*%
%TO.N,GND*%
X85800000Y-190250000D03*
X87460000Y-186220000D03*
X87470000Y-194290000D03*
X91500000Y-184550000D03*
D15*
X91500000Y-190250000D03*
D14*
X91500000Y-195950000D03*
X95530000Y-194290000D03*
X95540000Y-186220000D03*
X97200000Y-190250000D03*
%TD*%
%TO.P,H19,1,1_1*%
%TO.N,GND*%
X85800000Y-171750000D03*
X87460000Y-167720000D03*
X87470000Y-175790000D03*
X91500000Y-166050000D03*
D15*
X91500000Y-171750000D03*
D14*
X91500000Y-177450000D03*
X95530000Y-175790000D03*
X95540000Y-167720000D03*
X97200000Y-171750000D03*
%TD*%
D16*
%TO.P,H2,1,1_1*%
%TO.N,GND*%
X96500000Y-33500000D03*
%TD*%
%TO.P,H4,1,1_1*%
%TO.N,GND*%
X96500000Y-226500000D03*
%TD*%
D14*
%TO.P,H18,1,1_1*%
%TO.N,GND*%
X69300000Y-171750000D03*
X70960000Y-167720000D03*
X70970000Y-175790000D03*
X75000000Y-166050000D03*
D15*
X75000000Y-171750000D03*
D14*
X75000000Y-177450000D03*
X79030000Y-175790000D03*
X79040000Y-167720000D03*
X80700000Y-171750000D03*
%TD*%
D15*
%TO.P,H6,1,1_1*%
%TO.N,GND*%
X62750000Y-56000000D03*
%TD*%
D16*
%TO.P,H1,1,1_1*%
%TO.N,GND*%
X53500000Y-33500000D03*
%TD*%
D15*
%TO.P,H7,1,1_1*%
%TO.N,GND*%
X62750000Y-86000000D03*
%TD*%
D12*
%TO.P,H22,1,1_1*%
%TO.N,GND*%
X87250000Y-73650000D03*
D13*
X87250000Y-79750000D03*
%TD*%
D14*
%TO.P,H16,1,1_1*%
%TO.N,GND*%
X85800000Y-208750000D03*
X87460000Y-204720000D03*
X87470000Y-212790000D03*
X91500000Y-203050000D03*
D15*
X91500000Y-208750000D03*
D14*
X91500000Y-214450000D03*
X95530000Y-212790000D03*
X95540000Y-204720000D03*
X97200000Y-208750000D03*
%TD*%
D15*
%TO.P,H12,1,1_1*%
%TO.N,GND*%
X87250000Y-149000000D03*
D11*
X87250000Y-155000000D03*
%TD*%
%TA.AperFunction,Conductor*%
%TO.N,GND*%
G36*
X99442539Y-30520185D02*
G01*
X99488294Y-30572989D01*
X99499500Y-30624500D01*
X99499500Y-229375500D01*
X99479815Y-229442539D01*
X99427011Y-229488294D01*
X99375500Y-229499500D01*
X50624500Y-229499500D01*
X50557461Y-229479815D01*
X50511706Y-229427011D01*
X50500500Y-229375500D01*
X50500500Y-208537814D01*
X53099500Y-208537814D01*
X53099500Y-208558097D01*
X53099500Y-208962186D01*
X53132796Y-209385250D01*
X53199182Y-209804398D01*
X53298250Y-210217045D01*
X53298254Y-210217056D01*
X53429385Y-210620641D01*
X53496000Y-210781463D01*
X53591789Y-211012716D01*
X53784450Y-211390835D01*
X53784457Y-211390848D01*
X53784460Y-211390853D01*
X53807375Y-211428246D01*
X54006184Y-211752672D01*
X54006192Y-211752683D01*
X54006198Y-211752692D01*
X54255617Y-212095989D01*
X54255627Y-212096003D01*
X54378919Y-212240358D01*
X54531231Y-212418692D01*
X54831308Y-212718769D01*
X54831314Y-212718774D01*
X55153996Y-212994372D01*
X55154010Y-212994382D01*
X55361749Y-213145313D01*
X55497328Y-213243816D01*
X55625685Y-213322473D01*
X55859146Y-213465539D01*
X55859151Y-213465542D01*
X55859156Y-213465544D01*
X55859165Y-213465550D01*
X56237284Y-213658211D01*
X56629353Y-213820612D01*
X56629358Y-213820614D01*
X56731979Y-213853957D01*
X57032955Y-213951750D01*
X57445602Y-214050818D01*
X57864750Y-214117204D01*
X58287814Y-214150500D01*
X58287822Y-214150500D01*
X58712178Y-214150500D01*
X58712186Y-214150500D01*
X59135250Y-214117204D01*
X59554398Y-214050818D01*
X59967045Y-213951750D01*
X60370647Y-213820612D01*
X60762716Y-213658211D01*
X61140835Y-213465550D01*
X61502672Y-213243816D01*
X61845997Y-212994377D01*
X62168692Y-212718769D01*
X62468769Y-212418692D01*
X62744377Y-212095997D01*
X62993816Y-211752672D01*
X63215550Y-211390835D01*
X63408211Y-211012716D01*
X63570612Y-210620647D01*
X63701750Y-210217045D01*
X63800818Y-209804398D01*
X63867204Y-209385250D01*
X63900500Y-208962186D01*
X63900500Y-208537814D01*
X69599500Y-208537814D01*
X69599500Y-208558097D01*
X69599500Y-208962186D01*
X69632796Y-209385250D01*
X69699182Y-209804398D01*
X69798250Y-210217045D01*
X69798254Y-210217056D01*
X69929385Y-210620641D01*
X69996000Y-210781463D01*
X70091789Y-211012716D01*
X70284450Y-211390835D01*
X70284457Y-211390848D01*
X70284460Y-211390853D01*
X70307375Y-211428246D01*
X70506184Y-211752672D01*
X70506192Y-211752683D01*
X70506198Y-211752692D01*
X70755617Y-212095989D01*
X70755627Y-212096003D01*
X70878919Y-212240358D01*
X71031231Y-212418692D01*
X71331308Y-212718769D01*
X71331314Y-212718774D01*
X71653996Y-212994372D01*
X71654010Y-212994382D01*
X71861749Y-213145313D01*
X71997328Y-213243816D01*
X72125685Y-213322473D01*
X72359146Y-213465539D01*
X72359151Y-213465542D01*
X72359156Y-213465544D01*
X72359165Y-213465550D01*
X72737284Y-213658211D01*
X73129353Y-213820612D01*
X73129358Y-213820614D01*
X73231979Y-213853957D01*
X73532955Y-213951750D01*
X73945602Y-214050818D01*
X74364750Y-214117204D01*
X74787814Y-214150500D01*
X74787822Y-214150500D01*
X75212178Y-214150500D01*
X75212186Y-214150500D01*
X75635250Y-214117204D01*
X76054398Y-214050818D01*
X76467045Y-213951750D01*
X76870647Y-213820612D01*
X77262716Y-213658211D01*
X77640835Y-213465550D01*
X78002672Y-213243816D01*
X78345997Y-212994377D01*
X78668692Y-212718769D01*
X78968769Y-212418692D01*
X79244377Y-212095997D01*
X79493816Y-211752672D01*
X79715550Y-211390835D01*
X79908211Y-211012716D01*
X80070612Y-210620647D01*
X80201750Y-210217045D01*
X80300818Y-209804398D01*
X80367204Y-209385250D01*
X80400500Y-208962186D01*
X80400500Y-208537814D01*
X86099500Y-208537814D01*
X86099500Y-208558097D01*
X86099500Y-208962186D01*
X86132796Y-209385250D01*
X86199182Y-209804398D01*
X86298250Y-210217045D01*
X86298254Y-210217056D01*
X86429385Y-210620641D01*
X86496000Y-210781463D01*
X86591789Y-211012716D01*
X86784450Y-211390835D01*
X86784457Y-211390848D01*
X86784460Y-211390853D01*
X86807375Y-211428246D01*
X87006184Y-211752672D01*
X87006192Y-211752683D01*
X87006198Y-211752692D01*
X87255617Y-212095989D01*
X87255627Y-212096003D01*
X87378919Y-212240358D01*
X87531231Y-212418692D01*
X87831308Y-212718769D01*
X87831314Y-212718774D01*
X88153996Y-212994372D01*
X88154010Y-212994382D01*
X88361749Y-213145313D01*
X88497328Y-213243816D01*
X88625685Y-213322473D01*
X88859146Y-213465539D01*
X88859151Y-213465542D01*
X88859156Y-213465544D01*
X88859165Y-213465550D01*
X89237284Y-213658211D01*
X89629353Y-213820612D01*
X89629358Y-213820614D01*
X89731979Y-213853957D01*
X90032955Y-213951750D01*
X90445602Y-214050818D01*
X90864750Y-214117204D01*
X91287814Y-214150500D01*
X91287822Y-214150500D01*
X91712178Y-214150500D01*
X91712186Y-214150500D01*
X92135250Y-214117204D01*
X92554398Y-214050818D01*
X92967045Y-213951750D01*
X93370647Y-213820612D01*
X93762716Y-213658211D01*
X94140835Y-213465550D01*
X94502672Y-213243816D01*
X94845997Y-212994377D01*
X95168692Y-212718769D01*
X95468769Y-212418692D01*
X95744377Y-212095997D01*
X95993816Y-211752672D01*
X96215550Y-211390835D01*
X96408211Y-211012716D01*
X96570612Y-210620647D01*
X96701750Y-210217045D01*
X96800818Y-209804398D01*
X96867204Y-209385250D01*
X96900500Y-208962186D01*
X96900500Y-208537814D01*
X96867204Y-208114750D01*
X96800818Y-207695602D01*
X96701750Y-207282955D01*
X96570612Y-206879353D01*
X96408211Y-206487284D01*
X96215550Y-206109165D01*
X96215544Y-206109156D01*
X96215542Y-206109151D01*
X96215539Y-206109146D01*
X95993823Y-205747340D01*
X95993816Y-205747328D01*
X95744377Y-205404003D01*
X95744372Y-205403996D01*
X95468774Y-205081314D01*
X95468769Y-205081308D01*
X95168692Y-204781231D01*
X95168685Y-204781225D01*
X94846003Y-204505627D01*
X94845989Y-204505617D01*
X94502692Y-204256198D01*
X94502683Y-204256192D01*
X94502672Y-204256184D01*
X94502659Y-204256176D01*
X94140853Y-204034460D01*
X94140848Y-204034457D01*
X94140838Y-204034452D01*
X94140835Y-204034450D01*
X93762716Y-203841789D01*
X93762702Y-203841783D01*
X93370641Y-203679385D01*
X93083478Y-203586081D01*
X92967045Y-203548250D01*
X92554398Y-203449182D01*
X92135250Y-203382796D01*
X91712191Y-203349500D01*
X91712186Y-203349500D01*
X91287814Y-203349500D01*
X91287808Y-203349500D01*
X90864749Y-203382796D01*
X90864748Y-203382796D01*
X90445607Y-203449181D01*
X90445604Y-203449181D01*
X90445602Y-203449182D01*
X90297817Y-203484661D01*
X90032966Y-203548247D01*
X90032960Y-203548248D01*
X90032955Y-203548250D01*
X90032943Y-203548254D01*
X89629358Y-203679385D01*
X89237297Y-203841783D01*
X89237284Y-203841789D01*
X88859151Y-204034457D01*
X88859146Y-204034460D01*
X88497340Y-204256176D01*
X88497307Y-204256198D01*
X88154010Y-204505617D01*
X88153996Y-204505627D01*
X87831314Y-204781225D01*
X87831300Y-204781238D01*
X87531238Y-205081300D01*
X87531225Y-205081314D01*
X87255627Y-205403996D01*
X87255617Y-205404010D01*
X87006198Y-205747307D01*
X87006176Y-205747340D01*
X86784460Y-206109146D01*
X86784457Y-206109151D01*
X86591789Y-206487284D01*
X86591783Y-206487297D01*
X86429385Y-206879358D01*
X86298254Y-207282943D01*
X86298247Y-207282966D01*
X86199181Y-207695607D01*
X86183000Y-207797774D01*
X86132796Y-208114750D01*
X86099500Y-208537814D01*
X80400500Y-208537814D01*
X80367204Y-208114750D01*
X80300818Y-207695602D01*
X80201750Y-207282955D01*
X80070612Y-206879353D01*
X79908211Y-206487284D01*
X79715550Y-206109165D01*
X79715544Y-206109156D01*
X79715542Y-206109151D01*
X79715539Y-206109146D01*
X79493823Y-205747340D01*
X79493816Y-205747328D01*
X79244377Y-205404003D01*
X79244372Y-205403996D01*
X78968774Y-205081314D01*
X78968769Y-205081308D01*
X78668692Y-204781231D01*
X78668685Y-204781225D01*
X78346003Y-204505627D01*
X78345989Y-204505617D01*
X78002692Y-204256198D01*
X78002683Y-204256192D01*
X78002672Y-204256184D01*
X78002659Y-204256176D01*
X77640853Y-204034460D01*
X77640848Y-204034457D01*
X77640838Y-204034452D01*
X77640835Y-204034450D01*
X77262716Y-203841789D01*
X77262702Y-203841783D01*
X76870641Y-203679385D01*
X76583478Y-203586081D01*
X76467045Y-203548250D01*
X76054398Y-203449182D01*
X75635250Y-203382796D01*
X75212191Y-203349500D01*
X75212186Y-203349500D01*
X74787814Y-203349500D01*
X74787808Y-203349500D01*
X74364749Y-203382796D01*
X74364748Y-203382796D01*
X73945607Y-203449181D01*
X73945604Y-203449181D01*
X73945602Y-203449182D01*
X73797817Y-203484661D01*
X73532966Y-203548247D01*
X73532960Y-203548248D01*
X73532955Y-203548250D01*
X73532943Y-203548254D01*
X73129358Y-203679385D01*
X72737297Y-203841783D01*
X72737284Y-203841789D01*
X72359151Y-204034457D01*
X72359146Y-204034460D01*
X71997340Y-204256176D01*
X71997307Y-204256198D01*
X71654010Y-204505617D01*
X71653996Y-204505627D01*
X71331314Y-204781225D01*
X71331300Y-204781238D01*
X71031238Y-205081300D01*
X71031225Y-205081314D01*
X70755627Y-205403996D01*
X70755617Y-205404010D01*
X70506198Y-205747307D01*
X70506176Y-205747340D01*
X70284460Y-206109146D01*
X70284457Y-206109151D01*
X70091789Y-206487284D01*
X70091783Y-206487297D01*
X69929385Y-206879358D01*
X69798254Y-207282943D01*
X69798247Y-207282966D01*
X69699181Y-207695607D01*
X69683000Y-207797774D01*
X69632796Y-208114750D01*
X69599500Y-208537814D01*
X63900500Y-208537814D01*
X63867204Y-208114750D01*
X63800818Y-207695602D01*
X63701750Y-207282955D01*
X63570612Y-206879353D01*
X63408211Y-206487284D01*
X63215550Y-206109165D01*
X63215544Y-206109156D01*
X63215542Y-206109151D01*
X63215539Y-206109146D01*
X62993823Y-205747340D01*
X62993816Y-205747328D01*
X62744377Y-205404003D01*
X62744372Y-205403996D01*
X62468774Y-205081314D01*
X62468769Y-205081308D01*
X62168692Y-204781231D01*
X62168685Y-204781225D01*
X61846003Y-204505627D01*
X61845989Y-204505617D01*
X61502692Y-204256198D01*
X61502683Y-204256192D01*
X61502672Y-204256184D01*
X61502659Y-204256176D01*
X61140853Y-204034460D01*
X61140848Y-204034457D01*
X61140838Y-204034452D01*
X61140835Y-204034450D01*
X60762716Y-203841789D01*
X60762702Y-203841783D01*
X60370641Y-203679385D01*
X60083478Y-203586081D01*
X59967045Y-203548250D01*
X59554398Y-203449182D01*
X59135250Y-203382796D01*
X58712191Y-203349500D01*
X58712186Y-203349500D01*
X58287814Y-203349500D01*
X58287808Y-203349500D01*
X57864749Y-203382796D01*
X57864748Y-203382796D01*
X57445607Y-203449181D01*
X57445604Y-203449181D01*
X57445602Y-203449182D01*
X57297817Y-203484661D01*
X57032966Y-203548247D01*
X57032960Y-203548248D01*
X57032955Y-203548250D01*
X57032943Y-203548254D01*
X56629358Y-203679385D01*
X56237297Y-203841783D01*
X56237284Y-203841789D01*
X55859151Y-204034457D01*
X55859146Y-204034460D01*
X55497340Y-204256176D01*
X55497307Y-204256198D01*
X55154010Y-204505617D01*
X55153996Y-204505627D01*
X54831314Y-204781225D01*
X54831300Y-204781238D01*
X54531238Y-205081300D01*
X54531225Y-205081314D01*
X54255627Y-205403996D01*
X54255617Y-205404010D01*
X54006198Y-205747307D01*
X54006176Y-205747340D01*
X53784460Y-206109146D01*
X53784457Y-206109151D01*
X53591789Y-206487284D01*
X53591783Y-206487297D01*
X53429385Y-206879358D01*
X53298254Y-207282943D01*
X53298247Y-207282966D01*
X53199181Y-207695607D01*
X53183000Y-207797774D01*
X53132796Y-208114750D01*
X53099500Y-208537814D01*
X50500500Y-208537814D01*
X50500500Y-190037814D01*
X53099500Y-190037814D01*
X53099500Y-190058097D01*
X53099500Y-190462186D01*
X53132796Y-190885250D01*
X53199182Y-191304398D01*
X53298250Y-191717045D01*
X53298254Y-191717056D01*
X53429385Y-192120641D01*
X53496000Y-192281463D01*
X53591789Y-192512716D01*
X53784450Y-192890835D01*
X53784457Y-192890848D01*
X53784460Y-192890853D01*
X53807375Y-192928246D01*
X54006184Y-193252672D01*
X54006192Y-193252683D01*
X54006198Y-193252692D01*
X54255617Y-193595989D01*
X54255627Y-193596003D01*
X54378919Y-193740358D01*
X54531231Y-193918692D01*
X54831308Y-194218769D01*
X54831314Y-194218774D01*
X55153996Y-194494372D01*
X55154010Y-194494382D01*
X55361749Y-194645313D01*
X55497328Y-194743816D01*
X55625685Y-194822473D01*
X55859146Y-194965539D01*
X55859151Y-194965542D01*
X55859156Y-194965544D01*
X55859165Y-194965550D01*
X56237284Y-195158211D01*
X56629353Y-195320612D01*
X56629358Y-195320614D01*
X56731979Y-195353957D01*
X57032955Y-195451750D01*
X57445602Y-195550818D01*
X57864750Y-195617204D01*
X58287814Y-195650500D01*
X58287822Y-195650500D01*
X58712178Y-195650500D01*
X58712186Y-195650500D01*
X59135250Y-195617204D01*
X59554398Y-195550818D01*
X59967045Y-195451750D01*
X60370647Y-195320612D01*
X60762716Y-195158211D01*
X61140835Y-194965550D01*
X61502672Y-194743816D01*
X61845997Y-194494377D01*
X62168692Y-194218769D01*
X62468769Y-193918692D01*
X62744377Y-193595997D01*
X62993816Y-193252672D01*
X63215550Y-192890835D01*
X63408211Y-192512716D01*
X63570612Y-192120647D01*
X63701750Y-191717045D01*
X63800818Y-191304398D01*
X63867204Y-190885250D01*
X63900500Y-190462186D01*
X63900500Y-190037814D01*
X69599500Y-190037814D01*
X69599500Y-190058097D01*
X69599500Y-190462186D01*
X69632796Y-190885250D01*
X69699182Y-191304398D01*
X69798250Y-191717045D01*
X69798254Y-191717056D01*
X69929385Y-192120641D01*
X69996000Y-192281463D01*
X70091789Y-192512716D01*
X70284450Y-192890835D01*
X70284457Y-192890848D01*
X70284460Y-192890853D01*
X70307375Y-192928246D01*
X70506184Y-193252672D01*
X70506192Y-193252683D01*
X70506198Y-193252692D01*
X70755617Y-193595989D01*
X70755627Y-193596003D01*
X70878919Y-193740358D01*
X71031231Y-193918692D01*
X71331308Y-194218769D01*
X71331314Y-194218774D01*
X71653996Y-194494372D01*
X71654010Y-194494382D01*
X71861749Y-194645313D01*
X71997328Y-194743816D01*
X72125685Y-194822473D01*
X72359146Y-194965539D01*
X72359151Y-194965542D01*
X72359156Y-194965544D01*
X72359165Y-194965550D01*
X72737284Y-195158211D01*
X73129353Y-195320612D01*
X73129358Y-195320614D01*
X73231979Y-195353957D01*
X73532955Y-195451750D01*
X73945602Y-195550818D01*
X74364750Y-195617204D01*
X74787814Y-195650500D01*
X74787822Y-195650500D01*
X75212178Y-195650500D01*
X75212186Y-195650500D01*
X75635250Y-195617204D01*
X76054398Y-195550818D01*
X76467045Y-195451750D01*
X76870647Y-195320612D01*
X77262716Y-195158211D01*
X77640835Y-194965550D01*
X78002672Y-194743816D01*
X78345997Y-194494377D01*
X78668692Y-194218769D01*
X78968769Y-193918692D01*
X79244377Y-193595997D01*
X79493816Y-193252672D01*
X79715550Y-192890835D01*
X79908211Y-192512716D01*
X80070612Y-192120647D01*
X80201750Y-191717045D01*
X80300818Y-191304398D01*
X80367204Y-190885250D01*
X80400500Y-190462186D01*
X80400500Y-190037814D01*
X86099500Y-190037814D01*
X86099500Y-190058097D01*
X86099500Y-190462186D01*
X86132796Y-190885250D01*
X86199182Y-191304398D01*
X86298250Y-191717045D01*
X86298254Y-191717056D01*
X86429385Y-192120641D01*
X86496000Y-192281463D01*
X86591789Y-192512716D01*
X86784450Y-192890835D01*
X86784457Y-192890848D01*
X86784460Y-192890853D01*
X86807375Y-192928246D01*
X87006184Y-193252672D01*
X87006192Y-193252683D01*
X87006198Y-193252692D01*
X87255617Y-193595989D01*
X87255627Y-193596003D01*
X87378919Y-193740358D01*
X87531231Y-193918692D01*
X87831308Y-194218769D01*
X87831314Y-194218774D01*
X88153996Y-194494372D01*
X88154010Y-194494382D01*
X88361749Y-194645313D01*
X88497328Y-194743816D01*
X88625685Y-194822473D01*
X88859146Y-194965539D01*
X88859151Y-194965542D01*
X88859156Y-194965544D01*
X88859165Y-194965550D01*
X89237284Y-195158211D01*
X89629353Y-195320612D01*
X89629358Y-195320614D01*
X89731979Y-195353957D01*
X90032955Y-195451750D01*
X90445602Y-195550818D01*
X90864750Y-195617204D01*
X91287814Y-195650500D01*
X91287822Y-195650500D01*
X91712178Y-195650500D01*
X91712186Y-195650500D01*
X92135250Y-195617204D01*
X92554398Y-195550818D01*
X92967045Y-195451750D01*
X93370647Y-195320612D01*
X93762716Y-195158211D01*
X94140835Y-194965550D01*
X94502672Y-194743816D01*
X94845997Y-194494377D01*
X95168692Y-194218769D01*
X95468769Y-193918692D01*
X95744377Y-193595997D01*
X95993816Y-193252672D01*
X96215550Y-192890835D01*
X96408211Y-192512716D01*
X96570612Y-192120647D01*
X96701750Y-191717045D01*
X96800818Y-191304398D01*
X96867204Y-190885250D01*
X96900500Y-190462186D01*
X96900500Y-190037814D01*
X96867204Y-189614750D01*
X96800818Y-189195602D01*
X96701750Y-188782955D01*
X96570612Y-188379353D01*
X96408211Y-187987284D01*
X96215550Y-187609165D01*
X96215544Y-187609156D01*
X96215542Y-187609151D01*
X96215539Y-187609146D01*
X95993823Y-187247340D01*
X95993816Y-187247328D01*
X95744377Y-186904003D01*
X95744372Y-186903996D01*
X95468774Y-186581314D01*
X95468769Y-186581308D01*
X95168692Y-186281231D01*
X95168685Y-186281225D01*
X94846003Y-186005627D01*
X94845989Y-186005617D01*
X94502692Y-185756198D01*
X94502683Y-185756192D01*
X94502672Y-185756184D01*
X94502659Y-185756176D01*
X94140853Y-185534460D01*
X94140848Y-185534457D01*
X94140838Y-185534452D01*
X94140835Y-185534450D01*
X93762716Y-185341789D01*
X93762702Y-185341783D01*
X93370641Y-185179385D01*
X93083478Y-185086081D01*
X92967045Y-185048250D01*
X92554398Y-184949182D01*
X92135250Y-184882796D01*
X91712191Y-184849500D01*
X91712186Y-184849500D01*
X91287814Y-184849500D01*
X91287808Y-184849500D01*
X90864749Y-184882796D01*
X90864748Y-184882796D01*
X90445607Y-184949181D01*
X90445604Y-184949181D01*
X90445602Y-184949182D01*
X90297817Y-184984661D01*
X90032966Y-185048247D01*
X90032960Y-185048248D01*
X90032955Y-185048250D01*
X90032943Y-185048254D01*
X89629358Y-185179385D01*
X89237297Y-185341783D01*
X89237284Y-185341789D01*
X88859151Y-185534457D01*
X88859146Y-185534460D01*
X88497340Y-185756176D01*
X88497307Y-185756198D01*
X88154010Y-186005617D01*
X88153996Y-186005627D01*
X87831314Y-186281225D01*
X87831300Y-186281238D01*
X87531238Y-186581300D01*
X87531225Y-186581314D01*
X87255627Y-186903996D01*
X87255617Y-186904010D01*
X87006198Y-187247307D01*
X87006176Y-187247340D01*
X86784460Y-187609146D01*
X86784457Y-187609151D01*
X86591789Y-187987284D01*
X86591783Y-187987297D01*
X86429385Y-188379358D01*
X86298254Y-188782943D01*
X86298247Y-188782966D01*
X86199181Y-189195607D01*
X86183000Y-189297774D01*
X86132796Y-189614750D01*
X86099500Y-190037814D01*
X80400500Y-190037814D01*
X80367204Y-189614750D01*
X80300818Y-189195602D01*
X80201750Y-188782955D01*
X80070612Y-188379353D01*
X79908211Y-187987284D01*
X79715550Y-187609165D01*
X79715544Y-187609156D01*
X79715542Y-187609151D01*
X79715539Y-187609146D01*
X79493823Y-187247340D01*
X79493816Y-187247328D01*
X79244377Y-186904003D01*
X79244372Y-186903996D01*
X78968774Y-186581314D01*
X78968769Y-186581308D01*
X78668692Y-186281231D01*
X78668685Y-186281225D01*
X78346003Y-186005627D01*
X78345989Y-186005617D01*
X78002692Y-185756198D01*
X78002683Y-185756192D01*
X78002672Y-185756184D01*
X78002659Y-185756176D01*
X77640853Y-185534460D01*
X77640848Y-185534457D01*
X77640838Y-185534452D01*
X77640835Y-185534450D01*
X77262716Y-185341789D01*
X77262702Y-185341783D01*
X76870641Y-185179385D01*
X76583478Y-185086081D01*
X76467045Y-185048250D01*
X76054398Y-184949182D01*
X75635250Y-184882796D01*
X75212191Y-184849500D01*
X75212186Y-184849500D01*
X74787814Y-184849500D01*
X74787808Y-184849500D01*
X74364749Y-184882796D01*
X74364748Y-184882796D01*
X73945607Y-184949181D01*
X73945604Y-184949181D01*
X73945602Y-184949182D01*
X73797817Y-184984661D01*
X73532966Y-185048247D01*
X73532960Y-185048248D01*
X73532955Y-185048250D01*
X73532943Y-185048254D01*
X73129358Y-185179385D01*
X72737297Y-185341783D01*
X72737284Y-185341789D01*
X72359151Y-185534457D01*
X72359146Y-185534460D01*
X71997340Y-185756176D01*
X71997307Y-185756198D01*
X71654010Y-186005617D01*
X71653996Y-186005627D01*
X71331314Y-186281225D01*
X71331300Y-186281238D01*
X71031238Y-186581300D01*
X71031225Y-186581314D01*
X70755627Y-186903996D01*
X70755617Y-186904010D01*
X70506198Y-187247307D01*
X70506176Y-187247340D01*
X70284460Y-187609146D01*
X70284457Y-187609151D01*
X70091789Y-187987284D01*
X70091783Y-187987297D01*
X69929385Y-188379358D01*
X69798254Y-188782943D01*
X69798247Y-188782966D01*
X69699181Y-189195607D01*
X69683000Y-189297774D01*
X69632796Y-189614750D01*
X69599500Y-190037814D01*
X63900500Y-190037814D01*
X63867204Y-189614750D01*
X63800818Y-189195602D01*
X63701750Y-188782955D01*
X63570612Y-188379353D01*
X63408211Y-187987284D01*
X63215550Y-187609165D01*
X63215544Y-187609156D01*
X63215542Y-187609151D01*
X63215539Y-187609146D01*
X62993823Y-187247340D01*
X62993816Y-187247328D01*
X62744377Y-186904003D01*
X62744372Y-186903996D01*
X62468774Y-186581314D01*
X62468769Y-186581308D01*
X62168692Y-186281231D01*
X62168685Y-186281225D01*
X61846003Y-186005627D01*
X61845989Y-186005617D01*
X61502692Y-185756198D01*
X61502683Y-185756192D01*
X61502672Y-185756184D01*
X61502659Y-185756176D01*
X61140853Y-185534460D01*
X61140848Y-185534457D01*
X61140838Y-185534452D01*
X61140835Y-185534450D01*
X60762716Y-185341789D01*
X60762702Y-185341783D01*
X60370641Y-185179385D01*
X60083478Y-185086081D01*
X59967045Y-185048250D01*
X59554398Y-184949182D01*
X59135250Y-184882796D01*
X58712191Y-184849500D01*
X58712186Y-184849500D01*
X58287814Y-184849500D01*
X58287808Y-184849500D01*
X57864749Y-184882796D01*
X57864748Y-184882796D01*
X57445607Y-184949181D01*
X57445604Y-184949181D01*
X57445602Y-184949182D01*
X57297817Y-184984661D01*
X57032966Y-185048247D01*
X57032960Y-185048248D01*
X57032955Y-185048250D01*
X57032943Y-185048254D01*
X56629358Y-185179385D01*
X56237297Y-185341783D01*
X56237284Y-185341789D01*
X55859151Y-185534457D01*
X55859146Y-185534460D01*
X55497340Y-185756176D01*
X55497307Y-185756198D01*
X55154010Y-186005617D01*
X55153996Y-186005627D01*
X54831314Y-186281225D01*
X54831300Y-186281238D01*
X54531238Y-186581300D01*
X54531225Y-186581314D01*
X54255627Y-186903996D01*
X54255617Y-186904010D01*
X54006198Y-187247307D01*
X54006176Y-187247340D01*
X53784460Y-187609146D01*
X53784457Y-187609151D01*
X53591789Y-187987284D01*
X53591783Y-187987297D01*
X53429385Y-188379358D01*
X53298254Y-188782943D01*
X53298247Y-188782966D01*
X53199181Y-189195607D01*
X53183000Y-189297774D01*
X53132796Y-189614750D01*
X53099500Y-190037814D01*
X50500500Y-190037814D01*
X50500500Y-171537814D01*
X53099500Y-171537814D01*
X53099500Y-171558097D01*
X53099500Y-171962186D01*
X53132796Y-172385250D01*
X53199182Y-172804398D01*
X53298250Y-173217045D01*
X53298254Y-173217056D01*
X53429385Y-173620641D01*
X53496000Y-173781463D01*
X53591789Y-174012716D01*
X53784450Y-174390835D01*
X53784457Y-174390848D01*
X53784460Y-174390853D01*
X53807375Y-174428246D01*
X54006184Y-174752672D01*
X54006192Y-174752683D01*
X54006198Y-174752692D01*
X54255617Y-175095989D01*
X54255627Y-175096003D01*
X54378919Y-175240358D01*
X54531231Y-175418692D01*
X54831308Y-175718769D01*
X54831314Y-175718774D01*
X55153996Y-175994372D01*
X55154010Y-175994382D01*
X55361749Y-176145313D01*
X55497328Y-176243816D01*
X55625685Y-176322473D01*
X55859146Y-176465539D01*
X55859151Y-176465542D01*
X55859156Y-176465544D01*
X55859165Y-176465550D01*
X56237284Y-176658211D01*
X56629353Y-176820612D01*
X56629358Y-176820614D01*
X56731979Y-176853957D01*
X57032955Y-176951750D01*
X57445602Y-177050818D01*
X57864750Y-177117204D01*
X58287814Y-177150500D01*
X58287822Y-177150500D01*
X58712178Y-177150500D01*
X58712186Y-177150500D01*
X59135250Y-177117204D01*
X59554398Y-177050818D01*
X59967045Y-176951750D01*
X60370647Y-176820612D01*
X60762716Y-176658211D01*
X61140835Y-176465550D01*
X61502672Y-176243816D01*
X61845997Y-175994377D01*
X62168692Y-175718769D01*
X62468769Y-175418692D01*
X62744377Y-175095997D01*
X62993816Y-174752672D01*
X63215550Y-174390835D01*
X63408211Y-174012716D01*
X63570612Y-173620647D01*
X63701750Y-173217045D01*
X63800818Y-172804398D01*
X63867204Y-172385250D01*
X63900500Y-171962186D01*
X63900500Y-171537814D01*
X69599500Y-171537814D01*
X69599500Y-171558097D01*
X69599500Y-171962186D01*
X69632796Y-172385250D01*
X69699182Y-172804398D01*
X69798250Y-173217045D01*
X69798254Y-173217056D01*
X69929385Y-173620641D01*
X69996000Y-173781463D01*
X70091789Y-174012716D01*
X70284450Y-174390835D01*
X70284457Y-174390848D01*
X70284460Y-174390853D01*
X70307375Y-174428246D01*
X70506184Y-174752672D01*
X70506192Y-174752683D01*
X70506198Y-174752692D01*
X70755617Y-175095989D01*
X70755627Y-175096003D01*
X70878919Y-175240358D01*
X71031231Y-175418692D01*
X71331308Y-175718769D01*
X71331314Y-175718774D01*
X71653996Y-175994372D01*
X71654010Y-175994382D01*
X71861749Y-176145313D01*
X71997328Y-176243816D01*
X72125685Y-176322473D01*
X72359146Y-176465539D01*
X72359151Y-176465542D01*
X72359156Y-176465544D01*
X72359165Y-176465550D01*
X72737284Y-176658211D01*
X73129353Y-176820612D01*
X73129358Y-176820614D01*
X73231979Y-176853957D01*
X73532955Y-176951750D01*
X73945602Y-177050818D01*
X74364750Y-177117204D01*
X74787814Y-177150500D01*
X74787822Y-177150500D01*
X75212178Y-177150500D01*
X75212186Y-177150500D01*
X75635250Y-177117204D01*
X76054398Y-177050818D01*
X76467045Y-176951750D01*
X76870647Y-176820612D01*
X77262716Y-176658211D01*
X77640835Y-176465550D01*
X78002672Y-176243816D01*
X78345997Y-175994377D01*
X78668692Y-175718769D01*
X78968769Y-175418692D01*
X79244377Y-175095997D01*
X79493816Y-174752672D01*
X79715550Y-174390835D01*
X79908211Y-174012716D01*
X80070612Y-173620647D01*
X80201750Y-173217045D01*
X80300818Y-172804398D01*
X80367204Y-172385250D01*
X80400500Y-171962186D01*
X80400500Y-171537814D01*
X86099500Y-171537814D01*
X86099500Y-171558097D01*
X86099500Y-171962186D01*
X86132796Y-172385250D01*
X86199182Y-172804398D01*
X86298250Y-173217045D01*
X86298254Y-173217056D01*
X86429385Y-173620641D01*
X86496000Y-173781463D01*
X86591789Y-174012716D01*
X86784450Y-174390835D01*
X86784457Y-174390848D01*
X86784460Y-174390853D01*
X86807375Y-174428246D01*
X87006184Y-174752672D01*
X87006192Y-174752683D01*
X87006198Y-174752692D01*
X87255617Y-175095989D01*
X87255627Y-175096003D01*
X87378919Y-175240358D01*
X87531231Y-175418692D01*
X87831308Y-175718769D01*
X87831314Y-175718774D01*
X88153996Y-175994372D01*
X88154010Y-175994382D01*
X88361749Y-176145313D01*
X88497328Y-176243816D01*
X88625685Y-176322473D01*
X88859146Y-176465539D01*
X88859151Y-176465542D01*
X88859156Y-176465544D01*
X88859165Y-176465550D01*
X89237284Y-176658211D01*
X89629353Y-176820612D01*
X89629358Y-176820614D01*
X89731979Y-176853957D01*
X90032955Y-176951750D01*
X90445602Y-177050818D01*
X90864750Y-177117204D01*
X91287814Y-177150500D01*
X91287822Y-177150500D01*
X91712178Y-177150500D01*
X91712186Y-177150500D01*
X92135250Y-177117204D01*
X92554398Y-177050818D01*
X92967045Y-176951750D01*
X93370647Y-176820612D01*
X93762716Y-176658211D01*
X94140835Y-176465550D01*
X94502672Y-176243816D01*
X94845997Y-175994377D01*
X95168692Y-175718769D01*
X95468769Y-175418692D01*
X95744377Y-175095997D01*
X95993816Y-174752672D01*
X96215550Y-174390835D01*
X96408211Y-174012716D01*
X96570612Y-173620647D01*
X96701750Y-173217045D01*
X96800818Y-172804398D01*
X96867204Y-172385250D01*
X96900500Y-171962186D01*
X96900500Y-171537814D01*
X96867204Y-171114750D01*
X96800818Y-170695602D01*
X96701750Y-170282955D01*
X96570612Y-169879353D01*
X96408211Y-169487284D01*
X96215550Y-169109165D01*
X96215544Y-169109156D01*
X96215542Y-169109151D01*
X96215539Y-169109146D01*
X95993823Y-168747340D01*
X95993816Y-168747328D01*
X95744377Y-168404003D01*
X95744372Y-168403996D01*
X95468774Y-168081314D01*
X95468769Y-168081308D01*
X95168692Y-167781231D01*
X95168685Y-167781225D01*
X94846003Y-167505627D01*
X94845989Y-167505617D01*
X94502692Y-167256198D01*
X94502683Y-167256192D01*
X94502672Y-167256184D01*
X94502659Y-167256176D01*
X94140853Y-167034460D01*
X94140848Y-167034457D01*
X94140838Y-167034452D01*
X94140835Y-167034450D01*
X93762716Y-166841789D01*
X93762702Y-166841783D01*
X93370641Y-166679385D01*
X93083478Y-166586081D01*
X92967045Y-166548250D01*
X92554398Y-166449182D01*
X92135250Y-166382796D01*
X91712191Y-166349500D01*
X91712186Y-166349500D01*
X91287814Y-166349500D01*
X91287808Y-166349500D01*
X90864749Y-166382796D01*
X90864748Y-166382796D01*
X90445607Y-166449181D01*
X90445604Y-166449181D01*
X90445602Y-166449182D01*
X90297817Y-166484661D01*
X90032966Y-166548247D01*
X90032960Y-166548248D01*
X90032955Y-166548250D01*
X90032943Y-166548254D01*
X89629358Y-166679385D01*
X89237297Y-166841783D01*
X89237284Y-166841789D01*
X88859151Y-167034457D01*
X88859146Y-167034460D01*
X88497340Y-167256176D01*
X88497307Y-167256198D01*
X88154010Y-167505617D01*
X88153996Y-167505627D01*
X87831314Y-167781225D01*
X87831300Y-167781238D01*
X87531238Y-168081300D01*
X87531225Y-168081314D01*
X87255627Y-168403996D01*
X87255617Y-168404010D01*
X87006198Y-168747307D01*
X87006176Y-168747340D01*
X86784460Y-169109146D01*
X86784457Y-169109151D01*
X86591789Y-169487284D01*
X86591783Y-169487297D01*
X86429385Y-169879358D01*
X86298254Y-170282943D01*
X86298247Y-170282966D01*
X86199181Y-170695607D01*
X86183000Y-170797774D01*
X86132796Y-171114750D01*
X86099500Y-171537814D01*
X80400500Y-171537814D01*
X80367204Y-171114750D01*
X80300818Y-170695602D01*
X80201750Y-170282955D01*
X80070612Y-169879353D01*
X79908211Y-169487284D01*
X79715550Y-169109165D01*
X79715544Y-169109156D01*
X79715542Y-169109151D01*
X79715539Y-169109146D01*
X79493823Y-168747340D01*
X79493816Y-168747328D01*
X79244377Y-168404003D01*
X79244372Y-168403996D01*
X78968774Y-168081314D01*
X78968769Y-168081308D01*
X78668692Y-167781231D01*
X78668685Y-167781225D01*
X78346003Y-167505627D01*
X78345989Y-167505617D01*
X78002692Y-167256198D01*
X78002683Y-167256192D01*
X78002672Y-167256184D01*
X78002659Y-167256176D01*
X77640853Y-167034460D01*
X77640848Y-167034457D01*
X77640838Y-167034452D01*
X77640835Y-167034450D01*
X77262716Y-166841789D01*
X77262702Y-166841783D01*
X76870641Y-166679385D01*
X76583478Y-166586081D01*
X76467045Y-166548250D01*
X76054398Y-166449182D01*
X75635250Y-166382796D01*
X75212191Y-166349500D01*
X75212186Y-166349500D01*
X74787814Y-166349500D01*
X74787808Y-166349500D01*
X74364749Y-166382796D01*
X74364748Y-166382796D01*
X73945607Y-166449181D01*
X73945604Y-166449181D01*
X73945602Y-166449182D01*
X73797817Y-166484661D01*
X73532966Y-166548247D01*
X73532960Y-166548248D01*
X73532955Y-166548250D01*
X73532943Y-166548254D01*
X73129358Y-166679385D01*
X72737297Y-166841783D01*
X72737284Y-166841789D01*
X72359151Y-167034457D01*
X72359146Y-167034460D01*
X71997340Y-167256176D01*
X71997307Y-167256198D01*
X71654010Y-167505617D01*
X71653996Y-167505627D01*
X71331314Y-167781225D01*
X71331300Y-167781238D01*
X71031238Y-168081300D01*
X71031225Y-168081314D01*
X70755627Y-168403996D01*
X70755617Y-168404010D01*
X70506198Y-168747307D01*
X70506176Y-168747340D01*
X70284460Y-169109146D01*
X70284457Y-169109151D01*
X70091789Y-169487284D01*
X70091783Y-169487297D01*
X69929385Y-169879358D01*
X69798254Y-170282943D01*
X69798247Y-170282966D01*
X69699181Y-170695607D01*
X69683000Y-170797774D01*
X69632796Y-171114750D01*
X69599500Y-171537814D01*
X63900500Y-171537814D01*
X63867204Y-171114750D01*
X63800818Y-170695602D01*
X63701750Y-170282955D01*
X63570612Y-169879353D01*
X63408211Y-169487284D01*
X63215550Y-169109165D01*
X63215544Y-169109156D01*
X63215542Y-169109151D01*
X63215539Y-169109146D01*
X62993823Y-168747340D01*
X62993816Y-168747328D01*
X62744377Y-168404003D01*
X62744372Y-168403996D01*
X62468774Y-168081314D01*
X62468769Y-168081308D01*
X62168692Y-167781231D01*
X62168685Y-167781225D01*
X61846003Y-167505627D01*
X61845989Y-167505617D01*
X61502692Y-167256198D01*
X61502683Y-167256192D01*
X61502672Y-167256184D01*
X61502659Y-167256176D01*
X61140853Y-167034460D01*
X61140848Y-167034457D01*
X61140838Y-167034452D01*
X61140835Y-167034450D01*
X60762716Y-166841789D01*
X60762702Y-166841783D01*
X60370641Y-166679385D01*
X60083478Y-166586081D01*
X59967045Y-166548250D01*
X59554398Y-166449182D01*
X59135250Y-166382796D01*
X58712191Y-166349500D01*
X58712186Y-166349500D01*
X58287814Y-166349500D01*
X58287808Y-166349500D01*
X57864749Y-166382796D01*
X57864748Y-166382796D01*
X57445607Y-166449181D01*
X57445604Y-166449181D01*
X57445602Y-166449182D01*
X57297817Y-166484661D01*
X57032966Y-166548247D01*
X57032960Y-166548248D01*
X57032955Y-166548250D01*
X57032943Y-166548254D01*
X56629358Y-166679385D01*
X56237297Y-166841783D01*
X56237284Y-166841789D01*
X55859151Y-167034457D01*
X55859146Y-167034460D01*
X55497340Y-167256176D01*
X55497307Y-167256198D01*
X55154010Y-167505617D01*
X55153996Y-167505627D01*
X54831314Y-167781225D01*
X54831300Y-167781238D01*
X54531238Y-168081300D01*
X54531225Y-168081314D01*
X54255627Y-168403996D01*
X54255617Y-168404010D01*
X54006198Y-168747307D01*
X54006176Y-168747340D01*
X53784460Y-169109146D01*
X53784457Y-169109151D01*
X53591789Y-169487284D01*
X53591783Y-169487297D01*
X53429385Y-169879358D01*
X53298254Y-170282943D01*
X53298247Y-170282966D01*
X53199181Y-170695607D01*
X53183000Y-170797774D01*
X53132796Y-171114750D01*
X53099500Y-171537814D01*
X50500500Y-171537814D01*
X50500500Y-148781669D01*
X57749500Y-148781669D01*
X57749500Y-149218330D01*
X57787557Y-149653320D01*
X57787557Y-149653324D01*
X57863379Y-150083327D01*
X57863383Y-150083344D01*
X57976392Y-150505105D01*
X58125740Y-150915434D01*
X58125746Y-150915449D01*
X58310272Y-151311164D01*
X58310280Y-151311180D01*
X58463739Y-151576978D01*
X58528603Y-151689326D01*
X58528607Y-151689332D01*
X58528614Y-151689343D01*
X58779057Y-152047013D01*
X58921784Y-152217107D01*
X59059732Y-152381507D01*
X59368493Y-152690268D01*
X59458395Y-152765705D01*
X59702986Y-152970942D01*
X60060656Y-153221385D01*
X60060663Y-153221389D01*
X60060674Y-153221397D01*
X60438826Y-153439723D01*
X60438835Y-153439727D01*
X60834550Y-153624253D01*
X60834555Y-153624255D01*
X60834568Y-153624261D01*
X61244888Y-153773605D01*
X61244889Y-153773605D01*
X61244894Y-153773607D01*
X61377398Y-153809110D01*
X61666663Y-153886619D01*
X62096682Y-153962443D01*
X62531671Y-154000499D01*
X62531672Y-154000500D01*
X62531673Y-154000500D01*
X62968328Y-154000500D01*
X62968328Y-154000499D01*
X63403318Y-153962443D01*
X63833337Y-153886619D01*
X64255112Y-153773605D01*
X64665432Y-153624261D01*
X65061174Y-153439723D01*
X65439326Y-153221397D01*
X65797012Y-152970943D01*
X66131507Y-152690268D01*
X66440268Y-152381507D01*
X66720943Y-152047012D01*
X66971397Y-151689326D01*
X67189723Y-151311174D01*
X67374261Y-150915432D01*
X67523605Y-150505112D01*
X67636619Y-150083337D01*
X67712443Y-149653318D01*
X67750500Y-149218327D01*
X67750500Y-148803471D01*
X83249500Y-148803471D01*
X83249500Y-149196528D01*
X83288026Y-149587702D01*
X83364704Y-149973194D01*
X83364707Y-149973205D01*
X83478810Y-150349354D01*
X83629230Y-150712499D01*
X83629232Y-150712504D01*
X83814511Y-151059137D01*
X83814522Y-151059155D01*
X84032887Y-151385960D01*
X84032897Y-151385974D01*
X84282254Y-151689817D01*
X84560182Y-151967745D01*
X84560187Y-151967749D01*
X84560188Y-151967750D01*
X84864031Y-152217107D01*
X85190851Y-152435482D01*
X85190860Y-152435487D01*
X85190862Y-152435488D01*
X85537495Y-152620767D01*
X85537497Y-152620767D01*
X85537503Y-152620771D01*
X85900647Y-152771190D01*
X86276785Y-152885290D01*
X86276791Y-152885291D01*
X86276794Y-152885292D01*
X86276805Y-152885295D01*
X86633329Y-152956211D01*
X86662297Y-152961973D01*
X87053468Y-153000500D01*
X87053471Y-153000500D01*
X87446529Y-153000500D01*
X87446532Y-153000500D01*
X87837703Y-152961973D01*
X87912748Y-152947045D01*
X88223194Y-152885295D01*
X88223205Y-152885292D01*
X88223205Y-152885291D01*
X88223215Y-152885290D01*
X88599353Y-152771190D01*
X88962497Y-152620771D01*
X89309149Y-152435482D01*
X89635969Y-152217107D01*
X89939812Y-151967750D01*
X90217750Y-151689812D01*
X90467107Y-151385969D01*
X90685482Y-151059149D01*
X90870771Y-150712497D01*
X91021190Y-150349353D01*
X91135290Y-149973215D01*
X91135292Y-149973205D01*
X91135295Y-149973194D01*
X91211973Y-149587702D01*
X91250500Y-149196528D01*
X91250500Y-148803471D01*
X91211973Y-148412297D01*
X91135295Y-148026805D01*
X91135292Y-148026794D01*
X91135291Y-148026791D01*
X91135290Y-148026785D01*
X91021190Y-147650647D01*
X90870771Y-147287503D01*
X90858355Y-147264275D01*
X90685488Y-146940862D01*
X90685487Y-146940860D01*
X90685482Y-146940851D01*
X90467107Y-146614031D01*
X90217750Y-146310188D01*
X90217749Y-146310187D01*
X90217745Y-146310182D01*
X89939817Y-146032254D01*
X89635974Y-145782897D01*
X89635973Y-145782896D01*
X89635969Y-145782893D01*
X89309149Y-145564518D01*
X89309144Y-145564515D01*
X89309137Y-145564511D01*
X88962504Y-145379232D01*
X88962499Y-145379230D01*
X88599354Y-145228810D01*
X88223205Y-145114707D01*
X88223194Y-145114704D01*
X87837702Y-145038026D01*
X87543089Y-145009010D01*
X87446532Y-144999500D01*
X87053468Y-144999500D01*
X86964251Y-145008287D01*
X86662297Y-145038026D01*
X86276805Y-145114704D01*
X86276794Y-145114707D01*
X85900645Y-145228810D01*
X85537500Y-145379230D01*
X85537495Y-145379232D01*
X85190862Y-145564511D01*
X85190844Y-145564522D01*
X84864039Y-145782887D01*
X84864025Y-145782897D01*
X84560182Y-146032254D01*
X84282254Y-146310182D01*
X84032897Y-146614025D01*
X84032887Y-146614039D01*
X83814522Y-146940844D01*
X83814511Y-146940862D01*
X83629232Y-147287495D01*
X83629230Y-147287500D01*
X83478810Y-147650645D01*
X83364707Y-148026794D01*
X83364704Y-148026805D01*
X83288026Y-148412297D01*
X83249500Y-148803471D01*
X67750500Y-148803471D01*
X67750500Y-148781673D01*
X67712443Y-148346682D01*
X67636619Y-147916663D01*
X67523605Y-147494888D01*
X67374261Y-147084568D01*
X67307244Y-146940851D01*
X67189727Y-146688835D01*
X67189719Y-146688819D01*
X67176013Y-146665080D01*
X66971397Y-146310674D01*
X66971389Y-146310663D01*
X66971385Y-146310656D01*
X66720942Y-145952986D01*
X66440265Y-145618490D01*
X66131509Y-145309734D01*
X65797013Y-145029057D01*
X65439343Y-144778614D01*
X65439332Y-144778607D01*
X65439326Y-144778603D01*
X65326978Y-144713739D01*
X65061180Y-144560280D01*
X65061164Y-144560272D01*
X64665449Y-144375746D01*
X64665434Y-144375740D01*
X64665432Y-144375739D01*
X64511301Y-144319640D01*
X64255105Y-144226392D01*
X63833344Y-144113383D01*
X63833347Y-144113383D01*
X63833337Y-144113381D01*
X63833331Y-144113379D01*
X63833327Y-144113379D01*
X63403322Y-144037557D01*
X62968330Y-143999500D01*
X62968327Y-143999500D01*
X62531673Y-143999500D01*
X62531669Y-143999500D01*
X62096679Y-144037557D01*
X62096675Y-144037557D01*
X61666672Y-144113379D01*
X61666655Y-144113383D01*
X61244894Y-144226392D01*
X60834565Y-144375740D01*
X60834550Y-144375746D01*
X60438835Y-144560272D01*
X60438819Y-144560280D01*
X60060682Y-144778598D01*
X60060656Y-144778614D01*
X59702986Y-145029057D01*
X59368490Y-145309734D01*
X59059734Y-145618490D01*
X58779057Y-145952986D01*
X58528614Y-146310656D01*
X58528598Y-146310682D01*
X58310280Y-146688819D01*
X58310272Y-146688835D01*
X58125746Y-147084550D01*
X58125740Y-147084565D01*
X57976392Y-147494894D01*
X57863383Y-147916655D01*
X57863379Y-147916672D01*
X57787557Y-148346675D01*
X57787557Y-148346679D01*
X57749500Y-148781669D01*
X50500500Y-148781669D01*
X50500500Y-118781669D01*
X57749500Y-118781669D01*
X57749500Y-119218330D01*
X57787557Y-119653320D01*
X57787557Y-119653324D01*
X57863379Y-120083327D01*
X57863383Y-120083344D01*
X57976392Y-120505105D01*
X58125740Y-120915434D01*
X58125746Y-120915449D01*
X58310272Y-121311164D01*
X58310277Y-121311174D01*
X58528603Y-121689326D01*
X58528607Y-121689332D01*
X58528614Y-121689343D01*
X58779057Y-122047013D01*
X58981930Y-122288787D01*
X59059732Y-122381507D01*
X59368493Y-122690268D01*
X59458395Y-122765705D01*
X59702986Y-122970942D01*
X60060656Y-123221385D01*
X60060663Y-123221389D01*
X60060674Y-123221397D01*
X60438826Y-123439723D01*
X60438835Y-123439727D01*
X60834550Y-123624253D01*
X60834555Y-123624255D01*
X60834568Y-123624261D01*
X61244888Y-123773605D01*
X61244889Y-123773605D01*
X61244894Y-123773607D01*
X61377398Y-123809110D01*
X61666663Y-123886619D01*
X62096682Y-123962443D01*
X62531671Y-124000499D01*
X62531672Y-124000500D01*
X62531673Y-124000500D01*
X62968328Y-124000500D01*
X62968328Y-124000499D01*
X63403318Y-123962443D01*
X63833337Y-123886619D01*
X64255112Y-123773605D01*
X64665432Y-123624261D01*
X65061174Y-123439723D01*
X65439326Y-123221397D01*
X65797012Y-122970943D01*
X66131507Y-122690268D01*
X66440268Y-122381507D01*
X66720943Y-122047012D01*
X66971397Y-121689326D01*
X67189723Y-121311174D01*
X67374261Y-120915432D01*
X67523605Y-120505112D01*
X67636619Y-120083337D01*
X67712443Y-119653318D01*
X67750500Y-119218327D01*
X67750500Y-118781673D01*
X67712443Y-118346682D01*
X67636619Y-117916663D01*
X67523605Y-117494888D01*
X67482515Y-117381995D01*
X85449500Y-117381995D01*
X85449500Y-117618004D01*
X85449501Y-117618020D01*
X85480306Y-117852010D01*
X85541394Y-118079993D01*
X85631714Y-118298045D01*
X85631719Y-118298056D01*
X85659794Y-118346682D01*
X85749727Y-118502450D01*
X85749729Y-118502453D01*
X85749730Y-118502454D01*
X85893406Y-118689697D01*
X85893412Y-118689704D01*
X86060295Y-118856587D01*
X86060301Y-118856592D01*
X86247550Y-119000273D01*
X86378918Y-119076118D01*
X86451943Y-119118280D01*
X86451948Y-119118282D01*
X86451951Y-119118284D01*
X86670007Y-119208606D01*
X86897986Y-119269693D01*
X87131989Y-119300500D01*
X87131996Y-119300500D01*
X87368004Y-119300500D01*
X87368011Y-119300500D01*
X87602014Y-119269693D01*
X87829993Y-119208606D01*
X88048049Y-119118284D01*
X88252450Y-119000273D01*
X88439699Y-118856592D01*
X88606592Y-118689699D01*
X88750273Y-118502450D01*
X88868284Y-118298049D01*
X88958606Y-118079993D01*
X89019693Y-117852014D01*
X89050500Y-117618011D01*
X89050500Y-117381989D01*
X89019693Y-117147986D01*
X88958606Y-116920007D01*
X88868284Y-116701951D01*
X88868282Y-116701948D01*
X88868280Y-116701943D01*
X88819527Y-116617501D01*
X88750273Y-116497550D01*
X88609507Y-116314100D01*
X88606593Y-116310302D01*
X88606587Y-116310295D01*
X88439704Y-116143412D01*
X88439697Y-116143406D01*
X88252454Y-115999730D01*
X88252453Y-115999729D01*
X88252450Y-115999727D01*
X88170957Y-115952677D01*
X88048056Y-115881719D01*
X88048045Y-115881714D01*
X87829993Y-115791394D01*
X87602010Y-115730306D01*
X87368020Y-115699501D01*
X87368017Y-115699500D01*
X87368011Y-115699500D01*
X87131989Y-115699500D01*
X87131983Y-115699500D01*
X87131979Y-115699501D01*
X86897989Y-115730306D01*
X86670006Y-115791394D01*
X86451954Y-115881714D01*
X86451943Y-115881719D01*
X86247545Y-115999730D01*
X86060302Y-116143406D01*
X86060295Y-116143412D01*
X85893412Y-116310295D01*
X85893406Y-116310302D01*
X85749730Y-116497545D01*
X85631719Y-116701943D01*
X85631714Y-116701954D01*
X85541394Y-116920006D01*
X85480306Y-117147989D01*
X85449501Y-117381979D01*
X85449500Y-117381995D01*
X67482515Y-117381995D01*
X67374261Y-117084568D01*
X67189723Y-116688826D01*
X66971397Y-116310674D01*
X66971389Y-116310663D01*
X66971385Y-116310656D01*
X66720942Y-115952986D01*
X66440265Y-115618490D01*
X66131509Y-115309734D01*
X65797013Y-115029057D01*
X65439343Y-114778614D01*
X65439332Y-114778607D01*
X65439326Y-114778603D01*
X65326978Y-114713739D01*
X65061180Y-114560280D01*
X65061164Y-114560272D01*
X64665449Y-114375746D01*
X64665434Y-114375740D01*
X64665432Y-114375739D01*
X64511301Y-114319640D01*
X64255105Y-114226392D01*
X63833344Y-114113383D01*
X63833347Y-114113383D01*
X63833337Y-114113381D01*
X63833331Y-114113379D01*
X63833327Y-114113379D01*
X63403322Y-114037557D01*
X62968330Y-113999500D01*
X62968327Y-113999500D01*
X62531673Y-113999500D01*
X62531669Y-113999500D01*
X62096679Y-114037557D01*
X62096675Y-114037557D01*
X61666672Y-114113379D01*
X61666655Y-114113383D01*
X61244894Y-114226392D01*
X60834565Y-114375740D01*
X60834550Y-114375746D01*
X60438835Y-114560272D01*
X60438819Y-114560280D01*
X60060682Y-114778598D01*
X60060656Y-114778614D01*
X59702986Y-115029057D01*
X59368490Y-115309734D01*
X59059734Y-115618490D01*
X58779057Y-115952986D01*
X58528614Y-116310656D01*
X58528598Y-116310682D01*
X58310280Y-116688819D01*
X58310272Y-116688835D01*
X58125746Y-117084550D01*
X58125740Y-117084565D01*
X57976392Y-117494894D01*
X57863383Y-117916655D01*
X57863379Y-117916672D01*
X57787557Y-118346675D01*
X57787557Y-118346679D01*
X57749500Y-118781669D01*
X50500500Y-118781669D01*
X50500500Y-103027303D01*
X82149500Y-103027303D01*
X82149500Y-103472696D01*
X82188318Y-103916385D01*
X82188318Y-103916389D01*
X82246455Y-104246097D01*
X82265658Y-104355002D01*
X82380933Y-104785211D01*
X82380936Y-104785221D01*
X82380937Y-104785222D01*
X82533260Y-105203731D01*
X82721486Y-105607383D01*
X82721491Y-105607392D01*
X82944184Y-105993107D01*
X82944188Y-105993113D01*
X82944195Y-105993124D01*
X83199646Y-106357947D01*
X83406578Y-106604557D01*
X83485935Y-106699131D01*
X83800869Y-107014065D01*
X83915033Y-107109860D01*
X84142052Y-107300353D01*
X84506875Y-107555804D01*
X84506882Y-107555808D01*
X84506893Y-107555816D01*
X84868382Y-107764522D01*
X84892601Y-107778505D01*
X84892616Y-107778513D01*
X85296268Y-107966739D01*
X85489826Y-108037187D01*
X85714789Y-108119067D01*
X86144998Y-108234342D01*
X86583617Y-108311682D01*
X87027305Y-108350499D01*
X87027306Y-108350500D01*
X87027307Y-108350500D01*
X87472694Y-108350500D01*
X87472694Y-108350499D01*
X87916383Y-108311682D01*
X88355002Y-108234342D01*
X88785211Y-108119067D01*
X89203736Y-107966737D01*
X89607392Y-107778509D01*
X89993107Y-107555816D01*
X90357946Y-107300354D01*
X90699131Y-107014065D01*
X91014065Y-106699131D01*
X91300354Y-106357946D01*
X91555816Y-105993107D01*
X91778509Y-105607392D01*
X91966737Y-105203736D01*
X92119067Y-104785211D01*
X92234342Y-104355002D01*
X92311682Y-103916383D01*
X92350500Y-103472693D01*
X92350500Y-103027307D01*
X92311682Y-102583617D01*
X92234342Y-102144998D01*
X92119067Y-101714789D01*
X92037187Y-101489826D01*
X91966739Y-101296268D01*
X91778513Y-100892616D01*
X91778505Y-100892601D01*
X91729621Y-100807931D01*
X91555816Y-100506893D01*
X91555808Y-100506882D01*
X91555804Y-100506875D01*
X91300353Y-100142052D01*
X91014062Y-99800866D01*
X90699133Y-99485937D01*
X90357947Y-99199646D01*
X89993124Y-98944195D01*
X89993113Y-98944188D01*
X89993107Y-98944184D01*
X89878509Y-98878020D01*
X89607398Y-98721494D01*
X89607383Y-98721486D01*
X89203731Y-98533260D01*
X88785222Y-98380937D01*
X88785221Y-98380936D01*
X88785211Y-98380933D01*
X88470278Y-98296546D01*
X88355003Y-98265658D01*
X88354992Y-98265656D01*
X87916387Y-98188318D01*
X87472696Y-98149500D01*
X87472693Y-98149500D01*
X87027307Y-98149500D01*
X87027303Y-98149500D01*
X86583614Y-98188318D01*
X86583610Y-98188318D01*
X86145007Y-98265656D01*
X86144996Y-98265658D01*
X85914446Y-98327434D01*
X85714789Y-98380933D01*
X85714782Y-98380935D01*
X85714777Y-98380937D01*
X85296268Y-98533260D01*
X84892616Y-98721486D01*
X84892601Y-98721494D01*
X84506901Y-98944179D01*
X84506875Y-98944195D01*
X84142052Y-99199646D01*
X83800866Y-99485937D01*
X83485937Y-99800866D01*
X83199646Y-100142052D01*
X82944195Y-100506875D01*
X82944179Y-100506901D01*
X82721494Y-100892601D01*
X82721486Y-100892616D01*
X82533260Y-101296268D01*
X82380937Y-101714777D01*
X82380933Y-101714789D01*
X82327434Y-101914446D01*
X82265658Y-102144996D01*
X82265656Y-102145007D01*
X82188318Y-102583610D01*
X82188318Y-102583614D01*
X82149500Y-103027303D01*
X50500500Y-103027303D01*
X50500500Y-85781669D01*
X57749500Y-85781669D01*
X57749500Y-86218330D01*
X57787557Y-86653320D01*
X57787557Y-86653324D01*
X57863379Y-87083327D01*
X57863383Y-87083344D01*
X57976392Y-87505105D01*
X58125740Y-87915434D01*
X58125746Y-87915449D01*
X58310272Y-88311164D01*
X58310280Y-88311180D01*
X58463739Y-88576978D01*
X58528603Y-88689326D01*
X58528607Y-88689332D01*
X58528614Y-88689343D01*
X58779057Y-89047013D01*
X58981930Y-89288787D01*
X59059732Y-89381507D01*
X59368493Y-89690268D01*
X59496941Y-89798049D01*
X59702986Y-89970942D01*
X60060656Y-90221385D01*
X60060663Y-90221389D01*
X60060674Y-90221397D01*
X60438826Y-90439723D01*
X60438835Y-90439727D01*
X60834550Y-90624253D01*
X60834555Y-90624255D01*
X60834568Y-90624261D01*
X61244888Y-90773605D01*
X61244889Y-90773605D01*
X61244894Y-90773607D01*
X61377398Y-90809110D01*
X61666663Y-90886619D01*
X62096682Y-90962443D01*
X62531671Y-91000499D01*
X62531672Y-91000500D01*
X62531673Y-91000500D01*
X62968328Y-91000500D01*
X62968328Y-91000499D01*
X63403318Y-90962443D01*
X63833337Y-90886619D01*
X64255112Y-90773605D01*
X64665432Y-90624261D01*
X65061174Y-90439723D01*
X65439326Y-90221397D01*
X65797012Y-89970943D01*
X66131507Y-89690268D01*
X66440268Y-89381507D01*
X66720943Y-89047012D01*
X66836489Y-88881995D01*
X85449500Y-88881995D01*
X85449500Y-89118004D01*
X85449501Y-89118020D01*
X85480306Y-89352010D01*
X85541394Y-89579993D01*
X85631714Y-89798045D01*
X85631719Y-89798056D01*
X85702677Y-89920957D01*
X85749727Y-90002450D01*
X85749729Y-90002453D01*
X85749730Y-90002454D01*
X85893406Y-90189697D01*
X85893412Y-90189704D01*
X86060295Y-90356587D01*
X86060301Y-90356592D01*
X86247550Y-90500273D01*
X86378918Y-90576118D01*
X86451943Y-90618280D01*
X86451948Y-90618282D01*
X86451951Y-90618284D01*
X86670007Y-90708606D01*
X86897986Y-90769693D01*
X87131989Y-90800500D01*
X87131996Y-90800500D01*
X87368004Y-90800500D01*
X87368011Y-90800500D01*
X87602014Y-90769693D01*
X87829993Y-90708606D01*
X88048049Y-90618284D01*
X88252450Y-90500273D01*
X88439699Y-90356592D01*
X88606592Y-90189699D01*
X88750273Y-90002450D01*
X88868284Y-89798049D01*
X88958606Y-89579993D01*
X89019693Y-89352014D01*
X89050500Y-89118011D01*
X89050500Y-88881989D01*
X89019693Y-88647986D01*
X88958606Y-88420007D01*
X88868284Y-88201951D01*
X88868282Y-88201948D01*
X88868280Y-88201943D01*
X88826118Y-88128918D01*
X88750273Y-87997550D01*
X88606592Y-87810301D01*
X88606587Y-87810295D01*
X88439704Y-87643412D01*
X88439697Y-87643406D01*
X88252454Y-87499730D01*
X88252453Y-87499729D01*
X88252450Y-87499727D01*
X88170957Y-87452677D01*
X88048056Y-87381719D01*
X88048045Y-87381714D01*
X87829993Y-87291394D01*
X87602010Y-87230306D01*
X87368020Y-87199501D01*
X87368017Y-87199500D01*
X87368011Y-87199500D01*
X87131989Y-87199500D01*
X87131983Y-87199500D01*
X87131979Y-87199501D01*
X86897989Y-87230306D01*
X86670006Y-87291394D01*
X86451954Y-87381714D01*
X86451943Y-87381719D01*
X86247545Y-87499730D01*
X86060302Y-87643406D01*
X86060295Y-87643412D01*
X85893412Y-87810295D01*
X85893406Y-87810302D01*
X85749730Y-87997545D01*
X85631719Y-88201943D01*
X85631714Y-88201954D01*
X85541394Y-88420006D01*
X85480306Y-88647989D01*
X85449501Y-88881979D01*
X85449500Y-88881995D01*
X66836489Y-88881995D01*
X66971397Y-88689326D01*
X67189723Y-88311174D01*
X67374261Y-87915432D01*
X67523605Y-87505112D01*
X67636619Y-87083337D01*
X67712443Y-86653318D01*
X67750500Y-86218327D01*
X67750500Y-85781673D01*
X67712443Y-85346682D01*
X67636619Y-84916663D01*
X67523605Y-84494888D01*
X67374261Y-84084568D01*
X67189723Y-83688826D01*
X66971397Y-83310674D01*
X66971389Y-83310663D01*
X66971385Y-83310656D01*
X66720942Y-82952986D01*
X66440265Y-82618490D01*
X66131509Y-82309734D01*
X65797013Y-82029057D01*
X65439343Y-81778614D01*
X65439332Y-81778607D01*
X65439326Y-81778603D01*
X65326978Y-81713739D01*
X65061180Y-81560280D01*
X65061164Y-81560272D01*
X64665449Y-81375746D01*
X64665434Y-81375740D01*
X64665432Y-81375739D01*
X64511301Y-81319640D01*
X64255105Y-81226392D01*
X63833344Y-81113383D01*
X63833347Y-81113383D01*
X63833337Y-81113381D01*
X63833331Y-81113379D01*
X63833327Y-81113379D01*
X63403322Y-81037557D01*
X62968330Y-80999500D01*
X62968327Y-80999500D01*
X62531673Y-80999500D01*
X62531669Y-80999500D01*
X62096679Y-81037557D01*
X62096675Y-81037557D01*
X61666672Y-81113379D01*
X61666655Y-81113383D01*
X61244894Y-81226392D01*
X60834565Y-81375740D01*
X60834550Y-81375746D01*
X60438835Y-81560272D01*
X60438819Y-81560280D01*
X60060682Y-81778598D01*
X60060656Y-81778614D01*
X59702986Y-82029057D01*
X59368490Y-82309734D01*
X59059734Y-82618490D01*
X58779057Y-82952986D01*
X58528614Y-83310656D01*
X58528598Y-83310682D01*
X58310280Y-83688819D01*
X58310272Y-83688835D01*
X58125746Y-84084550D01*
X58125740Y-84084565D01*
X57976392Y-84494894D01*
X57863383Y-84916655D01*
X57863379Y-84916672D01*
X57787557Y-85346675D01*
X57787557Y-85346679D01*
X57749500Y-85781669D01*
X50500500Y-85781669D01*
X50500500Y-55781669D01*
X57749500Y-55781669D01*
X57749500Y-56218330D01*
X57787557Y-56653320D01*
X57787557Y-56653324D01*
X57863379Y-57083327D01*
X57863383Y-57083344D01*
X57976392Y-57505105D01*
X58125740Y-57915434D01*
X58125746Y-57915449D01*
X58310272Y-58311164D01*
X58310280Y-58311180D01*
X58463739Y-58576978D01*
X58528603Y-58689326D01*
X58528607Y-58689332D01*
X58528614Y-58689343D01*
X58779057Y-59047013D01*
X58921784Y-59217107D01*
X59059732Y-59381507D01*
X59368493Y-59690268D01*
X59458395Y-59765705D01*
X59702986Y-59970942D01*
X60060656Y-60221385D01*
X60060663Y-60221389D01*
X60060674Y-60221397D01*
X60438826Y-60439723D01*
X60438835Y-60439727D01*
X60834550Y-60624253D01*
X60834555Y-60624255D01*
X60834568Y-60624261D01*
X61244888Y-60773605D01*
X61244889Y-60773605D01*
X61244894Y-60773607D01*
X61377398Y-60809110D01*
X61666663Y-60886619D01*
X62096682Y-60962443D01*
X62531671Y-61000499D01*
X62531672Y-61000500D01*
X62531673Y-61000500D01*
X62968328Y-61000500D01*
X62968328Y-61000499D01*
X63403318Y-60962443D01*
X63833337Y-60886619D01*
X64255112Y-60773605D01*
X64665432Y-60624261D01*
X65061174Y-60439723D01*
X65439326Y-60221397D01*
X65797012Y-59970943D01*
X66131507Y-59690268D01*
X66440268Y-59381507D01*
X66720943Y-59047012D01*
X66971397Y-58689326D01*
X67189723Y-58311174D01*
X67374261Y-57915432D01*
X67523605Y-57505112D01*
X67636619Y-57083337D01*
X67712443Y-56653318D01*
X67750500Y-56218327D01*
X67750500Y-55803471D01*
X83249500Y-55803471D01*
X83249500Y-56196528D01*
X83288026Y-56587702D01*
X83364704Y-56973194D01*
X83364707Y-56973205D01*
X83478810Y-57349354D01*
X83629230Y-57712499D01*
X83629232Y-57712504D01*
X83814511Y-58059137D01*
X83814522Y-58059155D01*
X84032887Y-58385960D01*
X84032897Y-58385974D01*
X84282254Y-58689817D01*
X84560182Y-58967745D01*
X84560187Y-58967749D01*
X84560188Y-58967750D01*
X84864031Y-59217107D01*
X85190851Y-59435482D01*
X85190860Y-59435487D01*
X85190862Y-59435488D01*
X85537495Y-59620767D01*
X85537497Y-59620767D01*
X85537503Y-59620771D01*
X85900647Y-59771190D01*
X86276785Y-59885290D01*
X86276791Y-59885291D01*
X86276794Y-59885292D01*
X86276805Y-59885295D01*
X86633329Y-59956211D01*
X86662297Y-59961973D01*
X87053468Y-60000500D01*
X87053471Y-60000500D01*
X87446529Y-60000500D01*
X87446532Y-60000500D01*
X87837703Y-59961973D01*
X87912748Y-59947045D01*
X88223194Y-59885295D01*
X88223205Y-59885292D01*
X88223205Y-59885291D01*
X88223215Y-59885290D01*
X88599353Y-59771190D01*
X88962497Y-59620771D01*
X89309149Y-59435482D01*
X89635969Y-59217107D01*
X89939812Y-58967750D01*
X90217750Y-58689812D01*
X90467107Y-58385969D01*
X90685482Y-58059149D01*
X90870771Y-57712497D01*
X91021190Y-57349353D01*
X91135290Y-56973215D01*
X91135292Y-56973205D01*
X91135295Y-56973194D01*
X91211973Y-56587702D01*
X91250500Y-56196528D01*
X91250500Y-55803471D01*
X91211973Y-55412297D01*
X91135295Y-55026805D01*
X91135292Y-55026794D01*
X91135291Y-55026791D01*
X91135290Y-55026785D01*
X91021190Y-54650647D01*
X90870771Y-54287503D01*
X90858355Y-54264275D01*
X90685488Y-53940862D01*
X90685487Y-53940860D01*
X90685482Y-53940851D01*
X90467107Y-53614031D01*
X90217750Y-53310188D01*
X90217749Y-53310187D01*
X90217745Y-53310182D01*
X89939817Y-53032254D01*
X89635974Y-52782897D01*
X89635973Y-52782896D01*
X89635969Y-52782893D01*
X89309149Y-52564518D01*
X89309144Y-52564515D01*
X89309137Y-52564511D01*
X88962504Y-52379232D01*
X88962499Y-52379230D01*
X88599354Y-52228810D01*
X88223205Y-52114707D01*
X88223194Y-52114704D01*
X87837702Y-52038026D01*
X87543089Y-52009010D01*
X87446532Y-51999500D01*
X87053468Y-51999500D01*
X86964251Y-52008287D01*
X86662297Y-52038026D01*
X86276805Y-52114704D01*
X86276794Y-52114707D01*
X85900645Y-52228810D01*
X85537500Y-52379230D01*
X85537495Y-52379232D01*
X85190862Y-52564511D01*
X85190844Y-52564522D01*
X84864039Y-52782887D01*
X84864025Y-52782897D01*
X84560182Y-53032254D01*
X84282254Y-53310182D01*
X84032897Y-53614025D01*
X84032887Y-53614039D01*
X83814522Y-53940844D01*
X83814511Y-53940862D01*
X83629232Y-54287495D01*
X83629230Y-54287500D01*
X83478810Y-54650645D01*
X83364707Y-55026794D01*
X83364704Y-55026805D01*
X83288026Y-55412297D01*
X83249500Y-55803471D01*
X67750500Y-55803471D01*
X67750500Y-55781673D01*
X67712443Y-55346682D01*
X67636619Y-54916663D01*
X67523605Y-54494888D01*
X67374261Y-54084568D01*
X67307244Y-53940851D01*
X67189727Y-53688835D01*
X67189719Y-53688819D01*
X67176013Y-53665080D01*
X66971397Y-53310674D01*
X66971389Y-53310663D01*
X66971385Y-53310656D01*
X66720942Y-52952986D01*
X66440265Y-52618490D01*
X66131509Y-52309734D01*
X65797013Y-52029057D01*
X65439343Y-51778614D01*
X65439332Y-51778607D01*
X65439326Y-51778603D01*
X65326978Y-51713739D01*
X65061180Y-51560280D01*
X65061164Y-51560272D01*
X64665449Y-51375746D01*
X64665434Y-51375740D01*
X64665432Y-51375739D01*
X64511301Y-51319640D01*
X64255105Y-51226392D01*
X63833344Y-51113383D01*
X63833347Y-51113383D01*
X63833337Y-51113381D01*
X63833331Y-51113379D01*
X63833327Y-51113379D01*
X63403322Y-51037557D01*
X62968330Y-50999500D01*
X62968327Y-50999500D01*
X62531673Y-50999500D01*
X62531669Y-50999500D01*
X62096679Y-51037557D01*
X62096675Y-51037557D01*
X61666672Y-51113379D01*
X61666655Y-51113383D01*
X61244894Y-51226392D01*
X60834565Y-51375740D01*
X60834550Y-51375746D01*
X60438835Y-51560272D01*
X60438819Y-51560280D01*
X60060682Y-51778598D01*
X60060656Y-51778614D01*
X59702986Y-52029057D01*
X59368490Y-52309734D01*
X59059734Y-52618490D01*
X58779057Y-52952986D01*
X58528614Y-53310656D01*
X58528598Y-53310682D01*
X58310280Y-53688819D01*
X58310272Y-53688835D01*
X58125746Y-54084550D01*
X58125740Y-54084565D01*
X57976392Y-54494894D01*
X57863383Y-54916655D01*
X57863379Y-54916672D01*
X57787557Y-55346675D01*
X57787557Y-55346679D01*
X57749500Y-55781669D01*
X50500500Y-55781669D01*
X50500500Y-30624500D01*
X50520185Y-30557461D01*
X50572989Y-30511706D01*
X50624500Y-30500500D01*
X99375500Y-30500500D01*
X99442539Y-30520185D01*
G37*
%TD.AperFunction*%
%TD*%
M02*
