M48
; DRILL file KiCad 10.0.1 date 2026-06-20T13:45:03
; FORMAT={-:-/ absolute / metric / decimal}
; #@! TF.CreationDate,2026-06-20T13:45:03+02:00
; #@! TF.GenerationSoftware,Kicad,Pcbnew,10.0.1
; #@! TF.FileFunction,Plated,1,2,PTH
FMAT,2
METRIC
; #@! TA.AperFunction,Plated,PTH,ViaDrill
T1C0.300
; #@! TA.AperFunction,Plated,PTH,ComponentDrill
T2C0.600
; #@! TA.AperFunction,Plated,PTH,ComponentDrill
T3C0.800
; #@! TA.AperFunction,Plated,PTH,ComponentDrill
T4C1.000
; #@! TA.AperFunction,Plated,PTH,ComponentDrill
T5C1.100
%
G90
G05
T1
X58.9Y-141.0
X62.9Y-62.9
X66.4Y-59.4
X71.3Y-55.9
T2
X54.923Y-105.6
X56.423Y-105.6
X58.923Y-74.3
X60.423Y-74.3
X90.973Y-74.5
X92.473Y-74.5
X93.8Y-105.6
X95.3Y-105.6
T3
X52.79Y-124.1
X52.8Y-72.79
X52.8Y-80.41
X52.8Y-82.69
X52.8Y-90.31
X52.8Y-110.69
X52.8Y-118.31
X52.89Y-129.9
X52.9Y-94.29
X52.9Y-101.91
X55.8Y-72.79
X55.8Y-80.41
X55.8Y-82.69
X55.8Y-90.31
X55.8Y-110.69
X55.8Y-118.31
X55.9Y-94.29
X55.9Y-101.91
X56.0Y-54.59
X56.0Y-62.21
X57.3Y-64.26
X57.3Y-66.8
X57.3Y-69.34
X58.7Y-54.6
X58.7Y-59.6
X58.8Y-110.69
X58.8Y-118.31
X59.0Y-48.455
X59.0Y-50.455
X60.41Y-124.1
X60.51Y-129.9
X60.89Y-83.84
X60.89Y-86.38
X60.89Y-88.92
X60.89Y-91.46
X60.89Y-94.0
X60.89Y-96.54
X60.89Y-99.08
X60.89Y-104.7
X61.75Y-54.57
X61.75Y-57.11
X61.75Y-59.65
X61.75Y-61.67
X61.75Y-64.21
X61.75Y-66.75
X61.8Y-110.69
X61.8Y-118.31
X62.2Y-80.6
X62.2Y-101.9
X63.6Y-69.69
X63.6Y-77.31
X65.59Y-54.0
X65.59Y-57.0
X67.2Y-80.6
X67.2Y-101.9
X68.1Y-60.29
X68.1Y-67.91
X68.1Y-70.29
X68.1Y-77.91
X68.51Y-83.84
X68.51Y-86.38
X68.51Y-88.92
X68.51Y-91.46
X68.51Y-94.0
X68.51Y-96.54
X68.51Y-99.08
X68.51Y-104.7
X71.19Y-62.685
X71.19Y-65.225
X71.19Y-67.765
X71.19Y-70.305
X71.19Y-72.845
X71.19Y-75.385
X71.19Y-77.925
X71.3Y-80.75
X71.3Y-83.25
X71.6Y-86.39
X71.6Y-94.01
X71.6Y-96.19
X71.6Y-103.81
X72.5Y-59.7
X73.21Y-54.0
X73.21Y-57.0
X73.8Y-80.9
X74.6Y-86.39
X74.6Y-94.01
X74.6Y-96.19
X74.6Y-103.81
X76.79Y-54.0
X76.79Y-57.0
X77.1Y-83.19
X77.1Y-90.81
X77.5Y-59.7
X78.052Y-128.9
X78.09Y-133.9
X78.09Y-138.8
X78.1Y-143.7
X78.6Y-94.09
X78.6Y-101.71
X78.8Y-80.9
X78.81Y-62.685
X78.81Y-65.225
X78.81Y-67.765
X78.81Y-70.305
X78.81Y-72.845
X78.81Y-75.385
X78.81Y-77.925
X81.69Y-91.49
X81.69Y-94.03
X81.69Y-96.57
X81.69Y-99.11
X81.79Y-105.6
X81.9Y-60.29
X81.9Y-67.91
X81.9Y-70.29
X81.9Y-77.91
X82.96Y-83.795
X83.0Y-88.2
X83.0Y-102.4
X84.41Y-54.0
X84.41Y-57.0
X85.5Y-83.795
X85.672Y-128.9
X85.71Y-133.9
X85.71Y-138.8
X85.72Y-143.7
X86.4Y-69.69
X86.4Y-77.31
X88.0Y-88.2
X88.0Y-102.4
X88.04Y-83.795
X88.25Y-54.55
X88.25Y-57.09
X88.25Y-59.63
X88.3Y-110.69
X88.3Y-118.31
X88.35Y-62.25
X88.35Y-64.79
X88.35Y-67.33
X88.89Y-124.0
X88.89Y-129.8
X89.31Y-91.49
X89.31Y-94.03
X89.31Y-96.57
X89.31Y-99.11
X89.41Y-105.6
X90.1Y-48.545
X90.1Y-50.545
X91.3Y-54.6
X91.3Y-59.6
X91.3Y-110.69
X91.3Y-118.31
X92.75Y-64.37
X92.75Y-66.91
X92.75Y-69.45
X94.0Y-54.59
X94.0Y-62.21
X94.2Y-94.29
X94.2Y-101.91
X94.25Y-82.69
X94.25Y-90.31
X94.3Y-110.69
X94.3Y-118.31
X96.51Y-124.0
X96.51Y-129.8
X97.25Y-72.69
X97.25Y-80.31
X97.25Y-82.69
X97.25Y-90.31
X97.25Y-94.29
X97.25Y-101.91
X97.3Y-110.69
X97.3Y-118.31
T4
X52.75Y-52.0
X52.75Y-54.54
X52.75Y-57.08
X52.75Y-59.62
X52.75Y-62.16
X52.75Y-64.7
X52.75Y-144.0
X52.75Y-146.54
X52.75Y-149.08
X52.75Y-151.62
X52.75Y-154.16
X52.75Y-156.7
X52.9Y-136.1
X58.1Y-155.56
X58.1Y-158.1
X58.1Y-160.64
X61.8Y-155.56
X61.8Y-158.1
X61.8Y-160.64
X65.5Y-155.56
X65.5Y-158.1
X65.5Y-160.64
X67.96Y-108.03
X67.96Y-110.57
X67.96Y-121.23
X67.96Y-123.77
X67.96Y-134.43
X67.96Y-136.97
X67.96Y-147.63
X67.96Y-150.17
X69.92Y-46.212
X69.92Y-48.752
X70.5Y-108.03
X70.5Y-110.57
X70.5Y-121.23
X70.5Y-123.77
X70.5Y-134.43
X70.5Y-136.97
X70.5Y-147.63
X70.5Y-150.17
X72.46Y-46.212
X72.46Y-48.752
X73.04Y-108.03
X73.04Y-110.57
X73.04Y-121.23
X73.04Y-123.77
X73.04Y-134.43
X73.04Y-136.97
X73.04Y-147.63
X73.04Y-150.17
X74.42Y-157.347
X74.42Y-159.887
X75.0Y-46.212
X75.0Y-48.752
X76.96Y-157.347
X76.96Y-159.887
X77.54Y-46.212
X77.54Y-48.752
X79.5Y-157.347
X79.5Y-159.887
X80.08Y-46.212
X80.08Y-48.752
X82.04Y-157.347
X82.04Y-159.887
X84.58Y-157.347
X84.58Y-159.887
X93.5Y-155.56
X93.5Y-158.1
X93.5Y-160.64
X97.25Y-52.0
X97.25Y-54.54
X97.25Y-57.08
X97.25Y-59.62
X97.25Y-62.16
X97.25Y-64.7
X97.25Y-67.24
X97.25Y-69.78
X97.25Y-138.92
X97.25Y-141.46
X97.25Y-144.0
X97.25Y-146.54
X97.25Y-149.08
X97.25Y-151.62
X97.25Y-154.16
X97.25Y-156.7
T5
X52.42Y-44.5
X62.58Y-44.5
X87.42Y-44.5
X97.58Y-44.5
T4
G00X52.0Y-171.5
M15
G01X52.0Y-173.0
M16
G05
G00X52.0Y-190.0
M15
G01X52.0Y-191.5
M16
G05
G00X52.0Y-208.5
M15
G01X52.0Y-210.0
M16
G05
G00X55.25Y-178.25
M15
G01X56.75Y-178.25
M16
G05
G00X55.25Y-196.75
M15
G01X56.75Y-196.75
M16
G05
G00X55.25Y-215.25
M15
G01X56.75Y-215.25
M16
G05
G00X58.25Y-165.25
M15
G01X59.75Y-165.25
M16
G05
G00X58.25Y-183.75
M15
G01X59.75Y-183.75
M16
G05
G00X58.25Y-202.25
M15
G01X59.75Y-202.25
M16
G05
G00X63.626Y-175.816
M15
G01X62.566Y-176.876
M16
G05
G00X63.626Y-194.316
M15
G01X62.566Y-195.376
M16
G05
G00X63.626Y-212.816
M15
G01X62.566Y-213.876
M16
G05
G00X65.0Y-168.5
M15
G01X65.0Y-170.0
M16
G05
G00X65.0Y-187.0
M15
G01X65.0Y-188.5
M16
G05
G00X65.0Y-205.5
M15
G01X65.0Y-207.0
M16
G05
G00X68.5Y-171.5
M15
G01X68.5Y-173.0
M16
G05
G00X68.5Y-190.0
M15
G01X68.5Y-191.5
M16
G05
G00X68.5Y-208.5
M15
G01X68.5Y-210.0
M16
G05
G00X71.75Y-178.25
M15
G01X73.25Y-178.25
M16
G05
G00X71.75Y-196.75
M15
G01X73.25Y-196.75
M16
G05
G00X71.75Y-215.25
M15
G01X73.25Y-215.25
M16
G05
G00X74.75Y-165.25
M15
G01X76.25Y-165.25
M16
G05
G00X74.75Y-183.75
M15
G01X76.25Y-183.75
M16
G05
G00X74.75Y-202.25
M15
G01X76.25Y-202.25
M16
G05
G00X80.126Y-175.816
M15
G01X79.066Y-176.876
M16
G05
G00X80.126Y-194.316
M15
G01X79.066Y-195.376
M16
G05
G00X80.126Y-212.816
M15
G01X79.066Y-213.876
M16
G05
G00X81.5Y-168.5
M15
G01X81.5Y-170.0
M16
G05
G00X81.5Y-187.0
M15
G01X81.5Y-188.5
M16
G05
G00X81.5Y-205.5
M15
G01X81.5Y-207.0
M16
G05
G00X85.0Y-171.5
M15
G01X85.0Y-173.0
M16
G05
G00X85.0Y-190.0
M15
G01X85.0Y-191.5
M16
G05
G00X85.0Y-208.5
M15
G01X85.0Y-210.0
M16
G05
G00X88.25Y-178.25
M15
G01X89.75Y-178.25
M16
G05
G00X88.25Y-196.75
M15
G01X89.75Y-196.75
M16
G05
G00X88.25Y-215.25
M15
G01X89.75Y-215.25
M16
G05
G00X91.25Y-165.25
M15
G01X92.75Y-165.25
M16
G05
G00X91.25Y-183.75
M15
G01X92.75Y-183.75
M16
G05
G00X91.25Y-202.25
M15
G01X92.75Y-202.25
M16
G05
G00X96.626Y-175.816
M15
G01X95.566Y-176.876
M16
G05
G00X96.626Y-194.316
M15
G01X95.566Y-195.376
M16
G05
G00X96.626Y-212.816
M15
G01X95.566Y-213.876
M16
G05
G00X98.0Y-168.5
M15
G01X98.0Y-170.0
M16
G05
G00X98.0Y-187.0
M15
G01X98.0Y-188.5
M16
G05
G00X98.0Y-205.5
M15
G01X98.0Y-207.0
M16
G05
M30
